<svg width="266" height="276" viewBox="0 0 266 276" fill="none" xmlns="http://www.w3.org/2000/svg">
<g id="Property 1=Hover">
<g id="Box" filter="url(#filter0_d_4047_523)">
<rect width="266" height="276" rx="18" fill="url(#paint0_linear_4047_523)" shape-rendering="crispEdges"/>
<rect x="3.5" y="3.5" width="259" height="269" rx="14.5" stroke="url(#paint1_linear_4047_523)" stroke-width="7" shape-rendering="crispEdges"/>
<path id="Confira tamb&#195;&#169;m&#226;&#128;&#168;o aplicativo!&#194;&#160;" d="M77.7109 44.9307H79.3984C79.3105 45.7393 79.0791 46.4629 78.7041 47.1016C78.3291 47.7402 77.7988 48.2471 77.1133 48.6221C76.4277 48.9912 75.5723 49.1758 74.5469 49.1758C73.7969 49.1758 73.1143 49.0352 72.499 48.7539C71.8896 48.4727 71.3652 48.0742 70.9258 47.5586C70.4863 47.0371 70.1465 46.4131 69.9062 45.6865C69.6719 44.9541 69.5547 44.1396 69.5547 43.2432V41.9688C69.5547 41.0723 69.6719 40.2607 69.9062 39.5342C70.1465 38.8018 70.4893 38.1748 70.9346 37.6533C71.3857 37.1318 71.9277 36.7305 72.5605 36.4492C73.1934 36.168 73.9053 36.0273 74.6963 36.0273C75.6631 36.0273 76.4805 36.209 77.1484 36.5723C77.8164 36.9355 78.335 37.4395 78.7041 38.084C79.0791 38.7227 79.3105 39.4639 79.3984 40.3076H77.7109C77.6289 39.71 77.4766 39.1973 77.2539 38.7695C77.0312 38.3359 76.7148 38.002 76.3047 37.7676C75.8945 37.5332 75.3584 37.416 74.6963 37.416C74.1279 37.416 73.627 37.5244 73.1934 37.7412C72.7656 37.958 72.4053 38.2656 72.1123 38.6641C71.8252 39.0625 71.6084 39.54 71.4619 40.0967C71.3154 40.6533 71.2422 41.2715 71.2422 41.9512V43.2432C71.2422 43.8701 71.3066 44.459 71.4355 45.0098C71.5703 45.5605 71.7725 46.0439 72.042 46.46C72.3115 46.876 72.6543 47.2041 73.0703 47.4443C73.4863 47.6787 73.9785 47.7959 74.5469 47.7959C75.2676 47.7959 75.8418 47.6816 76.2695 47.4531C76.6973 47.2246 77.0195 46.8965 77.2363 46.4688C77.459 46.041 77.6172 45.5283 77.7109 44.9307ZM81.0332 44.3506V44.1484C81.0332 43.4629 81.1328 42.8271 81.332 42.2412C81.5312 41.6494 81.8184 41.1367 82.1934 40.7031C82.5684 40.2637 83.0225 39.9238 83.5557 39.6836C84.0889 39.4375 84.6865 39.3145 85.3486 39.3145C86.0166 39.3145 86.6172 39.4375 87.1504 39.6836C87.6895 39.9238 88.1465 40.2637 88.5215 40.7031C88.9023 41.1367 89.1924 41.6494 89.3916 42.2412C89.5908 42.8271 89.6904 43.4629 89.6904 44.1484V44.3506C89.6904 45.0361 89.5908 45.6719 89.3916 46.2578C89.1924 46.8438 88.9023 47.3564 88.5215 47.7959C88.1465 48.2295 87.6924 48.5693 87.1592 48.8154C86.6318 49.0557 86.0342 49.1758 85.3662 49.1758C84.6982 49.1758 84.0977 49.0557 83.5645 48.8154C83.0312 48.5693 82.5742 48.2295 82.1934 47.7959C81.8184 47.3564 81.5312 46.8438 81.332 46.2578C81.1328 45.6719 81.0332 45.0361 81.0332 44.3506ZM82.6592 44.1484V44.3506C82.6592 44.8252 82.7148 45.2734 82.8262 45.6953C82.9375 46.1113 83.1045 46.4805 83.3271 46.8027C83.5557 47.125 83.8398 47.3799 84.1797 47.5674C84.5195 47.749 84.915 47.8398 85.3662 47.8398C85.8115 47.8398 86.2012 47.749 86.5352 47.5674C86.875 47.3799 87.1562 47.125 87.3789 46.8027C87.6016 46.4805 87.7686 46.1113 87.8799 45.6953C87.9971 45.2734 88.0557 44.8252 88.0557 44.3506V44.1484C88.0557 43.6797 87.9971 43.2373 87.8799 42.8213C87.7686 42.3994 87.5986 42.0273 87.3701 41.7051C87.1475 41.377 86.8662 41.1191 86.5264 40.9316C86.1924 40.7441 85.7998 40.6504 85.3486 40.6504C84.9033 40.6504 84.5107 40.7441 84.1709 40.9316C83.8369 41.1191 83.5557 41.377 83.3271 41.7051C83.1045 42.0273 82.9375 42.3994 82.8262 42.8213C82.7148 43.2373 82.6592 43.6797 82.6592 44.1484ZM93.3555 41.5205V49H91.7295V39.4902H93.2676L93.3555 41.5205ZM92.9688 43.8848L92.292 43.8584C92.2979 43.208 92.3945 42.6074 92.582 42.0566C92.7695 41.5 93.0332 41.0166 93.373 40.6064C93.7129 40.1963 94.1172 39.8799 94.5859 39.6572C95.0605 39.4287 95.585 39.3145 96.1592 39.3145C96.6279 39.3145 97.0498 39.3789 97.4248 39.5078C97.7998 39.6309 98.1191 39.8301 98.3828 40.1055C98.6523 40.3809 98.8574 40.7383 98.998 41.1777C99.1387 41.6113 99.209 42.1416 99.209 42.7686V49H97.5742V42.751C97.5742 42.2529 97.501 41.8545 97.3545 41.5557C97.208 41.251 96.9941 41.0312 96.7129 40.8965C96.4316 40.7559 96.0859 40.6855 95.6758 40.6855C95.2715 40.6855 94.9023 40.7705 94.5684 40.9404C94.2402 41.1104 93.9561 41.3447 93.7158 41.6436C93.4814 41.9424 93.2969 42.2852 93.1621 42.6719C93.0332 43.0527 92.9688 43.457 92.9688 43.8848ZM103.85 49H102.224V38.6641C102.224 37.9434 102.364 37.334 102.646 36.8359C102.927 36.3379 103.328 35.96 103.85 35.7021C104.371 35.4443 104.989 35.3154 105.704 35.3154C106.126 35.3154 106.539 35.3682 106.943 35.4736C107.348 35.5732 107.764 35.6992 108.191 35.8516L107.919 37.2227C107.649 37.1172 107.336 37.0176 106.979 36.9238C106.627 36.8242 106.24 36.7744 105.818 36.7744C105.121 36.7744 104.617 36.9326 104.307 37.249C104.002 37.5596 103.85 38.0312 103.85 38.6641V49ZM105.792 39.4902V40.7383H100.721V39.4902H105.792ZM108.991 39.4902V49H107.365V39.4902H108.991ZM113.289 40.9844V49H111.663V39.4902H113.245L113.289 40.9844ZM116.26 39.4375L116.251 40.9492C116.116 40.9199 115.987 40.9023 115.864 40.8965C115.747 40.8848 115.612 40.8789 115.46 40.8789C115.085 40.8789 114.754 40.9375 114.467 41.0547C114.18 41.1719 113.937 41.3359 113.737 41.5469C113.538 41.7578 113.38 42.0098 113.263 42.3027C113.151 42.5898 113.078 42.9062 113.043 43.252L112.586 43.5156C112.586 42.9414 112.642 42.4023 112.753 41.8984C112.87 41.3945 113.049 40.9492 113.289 40.5625C113.529 40.1699 113.834 39.8652 114.203 39.6484C114.578 39.4258 115.023 39.3145 115.539 39.3145C115.656 39.3145 115.791 39.3291 115.943 39.3584C116.096 39.3818 116.201 39.4082 116.26 39.4375ZM123.019 47.374V42.4785C123.019 42.1035 122.942 41.7783 122.79 41.5029C122.644 41.2217 122.421 41.0049 122.122 40.8525C121.823 40.7002 121.454 40.624 121.015 40.624C120.604 40.624 120.244 40.6943 119.934 40.835C119.629 40.9756 119.389 41.1602 119.213 41.3887C119.043 41.6172 118.958 41.8633 118.958 42.127H117.332C117.332 41.7871 117.42 41.4502 117.596 41.1162C117.771 40.7822 118.023 40.4805 118.352 40.2109C118.686 39.9355 119.084 39.7188 119.547 39.5605C120.016 39.3965 120.537 39.3145 121.111 39.3145C121.803 39.3145 122.412 39.4316 122.939 39.666C123.473 39.9004 123.889 40.2549 124.188 40.7295C124.492 41.1982 124.645 41.7871 124.645 42.4961V46.9258C124.645 47.2422 124.671 47.5791 124.724 47.9365C124.782 48.2939 124.867 48.6016 124.979 48.8594V49H123.282C123.2 48.8125 123.136 48.5635 123.089 48.2529C123.042 47.9365 123.019 47.6436 123.019 47.374ZM123.3 43.2344L123.317 44.377H121.674C121.211 44.377 120.798 44.415 120.435 44.4912C120.071 44.5615 119.767 44.6699 119.521 44.8164C119.274 44.9629 119.087 45.1475 118.958 45.3701C118.829 45.5869 118.765 45.8418 118.765 46.1348C118.765 46.4336 118.832 46.7061 118.967 46.9521C119.102 47.1982 119.304 47.3945 119.573 47.541C119.849 47.6816 120.186 47.752 120.584 47.752C121.082 47.752 121.521 47.6465 121.902 47.4355C122.283 47.2246 122.585 46.9668 122.808 46.6621C123.036 46.3574 123.159 46.0615 123.177 45.7744L123.871 46.5566C123.83 46.8027 123.719 47.0752 123.537 47.374C123.355 47.6729 123.112 47.96 122.808 48.2354C122.509 48.5049 122.151 48.7305 121.735 48.9121C121.325 49.0879 120.862 49.1758 120.347 49.1758C119.702 49.1758 119.137 49.0498 118.65 48.7979C118.17 48.5459 117.795 48.209 117.525 47.7871C117.262 47.3594 117.13 46.8818 117.13 46.3545C117.13 45.8447 117.229 45.3965 117.429 45.0098C117.628 44.6172 117.915 44.292 118.29 44.0342C118.665 43.7705 119.116 43.5713 119.644 43.4365C120.171 43.3018 120.76 43.2344 121.41 43.2344H123.3ZM135.648 39.4902V40.7383H130.507V39.4902H135.648ZM132.247 37.1787H133.873V46.6445C133.873 46.9668 133.923 47.21 134.022 47.374C134.122 47.5381 134.251 47.6465 134.409 47.6992C134.567 47.752 134.737 47.7783 134.919 47.7783C135.054 47.7783 135.194 47.7666 135.341 47.7432C135.493 47.7139 135.607 47.6904 135.684 47.6729L135.692 49C135.563 49.041 135.394 49.0791 135.183 49.1143C134.978 49.1553 134.729 49.1758 134.436 49.1758C134.037 49.1758 133.671 49.0967 133.337 48.9385C133.003 48.7803 132.736 48.5166 132.537 48.1475C132.344 47.7725 132.247 47.2686 132.247 46.6357V37.1787ZM143.163 47.374V42.4785C143.163 42.1035 143.087 41.7783 142.935 41.5029C142.788 41.2217 142.565 41.0049 142.267 40.8525C141.968 40.7002 141.599 40.624 141.159 40.624C140.749 40.624 140.389 40.6943 140.078 40.835C139.773 40.9756 139.533 41.1602 139.357 41.3887C139.188 41.6172 139.103 41.8633 139.103 42.127H137.477C137.477 41.7871 137.564 41.4502 137.74 41.1162C137.916 40.7822 138.168 40.4805 138.496 40.2109C138.83 39.9355 139.229 39.7188 139.691 39.5605C140.16 39.3965 140.682 39.3145 141.256 39.3145C141.947 39.3145 142.557 39.4316 143.084 39.666C143.617 39.9004 144.033 40.2549 144.332 40.7295C144.637 41.1982 144.789 41.7871 144.789 42.4961V46.9258C144.789 47.2422 144.815 47.5791 144.868 47.9365C144.927 48.2939 145.012 48.6016 145.123 48.8594V49H143.427C143.345 48.8125 143.28 48.5635 143.233 48.2529C143.187 47.9365 143.163 47.6436 143.163 47.374ZM143.444 43.2344L143.462 44.377H141.818C141.355 44.377 140.942 44.415 140.579 44.4912C140.216 44.5615 139.911 44.6699 139.665 44.8164C139.419 44.9629 139.231 45.1475 139.103 45.3701C138.974 45.5869 138.909 45.8418 138.909 46.1348C138.909 46.4336 138.977 46.7061 139.111 46.9521C139.246 47.1982 139.448 47.3945 139.718 47.541C139.993 47.6816 140.33 47.752 140.729 47.752C141.227 47.752 141.666 47.6465 142.047 47.4355C142.428 47.2246 142.729 46.9668 142.952 46.6621C143.181 46.3574 143.304 46.0615 143.321 45.7744L144.016 46.5566C143.975 46.8027 143.863 47.0752 143.682 47.374C143.5 47.6729 143.257 47.96 142.952 48.2354C142.653 48.5049 142.296 48.7305 141.88 48.9121C141.47 49.0879 141.007 49.1758 140.491 49.1758C139.847 49.1758 139.281 49.0498 138.795 48.7979C138.314 48.5459 137.939 48.209 137.67 47.7871C137.406 47.3594 137.274 46.8818 137.274 46.3545C137.274 45.8447 137.374 45.3965 137.573 45.0098C137.772 44.6172 138.06 44.292 138.435 44.0342C138.81 43.7705 139.261 43.5713 139.788 43.4365C140.315 43.3018 140.904 43.2344 141.555 43.2344H143.444ZM148.964 41.3799V49H147.329V39.4902H148.876L148.964 41.3799ZM148.63 43.8848L147.874 43.8584C147.88 43.208 147.965 42.6074 148.129 42.0566C148.293 41.5 148.536 41.0166 148.858 40.6064C149.181 40.1963 149.582 39.8799 150.062 39.6572C150.543 39.4287 151.1 39.3145 151.732 39.3145C152.178 39.3145 152.588 39.3789 152.963 39.5078C153.338 39.6309 153.663 39.8271 153.938 40.0967C154.214 40.3662 154.428 40.7119 154.58 41.1338C154.732 41.5557 154.809 42.0654 154.809 42.6631V49H153.183V42.7422C153.183 42.2441 153.098 41.8457 152.928 41.5469C152.764 41.248 152.529 41.0312 152.225 40.8965C151.92 40.7559 151.562 40.6855 151.152 40.6855C150.672 40.6855 150.271 40.7705 149.948 40.9404C149.626 41.1104 149.368 41.3447 149.175 41.6436C148.981 41.9424 148.841 42.2852 148.753 42.6719C148.671 43.0527 148.63 43.457 148.63 43.8848ZM154.791 42.9883L153.701 43.3223C153.707 42.8008 153.792 42.2998 153.956 41.8193C154.126 41.3389 154.369 40.9111 154.686 40.5361C155.008 40.1611 155.403 39.8652 155.872 39.6484C156.341 39.4258 156.877 39.3145 157.48 39.3145C157.99 39.3145 158.441 39.3818 158.834 39.5166C159.232 39.6514 159.566 39.8594 159.836 40.1406C160.111 40.416 160.319 40.7705 160.46 41.2041C160.601 41.6377 160.671 42.1533 160.671 42.751V49H159.036V42.7334C159.036 42.2002 158.951 41.7871 158.781 41.4941C158.617 41.1953 158.383 40.9873 158.078 40.8701C157.779 40.7471 157.422 40.6855 157.006 40.6855C156.648 40.6855 156.332 40.7471 156.057 40.8701C155.781 40.9932 155.55 41.1631 155.362 41.3799C155.175 41.5908 155.031 41.834 154.932 42.1094C154.838 42.3848 154.791 42.6777 154.791 42.9883ZM163.123 35.5H164.758V47.1543L164.617 49H163.123V35.5ZM171.183 44.166V44.3506C171.183 45.042 171.101 45.6836 170.937 46.2754C170.772 46.8613 170.532 47.3711 170.216 47.8047C169.899 48.2383 169.513 48.5752 169.056 48.8154C168.599 49.0557 168.074 49.1758 167.482 49.1758C166.879 49.1758 166.349 49.0732 165.892 48.8682C165.44 48.6572 165.06 48.3555 164.749 47.9629C164.438 47.5703 164.189 47.0957 164.002 46.5391C163.82 45.9824 163.694 45.3555 163.624 44.6582V43.8496C163.694 43.1465 163.82 42.5166 164.002 41.96C164.189 41.4033 164.438 40.9287 164.749 40.5361C165.06 40.1377 165.44 39.8359 165.892 39.6309C166.343 39.4199 166.867 39.3145 167.465 39.3145C168.062 39.3145 168.593 39.4316 169.056 39.666C169.519 39.8945 169.905 40.2227 170.216 40.6504C170.532 41.0781 170.772 41.5908 170.937 42.1885C171.101 42.7803 171.183 43.4395 171.183 44.166ZM169.548 44.3506V44.166C169.548 43.6914 169.504 43.2461 169.416 42.8301C169.328 42.4082 169.188 42.0391 168.994 41.7227C168.801 41.4004 168.546 41.1484 168.229 40.9668C167.913 40.7793 167.523 40.6855 167.061 40.6855C166.65 40.6855 166.293 40.7559 165.988 40.8965C165.689 41.0371 165.435 41.2275 165.224 41.4678C165.013 41.7021 164.84 41.9717 164.705 42.2764C164.576 42.5752 164.479 42.8857 164.415 43.208V45.3262C164.509 45.7363 164.661 46.1318 164.872 46.5127C165.089 46.8877 165.376 47.1953 165.733 47.4355C166.097 47.6758 166.545 47.7959 167.078 47.7959C167.518 47.7959 167.893 47.708 168.203 47.5322C168.52 47.3506 168.774 47.1016 168.968 46.7852C169.167 46.4688 169.313 46.1025 169.407 45.6865C169.501 45.2705 169.548 44.8252 169.548 44.3506ZM177.186 49.1758C176.523 49.1758 175.923 49.0645 175.384 48.8418C174.851 48.6133 174.391 48.2939 174.004 47.8838C173.623 47.4736 173.33 46.9873 173.125 46.4248C172.92 45.8623 172.817 45.2471 172.817 44.5791V44.21C172.817 43.4365 172.932 42.748 173.16 42.1445C173.389 41.5352 173.699 41.0195 174.092 40.5977C174.484 40.1758 174.93 39.8564 175.428 39.6396C175.926 39.4229 176.441 39.3145 176.975 39.3145C177.654 39.3145 178.24 39.4316 178.732 39.666C179.23 39.9004 179.638 40.2285 179.954 40.6504C180.271 41.0664 180.505 41.5586 180.657 42.127C180.81 42.6895 180.886 43.3047 180.886 43.9727V44.7021H173.784V43.375H179.26V43.252C179.236 42.8301 179.148 42.4199 178.996 42.0215C178.85 41.623 178.615 41.2949 178.293 41.0371C177.971 40.7793 177.531 40.6504 176.975 40.6504C176.605 40.6504 176.266 40.7295 175.955 40.8877C175.645 41.04 175.378 41.2686 175.155 41.5732C174.933 41.8779 174.76 42.25 174.637 42.6895C174.514 43.1289 174.452 43.6357 174.452 44.21V44.5791C174.452 45.0303 174.514 45.4551 174.637 45.8535C174.766 46.2461 174.95 46.5918 175.19 46.8906C175.437 47.1895 175.732 47.4238 176.078 47.5938C176.43 47.7637 176.828 47.8486 177.273 47.8486C177.848 47.8486 178.334 47.7314 178.732 47.4971C179.131 47.2627 179.479 46.9492 179.778 46.5566L180.763 47.3389C180.558 47.6494 180.297 47.9453 179.98 48.2266C179.664 48.5078 179.274 48.7363 178.812 48.9121C178.354 49.0879 177.812 49.1758 177.186 49.1758ZM176.069 38.084L177.774 35.5H179.734L177.379 38.084H176.069ZM184.401 41.3799V49H182.767V39.4902H184.313L184.401 41.3799ZM184.067 43.8848L183.312 43.8584C183.317 43.208 183.402 42.6074 183.566 42.0566C183.73 41.5 183.974 41.0166 184.296 40.6064C184.618 40.1963 185.02 39.8799 185.5 39.6572C185.98 39.4287 186.537 39.3145 187.17 39.3145C187.615 39.3145 188.025 39.3789 188.4 39.5078C188.775 39.6309 189.101 39.8271 189.376 40.0967C189.651 40.3662 189.865 40.7119 190.018 41.1338C190.17 41.5557 190.246 42.0654 190.246 42.6631V49H188.62V42.7422C188.62 42.2441 188.535 41.8457 188.365 41.5469C188.201 41.248 187.967 41.0312 187.662 40.8965C187.357 40.7559 187 40.6855 186.59 40.6855C186.109 40.6855 185.708 40.7705 185.386 40.9404C185.063 41.1104 184.806 41.3447 184.612 41.6436C184.419 41.9424 184.278 42.2852 184.19 42.6719C184.108 43.0527 184.067 43.457 184.067 43.8848ZM190.229 42.9883L189.139 43.3223C189.145 42.8008 189.229 42.2998 189.394 41.8193C189.563 41.3389 189.807 40.9111 190.123 40.5361C190.445 40.1611 190.841 39.8652 191.31 39.6484C191.778 39.4258 192.314 39.3145 192.918 39.3145C193.428 39.3145 193.879 39.3818 194.271 39.5166C194.67 39.6514 195.004 39.8594 195.273 40.1406C195.549 40.416 195.757 40.7705 195.897 41.2041C196.038 41.6377 196.108 42.1533 196.108 42.751V49H194.474V42.7334C194.474 42.2002 194.389 41.7871 194.219 41.4941C194.055 41.1953 193.82 40.9873 193.516 40.8701C193.217 40.7471 192.859 40.6855 192.443 40.6855C192.086 40.6855 191.77 40.7471 191.494 40.8701C191.219 40.9932 190.987 41.1631 190.8 41.3799C190.612 41.5908 190.469 41.834 190.369 42.1094C190.275 42.3848 190.229 42.6777 190.229 42.9883ZM69.3086 69.3506V69.1484C69.3086 68.4629 69.4082 67.8271 69.6074 67.2412C69.8066 66.6494 70.0938 66.1367 70.4688 65.7031C70.8438 65.2637 71.2979 64.9238 71.8311 64.6836C72.3643 64.4375 72.9619 64.3145 73.624 64.3145C74.292 64.3145 74.8926 64.4375 75.4258 64.6836C75.9648 64.9238 76.4219 65.2637 76.7969 65.7031C77.1777 66.1367 77.4678 66.6494 77.667 67.2412C77.8662 67.8271 77.9658 68.4629 77.9658 69.1484V69.3506C77.9658 70.0361 77.8662 70.6719 77.667 71.2578C77.4678 71.8438 77.1777 72.3564 76.7969 72.7959C76.4219 73.2295 75.9678 73.5693 75.4346 73.8154C74.9072 74.0557 74.3096 74.1758 73.6416 74.1758C72.9736 74.1758 72.373 74.0557 71.8398 73.8154C71.3066 73.5693 70.8496 73.2295 70.4688 72.7959C70.0938 72.3564 69.8066 71.8438 69.6074 71.2578C69.4082 70.6719 69.3086 70.0361 69.3086 69.3506ZM70.9346 69.1484V69.3506C70.9346 69.8252 70.9902 70.2734 71.1016 70.6953C71.2129 71.1113 71.3799 71.4805 71.6025 71.8027C71.8311 72.125 72.1152 72.3799 72.4551 72.5674C72.7949 72.749 73.1904 72.8398 73.6416 72.8398C74.0869 72.8398 74.4766 72.749 74.8105 72.5674C75.1504 72.3799 75.4316 72.125 75.6543 71.8027C75.877 71.4805 76.0439 71.1113 76.1553 70.6953C76.2725 70.2734 76.3311 69.8252 76.3311 69.3506V69.1484C76.3311 68.6797 76.2725 68.2373 76.1553 67.8213C76.0439 67.3994 75.874 67.0273 75.6455 66.7051C75.4229 66.377 75.1416 66.1191 74.8018 65.9316C74.4678 65.7441 74.0752 65.6504 73.624 65.6504C73.1787 65.6504 72.7861 65.7441 72.4463 65.9316C72.1123 66.1191 71.8311 66.377 71.6025 66.7051C71.3799 67.0273 71.2129 67.3994 71.1016 67.8213C70.9902 68.2373 70.9346 68.6797 70.9346 69.1484ZM90.0771 72.374V67.4785C90.0771 67.1035 90.001 66.7783 89.8486 66.5029C89.7021 66.2217 89.4795 66.0049 89.1807 65.8525C88.8818 65.7002 88.5127 65.624 88.0732 65.624C87.6631 65.624 87.3027 65.6943 86.9922 65.835C86.6875 65.9756 86.4473 66.1602 86.2715 66.3887C86.1016 66.6172 86.0166 66.8633 86.0166 67.127H84.3906C84.3906 66.7871 84.4785 66.4502 84.6543 66.1162C84.8301 65.7822 85.082 65.4805 85.4102 65.2109C85.7441 64.9355 86.1426 64.7188 86.6055 64.5605C87.0742 64.3965 87.5957 64.3145 88.1699 64.3145C88.8613 64.3145 89.4707 64.4316 89.998 64.666C90.5312 64.9004 90.9473 65.2549 91.2461 65.7295C91.5508 66.1982 91.7031 66.7871 91.7031 67.4961V71.9258C91.7031 72.2422 91.7295 72.5791 91.7822 72.9365C91.8408 73.2939 91.9258 73.6016 92.0371 73.8594V74H90.3408C90.2588 73.8125 90.1943 73.5635 90.1475 73.2529C90.1006 72.9365 90.0771 72.6436 90.0771 72.374ZM90.3584 68.2344L90.376 69.377H88.7324C88.2695 69.377 87.8564 69.415 87.4932 69.4912C87.1299 69.5615 86.8252 69.6699 86.5791 69.8164C86.333 69.9629 86.1455 70.1475 86.0166 70.3701C85.8877 70.5869 85.8232 70.8418 85.8232 71.1348C85.8232 71.4336 85.8906 71.7061 86.0254 71.9521C86.1602 72.1982 86.3623 72.3945 86.6318 72.541C86.9072 72.6816 87.2441 72.752 87.6426 72.752C88.1406 72.752 88.5801 72.6465 88.9609 72.4355C89.3418 72.2246 89.6436 71.9668 89.8662 71.6621C90.0947 71.3574 90.2178 71.0615 90.2354 70.7744L90.9297 71.5566C90.8887 71.8027 90.7773 72.0752 90.5957 72.374C90.4141 72.6729 90.1709 72.96 89.8662 73.2354C89.5674 73.5049 89.21 73.7305 88.7939 73.9121C88.3838 74.0879 87.9209 74.1758 87.4053 74.1758C86.7607 74.1758 86.1953 74.0498 85.709 73.7979C85.2285 73.5459 84.8535 73.209 84.584 72.7871C84.3203 72.3594 84.1885 71.8818 84.1885 71.3545C84.1885 70.8447 84.2881 70.3965 84.4873 70.0098C84.6865 69.6172 84.9736 69.292 85.3486 69.0342C85.7236 68.7705 86.1748 68.5713 86.7021 68.4365C87.2295 68.3018 87.8184 68.2344 88.4688 68.2344H90.3584ZM95.8867 66.3184V77.6562H94.252V64.4902H95.7461L95.8867 66.3184ZM102.294 69.166V69.3506C102.294 70.042 102.212 70.6836 102.048 71.2754C101.884 71.8613 101.644 72.3711 101.327 72.8047C101.017 73.2383 100.633 73.5752 100.176 73.8154C99.7188 74.0557 99.1943 74.1758 98.6025 74.1758C97.999 74.1758 97.4658 74.0762 97.0029 73.877C96.54 73.6777 96.1475 73.3877 95.8252 73.0068C95.5029 72.626 95.2451 72.1689 95.0518 71.6357C94.8643 71.1025 94.7354 70.502 94.665 69.834V68.8496C94.7354 68.1465 94.8672 67.5166 95.0605 66.96C95.2539 66.4033 95.5088 65.9287 95.8252 65.5361C96.1475 65.1377 96.5371 64.8359 96.9941 64.6309C97.4512 64.4199 97.9785 64.3145 98.5762 64.3145C99.1738 64.3145 99.7041 64.4316 100.167 64.666C100.63 64.8945 101.02 65.2227 101.336 65.6504C101.652 66.0781 101.89 66.5908 102.048 67.1885C102.212 67.7803 102.294 68.4395 102.294 69.166ZM100.659 69.3506V69.166C100.659 68.6914 100.609 68.2461 100.51 67.8301C100.41 67.4082 100.255 67.0391 100.044 66.7227C99.8389 66.4004 99.5752 66.1484 99.2529 65.9668C98.9307 65.7793 98.5469 65.6855 98.1016 65.6855C97.6914 65.6855 97.334 65.7559 97.0293 65.8965C96.7305 66.0371 96.4756 66.2275 96.2646 66.4678C96.0537 66.7021 95.8809 66.9717 95.7461 67.2764C95.6172 67.5752 95.5205 67.8857 95.4561 68.208V70.4844C95.5732 70.8945 95.7373 71.2812 95.9482 71.6445C96.1592 72.002 96.4404 72.292 96.792 72.5146C97.1436 72.7314 97.5859 72.8398 98.1191 72.8398C98.5586 72.8398 98.9365 72.749 99.2529 72.5674C99.5752 72.3799 99.8389 72.125 100.044 71.8027C100.255 71.4805 100.41 71.1113 100.51 70.6953C100.609 70.2734 100.659 69.8252 100.659 69.3506ZM106.135 60.5V74H104.5V60.5H106.135ZM110.512 64.4902V74H108.877V64.4902H110.512ZM108.754 61.9678C108.754 61.7041 108.833 61.4814 108.991 61.2998C109.155 61.1182 109.396 61.0273 109.712 61.0273C110.022 61.0273 110.26 61.1182 110.424 61.2998C110.594 61.4814 110.679 61.7041 110.679 61.9678C110.679 62.2197 110.594 62.4365 110.424 62.6182C110.26 62.7939 110.022 62.8818 109.712 62.8818C109.396 62.8818 109.155 62.7939 108.991 62.6182C108.833 62.4365 108.754 62.2197 108.754 61.9678ZM116.928 72.8398C117.314 72.8398 117.672 72.7607 118 72.6025C118.328 72.4443 118.598 72.2275 118.809 71.9521C119.02 71.6709 119.14 71.3516 119.169 70.9941H120.716C120.687 71.5566 120.496 72.0811 120.145 72.5674C119.799 73.0479 119.345 73.4375 118.782 73.7363C118.22 74.0293 117.602 74.1758 116.928 74.1758C116.213 74.1758 115.589 74.0498 115.056 73.7979C114.528 73.5459 114.089 73.2002 113.737 72.7607C113.392 72.3213 113.131 71.8174 112.955 71.249C112.785 70.6748 112.7 70.0684 112.7 69.4297V69.0605C112.7 68.4219 112.785 67.8184 112.955 67.25C113.131 66.6758 113.392 66.1689 113.737 65.7295C114.089 65.29 114.528 64.9443 115.056 64.6924C115.589 64.4404 116.213 64.3145 116.928 64.3145C117.672 64.3145 118.322 64.4668 118.879 64.7715C119.436 65.0703 119.872 65.4805 120.188 66.002C120.511 66.5176 120.687 67.1035 120.716 67.7598H119.169C119.14 67.3672 119.028 67.0127 118.835 66.6963C118.647 66.3799 118.39 66.1279 118.062 65.9404C117.739 65.7471 117.361 65.6504 116.928 65.6504C116.43 65.6504 116.011 65.75 115.671 65.9492C115.337 66.1426 115.07 66.4062 114.871 66.7402C114.678 67.0684 114.537 67.4346 114.449 67.8389C114.367 68.2373 114.326 68.6445 114.326 69.0605V69.4297C114.326 69.8457 114.367 70.2559 114.449 70.6602C114.531 71.0645 114.669 71.4307 114.862 71.7588C115.062 72.0869 115.328 72.3506 115.662 72.5498C116.002 72.7432 116.424 72.8398 116.928 72.8398ZM128.151 72.374V67.4785C128.151 67.1035 128.075 66.7783 127.923 66.5029C127.776 66.2217 127.554 66.0049 127.255 65.8525C126.956 65.7002 126.587 65.624 126.147 65.624C125.737 65.624 125.377 65.6943 125.066 65.835C124.762 65.9756 124.521 66.1602 124.346 66.3887C124.176 66.6172 124.091 66.8633 124.091 67.127H122.465C122.465 66.7871 122.553 66.4502 122.729 66.1162C122.904 65.7822 123.156 65.4805 123.484 65.2109C123.818 64.9355 124.217 64.7188 124.68 64.5605C125.148 64.3965 125.67 64.3145 126.244 64.3145C126.936 64.3145 127.545 64.4316 128.072 64.666C128.605 64.9004 129.021 65.2549 129.32 65.7295C129.625 66.1982 129.777 66.7871 129.777 67.4961V71.9258C129.777 72.2422 129.804 72.5791 129.856 72.9365C129.915 73.2939 130 73.6016 130.111 73.8594V74H128.415C128.333 73.8125 128.269 73.5635 128.222 73.2529C128.175 72.9365 128.151 72.6436 128.151 72.374ZM128.433 68.2344L128.45 69.377H126.807C126.344 69.377 125.931 69.415 125.567 69.4912C125.204 69.5615 124.899 69.6699 124.653 69.8164C124.407 69.9629 124.22 70.1475 124.091 70.3701C123.962 70.5869 123.897 70.8418 123.897 71.1348C123.897 71.4336 123.965 71.7061 124.1 71.9521C124.234 72.1982 124.437 72.3945 124.706 72.541C124.981 72.6816 125.318 72.752 125.717 72.752C126.215 72.752 126.654 72.6465 127.035 72.4355C127.416 72.2246 127.718 71.9668 127.94 71.6621C128.169 71.3574 128.292 71.0615 128.31 70.7744L129.004 71.5566C128.963 71.8027 128.852 72.0752 128.67 72.374C128.488 72.6729 128.245 72.96 127.94 73.2354C127.642 73.5049 127.284 73.7305 126.868 73.9121C126.458 74.0879 125.995 74.1758 125.479 74.1758C124.835 74.1758 124.27 74.0498 123.783 73.7979C123.303 73.5459 122.928 73.209 122.658 72.7871C122.395 72.3594 122.263 71.8818 122.263 71.3545C122.263 70.8447 122.362 70.3965 122.562 70.0098C122.761 69.6172 123.048 69.292 123.423 69.0342C123.798 68.7705 124.249 68.5713 124.776 68.4365C125.304 68.3018 125.893 68.2344 126.543 68.2344H128.433ZM136.316 64.4902V65.7383H131.175V64.4902H136.316ZM132.915 62.1787H134.541V71.6445C134.541 71.9668 134.591 72.21 134.69 72.374C134.79 72.5381 134.919 72.6465 135.077 72.6992C135.235 72.752 135.405 72.7783 135.587 72.7783C135.722 72.7783 135.862 72.7666 136.009 72.7432C136.161 72.7139 136.275 72.6904 136.352 72.6729L136.36 74C136.231 74.041 136.062 74.0791 135.851 74.1143C135.646 74.1553 135.396 74.1758 135.104 74.1758C134.705 74.1758 134.339 74.0967 134.005 73.9385C133.671 73.7803 133.404 73.5166 133.205 73.1475C133.012 72.7725 132.915 72.2686 132.915 71.6357V62.1787ZM139.99 64.4902V74H138.355V64.4902H139.99ZM138.232 61.9678C138.232 61.7041 138.312 61.4814 138.47 61.2998C138.634 61.1182 138.874 61.0273 139.19 61.0273C139.501 61.0273 139.738 61.1182 139.902 61.2998C140.072 61.4814 140.157 61.7041 140.157 61.9678C140.157 62.2197 140.072 62.4365 139.902 62.6182C139.738 62.7939 139.501 62.8818 139.19 62.8818C138.874 62.8818 138.634 62.7939 138.47 62.6182C138.312 62.4365 138.232 62.2197 138.232 61.9678ZM145.492 72.5322L148.094 64.4902H149.755L146.336 74H145.246L145.492 72.5322ZM143.321 64.4902L146.002 72.5762L146.187 74H145.097L141.651 64.4902H143.321ZM150.748 69.3506V69.1484C150.748 68.4629 150.848 67.8271 151.047 67.2412C151.246 66.6494 151.533 66.1367 151.908 65.7031C152.283 65.2637 152.737 64.9238 153.271 64.6836C153.804 64.4375 154.401 64.3145 155.063 64.3145C155.731 64.3145 156.332 64.4375 156.865 64.6836C157.404 64.9238 157.861 65.2637 158.236 65.7031C158.617 66.1367 158.907 66.6494 159.106 67.2412C159.306 67.8271 159.405 68.4629 159.405 69.1484V69.3506C159.405 70.0361 159.306 70.6719 159.106 71.2578C158.907 71.8438 158.617 72.3564 158.236 72.7959C157.861 73.2295 157.407 73.5693 156.874 73.8154C156.347 74.0557 155.749 74.1758 155.081 74.1758C154.413 74.1758 153.812 74.0557 153.279 73.8154C152.746 73.5693 152.289 73.2295 151.908 72.7959C151.533 72.3564 151.246 71.8438 151.047 71.2578C150.848 70.6719 150.748 70.0361 150.748 69.3506ZM152.374 69.1484V69.3506C152.374 69.8252 152.43 70.2734 152.541 70.6953C152.652 71.1113 152.819 71.4805 153.042 71.8027C153.271 72.125 153.555 72.3799 153.895 72.5674C154.234 72.749 154.63 72.8398 155.081 72.8398C155.526 72.8398 155.916 72.749 156.25 72.5674C156.59 72.3799 156.871 72.125 157.094 71.8027C157.316 71.4805 157.483 71.1113 157.595 70.6953C157.712 70.2734 157.771 69.8252 157.771 69.3506V69.1484C157.771 68.6797 157.712 68.2373 157.595 67.8213C157.483 67.3994 157.313 67.0273 157.085 66.7051C156.862 66.377 156.581 66.1191 156.241 65.9316C155.907 65.7441 155.515 65.6504 155.063 65.6504C154.618 65.6504 154.226 65.7441 153.886 65.9316C153.552 66.1191 153.271 66.377 153.042 66.7051C152.819 67.0273 152.652 67.3994 152.541 67.8213C152.43 68.2373 152.374 68.6797 152.374 69.1484ZM163.378 61.2031L163.264 70.3877H161.796L161.673 61.2031H163.378ZM161.62 73.1826C161.62 72.9189 161.699 72.6963 161.857 72.5146C162.021 72.333 162.262 72.2422 162.578 72.2422C162.889 72.2422 163.126 72.333 163.29 72.5146C163.46 72.6963 163.545 72.9189 163.545 73.1826C163.545 73.4346 163.46 73.6514 163.29 73.833C163.126 74.0146 162.889 74.1055 162.578 74.1055C162.262 74.1055 162.021 74.0146 161.857 73.833C161.699 73.6514 161.62 73.4346 161.62 73.1826Z" fill="#B75B4B"/>
<g id="Group">
<path id="Vector" d="M182.46 226.376C196.336 213.292 204.994 194.766 204.994 174.222C204.994 134.581 172.761 102.445 133 102.445C93.2388 102.445 61.0058 134.581 61.0058 174.222C61.0058 213.864 93.2388 246 133 246C136.116 246 139.185 245.802 142.197 245.42L182.46 226.376Z" fill="#9CCDE0"/>
<path id="Vector_2" d="M174.385 203.099C173.753 200.784 173.531 198.377 173.727 195.986L174.903 184.946C175.477 178.018 174.418 171.078 171.342 164.84C163.395 148.723 165.218 147.554 164.971 131.558C164.971 128.29 162.314 125.641 159.036 125.641C155.758 125.641 153.101 128.29 153.101 131.558C153.101 196.606 153.223 191.833 152.821 193.74V202.258C152.821 209.435 146.964 215.273 139.766 215.273C134.985 215.273 118.499 215.273 107.28 215.273C112.271 222.193 119.099 227.612 127.022 230.892C127.071 230.913 127.12 230.933 127.169 230.954C133.291 233.532 140.126 238.676 141.269 245.058L141.379 245.514C157.5 243.651 171.996 236.481 183.065 225.798L174.385 203.099Z" fill="#E4B494"/>
<path id="Vector_3" d="M85.2382 125.848L83.4307 124.178C80.6441 121.604 76.2519 121.771 73.6701 124.549C71.0883 127.328 71.2558 131.707 74.0421 134.281L85.2382 144.623V125.848Z" fill="#E4B494"/>
<path id="Vector_4" d="M77.7156 129.104C76.0063 127.525 75.2872 125.268 75.579 123.116C74.8814 123.472 74.2317 123.945 73.6701 124.549C71.0883 127.327 71.2558 131.706 74.0421 134.28L85.2382 144.623V136.054L77.7156 129.104Z" fill="#CF9261"/>
<g id="Group_2">
<path id="Vector_5" d="M174.926 204.512C172.474 221.366 157.926 234.313 140.342 234.313C137.306 234.313 134.361 233.926 131.553 233.201C136.209 236.039 140.397 240.187 141.268 245.058L141.379 245.514C157.5 243.65 171.996 236.48 183.065 225.798L174.926 204.512Z" fill="#E39F75"/>
</g>
<g id="Group_3">
<path id="Vector_6" d="M142.878 215.553H95.2047C89.5672 215.553 84.981 210.981 84.981 205.36V106.193C84.981 100.573 89.5672 96 95.2047 96H142.878C148.516 96 153.102 100.573 153.102 106.193V205.36C153.102 210.981 148.515 215.553 142.878 215.553Z" fill="#414C6E"/>
</g>
<g id="Group_4">
<path id="Vector_7" d="M111.51 103.304H110.489C109.513 103.304 108.722 102.516 108.722 101.543C108.722 100.57 109.513 99.7812 110.489 99.7812H111.51C112.486 99.7812 113.277 100.57 113.277 101.543C113.277 102.516 112.486 103.304 111.51 103.304Z" fill="#6E7996"/>
</g>
<g id="Group_5">
<path id="Vector_8" d="M127.349 103.304H117.54C116.564 103.304 115.773 102.516 115.773 101.543C115.773 100.57 116.564 99.7812 117.54 99.7812H127.349C128.325 99.7812 129.116 100.57 129.116 101.543C129.116 102.516 128.325 103.304 127.349 103.304Z" fill="#6E7996"/>
</g>
<path id="Vector_9" d="M142.878 102.342H135.713C134.377 102.342 133.294 103.421 133.294 104.753C133.294 106.303 132.022 107.572 130.467 107.572H107.615C106.06 107.572 104.788 106.303 104.788 104.753C104.788 103.421 103.705 102.342 102.37 102.342H95.2044C93.071 102.342 91.3414 104.066 91.3414 106.193V205.36C91.3414 207.487 93.071 209.212 95.2044 209.212H142.878C145.011 209.212 146.741 207.487 146.741 205.36C146.741 195.159 146.741 108.916 146.741 106.193C146.741 104.066 145.011 102.342 142.878 102.342Z" fill="#EAF6FE"/>
<g id="Group_6">
<path id="Vector_10" d="M104.669 120.96H133.413C135.221 120.96 136.686 119.499 136.686 117.697C136.686 115.895 135.221 114.434 133.413 114.434H104.669C102.861 114.434 101.396 115.895 101.396 117.697C101.396 119.499 102.861 120.96 104.669 120.96Z" fill="#D6DDEF"/>
</g>
<path id="Vector_11" d="M104.669 114.434H110.714V120.96H104.669C102.862 120.96 101.396 119.499 101.396 117.697C101.396 115.895 102.862 114.434 104.669 114.434Z" fill="#91C4E0"/>
<g id="Group_7">
<path id="Vector_12" d="M139.222 150.739H98.8606C97.2415 150.739 95.9168 149.418 95.9168 147.804V130.92C95.9168 129.306 97.2415 127.985 98.8606 127.985H139.222C140.841 127.985 142.166 129.306 142.166 130.92V147.804C142.166 149.418 140.841 150.739 139.222 150.739Z" fill="#D6DDEF"/>
<path id="Vector_13" d="M139.222 178.026H98.8606C97.2415 178.026 95.9168 176.705 95.9168 175.091V158.207C95.9168 156.593 97.2415 155.272 98.8606 155.272H139.222C140.841 155.272 142.166 156.593 142.166 158.207V175.091C142.166 176.705 140.841 178.026 139.222 178.026Z" fill="#D6DDEF"/>
<path id="Vector_14" d="M139.222 205.313H98.8606C97.2415 205.313 95.9168 203.992 95.9168 202.378V185.494C95.9168 183.88 97.2415 182.559 98.8606 182.559H139.222C140.841 182.559 142.166 183.88 142.166 185.494V202.378C142.166 203.992 140.841 205.313 139.222 205.313Z" fill="#D6DDEF"/>
<path id="Vector_15" d="M139.222 150.739H98.8606C97.2415 150.739 95.9168 149.418 95.9168 147.804V130.92C95.9168 129.306 97.2415 127.985 98.8606 127.985H139.222C140.841 127.985 142.166 129.306 142.166 130.92V147.804C142.166 149.418 140.841 150.739 139.222 150.739Z" fill="#D6DDEF"/>
<path id="Vector_16" d="M139.222 178.026H98.8606C97.2415 178.026 95.9168 176.705 95.9168 175.091V158.207C95.9168 156.593 97.2415 155.272 98.8606 155.272H139.222C140.841 155.272 142.166 156.593 142.166 158.207V175.091C142.166 176.705 140.841 178.026 139.222 178.026Z" fill="#D6DDEF"/>
<path id="Vector_17" d="M139.222 205.313H98.8606C97.2415 205.313 95.9168 203.992 95.9168 202.378V185.494C95.9168 183.88 97.2415 182.559 98.8606 182.559H139.222C140.841 182.559 142.166 183.88 142.166 185.494V202.378C142.166 203.992 140.841 205.313 139.222 205.313Z" fill="#D6DDEF"/>
</g>
<path id="Vector_18" d="M109.939 147.804V130.92C109.939 129.306 111.264 127.985 112.883 127.985H98.8606C97.2415 127.985 95.9168 129.306 95.9168 130.92V147.804C95.9168 149.418 97.2415 150.739 98.8606 150.739H112.883C111.264 150.739 109.939 149.418 109.939 147.804Z" fill="#CCD0DE"/>
<path id="Vector_19" d="M109.939 175.091V158.207C109.939 156.593 111.264 155.272 112.883 155.272H98.8606C97.2415 155.272 95.9168 156.593 95.9168 158.207V175.091C95.9168 176.705 97.2415 178.026 98.8606 178.026H112.883C111.264 178.026 109.939 176.705 109.939 175.091Z" fill="#CCD0DE"/>
<path id="Vector_20" d="M109.939 202.378V185.494C109.939 183.879 111.264 182.559 112.883 182.559H98.8606C97.2415 182.559 95.9168 183.879 95.9168 185.494V202.378C95.9168 203.992 97.2415 205.313 98.8606 205.313H112.883C111.264 205.313 109.939 203.992 109.939 202.378Z" fill="#CCD0DE"/>
<g id="Group_8">
<path id="Vector_21" d="M117.45 137.422H105.646C104.429 137.422 103.442 136.438 103.442 135.225C103.442 134.011 104.429 133.027 105.646 133.027H117.45C118.667 133.027 119.654 134.011 119.654 135.225C119.654 136.438 118.667 137.422 117.45 137.422Z" fill="#6E7996"/>
</g>
<g id="Group_9">
<path id="Vector_22" d="M132.436 145.696H105.646C104.429 145.696 103.442 144.713 103.442 143.499C103.442 142.285 104.429 141.302 105.646 141.302H132.436C133.653 141.302 134.64 142.285 134.64 143.499C134.64 144.713 133.653 145.696 132.436 145.696Z" fill="#89B4C4"/>
</g>
<g id="Group_10">
<path id="Vector_23" d="M126.657 137.422H124.992C123.775 137.422 122.788 136.438 122.788 135.225C122.788 134.011 123.775 133.027 124.992 133.027H126.657C127.874 133.027 128.861 134.011 128.861 135.225C128.861 136.438 127.875 137.422 126.657 137.422Z" fill="#89B4C4"/>
</g>
<g id="Group_11">
<path id="Vector_24" d="M117.45 164.709H105.646C104.429 164.709 103.442 163.725 103.442 162.512C103.442 161.298 104.429 160.314 105.646 160.314H117.45C118.667 160.314 119.654 161.298 119.654 162.512C119.654 163.725 118.667 164.709 117.45 164.709Z" fill="#6E7996"/>
</g>
<g id="Group_12">
<path id="Vector_25" d="M132.436 172.983H105.646C104.429 172.983 103.442 171.999 103.442 170.786C103.442 169.572 104.429 168.588 105.646 168.588H132.436C133.653 168.588 134.64 169.572 134.64 170.786C134.64 171.999 133.653 172.983 132.436 172.983Z" fill="#89B4C4"/>
</g>
<g id="Group_13">
<path id="Vector_26" d="M126.657 164.709H124.992C123.775 164.709 122.788 163.725 122.788 162.512C122.788 161.298 123.775 160.314 124.992 160.314H126.657C127.874 160.314 128.861 161.298 128.861 162.512C128.861 163.725 127.875 164.709 126.657 164.709Z" fill="#89B4C4"/>
</g>
<g id="Group_14">
<path id="Vector_27" d="M117.45 191.996H105.646C104.429 191.996 103.442 191.012 103.442 189.799C103.442 188.585 104.429 187.602 105.646 187.602H117.45C118.667 187.602 119.654 188.585 119.654 189.799C119.654 191.013 118.667 191.996 117.45 191.996Z" fill="#6E7996"/>
</g>
<g id="Group_15">
<path id="Vector_28" d="M132.436 200.271H105.646C104.429 200.271 103.442 199.287 103.442 198.073C103.442 196.859 104.429 195.876 105.646 195.876H132.436C133.653 195.876 134.64 196.859 134.64 198.073C134.64 199.287 133.653 200.271 132.436 200.271Z" fill="#89B4C4"/>
</g>
<g id="Group_16">
<path id="Vector_29" d="M126.657 191.996H124.992C123.775 191.996 122.788 191.012 122.788 189.799C122.788 188.585 123.775 187.602 124.992 187.602H126.657C127.874 187.602 128.861 188.585 128.861 189.799C128.861 191.013 127.875 191.996 126.657 191.996Z" fill="#89B4C4"/>
</g>
<path id="Vector_30" d="M95.2894 162.164C93.0176 164.609 89.1887 164.754 86.7371 162.489L76.6001 153.125C74.1485 150.86 74.0024 147.043 76.2742 144.598C78.546 142.154 82.3749 142.008 84.8265 144.273L94.9635 153.638C97.4152 155.903 97.5612 159.72 95.2894 162.164Z" fill="#E4B494"/>
<path id="Vector_31" d="M90.9075 158.233L80.7704 148.869C79.0749 147.302 78.484 144.994 79.0308 142.91C78.0088 143.204 77.05 143.764 76.2742 144.599C74.0024 147.043 74.1485 150.861 76.6001 153.125L86.7371 162.49C89.1887 164.754 93.0176 164.609 95.2894 162.165C95.99 161.411 96.459 160.526 96.7028 159.597C94.732 160.164 92.5219 159.725 90.9075 158.233Z" fill="#CF9261"/>
<g id="Group_17">
<path id="Vector_32" d="M95.2894 195.079C93.0176 197.523 89.1887 197.669 86.7371 195.404L76.6001 186.04C74.1485 183.775 74.0024 179.957 76.2742 177.513C78.546 175.069 82.3749 174.923 84.8265 177.188L94.9635 186.553C97.4152 188.817 97.5612 192.635 95.2894 195.079Z" fill="#E4B494"/>
</g>
<path id="Vector_33" d="M90.9075 191.148L80.7704 181.783C79.0749 180.217 78.484 177.908 79.0308 175.825C78.0088 176.119 77.05 176.679 76.2742 177.513C74.0024 179.958 74.1485 183.775 76.6001 186.04L86.7371 195.404C89.1887 197.669 93.0176 197.524 95.2894 195.08C95.99 194.326 96.459 193.441 96.7028 192.511C94.732 193.079 92.5219 192.639 90.9075 191.148Z" fill="#CF9261"/>
<path id="Vector_34" d="M95.2894 178.622C93.0176 181.066 89.1887 181.212 86.7371 178.947L76.6001 169.582C74.1485 167.318 74.0024 163.5 76.2742 161.056C78.546 158.612 82.3749 158.466 84.8265 160.731L94.9635 170.095C97.4152 172.36 97.5612 176.177 95.2894 178.622Z" fill="#E4B494"/>
<path id="Vector_35" d="M90.9075 174.69L80.7704 165.326C79.0749 163.76 78.484 161.451 79.0308 159.367C78.0088 159.662 77.0497 160.221 76.2742 161.056C74.0024 163.5 74.1485 167.318 76.6001 169.583L86.7371 178.947C89.1887 181.212 93.0176 181.066 95.2894 178.622C95.99 177.868 96.459 176.983 96.7028 176.054C94.732 176.621 92.5219 176.182 90.9075 174.69Z" fill="#CF9261"/>
</g>
</g>
</g>
<defs>
<filter id="filter0_d_4047_523" x="-2" y="-22" width="290" height="300" filterUnits="userSpaceOnUse" color-interpolation-filters="sRGB">
<feFlood flood-opacity="0" result="BackgroundImageFix"/>
<feColorMatrix in="SourceAlpha" type="matrix" values="0 0 0 0 0 0 0 0 0 0 0 0 0 0 0 0 0 0 127 0" result="hardAlpha"/>
<feOffset dx="10" dy="-10"/>
<feGaussianBlur stdDeviation="6"/>
<feComposite in2="hardAlpha" operator="out"/>
<feColorMatrix type="matrix" values="0 0 0 0 0 0 0 0 0 0 0 0 0 0 0 0 0 0 0.1 0"/>
<feBlend mode="normal" in2="BackgroundImageFix" result="effect1_dropShadow_4047_523"/>
<feBlend mode="normal" in="SourceGraphic" in2="effect1_dropShadow_4047_523" result="shape"/>
</filter>
<linearGradient id="paint0_linear_4047_523" x1="0" y1="138" x2="266" y2="138" gradientUnits="userSpaceOnUse">
<stop stop-color="#F2F2F2"/>
<stop offset="1" stop-color="#F2F2F2"/>
</linearGradient>
<linearGradient id="paint1_linear_4047_523" x1="0" y1="138" x2="266" y2="138" gradientUnits="userSpaceOnUse">
<stop offset="0.139423" stop-color="white"/>
<stop offset="1" stop-color="#E2E1E1"/>
</linearGradient>
</defs>
</svg>
