<svg width="266" height="276" viewBox="0 0 266 276" fill="none" xmlns="http://www.w3.org/2000/svg">
<g id="Property 1=Default">
<g id="Box" filter="url(#filter0_d_4047_521)">
<rect x="5" y="18" width="256" height="240" rx="18" fill="url(#paint0_linear_4047_521)" shape-rendering="crispEdges"/>
<rect x="8.5" y="21.5" width="249" height="233" rx="14.5" stroke="url(#paint1_linear_4047_521)" stroke-width="7" shape-rendering="crispEdges"/>
<path id="Confira tamb&#195;&#169;m&#226;&#128;&#168;o aplicativo!&#194;&#160;" d="M77.7109 62.9307H79.3984C79.3105 63.7393 79.0791 64.4629 78.7041 65.1016C78.3291 65.7402 77.7988 66.2471 77.1133 66.6221C76.4277 66.9912 75.5723 67.1758 74.5469 67.1758C73.7969 67.1758 73.1143 67.0352 72.499 66.7539C71.8896 66.4727 71.3652 66.0742 70.9258 65.5586C70.4863 65.0371 70.1465 64.4131 69.9062 63.6865C69.6719 62.9541 69.5547 62.1396 69.5547 61.2432V59.9688C69.5547 59.0723 69.6719 58.2607 69.9062 57.5342C70.1465 56.8018 70.4893 56.1748 70.9346 55.6533C71.3857 55.1318 71.9277 54.7305 72.5605 54.4492C73.1934 54.168 73.9053 54.0273 74.6963 54.0273C75.6631 54.0273 76.4805 54.209 77.1484 54.5723C77.8164 54.9355 78.335 55.4395 78.7041 56.084C79.0791 56.7227 79.3105 57.4639 79.3984 58.3076H77.7109C77.6289 57.71 77.4766 57.1973 77.2539 56.7695C77.0312 56.3359 76.7148 56.002 76.3047 55.7676C75.8945 55.5332 75.3584 55.416 74.6963 55.416C74.1279 55.416 73.627 55.5244 73.1934 55.7412C72.7656 55.958 72.4053 56.2656 72.1123 56.6641C71.8252 57.0625 71.6084 57.54 71.4619 58.0967C71.3154 58.6533 71.2422 59.2715 71.2422 59.9512V61.2432C71.2422 61.8701 71.3066 62.459 71.4355 63.0098C71.5703 63.5605 71.7725 64.0439 72.042 64.46C72.3115 64.876 72.6543 65.2041 73.0703 65.4443C73.4863 65.6787 73.9785 65.7959 74.5469 65.7959C75.2676 65.7959 75.8418 65.6816 76.2695 65.4531C76.6973 65.2246 77.0195 64.8965 77.2363 64.4688C77.459 64.041 77.6172 63.5283 77.7109 62.9307ZM81.0332 62.3506V62.1484C81.0332 61.4629 81.1328 60.8271 81.332 60.2412C81.5312 59.6494 81.8184 59.1367 82.1934 58.7031C82.5684 58.2637 83.0225 57.9238 83.5557 57.6836C84.0889 57.4375 84.6865 57.3145 85.3486 57.3145C86.0166 57.3145 86.6172 57.4375 87.1504 57.6836C87.6895 57.9238 88.1465 58.2637 88.5215 58.7031C88.9023 59.1367 89.1924 59.6494 89.3916 60.2412C89.5908 60.8271 89.6904 61.4629 89.6904 62.1484V62.3506C89.6904 63.0361 89.5908 63.6719 89.3916 64.2578C89.1924 64.8438 88.9023 65.3564 88.5215 65.7959C88.1465 66.2295 87.6924 66.5693 87.1592 66.8154C86.6318 67.0557 86.0342 67.1758 85.3662 67.1758C84.6982 67.1758 84.0977 67.0557 83.5645 66.8154C83.0312 66.5693 82.5742 66.2295 82.1934 65.7959C81.8184 65.3564 81.5312 64.8438 81.332 64.2578C81.1328 63.6719 81.0332 63.0361 81.0332 62.3506ZM82.6592 62.1484V62.3506C82.6592 62.8252 82.7148 63.2734 82.8262 63.6953C82.9375 64.1113 83.1045 64.4805 83.3271 64.8027C83.5557 65.125 83.8398 65.3799 84.1797 65.5674C84.5195 65.749 84.915 65.8398 85.3662 65.8398C85.8115 65.8398 86.2012 65.749 86.5352 65.5674C86.875 65.3799 87.1562 65.125 87.3789 64.8027C87.6016 64.4805 87.7686 64.1113 87.8799 63.6953C87.9971 63.2734 88.0557 62.8252 88.0557 62.3506V62.1484C88.0557 61.6797 87.9971 61.2373 87.8799 60.8213C87.7686 60.3994 87.5986 60.0273 87.3701 59.7051C87.1475 59.377 86.8662 59.1191 86.5264 58.9316C86.1924 58.7441 85.7998 58.6504 85.3486 58.6504C84.9033 58.6504 84.5107 58.7441 84.1709 58.9316C83.8369 59.1191 83.5557 59.377 83.3271 59.7051C83.1045 60.0273 82.9375 60.3994 82.8262 60.8213C82.7148 61.2373 82.6592 61.6797 82.6592 62.1484ZM93.3555 59.5205V67H91.7295V57.4902H93.2676L93.3555 59.5205ZM92.9688 61.8848L92.292 61.8584C92.2979 61.208 92.3945 60.6074 92.582 60.0566C92.7695 59.5 93.0332 59.0166 93.373 58.6064C93.7129 58.1963 94.1172 57.8799 94.5859 57.6572C95.0605 57.4287 95.585 57.3145 96.1592 57.3145C96.6279 57.3145 97.0498 57.3789 97.4248 57.5078C97.7998 57.6309 98.1191 57.8301 98.3828 58.1055C98.6523 58.3809 98.8574 58.7383 98.998 59.1777C99.1387 59.6113 99.209 60.1416 99.209 60.7686V67H97.5742V60.751C97.5742 60.2529 97.501 59.8545 97.3545 59.5557C97.208 59.251 96.9941 59.0312 96.7129 58.8965C96.4316 58.7559 96.0859 58.6855 95.6758 58.6855C95.2715 58.6855 94.9023 58.7705 94.5684 58.9404C94.2402 59.1104 93.9561 59.3447 93.7158 59.6436C93.4814 59.9424 93.2969 60.2852 93.1621 60.6719C93.0332 61.0527 92.9688 61.457 92.9688 61.8848ZM103.85 67H102.224V56.6641C102.224 55.9434 102.364 55.334 102.646 54.8359C102.927 54.3379 103.328 53.96 103.85 53.7021C104.371 53.4443 104.989 53.3154 105.704 53.3154C106.126 53.3154 106.539 53.3682 106.943 53.4736C107.348 53.5732 107.764 53.6992 108.191 53.8516L107.919 55.2227C107.649 55.1172 107.336 55.0176 106.979 54.9238C106.627 54.8242 106.24 54.7744 105.818 54.7744C105.121 54.7744 104.617 54.9326 104.307 55.249C104.002 55.5596 103.85 56.0312 103.85 56.6641V67ZM105.792 57.4902V58.7383H100.721V57.4902H105.792ZM108.991 57.4902V67H107.365V57.4902H108.991ZM113.289 58.9844V67H111.663V57.4902H113.245L113.289 58.9844ZM116.26 57.4375L116.251 58.9492C116.116 58.9199 115.987 58.9023 115.864 58.8965C115.747 58.8848 115.612 58.8789 115.46 58.8789C115.085 58.8789 114.754 58.9375 114.467 59.0547C114.18 59.1719 113.937 59.3359 113.737 59.5469C113.538 59.7578 113.38 60.0098 113.263 60.3027C113.151 60.5898 113.078 60.9062 113.043 61.252L112.586 61.5156C112.586 60.9414 112.642 60.4023 112.753 59.8984C112.87 59.3945 113.049 58.9492 113.289 58.5625C113.529 58.1699 113.834 57.8652 114.203 57.6484C114.578 57.4258 115.023 57.3145 115.539 57.3145C115.656 57.3145 115.791 57.3291 115.943 57.3584C116.096 57.3818 116.201 57.4082 116.26 57.4375ZM123.019 65.374V60.4785C123.019 60.1035 122.942 59.7783 122.79 59.5029C122.644 59.2217 122.421 59.0049 122.122 58.8525C121.823 58.7002 121.454 58.624 121.015 58.624C120.604 58.624 120.244 58.6943 119.934 58.835C119.629 58.9756 119.389 59.1602 119.213 59.3887C119.043 59.6172 118.958 59.8633 118.958 60.127H117.332C117.332 59.7871 117.42 59.4502 117.596 59.1162C117.771 58.7822 118.023 58.4805 118.352 58.2109C118.686 57.9355 119.084 57.7188 119.547 57.5605C120.016 57.3965 120.537 57.3145 121.111 57.3145C121.803 57.3145 122.412 57.4316 122.939 57.666C123.473 57.9004 123.889 58.2549 124.188 58.7295C124.492 59.1982 124.645 59.7871 124.645 60.4961V64.9258C124.645 65.2422 124.671 65.5791 124.724 65.9365C124.782 66.2939 124.867 66.6016 124.979 66.8594V67H123.282C123.2 66.8125 123.136 66.5635 123.089 66.2529C123.042 65.9365 123.019 65.6436 123.019 65.374ZM123.3 61.2344L123.317 62.377H121.674C121.211 62.377 120.798 62.415 120.435 62.4912C120.071 62.5615 119.767 62.6699 119.521 62.8164C119.274 62.9629 119.087 63.1475 118.958 63.3701C118.829 63.5869 118.765 63.8418 118.765 64.1348C118.765 64.4336 118.832 64.7061 118.967 64.9521C119.102 65.1982 119.304 65.3945 119.573 65.541C119.849 65.6816 120.186 65.752 120.584 65.752C121.082 65.752 121.521 65.6465 121.902 65.4355C122.283 65.2246 122.585 64.9668 122.808 64.6621C123.036 64.3574 123.159 64.0615 123.177 63.7744L123.871 64.5566C123.83 64.8027 123.719 65.0752 123.537 65.374C123.355 65.6729 123.112 65.96 122.808 66.2354C122.509 66.5049 122.151 66.7305 121.735 66.9121C121.325 67.0879 120.862 67.1758 120.347 67.1758C119.702 67.1758 119.137 67.0498 118.65 66.7979C118.17 66.5459 117.795 66.209 117.525 65.7871C117.262 65.3594 117.13 64.8818 117.13 64.3545C117.13 63.8447 117.229 63.3965 117.429 63.0098C117.628 62.6172 117.915 62.292 118.29 62.0342C118.665 61.7705 119.116 61.5713 119.644 61.4365C120.171 61.3018 120.76 61.2344 121.41 61.2344H123.3ZM135.648 57.4902V58.7383H130.507V57.4902H135.648ZM132.247 55.1787H133.873V64.6445C133.873 64.9668 133.923 65.21 134.022 65.374C134.122 65.5381 134.251 65.6465 134.409 65.6992C134.567 65.752 134.737 65.7783 134.919 65.7783C135.054 65.7783 135.194 65.7666 135.341 65.7432C135.493 65.7139 135.607 65.6904 135.684 65.6729L135.692 67C135.563 67.041 135.394 67.0791 135.183 67.1143C134.978 67.1553 134.729 67.1758 134.436 67.1758C134.037 67.1758 133.671 67.0967 133.337 66.9385C133.003 66.7803 132.736 66.5166 132.537 66.1475C132.344 65.7725 132.247 65.2686 132.247 64.6357V55.1787ZM143.163 65.374V60.4785C143.163 60.1035 143.087 59.7783 142.935 59.5029C142.788 59.2217 142.565 59.0049 142.267 58.8525C141.968 58.7002 141.599 58.624 141.159 58.624C140.749 58.624 140.389 58.6943 140.078 58.835C139.773 58.9756 139.533 59.1602 139.357 59.3887C139.188 59.6172 139.103 59.8633 139.103 60.127H137.477C137.477 59.7871 137.564 59.4502 137.74 59.1162C137.916 58.7822 138.168 58.4805 138.496 58.2109C138.83 57.9355 139.229 57.7188 139.691 57.5605C140.16 57.3965 140.682 57.3145 141.256 57.3145C141.947 57.3145 142.557 57.4316 143.084 57.666C143.617 57.9004 144.033 58.2549 144.332 58.7295C144.637 59.1982 144.789 59.7871 144.789 60.4961V64.9258C144.789 65.2422 144.815 65.5791 144.868 65.9365C144.927 66.2939 145.012 66.6016 145.123 66.8594V67H143.427C143.345 66.8125 143.28 66.5635 143.233 66.2529C143.187 65.9365 143.163 65.6436 143.163 65.374ZM143.444 61.2344L143.462 62.377H141.818C141.355 62.377 140.942 62.415 140.579 62.4912C140.216 62.5615 139.911 62.6699 139.665 62.8164C139.419 62.9629 139.231 63.1475 139.103 63.3701C138.974 63.5869 138.909 63.8418 138.909 64.1348C138.909 64.4336 138.977 64.7061 139.111 64.9521C139.246 65.1982 139.448 65.3945 139.718 65.541C139.993 65.6816 140.33 65.752 140.729 65.752C141.227 65.752 141.666 65.6465 142.047 65.4355C142.428 65.2246 142.729 64.9668 142.952 64.6621C143.181 64.3574 143.304 64.0615 143.321 63.7744L144.016 64.5566C143.975 64.8027 143.863 65.0752 143.682 65.374C143.5 65.6729 143.257 65.96 142.952 66.2354C142.653 66.5049 142.296 66.7305 141.88 66.9121C141.47 67.0879 141.007 67.1758 140.491 67.1758C139.847 67.1758 139.281 67.0498 138.795 66.7979C138.314 66.5459 137.939 66.209 137.67 65.7871C137.406 65.3594 137.274 64.8818 137.274 64.3545C137.274 63.8447 137.374 63.3965 137.573 63.0098C137.772 62.6172 138.06 62.292 138.435 62.0342C138.81 61.7705 139.261 61.5713 139.788 61.4365C140.315 61.3018 140.904 61.2344 141.555 61.2344H143.444ZM148.964 59.3799V67H147.329V57.4902H148.876L148.964 59.3799ZM148.63 61.8848L147.874 61.8584C147.88 61.208 147.965 60.6074 148.129 60.0566C148.293 59.5 148.536 59.0166 148.858 58.6064C149.181 58.1963 149.582 57.8799 150.062 57.6572C150.543 57.4287 151.1 57.3145 151.732 57.3145C152.178 57.3145 152.588 57.3789 152.963 57.5078C153.338 57.6309 153.663 57.8271 153.938 58.0967C154.214 58.3662 154.428 58.7119 154.58 59.1338C154.732 59.5557 154.809 60.0654 154.809 60.6631V67H153.183V60.7422C153.183 60.2441 153.098 59.8457 152.928 59.5469C152.764 59.248 152.529 59.0312 152.225 58.8965C151.92 58.7559 151.562 58.6855 151.152 58.6855C150.672 58.6855 150.271 58.7705 149.948 58.9404C149.626 59.1104 149.368 59.3447 149.175 59.6436C148.981 59.9424 148.841 60.2852 148.753 60.6719C148.671 61.0527 148.63 61.457 148.63 61.8848ZM154.791 60.9883L153.701 61.3223C153.707 60.8008 153.792 60.2998 153.956 59.8193C154.126 59.3389 154.369 58.9111 154.686 58.5361C155.008 58.1611 155.403 57.8652 155.872 57.6484C156.341 57.4258 156.877 57.3145 157.48 57.3145C157.99 57.3145 158.441 57.3818 158.834 57.5166C159.232 57.6514 159.566 57.8594 159.836 58.1406C160.111 58.416 160.319 58.7705 160.46 59.2041C160.601 59.6377 160.671 60.1533 160.671 60.751V67H159.036V60.7334C159.036 60.2002 158.951 59.7871 158.781 59.4941C158.617 59.1953 158.383 58.9873 158.078 58.8701C157.779 58.7471 157.422 58.6855 157.006 58.6855C156.648 58.6855 156.332 58.7471 156.057 58.8701C155.781 58.9932 155.55 59.1631 155.362 59.3799C155.175 59.5908 155.031 59.834 154.932 60.1094C154.838 60.3848 154.791 60.6777 154.791 60.9883ZM163.123 53.5H164.758V65.1543L164.617 67H163.123V53.5ZM171.183 62.166V62.3506C171.183 63.042 171.101 63.6836 170.937 64.2754C170.772 64.8613 170.532 65.3711 170.216 65.8047C169.899 66.2383 169.513 66.5752 169.056 66.8154C168.599 67.0557 168.074 67.1758 167.482 67.1758C166.879 67.1758 166.349 67.0732 165.892 66.8682C165.44 66.6572 165.06 66.3555 164.749 65.9629C164.438 65.5703 164.189 65.0957 164.002 64.5391C163.82 63.9824 163.694 63.3555 163.624 62.6582V61.8496C163.694 61.1465 163.82 60.5166 164.002 59.96C164.189 59.4033 164.438 58.9287 164.749 58.5361C165.06 58.1377 165.44 57.8359 165.892 57.6309C166.343 57.4199 166.867 57.3145 167.465 57.3145C168.062 57.3145 168.593 57.4316 169.056 57.666C169.519 57.8945 169.905 58.2227 170.216 58.6504C170.532 59.0781 170.772 59.5908 170.937 60.1885C171.101 60.7803 171.183 61.4395 171.183 62.166ZM169.548 62.3506V62.166C169.548 61.6914 169.504 61.2461 169.416 60.8301C169.328 60.4082 169.188 60.0391 168.994 59.7227C168.801 59.4004 168.546 59.1484 168.229 58.9668C167.913 58.7793 167.523 58.6855 167.061 58.6855C166.65 58.6855 166.293 58.7559 165.988 58.8965C165.689 59.0371 165.435 59.2275 165.224 59.4678C165.013 59.7021 164.84 59.9717 164.705 60.2764C164.576 60.5752 164.479 60.8857 164.415 61.208V63.3262C164.509 63.7363 164.661 64.1318 164.872 64.5127C165.089 64.8877 165.376 65.1953 165.733 65.4355C166.097 65.6758 166.545 65.7959 167.078 65.7959C167.518 65.7959 167.893 65.708 168.203 65.5322C168.52 65.3506 168.774 65.1016 168.968 64.7852C169.167 64.4688 169.313 64.1025 169.407 63.6865C169.501 63.2705 169.548 62.8252 169.548 62.3506ZM177.186 67.1758C176.523 67.1758 175.923 67.0645 175.384 66.8418C174.851 66.6133 174.391 66.2939 174.004 65.8838C173.623 65.4736 173.33 64.9873 173.125 64.4248C172.92 63.8623 172.817 63.2471 172.817 62.5791V62.21C172.817 61.4365 172.932 60.748 173.16 60.1445C173.389 59.5352 173.699 59.0195 174.092 58.5977C174.484 58.1758 174.93 57.8564 175.428 57.6396C175.926 57.4229 176.441 57.3145 176.975 57.3145C177.654 57.3145 178.24 57.4316 178.732 57.666C179.23 57.9004 179.638 58.2285 179.954 58.6504C180.271 59.0664 180.505 59.5586 180.657 60.127C180.81 60.6895 180.886 61.3047 180.886 61.9727V62.7021H173.784V61.375H179.26V61.252C179.236 60.8301 179.148 60.4199 178.996 60.0215C178.85 59.623 178.615 59.2949 178.293 59.0371C177.971 58.7793 177.531 58.6504 176.975 58.6504C176.605 58.6504 176.266 58.7295 175.955 58.8877C175.645 59.04 175.378 59.2686 175.155 59.5732C174.933 59.8779 174.76 60.25 174.637 60.6895C174.514 61.1289 174.452 61.6357 174.452 62.21V62.5791C174.452 63.0303 174.514 63.4551 174.637 63.8535C174.766 64.2461 174.95 64.5918 175.19 64.8906C175.437 65.1895 175.732 65.4238 176.078 65.5938C176.43 65.7637 176.828 65.8486 177.273 65.8486C177.848 65.8486 178.334 65.7314 178.732 65.4971C179.131 65.2627 179.479 64.9492 179.778 64.5566L180.763 65.3389C180.558 65.6494 180.297 65.9453 179.98 66.2266C179.664 66.5078 179.274 66.7363 178.812 66.9121C178.354 67.0879 177.812 67.1758 177.186 67.1758ZM176.069 56.084L177.774 53.5H179.734L177.379 56.084H176.069ZM184.401 59.3799V67H182.767V57.4902H184.313L184.401 59.3799ZM184.067 61.8848L183.312 61.8584C183.317 61.208 183.402 60.6074 183.566 60.0566C183.73 59.5 183.974 59.0166 184.296 58.6064C184.618 58.1963 185.02 57.8799 185.5 57.6572C185.98 57.4287 186.537 57.3145 187.17 57.3145C187.615 57.3145 188.025 57.3789 188.4 57.5078C188.775 57.6309 189.101 57.8271 189.376 58.0967C189.651 58.3662 189.865 58.7119 190.018 59.1338C190.17 59.5557 190.246 60.0654 190.246 60.6631V67H188.62V60.7422C188.62 60.2441 188.535 59.8457 188.365 59.5469C188.201 59.248 187.967 59.0312 187.662 58.8965C187.357 58.7559 187 58.6855 186.59 58.6855C186.109 58.6855 185.708 58.7705 185.386 58.9404C185.063 59.1104 184.806 59.3447 184.612 59.6436C184.419 59.9424 184.278 60.2852 184.19 60.6719C184.108 61.0527 184.067 61.457 184.067 61.8848ZM190.229 60.9883L189.139 61.3223C189.145 60.8008 189.229 60.2998 189.394 59.8193C189.563 59.3389 189.807 58.9111 190.123 58.5361C190.445 58.1611 190.841 57.8652 191.31 57.6484C191.778 57.4258 192.314 57.3145 192.918 57.3145C193.428 57.3145 193.879 57.3818 194.271 57.5166C194.67 57.6514 195.004 57.8594 195.273 58.1406C195.549 58.416 195.757 58.7705 195.897 59.2041C196.038 59.6377 196.108 60.1533 196.108 60.751V67H194.474V60.7334C194.474 60.2002 194.389 59.7871 194.219 59.4941C194.055 59.1953 193.82 58.9873 193.516 58.8701C193.217 58.7471 192.859 58.6855 192.443 58.6855C192.086 58.6855 191.77 58.7471 191.494 58.8701C191.219 58.9932 190.987 59.1631 190.8 59.3799C190.612 59.5908 190.469 59.834 190.369 60.1094C190.275 60.3848 190.229 60.6777 190.229 60.9883ZM69.3086 87.3506V87.1484C69.3086 86.4629 69.4082 85.8271 69.6074 85.2412C69.8066 84.6494 70.0938 84.1367 70.4688 83.7031C70.8438 83.2637 71.2979 82.9238 71.8311 82.6836C72.3643 82.4375 72.9619 82.3145 73.624 82.3145C74.292 82.3145 74.8926 82.4375 75.4258 82.6836C75.9648 82.9238 76.4219 83.2637 76.7969 83.7031C77.1777 84.1367 77.4678 84.6494 77.667 85.2412C77.8662 85.8271 77.9658 86.4629 77.9658 87.1484V87.3506C77.9658 88.0361 77.8662 88.6719 77.667 89.2578C77.4678 89.8438 77.1777 90.3564 76.7969 90.7959C76.4219 91.2295 75.9678 91.5693 75.4346 91.8154C74.9072 92.0557 74.3096 92.1758 73.6416 92.1758C72.9736 92.1758 72.373 92.0557 71.8398 91.8154C71.3066 91.5693 70.8496 91.2295 70.4688 90.7959C70.0938 90.3564 69.8066 89.8438 69.6074 89.2578C69.4082 88.6719 69.3086 88.0361 69.3086 87.3506ZM70.9346 87.1484V87.3506C70.9346 87.8252 70.9902 88.2734 71.1016 88.6953C71.2129 89.1113 71.3799 89.4805 71.6025 89.8027C71.8311 90.125 72.1152 90.3799 72.4551 90.5674C72.7949 90.749 73.1904 90.8398 73.6416 90.8398C74.0869 90.8398 74.4766 90.749 74.8105 90.5674C75.1504 90.3799 75.4316 90.125 75.6543 89.8027C75.877 89.4805 76.0439 89.1113 76.1553 88.6953C76.2725 88.2734 76.3311 87.8252 76.3311 87.3506V87.1484C76.3311 86.6797 76.2725 86.2373 76.1553 85.8213C76.0439 85.3994 75.874 85.0273 75.6455 84.7051C75.4229 84.377 75.1416 84.1191 74.8018 83.9316C74.4678 83.7441 74.0752 83.6504 73.624 83.6504C73.1787 83.6504 72.7861 83.7441 72.4463 83.9316C72.1123 84.1191 71.8311 84.377 71.6025 84.7051C71.3799 85.0273 71.2129 85.3994 71.1016 85.8213C70.9902 86.2373 70.9346 86.6797 70.9346 87.1484ZM90.0771 90.374V85.4785C90.0771 85.1035 90.001 84.7783 89.8486 84.5029C89.7021 84.2217 89.4795 84.0049 89.1807 83.8525C88.8818 83.7002 88.5127 83.624 88.0732 83.624C87.6631 83.624 87.3027 83.6943 86.9922 83.835C86.6875 83.9756 86.4473 84.1602 86.2715 84.3887C86.1016 84.6172 86.0166 84.8633 86.0166 85.127H84.3906C84.3906 84.7871 84.4785 84.4502 84.6543 84.1162C84.8301 83.7822 85.082 83.4805 85.4102 83.2109C85.7441 82.9355 86.1426 82.7188 86.6055 82.5605C87.0742 82.3965 87.5957 82.3145 88.1699 82.3145C88.8613 82.3145 89.4707 82.4316 89.998 82.666C90.5312 82.9004 90.9473 83.2549 91.2461 83.7295C91.5508 84.1982 91.7031 84.7871 91.7031 85.4961V89.9258C91.7031 90.2422 91.7295 90.5791 91.7822 90.9365C91.8408 91.2939 91.9258 91.6016 92.0371 91.8594V92H90.3408C90.2588 91.8125 90.1943 91.5635 90.1475 91.2529C90.1006 90.9365 90.0771 90.6436 90.0771 90.374ZM90.3584 86.2344L90.376 87.377H88.7324C88.2695 87.377 87.8564 87.415 87.4932 87.4912C87.1299 87.5615 86.8252 87.6699 86.5791 87.8164C86.333 87.9629 86.1455 88.1475 86.0166 88.3701C85.8877 88.5869 85.8232 88.8418 85.8232 89.1348C85.8232 89.4336 85.8906 89.7061 86.0254 89.9521C86.1602 90.1982 86.3623 90.3945 86.6318 90.541C86.9072 90.6816 87.2441 90.752 87.6426 90.752C88.1406 90.752 88.5801 90.6465 88.9609 90.4355C89.3418 90.2246 89.6436 89.9668 89.8662 89.6621C90.0947 89.3574 90.2178 89.0615 90.2354 88.7744L90.9297 89.5566C90.8887 89.8027 90.7773 90.0752 90.5957 90.374C90.4141 90.6729 90.1709 90.96 89.8662 91.2354C89.5674 91.5049 89.21 91.7305 88.7939 91.9121C88.3838 92.0879 87.9209 92.1758 87.4053 92.1758C86.7607 92.1758 86.1953 92.0498 85.709 91.7979C85.2285 91.5459 84.8535 91.209 84.584 90.7871C84.3203 90.3594 84.1885 89.8818 84.1885 89.3545C84.1885 88.8447 84.2881 88.3965 84.4873 88.0098C84.6865 87.6172 84.9736 87.292 85.3486 87.0342C85.7236 86.7705 86.1748 86.5713 86.7021 86.4365C87.2295 86.3018 87.8184 86.2344 88.4688 86.2344H90.3584ZM95.8867 84.3184V95.6562H94.252V82.4902H95.7461L95.8867 84.3184ZM102.294 87.166V87.3506C102.294 88.042 102.212 88.6836 102.048 89.2754C101.884 89.8613 101.644 90.3711 101.327 90.8047C101.017 91.2383 100.633 91.5752 100.176 91.8154C99.7188 92.0557 99.1943 92.1758 98.6025 92.1758C97.999 92.1758 97.4658 92.0762 97.0029 91.877C96.54 91.6777 96.1475 91.3877 95.8252 91.0068C95.5029 90.626 95.2451 90.1689 95.0518 89.6357C94.8643 89.1025 94.7354 88.502 94.665 87.834V86.8496C94.7354 86.1465 94.8672 85.5166 95.0605 84.96C95.2539 84.4033 95.5088 83.9287 95.8252 83.5361C96.1475 83.1377 96.5371 82.8359 96.9941 82.6309C97.4512 82.4199 97.9785 82.3145 98.5762 82.3145C99.1738 82.3145 99.7041 82.4316 100.167 82.666C100.63 82.8945 101.02 83.2227 101.336 83.6504C101.652 84.0781 101.89 84.5908 102.048 85.1885C102.212 85.7803 102.294 86.4395 102.294 87.166ZM100.659 87.3506V87.166C100.659 86.6914 100.609 86.2461 100.51 85.8301C100.41 85.4082 100.255 85.0391 100.044 84.7227C99.8389 84.4004 99.5752 84.1484 99.2529 83.9668C98.9307 83.7793 98.5469 83.6855 98.1016 83.6855C97.6914 83.6855 97.334 83.7559 97.0293 83.8965C96.7305 84.0371 96.4756 84.2275 96.2646 84.4678C96.0537 84.7021 95.8809 84.9717 95.7461 85.2764C95.6172 85.5752 95.5205 85.8857 95.4561 86.208V88.4844C95.5732 88.8945 95.7373 89.2812 95.9482 89.6445C96.1592 90.002 96.4404 90.292 96.792 90.5146C97.1436 90.7314 97.5859 90.8398 98.1191 90.8398C98.5586 90.8398 98.9365 90.749 99.2529 90.5674C99.5752 90.3799 99.8389 90.125 100.044 89.8027C100.255 89.4805 100.41 89.1113 100.51 88.6953C100.609 88.2734 100.659 87.8252 100.659 87.3506ZM106.135 78.5V92H104.5V78.5H106.135ZM110.512 82.4902V92H108.877V82.4902H110.512ZM108.754 79.9678C108.754 79.7041 108.833 79.4814 108.991 79.2998C109.155 79.1182 109.396 79.0273 109.712 79.0273C110.022 79.0273 110.26 79.1182 110.424 79.2998C110.594 79.4814 110.679 79.7041 110.679 79.9678C110.679 80.2197 110.594 80.4365 110.424 80.6182C110.26 80.7939 110.022 80.8818 109.712 80.8818C109.396 80.8818 109.155 80.7939 108.991 80.6182C108.833 80.4365 108.754 80.2197 108.754 79.9678ZM116.928 90.8398C117.314 90.8398 117.672 90.7607 118 90.6025C118.328 90.4443 118.598 90.2275 118.809 89.9521C119.02 89.6709 119.14 89.3516 119.169 88.9941H120.716C120.687 89.5566 120.496 90.0811 120.145 90.5674C119.799 91.0479 119.345 91.4375 118.782 91.7363C118.22 92.0293 117.602 92.1758 116.928 92.1758C116.213 92.1758 115.589 92.0498 115.056 91.7979C114.528 91.5459 114.089 91.2002 113.737 90.7607C113.392 90.3213 113.131 89.8174 112.955 89.249C112.785 88.6748 112.7 88.0684 112.7 87.4297V87.0605C112.7 86.4219 112.785 85.8184 112.955 85.25C113.131 84.6758 113.392 84.1689 113.737 83.7295C114.089 83.29 114.528 82.9443 115.056 82.6924C115.589 82.4404 116.213 82.3145 116.928 82.3145C117.672 82.3145 118.322 82.4668 118.879 82.7715C119.436 83.0703 119.872 83.4805 120.188 84.002C120.511 84.5176 120.687 85.1035 120.716 85.7598H119.169C119.14 85.3672 119.028 85.0127 118.835 84.6963C118.647 84.3799 118.39 84.1279 118.062 83.9404C117.739 83.7471 117.361 83.6504 116.928 83.6504C116.43 83.6504 116.011 83.75 115.671 83.9492C115.337 84.1426 115.07 84.4062 114.871 84.7402C114.678 85.0684 114.537 85.4346 114.449 85.8389C114.367 86.2373 114.326 86.6445 114.326 87.0605V87.4297C114.326 87.8457 114.367 88.2559 114.449 88.6602C114.531 89.0645 114.669 89.4307 114.862 89.7588C115.062 90.0869 115.328 90.3506 115.662 90.5498C116.002 90.7432 116.424 90.8398 116.928 90.8398ZM128.151 90.374V85.4785C128.151 85.1035 128.075 84.7783 127.923 84.5029C127.776 84.2217 127.554 84.0049 127.255 83.8525C126.956 83.7002 126.587 83.624 126.147 83.624C125.737 83.624 125.377 83.6943 125.066 83.835C124.762 83.9756 124.521 84.1602 124.346 84.3887C124.176 84.6172 124.091 84.8633 124.091 85.127H122.465C122.465 84.7871 122.553 84.4502 122.729 84.1162C122.904 83.7822 123.156 83.4805 123.484 83.2109C123.818 82.9355 124.217 82.7188 124.68 82.5605C125.148 82.3965 125.67 82.3145 126.244 82.3145C126.936 82.3145 127.545 82.4316 128.072 82.666C128.605 82.9004 129.021 83.2549 129.32 83.7295C129.625 84.1982 129.777 84.7871 129.777 85.4961V89.9258C129.777 90.2422 129.804 90.5791 129.856 90.9365C129.915 91.2939 130 91.6016 130.111 91.8594V92H128.415C128.333 91.8125 128.269 91.5635 128.222 91.2529C128.175 90.9365 128.151 90.6436 128.151 90.374ZM128.433 86.2344L128.45 87.377H126.807C126.344 87.377 125.931 87.415 125.567 87.4912C125.204 87.5615 124.899 87.6699 124.653 87.8164C124.407 87.9629 124.22 88.1475 124.091 88.3701C123.962 88.5869 123.897 88.8418 123.897 89.1348C123.897 89.4336 123.965 89.7061 124.1 89.9521C124.234 90.1982 124.437 90.3945 124.706 90.541C124.981 90.6816 125.318 90.752 125.717 90.752C126.215 90.752 126.654 90.6465 127.035 90.4355C127.416 90.2246 127.718 89.9668 127.94 89.6621C128.169 89.3574 128.292 89.0615 128.31 88.7744L129.004 89.5566C128.963 89.8027 128.852 90.0752 128.67 90.374C128.488 90.6729 128.245 90.96 127.94 91.2354C127.642 91.5049 127.284 91.7305 126.868 91.9121C126.458 92.0879 125.995 92.1758 125.479 92.1758C124.835 92.1758 124.27 92.0498 123.783 91.7979C123.303 91.5459 122.928 91.209 122.658 90.7871C122.395 90.3594 122.263 89.8818 122.263 89.3545C122.263 88.8447 122.362 88.3965 122.562 88.0098C122.761 87.6172 123.048 87.292 123.423 87.0342C123.798 86.7705 124.249 86.5713 124.776 86.4365C125.304 86.3018 125.893 86.2344 126.543 86.2344H128.433ZM136.316 82.4902V83.7383H131.175V82.4902H136.316ZM132.915 80.1787H134.541V89.6445C134.541 89.9668 134.591 90.21 134.69 90.374C134.79 90.5381 134.919 90.6465 135.077 90.6992C135.235 90.752 135.405 90.7783 135.587 90.7783C135.722 90.7783 135.862 90.7666 136.009 90.7432C136.161 90.7139 136.275 90.6904 136.352 90.6729L136.36 92C136.231 92.041 136.062 92.0791 135.851 92.1143C135.646 92.1553 135.396 92.1758 135.104 92.1758C134.705 92.1758 134.339 92.0967 134.005 91.9385C133.671 91.7803 133.404 91.5166 133.205 91.1475C133.012 90.7725 132.915 90.2686 132.915 89.6357V80.1787ZM139.99 82.4902V92H138.355V82.4902H139.99ZM138.232 79.9678C138.232 79.7041 138.312 79.4814 138.47 79.2998C138.634 79.1182 138.874 79.0273 139.19 79.0273C139.501 79.0273 139.738 79.1182 139.902 79.2998C140.072 79.4814 140.157 79.7041 140.157 79.9678C140.157 80.2197 140.072 80.4365 139.902 80.6182C139.738 80.7939 139.501 80.8818 139.19 80.8818C138.874 80.8818 138.634 80.7939 138.47 80.6182C138.312 80.4365 138.232 80.2197 138.232 79.9678ZM145.492 90.5322L148.094 82.4902H149.755L146.336 92H145.246L145.492 90.5322ZM143.321 82.4902L146.002 90.5762L146.187 92H145.097L141.651 82.4902H143.321ZM150.748 87.3506V87.1484C150.748 86.4629 150.848 85.8271 151.047 85.2412C151.246 84.6494 151.533 84.1367 151.908 83.7031C152.283 83.2637 152.737 82.9238 153.271 82.6836C153.804 82.4375 154.401 82.3145 155.063 82.3145C155.731 82.3145 156.332 82.4375 156.865 82.6836C157.404 82.9238 157.861 83.2637 158.236 83.7031C158.617 84.1367 158.907 84.6494 159.106 85.2412C159.306 85.8271 159.405 86.4629 159.405 87.1484V87.3506C159.405 88.0361 159.306 88.6719 159.106 89.2578C158.907 89.8438 158.617 90.3564 158.236 90.7959C157.861 91.2295 157.407 91.5693 156.874 91.8154C156.347 92.0557 155.749 92.1758 155.081 92.1758C154.413 92.1758 153.812 92.0557 153.279 91.8154C152.746 91.5693 152.289 91.2295 151.908 90.7959C151.533 90.3564 151.246 89.8438 151.047 89.2578C150.848 88.6719 150.748 88.0361 150.748 87.3506ZM152.374 87.1484V87.3506C152.374 87.8252 152.43 88.2734 152.541 88.6953C152.652 89.1113 152.819 89.4805 153.042 89.8027C153.271 90.125 153.555 90.3799 153.895 90.5674C154.234 90.749 154.63 90.8398 155.081 90.8398C155.526 90.8398 155.916 90.749 156.25 90.5674C156.59 90.3799 156.871 90.125 157.094 89.8027C157.316 89.4805 157.483 89.1113 157.595 88.6953C157.712 88.2734 157.771 87.8252 157.771 87.3506V87.1484C157.771 86.6797 157.712 86.2373 157.595 85.8213C157.483 85.3994 157.313 85.0273 157.085 84.7051C156.862 84.377 156.581 84.1191 156.241 83.9316C155.907 83.7441 155.515 83.6504 155.063 83.6504C154.618 83.6504 154.226 83.7441 153.886 83.9316C153.552 84.1191 153.271 84.377 153.042 84.7051C152.819 85.0273 152.652 85.3994 152.541 85.8213C152.43 86.2373 152.374 86.6797 152.374 87.1484ZM163.378 79.2031L163.264 88.3877H161.796L161.673 79.2031H163.378ZM161.62 91.1826C161.62 90.9189 161.699 90.6963 161.857 90.5146C162.021 90.333 162.262 90.2422 162.578 90.2422C162.889 90.2422 163.126 90.333 163.29 90.5146C163.46 90.6963 163.545 90.9189 163.545 91.1826C163.545 91.4346 163.46 91.6514 163.29 91.833C163.126 92.0146 162.889 92.1055 162.578 92.1055C162.262 92.1055 162.021 92.0146 161.857 91.833C161.699 91.6514 161.62 91.4346 161.62 91.1826Z" fill="#B75B4B"/>
<g id="Group">
<path id="Vector" d="M172.449 212.301C183.516 201.834 190.422 187.013 190.422 170.578C190.422 138.865 164.713 113.156 133 113.156C101.287 113.156 75.5779 138.865 75.5779 170.578C75.5779 202.291 101.287 228 133 228C135.485 228 137.933 227.842 140.335 227.536L172.449 212.301Z" fill="#9CCDE0"/>
<path id="Vector_2" d="M166.009 193.679C165.505 191.827 165.327 189.902 165.484 187.989L166.421 179.156C166.879 173.615 166.034 168.062 163.581 163.072C157.242 150.179 158.697 149.243 158.5 136.446C158.5 133.832 156.38 131.713 153.766 131.713C151.152 131.713 149.033 133.832 149.033 136.446C149.033 188.485 149.13 184.666 148.809 186.192V193.006C148.809 198.748 144.138 203.419 138.397 203.419C134.584 203.419 121.434 203.419 112.486 203.419C116.467 208.955 121.912 213.289 128.232 215.914C128.271 215.93 128.31 215.947 128.349 215.963C133.232 218.025 138.684 222.141 139.595 227.246L139.683 227.611C152.541 226.121 164.103 220.384 172.932 211.838L166.009 193.679Z" fill="#E4B494"/>
<path id="Vector_3" d="M94.9055 131.879L93.4639 130.543C91.2413 128.484 87.7381 128.617 85.6789 130.84C83.6197 133.062 83.7533 136.565 85.9756 138.625L94.9055 146.899V131.879Z" fill="#E4B494"/>
<path id="Vector_4" d="M88.9055 134.484C87.5422 133.221 86.9687 131.415 87.2014 129.694C86.645 129.978 86.1268 130.357 85.6789 130.84C83.6197 133.062 83.7533 136.565 85.9756 138.625L94.9055 146.899V140.044L88.9055 134.484Z" fill="#CF9261"/>
<g id="Group_2">
<path id="Vector_5" d="M166.44 194.81C164.485 208.292 152.881 218.65 138.856 218.65C136.435 218.65 134.086 218.341 131.846 217.761C135.559 220.031 138.9 223.349 139.595 227.246L139.683 227.611C152.541 226.12 164.103 220.384 172.931 211.838L166.44 194.81Z" fill="#E39F75"/>
</g>
<g id="Group_3">
<path id="Vector_6" d="M140.879 203.643H102.855C98.3583 203.643 94.7004 199.984 94.7004 195.488V116.155C94.7004 111.658 98.3583 108 102.855 108H140.879C145.375 108 149.033 111.658 149.033 116.155V195.488C149.033 199.984 145.375 203.643 140.879 203.643Z" fill="#414C6E"/>
</g>
<g id="Group_4">
<path id="Vector_7" d="M115.86 113.844H115.045C114.267 113.844 113.636 113.213 113.636 112.435C113.636 111.656 114.267 111.025 115.045 111.025H115.86C116.638 111.025 117.269 111.656 117.269 112.435C117.269 113.213 116.638 113.844 115.86 113.844Z" fill="#6E7996"/>
</g>
<g id="Group_5">
<path id="Vector_8" d="M128.493 113.844H120.669C119.891 113.844 119.26 113.213 119.26 112.435C119.26 111.656 119.891 111.025 120.669 111.025H128.493C129.271 111.025 129.902 111.656 129.902 112.435C129.902 113.213 129.271 113.844 128.493 113.844Z" fill="#6E7996"/>
</g>
<path id="Vector_9" d="M140.878 113.074H135.164C134.098 113.074 133.235 113.937 133.235 115.003C133.235 116.243 132.22 117.258 130.98 117.258H112.753C111.513 117.258 110.498 116.243 110.498 115.003C110.498 113.937 109.635 113.074 108.569 113.074H102.854C101.153 113.074 99.7734 114.453 99.7734 116.155V195.488C99.7734 197.19 101.153 198.569 102.854 198.569H140.878C142.58 198.569 143.959 197.19 143.959 195.488C143.959 187.328 143.959 118.333 143.959 116.155C143.959 114.453 142.58 113.074 140.878 113.074Z" fill="#EAF6FE"/>
<g id="Group_6">
<path id="Vector_10" d="M110.403 127.968H133.33C134.771 127.968 135.94 126.799 135.94 125.358C135.94 123.916 134.771 122.747 133.33 122.747H110.403C108.962 122.747 107.793 123.916 107.793 125.358C107.793 126.799 108.962 127.968 110.403 127.968Z" fill="#D6DDEF"/>
</g>
<path id="Vector_11" d="M110.403 122.747H115.225V127.968H110.403C108.962 127.968 107.793 126.799 107.793 125.358C107.793 123.916 108.962 122.747 110.403 122.747Z" fill="#91C4E0"/>
<g id="Group_7">
<path id="Vector_12" d="M137.963 151.791H105.771C104.479 151.791 103.423 150.735 103.423 149.443V135.936C103.423 134.644 104.479 133.588 105.771 133.588H137.963C139.254 133.588 140.311 134.644 140.311 135.936V149.443C140.311 150.735 139.254 151.791 137.963 151.791Z" fill="#D6DDEF"/>
<path id="Vector_13" d="M137.963 173.62H105.771C104.479 173.62 103.423 172.564 103.423 171.272V157.765C103.423 156.474 104.479 155.417 105.771 155.417H137.963C139.254 155.417 140.311 156.474 140.311 157.765V171.272C140.311 172.564 139.254 173.62 137.963 173.62Z" fill="#D6DDEF"/>
<path id="Vector_14" d="M137.963 195.45H105.771C104.479 195.45 103.423 194.393 103.423 193.102V179.595C103.423 178.303 104.479 177.247 105.771 177.247H137.963C139.254 177.247 140.311 178.303 140.311 179.595V193.102C140.311 194.393 139.254 195.45 137.963 195.45Z" fill="#D6DDEF"/>
<path id="Vector_15" d="M137.963 151.791H105.771C104.479 151.791 103.423 150.735 103.423 149.443V135.936C103.423 134.644 104.479 133.588 105.771 133.588H137.963C139.254 133.588 140.311 134.644 140.311 135.936V149.443C140.311 150.735 139.254 151.791 137.963 151.791Z" fill="#D6DDEF"/>
<path id="Vector_16" d="M137.963 173.62H105.771C104.479 173.62 103.423 172.564 103.423 171.272V157.765C103.423 156.474 104.479 155.417 105.771 155.417H137.963C139.254 155.417 140.311 156.474 140.311 157.765V171.272C140.311 172.564 139.254 173.62 137.963 173.62Z" fill="#D6DDEF"/>
<path id="Vector_17" d="M137.963 195.45H105.771C104.479 195.45 103.423 194.393 103.423 193.102V179.595C103.423 178.303 104.479 177.247 105.771 177.247H137.963C139.254 177.247 140.311 178.303 140.311 179.595V193.102C140.311 194.393 139.254 195.45 137.963 195.45Z" fill="#D6DDEF"/>
</g>
<path id="Vector_18" d="M114.607 149.443V135.936C114.607 134.644 115.664 133.588 116.955 133.588H105.771C104.479 133.588 103.423 134.644 103.423 135.936V149.443C103.423 150.734 104.479 151.791 105.771 151.791H116.955C115.664 151.791 114.607 150.734 114.607 149.443Z" fill="#CCD0DE"/>
<path id="Vector_19" d="M114.607 171.272V157.765C114.607 156.474 115.664 155.417 116.955 155.417H105.771C104.479 155.417 103.423 156.474 103.423 157.765V171.272C103.423 172.564 104.479 173.62 105.771 173.62H116.955C115.664 173.62 114.607 172.564 114.607 171.272Z" fill="#CCD0DE"/>
<path id="Vector_20" d="M114.607 193.102V179.595C114.607 178.303 115.664 177.247 116.955 177.247H105.771C104.479 177.247 103.423 178.303 103.423 179.595V193.102C103.423 194.393 104.479 195.45 105.771 195.45H116.955C115.664 195.45 114.607 194.393 114.607 193.102Z" fill="#CCD0DE"/>
<g id="Group_8">
<path id="Vector_21" d="M120.597 141.138H111.183C110.212 141.138 109.425 140.351 109.425 139.38C109.425 138.409 110.212 137.622 111.183 137.622H120.597C121.568 137.622 122.355 138.409 122.355 139.38C122.355 140.351 121.568 141.138 120.597 141.138Z" fill="#6E7996"/>
</g>
<g id="Group_9">
<path id="Vector_22" d="M132.55 147.756H111.183C110.212 147.756 109.425 146.97 109.425 145.999C109.425 145.028 110.212 144.241 111.183 144.241H132.55C133.521 144.241 134.308 145.028 134.308 145.999C134.308 146.97 133.521 147.756 132.55 147.756Z" fill="#89B4C4"/>
</g>
<g id="Group_10">
<path id="Vector_23" d="M127.941 141.138H126.613C125.642 141.138 124.855 140.351 124.855 139.38C124.855 138.409 125.642 137.622 126.613 137.622H127.941C128.912 137.622 129.699 138.409 129.699 139.38C129.699 140.351 128.912 141.138 127.941 141.138Z" fill="#89B4C4"/>
</g>
<g id="Group_11">
<path id="Vector_24" d="M120.597 162.967H111.183C110.212 162.967 109.425 162.18 109.425 161.209C109.425 160.238 110.212 159.451 111.183 159.451H120.597C121.568 159.451 122.355 160.238 122.355 161.209C122.355 162.18 121.568 162.967 120.597 162.967Z" fill="#6E7996"/>
</g>
<g id="Group_12">
<path id="Vector_25" d="M132.55 169.586H111.183C110.212 169.586 109.425 168.799 109.425 167.828C109.425 166.857 110.212 166.07 111.183 166.07H132.55C133.521 166.07 134.308 166.857 134.308 167.828C134.308 168.799 133.521 169.586 132.55 169.586Z" fill="#89B4C4"/>
</g>
<g id="Group_13">
<path id="Vector_26" d="M127.941 162.967H126.613C125.642 162.967 124.855 162.18 124.855 161.209C124.855 160.238 125.642 159.451 126.613 159.451H127.941C128.912 159.451 129.699 160.238 129.699 161.209C129.699 162.18 128.912 162.967 127.941 162.967Z" fill="#89B4C4"/>
</g>
<g id="Group_14">
<path id="Vector_27" d="M120.597 184.797H111.183C110.212 184.797 109.425 184.01 109.425 183.039C109.425 182.068 110.212 181.281 111.183 181.281H120.597C121.568 181.281 122.355 182.068 122.355 183.039C122.355 184.01 121.568 184.797 120.597 184.797Z" fill="#6E7996"/>
</g>
<g id="Group_15">
<path id="Vector_28" d="M132.55 191.417H111.183C110.212 191.417 109.425 190.63 109.425 189.659C109.425 188.688 110.212 187.901 111.183 187.901H132.55C133.521 187.901 134.308 188.688 134.308 189.659C134.308 190.63 133.521 191.417 132.55 191.417Z" fill="#89B4C4"/>
</g>
<g id="Group_16">
<path id="Vector_29" d="M127.941 184.797H126.613C125.642 184.797 124.855 184.01 124.855 183.039C124.855 182.068 125.642 181.281 126.613 181.281H127.941C128.912 181.281 129.699 182.068 129.699 183.039C129.699 184.01 128.912 184.797 127.941 184.797Z" fill="#89B4C4"/>
</g>
<path id="Vector_30" d="M102.922 160.932C101.11 162.887 98.0564 163.004 96.1011 161.192L88.0158 153.7C86.0604 151.889 85.944 148.834 87.7559 146.879C89.5679 144.924 92.6218 144.807 94.5772 146.619L102.662 154.111C104.618 155.923 104.734 158.976 102.922 160.932Z" fill="#E4B494"/>
<path id="Vector_31" d="M99.4273 157.787L91.3421 150.295C89.9897 149.042 89.5184 147.195 89.9546 145.529C89.1394 145.764 88.3747 146.212 87.7559 146.88C85.944 148.835 86.0604 151.889 88.0158 153.701L96.1011 161.192C98.0564 163.004 101.11 162.888 102.922 160.932C103.481 160.329 103.855 159.621 104.05 158.878C102.478 159.331 100.715 158.98 99.4273 157.787Z" fill="#CF9261"/>
<g id="Group_17">
<path id="Vector_32" d="M102.922 187.264C101.11 189.219 98.0564 189.336 96.1011 187.524L88.0158 180.032C86.0604 178.22 85.944 175.166 87.7559 173.211C89.5679 171.255 92.6218 171.139 94.5772 172.951L102.662 180.442C104.618 182.254 104.734 185.308 102.922 187.264Z" fill="#E4B494"/>
</g>
<path id="Vector_33" d="M99.4273 184.118L91.3421 176.626C89.9897 175.373 89.5184 173.526 89.9546 171.859C89.1394 172.095 88.3747 172.543 87.7559 173.21C85.944 175.166 86.0604 178.22 88.0158 180.032L96.1011 187.523C98.0564 189.335 101.11 189.219 102.922 187.263C103.481 186.66 103.855 185.952 104.05 185.209C102.478 185.662 100.715 185.311 99.4273 184.118Z" fill="#CF9261"/>
<path id="Vector_34" d="M102.922 174.098C101.11 176.053 98.0564 176.17 96.1011 174.358L88.0158 166.866C86.0604 165.055 85.944 162 87.7559 160.045C89.5679 158.09 92.6218 157.973 94.5772 159.785L102.662 167.277C104.618 169.088 104.734 172.142 102.922 174.098Z" fill="#E4B494"/>
<path id="Vector_35" d="M99.4273 170.953L91.3421 163.461C89.9897 162.208 89.5184 160.361 89.9546 158.694C89.1394 158.93 88.3744 159.378 87.7559 160.045C85.944 162.001 86.0604 165.055 88.0158 166.867L96.1011 174.358C98.0564 176.17 101.11 176.054 102.922 174.098C103.481 173.495 103.855 172.787 104.05 172.044C102.478 172.497 100.715 172.146 99.4273 170.953Z" fill="#CF9261"/>
</g>
</g>
</g>
<defs>
<filter id="filter0_d_4047_521" x="3" y="-4" width="280" height="264" filterUnits="userSpaceOnUse" color-interpolation-filters="sRGB">
<feFlood flood-opacity="0" result="BackgroundImageFix"/>
<feColorMatrix in="SourceAlpha" type="matrix" values="0 0 0 0 0 0 0 0 0 0 0 0 0 0 0 0 0 0 127 0" result="hardAlpha"/>
<feOffset dx="10" dy="-10"/>
<feGaussianBlur stdDeviation="6"/>
<feComposite in2="hardAlpha" operator="out"/>
<feColorMatrix type="matrix" values="0 0 0 0 0 0 0 0 0 0 0 0 0 0 0 0 0 0 0.1 0"/>
<feBlend mode="normal" in2="BackgroundImageFix" result="effect1_dropShadow_4047_521"/>
<feBlend mode="normal" in="SourceGraphic" in2="effect1_dropShadow_4047_521" result="shape"/>
</filter>
<linearGradient id="paint0_linear_4047_521" x1="5" y1="138" x2="261" y2="138" gradientUnits="userSpaceOnUse">
<stop stop-color="#F2F2F2"/>
<stop offset="1" stop-color="#F2F2F2"/>
</linearGradient>
<linearGradient id="paint1_linear_4047_521" x1="5" y1="138" x2="261" y2="138" gradientUnits="userSpaceOnUse">
<stop offset="0.139423" stop-color="white"/>
<stop offset="1" stop-color="#E2E1E1"/>
</linearGradient>
</defs>
</svg>
