<svg width="135" height="137" viewBox="0 0 135 137" fill="none" xmlns="http://www.w3.org/2000/svg">
<g id="Icone=PDF, Estado=Hover">
<g id="Group 1193">
<g id="Ellipse 102" filter="url(#filter0_d_4036_513)">
<circle cx="58.5" cy="78.5" r="56.5" fill="url(#paint0_linear_4036_513)"/>
<circle cx="58.5" cy="78.5" r="53.5" stroke="url(#paint1_linear_4036_513)" stroke-width="6"/>
</g>
<g id="Icon">
<g id="Group">
<path id="Vector" d="M59.7752 76.7828C60.4009 76.7828 60.9081 76.2755 60.9081 75.6499V72.1993H63.132C63.7577 72.1993 64.2649 71.6919 64.2649 71.0664C64.2649 70.4408 63.7577 69.9335 63.132 69.9335H60.9081V67.7861H63.4217C64.0474 67.7861 64.5546 67.2787 64.5546 66.6532C64.5546 66.0276 64.0474 65.5203 63.4217 65.5203H59.7752C59.1495 65.5203 58.6423 66.0276 58.6423 66.6532V75.6499C58.6423 76.2755 59.1495 76.7828 59.7752 76.7828Z" fill="#CC7465"/>
<path id="Vector_2" d="M51.5567 65.4871H48.9899C48.6891 65.4871 48.4005 65.6067 48.188 65.8197C47.9755 66.0327 47.8564 66.3213 47.857 66.6221V66.6291V66.6294C47.857 66.6294 47.8648 75.6865 47.8792 75.7586C47.8975 76.033 48.0139 76.2924 48.2102 76.4873C48.4225 76.6979 48.7094 76.816 49.0083 76.816H49.0126C49.0902 76.8157 50.9203 76.8087 51.6517 76.7959C54.3738 76.7483 56.3496 74.3744 56.3496 71.1515C56.3496 67.7635 54.4235 65.4871 51.5567 65.4871ZM51.6121 74.5305C51.2733 74.5364 50.6752 74.5411 50.1373 74.5445C50.1337 73.4718 50.1266 68.8668 50.1248 67.7529H51.5567C52.7784 67.7529 54.0838 68.6457 54.0838 71.1515C54.0838 72.8118 53.3195 74.5005 51.6121 74.5305Z" fill="#CC7465"/>
<path id="Vector_3" d="M42.3392 65.4871H39.8156C39.5145 65.4871 39.2258 65.6069 39.0132 65.8201C38.8016 66.0324 38.6828 66.3201 38.6828 66.62H38.6826V75.6831C38.6826 76.3087 39.1898 76.816 39.8155 76.816C40.4412 76.816 40.9484 76.3087 40.9484 75.6831V72.8732C41.4574 72.8706 42.018 72.8682 42.339 72.8682C44.4016 72.8682 46.0796 71.2127 46.0796 69.1777C46.0796 67.1427 44.4017 65.4871 42.3392 65.4871ZM42.3392 70.6023C42.0191 70.6023 41.4659 70.6047 40.9599 70.6073C40.9572 70.0831 40.9534 68.3003 40.9519 67.7529H42.3393C43.1388 67.7529 43.8141 68.4053 43.8141 69.1776C43.8141 69.9499 43.1386 70.6023 42.3392 70.6023Z" fill="#CC7465"/>
<path id="Vector_4" d="M88.8652 92.2319C88.6665 91.8687 88.2854 91.6428 87.8714 91.6428H85.1231V82.023C85.1231 81.3974 84.6159 80.8901 83.9902 80.8901H80.6162V58.8552C80.6162 58.5546 80.4968 58.2664 80.2841 58.0539L71.5576 49.3316C71.3452 49.1193 71.0571 49 70.7568 49H40.5163C38.6422 49 37.1176 50.5247 37.1176 52.3987V60.9553H34.3986C32.5246 60.9553 30.9999 62.48 30.9999 64.354V77.9488C30.9999 79.8228 32.5246 81.3475 34.3986 81.3475H37.1176V101.334C37.1176 103.208 38.6422 104.732 40.5163 104.732H77.4158L78.5338 106.478C78.742 106.803 79.1017 107 79.4878 107C79.8739 107 80.2336 106.803 80.4418 106.478L88.8253 93.3864C89.0487 93.0378 89.064 92.5952 88.8652 92.2319ZM71.7763 52.7539L76.8605 57.8356H72.9092C72.2845 57.8356 71.7763 57.3274 71.7763 56.7027V52.7539ZM40.5163 102.467C39.8916 102.467 39.3834 101.958 39.3834 101.334V81.3476H47.0779C47.7036 81.3476 48.2108 80.8403 48.2108 80.2147C48.2108 79.5891 47.7036 79.0818 47.0779 79.0818H34.3986C33.7739 79.0818 33.2657 78.5736 33.2657 77.9489V64.3541C33.2657 63.7295 33.7739 63.2213 34.3986 63.2213H68.8387C69.4634 63.2213 69.9716 63.7295 69.9716 64.3541V77.9489C69.9716 78.5736 69.4634 79.0818 68.8387 79.0818H57.274C56.6483 79.0818 56.1411 79.5891 56.1411 80.2147C56.1411 80.8403 56.6483 81.3476 57.274 81.3476H68.8387C70.7127 81.3476 72.2374 79.8229 72.2374 77.9489V64.3541C72.2374 62.4801 70.7127 60.9555 68.8387 60.9555H39.3834V52.3988C39.3834 51.7741 39.8916 51.2659 40.5163 51.2659H69.5105V56.7027C69.5105 58.5767 71.0351 60.1014 72.9092 60.1014H78.3503V80.8901H74.9857C74.36 80.8901 73.8528 81.3974 73.8528 82.023V91.6428H71.1045C70.6904 91.6428 70.3093 91.8687 70.1106 92.2319C69.9119 92.5952 69.9272 93.0378 70.1505 93.3865L75.965 102.466L40.5163 102.467ZM79.4879 103.766L73.1752 93.9086H74.9857C75.6114 93.9086 76.1186 93.4013 76.1186 92.7757V83.1559H82.8572V92.7757C82.8572 93.4013 83.3643 93.9086 83.99 93.9086H85.8005L79.4879 103.766Z" fill="#CC7465"/>
<path id="Vector_5" d="M52.176 81.3476C52.8017 81.3476 53.3089 80.8404 53.3089 80.2147C53.3089 79.589 52.8017 79.0818 52.176 79.0818C51.5504 79.0818 51.0432 79.589 51.0432 80.2147C51.0432 80.8404 51.5504 81.3476 52.176 81.3476Z" fill="#CC7465"/>
</g>
</g>
</g>
</g>
<defs>
<filter id="filter0_d_4036_513" x="0" y="0" width="137" height="137" filterUnits="userSpaceOnUse" color-interpolation-filters="sRGB">
<feFlood flood-opacity="0" result="BackgroundImageFix"/>
<feColorMatrix in="SourceAlpha" type="matrix" values="0 0 0 0 0 0 0 0 0 0 0 0 0 0 0 0 0 0 127 0" result="hardAlpha"/>
<feOffset dx="10" dy="-10"/>
<feGaussianBlur stdDeviation="6"/>
<feComposite in2="hardAlpha" operator="out"/>
<feColorMatrix type="matrix" values="0 0 0 0 0 0 0 0 0 0 0 0 0 0 0 0 0 0 0.1 0"/>
<feBlend mode="normal" in2="BackgroundImageFix" result="effect1_dropShadow_4036_513"/>
<feBlend mode="normal" in="SourceGraphic" in2="effect1_dropShadow_4036_513" result="shape"/>
</filter>
<linearGradient id="paint0_linear_4036_513" x1="2" y1="78.5" x2="115" y2="78.5" gradientUnits="userSpaceOnUse">
<stop stop-color="#F2F2F2"/>
<stop offset="1" stop-color="#F2F2F2"/>
</linearGradient>
<linearGradient id="paint1_linear_4036_513" x1="2" y1="78.5" x2="115" y2="78.5" gradientUnits="userSpaceOnUse">
<stop offset="0.139423" stop-color="white"/>
<stop offset="1" stop-color="#E2E1E1"/>
</linearGradient>
</defs>
</svg>
