<svg width="129" height="129" viewBox="0 0 129 129" fill="none" xmlns="http://www.w3.org/2000/svg">
<g id="Icone=PDF, Estado=Default">
<g id="Group 1194">
<g id="Ellipse 102" filter="url(#filter0_d_4036_502)">
<circle cx="56.5" cy="72.5" r="50" fill="url(#paint0_linear_4036_502)"/>
<circle cx="56.5" cy="72.5" r="47" stroke="url(#paint1_linear_4036_502)" stroke-width="6"/>
</g>
<g id="Icon">
<g id="Group">
<path id="Vector" d="M57.6282 70.9798C58.1819 70.9798 58.6307 70.5309 58.6307 69.9773V66.9237H60.5987C61.1524 66.9237 61.6013 66.4747 61.6013 65.9211C61.6013 65.3675 61.1524 64.9186 60.5987 64.9186H58.6307V63.0183H60.8551C61.4088 63.0183 61.8576 62.5693 61.8576 62.0157C61.8576 61.4621 61.4088 61.0132 60.8551 61.0132H57.6282C57.0745 61.0132 56.6257 61.4621 56.6257 62.0157V69.9773C56.6257 70.5309 57.0745 70.9798 57.6282 70.9798Z" fill="#2E2E2E"/>
<path id="Vector_2" d="M50.3552 60.9836H48.0837C47.8175 60.9836 47.5622 61.0895 47.3741 61.278C47.186 61.4665 47.0807 61.7219 47.0812 61.9881V61.9943V61.9945C47.0812 61.9945 47.0881 70.0095 47.1008 70.0733C47.1171 70.3161 47.22 70.5457 47.3938 70.7181C47.5816 70.9045 47.8355 71.009 48.1001 71.009H48.1039C48.1725 71.0087 49.792 71.0025 50.4393 70.9912C52.8482 70.9491 54.5966 68.8484 54.5966 65.9963C54.5966 62.9981 52.8921 60.9836 50.3552 60.9836ZM50.4042 68.9865C50.1044 68.9917 49.5751 68.9958 49.0991 68.9988C49.096 68.0496 49.0897 63.9745 49.0881 62.9887H50.3552C51.4363 62.9887 52.5915 63.7788 52.5915 65.9963C52.5915 67.4656 51.9151 68.9599 50.4042 68.9865Z" fill="#2E2E2E"/>
<path id="Vector_3" d="M42.1982 60.9836H39.965C39.6985 60.9836 39.4431 61.0897 39.2549 61.2784C39.0676 61.4663 38.9626 61.7208 38.9626 61.9862H38.9624V70.0065C38.9624 70.5601 39.4112 71.009 39.9649 71.009C40.5186 71.009 40.9675 70.5601 40.9675 70.0065V67.5199C41.4179 67.5176 41.9139 67.5155 42.1981 67.5155C44.0233 67.5155 45.5083 66.0505 45.5083 64.2496C45.5083 62.4488 44.0234 60.9836 42.1982 60.9836ZM42.1982 65.5103C41.9149 65.5103 41.4254 65.5124 40.9776 65.5147C40.9753 65.0508 40.9719 63.4731 40.9706 62.9887H42.1983C42.9058 62.9887 43.5034 63.5661 43.5034 64.2495C43.5034 64.9329 42.9057 65.5103 42.1982 65.5103Z" fill="#2E2E2E"/>
<path id="Vector_4" d="M83.3708 84.6512C83.1949 84.3298 82.8577 84.1299 82.4912 84.1299H80.0592V75.617C80.0592 75.0634 79.6103 74.6145 79.0566 74.6145H76.0709V55.115C76.0709 54.849 75.9652 54.594 75.777 54.4059L68.0547 46.6872C67.8667 46.4994 67.6118 46.3938 67.346 46.3938H40.5851C38.9267 46.3938 37.5775 47.743 37.5775 49.4014V56.9735H35.1714C33.513 56.9735 32.1638 58.3227 32.1638 59.9811V72.0116C32.1638 73.67 33.513 75.0192 35.1714 75.0192H37.5775V92.7056C37.5775 94.364 38.9267 95.7132 40.5851 95.7132H73.2388L74.2281 97.2581C74.4124 97.546 74.7307 97.72 75.0723 97.72C75.414 97.72 75.7323 97.546 75.9166 97.2581L83.3354 85.6729C83.5331 85.3644 83.5466 84.9727 83.3708 84.6512ZM68.2482 49.7157L72.7474 54.2127H69.2507C68.6979 54.2127 68.2482 53.763 68.2482 53.2102V49.7157ZM40.5851 93.7082C40.0323 93.7082 39.5826 93.2585 39.5826 92.7057V75.0193H46.3917C46.9454 75.0193 47.3942 74.5704 47.3942 74.0168C47.3942 73.4632 46.9454 73.0142 46.3917 73.0142H35.1714C34.6186 73.0142 34.1688 72.5645 34.1688 72.0117V59.9812C34.1688 59.4284 34.6186 58.9787 35.1714 58.9787H65.6486C66.2014 58.9787 66.6511 59.4284 66.6511 59.9812V72.0117C66.6511 72.5645 66.2014 73.0142 65.6486 73.0142H55.4146C54.8609 73.0142 54.412 73.4632 54.412 74.0168C54.412 74.5704 54.8609 75.0193 55.4146 75.0193H65.6486C67.307 75.0193 68.6562 73.6701 68.6562 72.0117V59.9812C68.6562 58.3228 67.307 56.9736 65.6486 56.9736H39.5826V49.4015C39.5826 48.8487 40.0323 48.399 40.5851 48.399H66.2431V53.2102C66.2431 54.8686 67.5923 56.2178 69.2507 56.2178H74.0657V74.6145H71.0883C70.5346 74.6145 70.0857 75.0634 70.0857 75.617V84.1299H67.6537C67.2872 84.1299 66.95 84.3298 66.7741 84.6512C66.5983 84.9727 66.6118 85.3644 66.8094 85.673L71.9549 93.7081L40.5851 93.7082ZM75.0724 94.8586L69.4861 86.135H71.0883C71.642 86.135 72.0908 85.686 72.0908 85.1324V76.6196H78.054V85.1324C78.054 85.686 78.5028 86.135 79.0565 86.135H80.6587L75.0724 94.8586Z" fill="#2E2E2E"/>
<path id="Vector_5" d="M50.9033 75.0192C51.457 75.0192 51.9058 74.5704 51.9058 74.0167C51.9058 73.463 51.457 73.0142 50.9033 73.0142C50.3496 73.0142 49.9007 73.463 49.9007 74.0167C49.9007 74.5704 50.3496 75.0192 50.9033 75.0192Z" fill="#2E2E2E"/>
</g>
</g>
</g>
</g>
<defs>
<filter id="filter0_d_4036_502" x="4.5" y="0.5" width="124" height="124" filterUnits="userSpaceOnUse" color-interpolation-filters="sRGB">
<feFlood flood-opacity="0" result="BackgroundImageFix"/>
<feColorMatrix in="SourceAlpha" type="matrix" values="0 0 0 0 0 0 0 0 0 0 0 0 0 0 0 0 0 0 127 0" result="hardAlpha"/>
<feOffset dx="10" dy="-10"/>
<feGaussianBlur stdDeviation="6"/>
<feComposite in2="hardAlpha" operator="out"/>
<feColorMatrix type="matrix" values="0 0 0 0 0 0 0 0 0 0 0 0 0 0 0 0 0 0 0.1 0"/>
<feBlend mode="normal" in2="BackgroundImageFix" result="effect1_dropShadow_4036_502"/>
<feBlend mode="normal" in="SourceGraphic" in2="effect1_dropShadow_4036_502" result="shape"/>
</filter>
<linearGradient id="paint0_linear_4036_502" x1="6.5" y1="72.5" x2="106.5" y2="72.5" gradientUnits="userSpaceOnUse">
<stop stop-color="#F2F2F2"/>
<stop offset="1" stop-color="#F2F2F2"/>
</linearGradient>
<linearGradient id="paint1_linear_4036_502" x1="6.5" y1="72.5" x2="106.5" y2="72.5" gradientUnits="userSpaceOnUse">
<stop offset="0.139423" stop-color="white"/>
<stop offset="1" stop-color="#E2E1E1"/>
</linearGradient>
</defs>
</svg>
