<svg width="751" height="424" viewBox="0 0 751 424" fill="none" xmlns="http://www.w3.org/2000/svg">
<g id="Box - Primeira inf&#195;&#162;ncia" filter="url(#filter0_d_4036_300)">
<rect width="751" height="424" rx="20" fill="url(#paint0_linear_4036_300)"/>
<rect x="3" y="3" width="745" height="418" rx="17" stroke="url(#paint1_linear_4036_300)" stroke-width="6"/>
<g id="Topo">
<g id="Frame 1186">
<g id="Icon">
<path id="Vector" d="M192.327 67.4555C191.69 67.0348 191.173 66.4561 190.826 65.7758C190.694 65.5378 190.656 65.2589 190.721 64.9944C190.785 64.73 190.946 64.4994 191.173 64.3484C191.296 64.271 191.434 64.2201 191.577 64.1987C191.721 64.1773 191.868 64.186 192.008 64.2242C192.149 64.2624 192.279 64.3293 192.393 64.4206C192.506 64.512 192.599 64.6258 192.666 64.7549C192.845 65.127 193.116 65.4469 193.454 65.6839C193.604 65.7813 193.726 65.9147 193.81 66.0719C193.894 66.2291 193.936 66.4049 193.934 66.583C193.932 66.7692 193.88 66.9514 193.783 67.1107C193.687 67.2701 193.55 67.4009 193.386 67.4898C193.223 67.5786 193.038 67.6223 192.852 67.6162C192.666 67.6102 192.485 67.5547 192.327 67.4555Z" fill="#2E2E2E"/>
<path id="Vector_2" d="M174.983 64.6102C174.726 64.6102 174.478 64.5162 174.286 64.3461C174.094 64.1759 173.97 63.9413 173.939 63.6865C173.908 63.4316 173.971 63.1741 174.116 62.9626C174.262 62.751 174.479 62.5999 174.729 62.5379C174.824 62.5081 174.909 62.4526 174.975 62.3775C175.041 62.3023 175.085 62.2104 175.102 62.1119C175.118 61.9744 175.161 61.8414 175.228 61.7204C175.295 61.5994 175.385 61.4929 175.493 61.4068C175.602 61.3208 175.726 61.257 175.859 61.219C175.992 61.1811 176.131 61.1698 176.269 61.1857C176.406 61.2017 176.539 61.2446 176.66 61.312C176.781 61.3794 176.887 61.4699 176.973 61.5785C177.059 61.687 177.122 61.8114 177.16 61.9446C177.197 62.0777 177.208 62.2169 177.192 62.3543C177.125 62.8774 176.903 63.3685 176.555 63.7648C176.207 64.1611 175.749 64.4444 175.239 64.5786C175.155 64.5996 175.069 64.6102 174.983 64.6102Z" fill="#2E2E2E"/>
<path id="Vector_3" d="M167.857 69.2879C167.601 69.2886 167.347 69.2415 167.109 69.1488C166.854 69.0447 166.651 68.845 166.542 68.5926C166.433 68.3402 166.427 68.0552 166.525 67.7985C166.624 67.5419 166.819 67.334 167.069 67.2194C167.319 67.1049 167.604 67.0927 167.863 67.1856C167.888 67.1818 167.911 67.1714 167.931 67.1556C167.982 67.0272 168.057 66.91 168.153 66.8108C168.25 66.7116 168.364 66.6323 168.491 66.5775C168.618 66.5226 168.754 66.4933 168.892 66.4911C169.03 66.4889 169.168 66.514 169.296 66.5648C169.424 66.6157 169.542 66.6913 169.641 66.7875C169.74 66.8836 169.819 66.9983 169.874 67.1251C169.929 67.2519 169.958 67.3882 169.96 67.5263C169.963 67.6644 169.938 67.8016 169.887 67.93C169.675 68.4559 169.265 68.8768 168.744 69.1012C168.465 69.224 168.163 69.2876 167.857 69.2879Z" fill="#2E2E2E"/>
<path id="Vector_4" d="M174.153 71.103C174.003 71.1031 173.853 71.0876 173.706 71.0565C173.435 70.9972 173.198 70.8329 173.047 70.5996C172.896 70.3662 172.844 70.0827 172.902 69.8109C172.959 69.5392 173.122 69.3012 173.355 69.1491C173.587 68.9969 173.87 68.9429 174.142 68.9987C174.198 69.0003 174.252 68.9822 174.295 68.9477C174.342 68.9192 174.379 68.8753 174.397 68.8233C174.417 68.6851 174.464 68.5522 174.535 68.4324C174.606 68.3125 174.701 68.208 174.813 68.125C174.925 68.0419 175.053 67.982 175.188 67.9488C175.323 67.9155 175.464 67.9096 175.602 67.9312C175.74 67.9529 175.872 68.0017 175.991 68.075C176.11 68.1482 176.213 68.2443 176.294 68.3577C176.375 68.4711 176.433 68.5996 176.464 68.7356C176.495 68.8716 176.499 69.0124 176.475 69.1498C176.423 69.4584 176.308 69.7531 176.138 70.0161C175.969 70.2791 175.748 70.505 175.488 70.6802C175.096 70.9526 174.63 71.1 174.153 71.103Z" fill="#2E2E2E"/>
<path id="Vector_5" d="M172.23 60.7964C171.973 60.7963 171.725 60.7024 171.533 60.5322C171.341 60.3621 171.217 60.1275 171.186 59.8726C171.155 59.6178 171.218 59.3603 171.363 59.1487C171.509 58.9372 171.727 58.7861 171.976 58.724L172.686 58.5463C172.82 58.5128 172.96 58.506 173.096 58.5264C173.233 58.5467 173.364 58.5937 173.483 58.6648C173.601 58.7359 173.704 58.8296 173.787 58.9405C173.869 59.0515 173.928 59.1776 173.962 59.3116C173.995 59.4456 174.002 59.5849 173.982 59.7215C173.962 59.8581 173.914 59.9894 173.843 60.1078C173.772 60.2263 173.679 60.3296 173.568 60.4118C173.457 60.494 173.331 60.5536 173.197 60.5871L172.486 60.7646C172.402 60.7857 172.316 60.7964 172.23 60.7964Z" fill="#2E2E2E"/>
<path id="Vector_6" d="M165.425 65.754C165.253 65.7539 165.084 65.7118 164.932 65.6312C164.78 65.5506 164.65 65.434 164.554 65.2916C164.458 65.1493 164.398 64.9855 164.379 64.8146C164.361 64.6437 164.385 64.4709 164.449 64.3113L164.626 63.8673C164.676 63.7376 164.752 63.6191 164.848 63.5187C164.944 63.4183 165.06 63.338 165.187 63.2825C165.315 63.227 165.452 63.1973 165.591 63.1952C165.73 63.1931 165.868 63.2186 165.998 63.2702C166.127 63.3218 166.244 63.3986 166.344 63.496C166.443 63.5934 166.522 63.7095 166.576 63.8377C166.63 63.9658 166.658 64.1034 166.659 64.2425C166.659 64.3816 166.632 64.5195 166.579 64.648L166.402 65.0926C166.324 65.2879 166.189 65.4553 166.015 65.5732C165.841 65.6911 165.635 65.7541 165.425 65.754Z" fill="#2E2E2E"/>
<path id="Vector_7" d="M208.045 59.5983C209.092 56.4388 208.45 53.0847 208.228 52.1327C208.222 52.0974 208.223 52.0612 208.233 52.0265C209.362 47.1081 207.108 42.0773 202.203 38.5697C199.616 36.7206 196.613 35.5375 193.46 35.1248C190.108 34.7143 187.006 35.321 184.49 36.88C180.419 39.4027 177.997 42.4775 176.051 44.9481C175.437 45.7278 174.892 46.4176 174.361 47.0118C169.311 46.4399 164.323 49.0188 160.932 53.987C156.47 60.5254 159.101 66.652 162.97 70.2306C153.525 85.4321 152.027 110.365 151.792 117.745C151.779 118.168 151.851 118.589 152.003 118.983C152.156 119.378 152.386 119.737 152.68 120.041C152.974 120.344 153.326 120.586 153.716 120.751C154.105 120.915 154.523 121 154.946 121H194.032C194.48 121 194.924 120.904 195.333 120.72C195.742 120.535 196.106 120.265 196.402 119.927C196.699 119.59 196.919 119.194 197.05 118.765C197.181 118.335 197.218 117.883 197.161 117.438C196.944 115.774 196.631 113.307 196.23 110.094C196.389 110.114 196.548 110.123 196.708 110.124C197.262 110.125 197.809 110.007 198.314 109.778C200.008 109.012 201.238 107.12 201.969 104.155C202.037 103.874 202.182 103.617 202.39 103.416C202.689 103.142 202.92 102.801 203.065 102.422C203.209 102.042 203.262 101.634 203.221 101.23C203.013 99.3768 201.844 98.0415 199.933 97.3516C199.988 97.0334 200.04 96.6855 200.088 96.3174C203.86 92.8246 205.956 88.6623 206.319 83.9391C206.633 79.8688 205.634 76.1561 204.905 73.4457C204.564 72.1776 204.27 71.0824 204.239 70.4022C204.141 68.217 204.897 66.6744 205.943 64.5395C206.761 62.9449 207.463 61.2936 208.045 59.5983ZM162.67 55.1737C165.749 50.6622 170.074 48.4694 174.538 49.1582C176.294 49.4224 177.949 50.1452 179.337 51.2537C180.725 52.3622 181.795 53.8172 182.441 55.4717C181.663 56.006 181.07 56.8579 180.728 57.977C180.643 58.2359 180.658 58.5173 180.77 58.7657C180.882 59.0141 181.083 59.2113 181.334 59.3184C181.47 59.3714 181.615 59.3956 181.761 59.3894C181.907 59.3832 182.05 59.3469 182.181 59.2826C182.312 59.2183 182.428 59.1275 182.522 59.016C182.616 58.9045 182.686 58.7747 182.727 58.6347C183.053 57.5255 183.659 56.9519 184.528 56.9319C185.531 56.9076 186.673 57.6475 186.974 58.5143C187.292 59.432 187.206 60.3615 186.745 61.0008C186.364 61.5287 185.754 61.8072 184.98 61.8072H184.922C184.645 61.8072 184.38 61.9161 184.183 62.1103C183.986 62.3045 183.874 62.5684 183.87 62.8449C184.023 64.1866 183.912 65.6383 183.721 66.3924C182.301 72.0098 177.047 73.7353 176.675 73.8503C170.504 75.5092 169.319 74.0515 167.526 71.8463C166.865 71.0329 166.116 70.1109 165.065 69.2619C161.323 66.2386 158.728 60.9493 162.67 55.1737ZM188.961 57.8277C188.719 57.1626 188.312 56.5697 187.778 56.1044C189.965 54.4806 192.322 54.8082 195.006 55.1834C197.327 55.5077 199.882 55.8639 202.535 54.9283C202.519 56.246 201.837 57.0453 200.906 58.1276C200.61 58.4722 200.303 58.8288 200.004 59.2237C198.736 60.8983 198.663 63.3209 199.391 64.5327C199.441 64.6083 199.459 64.7005 199.442 64.7895C199.426 64.8421 199.398 64.8907 199.362 64.9321C199.325 64.9734 199.281 65.0065 199.23 65.0293C198.999 65.1579 198.599 65.3336 198.176 65.5201C196.809 66.1212 195.799 66.5947 195.278 67.2171C195.075 67.4737 194.887 67.7419 194.715 68.0203C194.12 68.9378 193.305 70.194 192.098 70.4161C191.504 70.5251 190.889 70.4255 190.359 70.1342C188.878 69.3394 187.345 68.4032 185.524 67.7151C185.934 66.4383 186.152 65.1077 186.172 63.7668C187.09 63.5438 187.898 63.0003 188.451 62.2342C189.313 61.0387 189.504 59.3913 188.961 57.8268V57.8277ZM167.898 79.6742C168.785 79.7401 176.712 80.2203 182.058 76.7808C182.378 76.5752 182.739 76.4414 183.115 76.3884C183.492 76.3355 183.875 76.3648 184.24 76.4742C184.592 76.5779 184.918 76.7566 185.194 76.9981C185.471 77.2397 185.692 77.5383 185.843 77.8734C187.104 80.7086 184.793 82.233 183.741 82.7568C178.264 85.4829 172.603 85.7192 166.434 83.4781C164.217 82.6726 163.349 81.6156 163.44 79.8294C163.52 78.2396 163.906 77.7784 164.023 77.6746C164.048 77.6491 164.078 77.6293 164.111 77.6168C164.144 77.6043 164.18 77.5994 164.215 77.6024C164.706 77.6231 164.957 77.2783 165.23 77.1176C165.35 77.0718 165.481 77.0657 165.604 77.1C165.695 77.1411 165.933 77.4189 166.051 78.1108C166.196 78.9611 166.956 79.6039 167.898 79.6742ZM166.363 75.1374C166.436 74.7774 166.529 74.4219 166.643 74.0725C167.877 75.4837 169.334 76.6532 172.292 76.6532C173.508 76.6532 174.983 76.4518 176.795 75.9916C176.886 76.2195 176.974 76.4548 177.061 76.7016C173.021 77.8636 168.822 77.6306 168.091 77.5791C167.841 76.3545 167.219 75.4768 166.363 75.1374ZM184.678 84.6407C187.124 83.4231 189.4 80.6965 187.764 77.0194C187.491 76.4071 187.088 75.8613 186.583 75.4195C186.079 74.9777 185.484 74.6504 184.841 74.4601C184.187 74.2636 183.497 74.2112 182.82 74.3067C182.143 74.4022 181.495 74.6432 180.92 75.0132C180.323 75.3938 179.696 75.7243 179.044 76.0013C178.953 75.7443 178.861 75.4971 178.766 75.2573C179.888 74.7099 180.933 74.018 181.875 73.1994C183.026 72.1995 183.984 70.9976 184.702 69.653C196.113 73.9302 198.185 83.8217 198.389 89.4253C198.421 91.9241 198.251 94.4214 197.881 96.8928C197.152 96.8147 196.419 96.796 195.687 96.8369C195.317 96.8567 193.567 96.2819 192.72 96.0761C190.021 95.4209 184.998 94.2014 182.29 89.9998C181.934 89.4469 181.611 87.7949 181.3 86.0262C182.459 85.6483 183.588 85.1852 184.678 84.6407ZM194.822 118.539C194.724 118.653 194.603 118.743 194.466 118.805C194.33 118.867 194.181 118.898 194.031 118.897H154.947C154.806 118.898 154.666 118.869 154.537 118.815C154.407 118.76 154.289 118.68 154.191 118.578C154.093 118.477 154.016 118.357 153.965 118.226C153.914 118.094 153.891 117.954 153.895 117.813C154.123 110.617 155.569 86.4316 164.568 71.6535C164.759 71.8473 164.941 72.0434 165.115 72.2416C164.632 73.2729 164.311 74.3727 164.165 75.5021C163.596 75.5094 163.049 75.7232 162.625 76.1037C161.847 76.7947 161.426 77.9793 161.338 79.7247C161.157 83.309 163.813 84.7071 165.223 85.2705C166.335 88.7446 168.074 91.9854 170.354 94.8324C169.8 95.2102 169.299 95.6606 168.864 96.1717C167.533 97.7353 166.286 99.6918 165.283 101.264C164.61 102.32 163.97 103.325 163.512 103.877C163.44 103.888 163.361 103.898 163.293 103.907C162.262 104.045 160.12 104.33 159.506 106.171C158.961 107.809 159.428 109.393 160.786 110.517C161.814 111.345 163.091 111.803 164.411 111.819C165.001 111.833 165.585 111.703 166.114 111.44C167.011 111.037 168.139 110.735 169.443 110.385C172.132 109.664 175.48 108.767 178.462 106.411C178.689 106.236 178.953 106.116 179.234 106.06C179.515 106.003 179.805 106.011 180.082 106.084C180.946 106.302 184.882 107.169 187.395 107.169C188.771 107.175 190.144 107.03 191.489 106.736C192.172 107.706 193.022 108.546 194.001 109.217C194.471 112.993 194.832 115.851 195.075 117.71C195.095 117.858 195.083 118.009 195.039 118.152C194.996 118.295 194.922 118.427 194.823 118.539L194.822 118.539ZM170.466 97.5341C170.832 97.1034 171.264 96.733 171.746 96.4366C174.402 99.2616 177.734 101.504 181.615 103.099C181.596 103.486 181.552 103.871 181.484 104.252C181.203 104.189 180.895 104.118 180.598 104.043C180.008 103.892 179.392 103.879 178.796 104.003C178.2 104.127 177.641 104.386 177.16 104.759C174.518 106.846 171.533 107.646 168.901 108.352C167.549 108.715 166.273 109.057 165.212 109.539C165.185 109.551 165.159 109.565 165.134 109.579C164.611 109.872 163.118 109.713 162.129 108.895C161.437 108.324 161.233 107.649 161.504 106.834C161.701 106.241 162.918 106.079 163.572 105.992C164.133 105.917 164.538 105.863 164.86 105.527C165.465 104.895 166.168 103.792 167.059 102.394C168.075 100.797 169.229 98.9871 170.466 97.5341ZM183.538 104.698C183.59 104.421 183.632 104.143 183.663 103.864C185.099 104.347 186.564 104.741 188.049 105.045C186.537 105.094 185.025 104.978 183.538 104.698ZM200.888 101.337C201.026 102.435 200.091 102.981 199.926 103.651C199.373 105.893 198.493 107.388 197.447 107.861C196.886 108.115 196.267 108.07 195.607 107.727C194.323 107.059 193.367 105.79 192.912 105.093C192.479 104.432 191.774 103.534 190.651 103.369C183.016 102.243 176.776 99.0917 172.607 94.2547C170.532 91.84 168.888 89.0863 167.747 86.114C169.949 86.7609 172.231 87.096 174.526 87.1095C176.119 87.1093 177.707 86.9329 179.262 86.5836C179.662 88.8349 179.986 90.3093 180.52 91.1383C183.684 96.0465 189.238 97.3947 192.222 98.1192C192.87 98.277 195.081 98.9727 195.794 98.9368C199.069 98.6642 200.713 99.9423 200.888 101.337H200.888ZM202.138 70.4964C202.178 71.4063 202.485 72.5473 202.874 73.9919C204.124 78.6416 206.135 86.1291 200.406 92.945C200.491 91.5874 200.525 90.2806 200.491 89.3482C200.324 84.7769 199.018 77.5973 193.174 72.2921C194.846 71.6785 195.764 70.0711 196.48 69.1638C196.878 68.66 198.41 67.7139 199.022 67.4448C199.513 67.2296 199.935 67.0436 200.252 66.8664C200.541 66.697 200.793 66.4716 200.994 66.2035C201.194 65.9354 201.339 65.63 201.42 65.3052C201.509 64.9965 201.536 64.6728 201.497 64.3537C201.458 64.0346 201.355 63.7266 201.194 63.4485C200.957 63.0544 200.896 61.5288 201.681 60.4923C201.94 60.1493 202.225 59.818 202.501 59.4977C203.654 58.1562 204.947 56.6497 204.571 53.9428C204.76 53.8248 204.95 53.7005 205.14 53.5661C205.368 53.4049 205.522 53.1599 205.569 52.8849C205.616 52.6099 205.552 52.3275 205.391 52.0998C205.23 51.8722 204.985 51.7178 204.71 51.6708C204.435 51.6238 204.152 51.6879 203.925 51.8491C201.028 53.9 198.244 53.5109 195.297 53.0988C192.133 52.6567 188.864 52.1999 185.799 55.0103C185.37 54.8843 184.924 54.8235 184.477 54.83C184.468 54.83 184.46 54.8315 184.45 54.8317C183.799 53.1028 182.762 51.5448 181.419 50.2758C180.077 49.0068 178.462 48.0602 176.7 47.5076C177.028 47.1044 177.361 46.6837 177.703 46.2495C179.547 43.9084 181.842 40.9952 185.598 38.6677C189.739 36.1021 196.063 36.7652 200.978 40.2804C205.169 43.2779 207.114 47.4925 206.181 51.5549C206.099 51.9013 206.098 52.2618 206.178 52.6086C206.368 53.426 206.921 56.2981 206.047 58.9368C205.494 60.5415 204.828 62.1048 204.053 63.6147C202.961 65.8463 202.016 67.7742 202.138 70.4964H202.138Z" fill="#2E2E2E"/>
<path id="Vector_8" d="M197.102 60.7704C197.061 60.7705 197.02 60.7681 196.979 60.7634C196.291 60.6775 195.656 60.3525 195.183 59.8451C194.711 59.3378 194.432 58.6805 194.395 57.9882C194.385 57.8504 194.402 57.712 194.446 57.5809C194.489 57.4498 194.558 57.3285 194.648 57.2241C194.739 57.1196 194.849 57.0339 194.972 56.9719C195.095 56.9099 195.23 56.8729 195.368 56.8629C195.646 56.8427 195.921 56.9338 196.132 57.1162C196.343 57.2987 196.473 57.5574 196.493 57.8357C196.492 58.0399 196.565 58.2375 196.699 58.3918C196.833 58.546 197.018 58.6462 197.221 58.6738C197.488 58.7043 197.733 58.8358 197.906 59.0412C198.079 59.2466 198.166 59.5104 198.151 59.7785C198.136 60.0466 198.019 60.2987 197.823 60.4831C197.628 60.6676 197.37 60.7704 197.101 60.7704H197.102Z" fill="#2E2E2E"/>
<path id="Vector_9" d="M200.845 56.7043C200.602 56.7047 200.366 56.6205 200.179 56.4661C199.986 56.312 199.294 55.8727 198.72 55.9162C198.582 55.9269 198.443 55.9104 198.312 55.8676C198.181 55.8249 198.059 55.7566 197.954 55.6668C197.742 55.4855 197.611 55.2274 197.589 54.9493C197.568 54.6712 197.657 54.3959 197.839 54.1839C198.02 53.9719 198.278 53.8407 198.556 53.819C200.078 53.7014 201.37 54.7223 201.512 54.8392C201.68 54.9767 201.801 55.1628 201.859 55.3718C201.917 55.5809 201.909 55.8027 201.836 56.007C201.763 56.2112 201.628 56.3879 201.451 56.5127C201.274 56.6375 201.062 56.7045 200.845 56.7043Z" fill="#2E2E2E"/>
<path id="Vector_10" d="M167.832 58.3023C167.637 58.1025 167.371 57.9882 167.092 57.9845C166.814 57.9809 166.545 58.0882 166.345 58.2828C166.246 58.3787 166.121 58.4419 165.985 58.4639C165.849 58.4858 165.71 58.4654 165.587 58.4055C165.463 58.3455 165.361 58.2489 165.294 58.1288C165.227 58.0086 165.199 57.8708 165.213 57.7341C165.231 57.5701 165.596 56.6298 165.664 56.3335C165.78 55.8 165.767 55.2464 165.625 54.7191C165.483 54.1918 165.217 53.706 164.849 53.3025C164.896 53.2294 165.838 51.1476 165.873 51.0624C166.158 50.366 166.419 49.6075 166.394 48.7733C166.362 47.671 165.798 46.7101 164.926 46.2653C163.774 45.6786 162.221 46.1447 161.463 47.304C160.955 48.1307 160.793 49.124 161.012 50.0692C161.019 50.0998 161.017 50.1316 161.007 50.1613C160.997 50.191 160.979 50.2174 160.955 50.2379C160.932 50.2584 160.903 50.2722 160.872 50.2779C160.841 50.2836 160.81 50.2809 160.78 50.2701C159.743 49.8974 158.779 49.8992 157.977 50.2783C157.496 50.5145 157.09 50.8776 156.801 51.3283C156.511 51.779 156.351 52.3003 156.337 52.8355C156.334 53.3621 156.469 53.8802 156.729 54.3381C156.989 54.796 157.364 55.1777 157.818 55.4451C158.335 55.7383 158.92 55.8888 159.514 55.8811C159.881 55.8796 160.247 55.8312 160.601 55.737C161.344 55.5133 162.053 55.1924 162.712 54.7827C162.817 54.7226 162.965 54.6518 163.133 54.5697C163.322 54.7223 163.466 54.9232 163.551 55.1511C163.635 55.3791 163.657 55.6257 163.613 55.8648C163.567 56.0357 163.51 56.2034 163.441 56.3665C163.282 56.7323 163.174 57.1183 163.12 57.5136C163.067 58.0796 163.186 58.6485 163.463 59.1455C163.739 59.6425 164.159 60.0442 164.667 60.298C165.04 60.477 165.448 60.5693 165.861 60.5679C166.587 60.5711 167.287 60.292 167.812 59.7896C167.911 59.6933 167.99 59.5784 168.045 59.4515C168.099 59.3246 168.128 59.1882 168.13 59.0501C168.132 58.912 168.107 58.7749 168.055 58.6465C168.004 58.5182 167.928 58.4012 167.832 58.3023ZM161.373 53.1228C160.964 53.3691 160.526 53.5634 160.069 53.7013C159.676 53.8294 159.25 53.8028 158.876 53.6268C158.614 53.4745 158.387 53.1588 158.44 52.8706C158.639 51.7894 160.035 52.2283 160.272 52.3289C160.529 52.4385 161.264 52.8226 161.367 52.8752C161.39 52.8866 161.409 52.904 161.423 52.9256C161.436 52.9471 161.444 52.972 161.444 52.9974C161.445 53.0229 161.439 53.048 161.426 53.0701C161.413 53.0922 161.395 53.1104 161.373 53.1228ZM163.182 48.4404C163.729 47.8817 164.231 48.3746 164.292 48.8346C164.376 49.4725 164.097 50.1257 163.787 50.7189C163.774 50.7451 163.753 50.7672 163.728 50.7826C163.702 50.7981 163.673 50.8064 163.644 50.8067C163.614 50.807 163.585 50.7993 163.559 50.7844C163.534 50.7694 163.513 50.7478 163.498 50.7218C163.35 50.4623 163.229 50.1882 163.136 49.9039C162.964 49.3444 162.891 48.7377 163.182 48.4409V48.4404Z" fill="#2E2E2E"/>
</g>
<g id="T&#195;&#173;tulo">
<rect x="228.627" y="57.5" width="245" height="41" rx="20.5" fill="#9B89BE"/>
<text id="A primeira inf&#195;&#162;ncia" fill="white" xml:space="preserve" style="white-space: pre" font-family="Roboto" font-size="24" font-weight="bold" letter-spacing="0em"><tspan x="248.627" y="86.2031">A primeira inf&#xe2;ncia</tspan></text>
</g>
</g>
</g>
<text id="Per&#195;&#173;odo que abrange os primeiros 6 anos completos ou 72 meses de vida da crian&#195;&#167;a. O desenvolvimento da crian&#195;&#167;a na primeira inf&#195;&#162;ncia &#195;&#169; um processo multifatorial que apresenta interfer&#195;&#170;ncia de fatores gen&#195;&#169;ticos e, em especial, dos est&#195;&#173;mulos e das condi&#195;&#167;&#195;&#181;es do meio em que a crian&#195;&#167;a vive, como suporte emocional e cuidados de higiene e alimenta&#195;&#167;&#195;&#163;o. As experi&#195;&#170;ncias vividas nessa fase influenciam o desempenho escolar, emocional, social e econ&#195;&#180;mico no futuro (BRASIL, 2016)." fill="#2E2E2E" xml:space="preserve" style="white-space: pre" font-family="Roboto" font-size="22" letter-spacing="0em"><tspan x="40" y="166.641">Per&#xed;odo que abrange os primeiros 6 anos completos ou 72 meses </tspan><tspan x="40" y="197.641">de vida da crian&#xe7;a. O desenvolvimento da crian&#xe7;a na primeira </tspan><tspan x="40" y="228.641">inf&#xe2;ncia &#xe9; um processo multifatorial que apresenta interfer&#xea;ncia de </tspan><tspan x="40" y="259.641">fatores gen&#xe9;ticos e, em especial, dos est&#xed;mulos e das condi&#xe7;&#xf5;es do </tspan><tspan x="40" y="290.641">meio em que a crian&#xe7;a vive, como suporte emocional e cuidados de </tspan><tspan x="40" y="321.641">higiene e alimenta&#xe7;&#xe3;o. As experi&#xea;ncias vividas nessa fase </tspan><tspan x="40" y="352.641">influenciam o desempenho escolar, emocional, social e econ&#xf4;mico </tspan><tspan x="40" y="383.641">no futuro (BRASIL, 2016).</tspan></text>
</g>
<defs>
<filter id="filter0_d_4036_300" x="-2" y="-22" width="775" height="448" filterUnits="userSpaceOnUse" color-interpolation-filters="sRGB">
<feFlood flood-opacity="0" result="BackgroundImageFix"/>
<feColorMatrix in="SourceAlpha" type="matrix" values="0 0 0 0 0 0 0 0 0 0 0 0 0 0 0 0 0 0 127 0" result="hardAlpha"/>
<feOffset dx="10" dy="-10"/>
<feGaussianBlur stdDeviation="6"/>
<feComposite in2="hardAlpha" operator="out"/>
<feColorMatrix type="matrix" values="0 0 0 0 0 0 0 0 0 0 0 0 0 0 0 0 0 0 0.1 0"/>
<feBlend mode="normal" in2="BackgroundImageFix" result="effect1_dropShadow_4036_300"/>
<feBlend mode="normal" in="SourceGraphic" in2="effect1_dropShadow_4036_300" result="shape"/>
</filter>
<linearGradient id="paint0_linear_4036_300" x1="0" y1="212" x2="751" y2="212" gradientUnits="userSpaceOnUse">
<stop stop-color="#F2F2F2"/>
<stop offset="1" stop-color="#F2F2F2"/>
</linearGradient>
<linearGradient id="paint1_linear_4036_300" x1="0" y1="212" x2="751" y2="212" gradientUnits="userSpaceOnUse">
<stop offset="0.139423" stop-color="white"/>
<stop offset="1" stop-color="#E2E1E1"/>
</linearGradient>
</defs>
</svg>
