<svg width="751" height="384" viewBox="0 0 751 384" fill="none" xmlns="http://www.w3.org/2000/svg">
<g id="Box - Primeiros mil dias" filter="url(#filter0_d_4036_264)">
<rect width="751" height="383.207" rx="20" fill="url(#paint0_linear_4036_264)"/>
<rect x="3" y="3" width="745" height="377.207" rx="17" stroke="url(#paint1_linear_4036_264)" stroke-width="6"/>
<g id="Topo">
<g id="Bloco">
<g id="Icon">
<g id="XMLID_2446_">
<g id="XMLID_30_">
<g id="Group">
<path id="Vector" d="M250.053 111.207C250.754 111.207 251.323 110.638 251.323 109.937V100.296L259.886 93.5847C260.958 92.7312 262.394 91.0571 262.955 89.7259L269.001 75.6702C269.07 75.5127 269.105 75.34 269.105 75.1672V62.9253C269.105 61.3452 267.314 60.1792 265.584 59.9683C263.44 59.6914 260.745 60.8575 259.729 64.9144C259.206 67.0203 259.089 68.8011 258.984 70.3711C258.936 71.0697 259.465 71.7276 260.166 71.7733C260.867 71.8216 261.469 71.3415 261.512 70.6429C261.616 69.0729 261.726 67.4141 262.195 65.5266C262.516 64.2514 263.201 62.684 264.667 62.4884C265.648 62.3486 266.468 62.8745 266.603 63.1133L266.565 74.9056L260.618 88.7327C260.247 89.6192 259.094 90.9682 258.311 91.5931L249.268 98.6807C248.96 98.9194 248.782 99.2878 248.782 99.679V109.937C248.782 110.638 249.352 111.207 250.053 111.207Z" fill="#2E2E2E"/>
</g>
</g>
<g id="XMLID_2473_">
<g id="Group_2">
<path id="Vector_2" d="M211.947 111.207C211.246 111.207 210.677 110.638 210.677 109.937V100.296L202.114 93.5847C201.042 92.7312 199.606 91.0571 199.045 89.7259L192.999 75.6702C192.93 75.5127 192.895 75.34 192.895 75.1672V62.9253C192.895 61.3452 194.686 60.1792 196.416 59.9683C198.56 59.6914 201.255 60.8575 202.271 64.9144C202.794 67.0203 202.911 68.8011 203.016 70.3711C203.064 71.0697 202.535 71.7276 201.834 71.7733C201.133 71.8216 200.531 71.3415 200.488 70.6429C200.384 69.0729 200.274 67.4141 199.805 65.5266C199.484 64.2514 198.799 62.684 197.333 62.4884C196.352 62.3486 195.532 62.8745 195.397 63.1133L195.435 74.9056L201.382 88.7327C201.753 89.6192 202.906 90.9682 203.689 91.5931L212.732 98.6807C213.04 98.9194 213.218 99.2878 213.218 99.679V109.937C213.218 110.638 212.648 111.207 211.947 111.207Z" fill="#2E2E2E"/>
</g>
</g>
<g id="XMLID_2472_">
<g id="Group_3">
<path id="Vector_3" d="M227.189 111.207C226.488 111.207 225.919 110.638 225.919 109.937V96.059C225.919 90.7065 222.223 86.0399 216.929 84.7087C216.248 84.5385 215.837 83.8476 216.007 83.1668C216.177 82.4885 216.855 82.0668 217.549 82.2446C223.971 83.8603 228.46 89.5405 228.46 96.059V109.937C228.46 110.638 227.891 111.207 227.189 111.207Z" fill="#2E2E2E"/>
</g>
</g>
<g id="XMLID_2471_">
<g id="Group_4">
<path id="Vector_4" d="M212.613 89.4032C212.288 89.4032 211.963 89.2787 211.714 89.0323L200.569 77.9056C200.33 77.6668 200.198 77.3442 200.198 77.0063C200.198 76.671 200.333 76.3458 200.569 76.107C204.062 72.614 208.368 72.9087 212.379 76.9199L218.108 82.6357C218.603 83.1311 218.603 83.9364 218.108 84.4317C217.612 84.9296 216.807 84.9271 216.312 84.4343L210.583 78.7185C207.979 76.1146 205.543 75.5634 203.341 77.0825L213.507 87.2337C214.002 87.7291 214.002 88.5344 213.507 89.0323C213.263 89.2787 212.938 89.4032 212.613 89.4032Z" fill="#2E2E2E"/>
</g>
</g>
<g id="XMLID_2464_">
<g id="XMLID_2466_">
<g id="Group_5">
<path id="Vector_5" d="M234.81 111.207C234.109 111.207 233.54 110.638 233.54 109.937V96.059C233.54 89.5405 238.029 83.8603 244.451 82.2446C245.139 82.0668 245.82 82.4885 245.993 83.1668C246.161 83.8476 245.749 84.5385 245.071 84.7087C239.777 86.0399 236.081 90.7065 236.081 96.059V109.937C236.081 110.638 235.512 111.207 234.81 111.207Z" fill="#2E2E2E"/>
</g>
</g>
<g id="XMLID_2465_">
<g id="Group_6">
<path id="Vector_6" d="M249.387 89.4032C249.062 89.4032 248.737 89.2787 248.488 89.0323C247.992 88.5344 247.992 87.7316 248.488 87.2337L258.654 77.0825C256.454 75.5659 254.015 76.1172 251.412 78.7185L245.683 84.4343C245.188 84.9271 244.382 84.9296 243.887 84.4317C243.392 83.9364 243.392 83.1311 243.887 82.6357L249.616 76.9199C253.627 72.9087 257.933 72.614 261.426 76.107C261.664 76.3458 261.796 76.6684 261.796 77.0063C261.796 77.3442 261.662 77.6668 261.426 77.9056L250.281 89.0323C250.037 89.2787 249.712 89.4032 249.387 89.4032Z" fill="#2E2E2E"/>
</g>
</g>
</g>
<g id="XMLID_2463_">
<g id="Group_7">
<path id="Vector_7" d="M249.387 89.4032C249.062 89.4032 248.736 89.2787 248.487 89.0323C247.992 88.5344 247.992 87.7316 248.487 87.2337L258.654 77.0825C256.454 75.5659 254.015 76.1172 251.411 78.7185L245.683 84.4343C245.188 84.9271 244.382 84.9296 243.887 84.4317C243.392 83.9364 243.392 83.1311 243.887 82.6357L249.615 76.9199C253.627 72.9087 257.932 72.614 261.425 76.107C261.664 76.3458 261.796 76.6684 261.796 77.0063C261.796 77.3442 261.662 77.6668 261.425 77.9056L250.281 89.0323C250.037 89.2787 249.712 89.4032 249.387 89.4032Z" fill="#2E2E2E"/>
</g>
</g>
<g id="XMLID_2475_">
<g id="XMLID_2525_">
<g id="XMLID_2527_">
<g id="Group_8">
<path id="Vector_8" d="M236.586 64.0811C235.898 64.0811 235.209 64.0252 234.521 63.9109C231.233 63.3647 228.353 61.5687 226.409 58.8505C224.466 56.1324 223.699 52.8248 224.242 49.5376C224.626 47.2412 226.801 45.6788 229.102 46.065C231.399 46.446 232.958 48.6282 232.575 50.9247C232.422 51.8392 232.595 52.7867 233.052 53.5869C233.403 54.1966 233.192 54.9714 232.582 55.322C231.98 55.6649 231.2 55.4617 230.847 54.852C230.098 53.5463 229.821 52.0043 230.065 50.5106C230.217 49.5935 229.595 48.7222 228.68 48.5698C227.761 48.425 226.895 49.0372 226.742 49.9542C226.308 52.5708 226.92 55.2051 228.47 57.3721C230.019 59.539 232.316 60.9717 234.932 61.4061C235.651 61.523 236.38 61.5687 237.092 61.5281C237.805 61.5128 238.392 62.031 238.425 62.7296C238.463 63.4308 237.925 64.0278 237.224 64.0659C237.018 64.076 236.802 64.0811 236.586 64.0811Z" fill="#2E2E2E"/>
</g>
</g>
<g id="XMLID_2526_">
<g id="Group_9">
<path id="Vector_9" d="M229.186 81.231C228.022 81.231 226.785 81.1192 225.464 80.8753C222.03 80.2402 219.228 78.2638 217.571 75.3043C216.431 73.2695 215.476 70.0865 216.118 65.4224C215.648 65.6434 215.189 65.7806 214.744 65.8873C212.984 66.3115 210.458 65.5697 208.99 64.203C207.877 63.164 207.392 61.8151 207.629 60.4052C207.834 59.1884 208.434 58.2205 209.364 57.6032C210.423 56.9021 211.696 56.7878 212.582 56.8411C214.355 52.1567 218.097 49.8628 222.355 50.95C224.232 51.4302 225.759 52.5911 226.767 54.3058C228.604 57.4228 228.442 61.6601 227.677 64.5841C227.502 65.2623 226.816 65.6663 226.13 65.4935C225.449 65.3157 225.043 64.6222 225.223 63.9439C225.825 61.622 226.021 58.0452 224.58 55.5963C223.91 54.4608 222.949 53.7241 221.725 53.4116C218.496 52.5809 215.877 54.5269 214.675 58.5914C214.482 59.2367 213.829 59.6177 213.164 59.4678C212.75 59.3738 211.5 59.2367 210.763 59.7295C210.55 59.8743 210.253 60.1436 210.136 60.832C210.1 61.0378 209.994 61.6678 210.723 62.3486C211.713 63.2707 213.42 63.5959 214.15 63.4206C215.049 63.2047 216.245 62.9151 217.533 59.7117C217.678 59.2951 217.831 58.8708 217.998 58.439C218.245 57.7937 218.956 57.4584 219.614 57.6972C220.264 57.9309 220.61 58.6397 220.391 59.2951C220.236 59.7498 220.084 60.1715 219.926 60.5653C218.003 66.1413 217.955 70.7901 219.789 74.0672C221.069 76.3535 223.249 77.8853 225.929 78.3807C237.208 80.4587 241.466 71.6589 244.004 66.3953C244.865 64.6069 245.386 63.5298 246.122 63.004C246.348 62.8439 246.796 62.6001 247.403 62.28C250.426 60.6923 257.508 56.9707 258.308 49.9974C258.982 44.1775 254.777 38.6548 248.945 37.6869C246.181 37.2246 243.376 37.8724 241.082 39.5109C238.791 41.1494 237.274 43.583 236.812 46.3622C236.746 46.9058 236.329 47.5282 235.793 47.6349C234.119 47.9677 232.857 49.2607 232.58 50.9246C232.298 52.6191 233.136 54.3109 234.668 55.1365C235.285 55.4693 235.516 56.239 235.184 56.8563C234.848 57.4736 234.084 57.7048 233.461 57.3746C230.974 56.0358 229.61 53.277 230.072 50.508C230.466 48.1353 232.161 46.1691 234.409 45.3842C235.077 42.1833 236.906 39.3712 239.601 37.4456C242.444 35.4108 245.909 34.608 249.359 35.1796C256.505 36.3659 261.651 43.1436 260.831 50.287C259.873 58.5965 251.67 62.9049 248.581 64.5282C248.119 64.7721 247.774 64.9448 247.598 65.0667C247.352 65.2954 246.763 66.5173 246.287 67.4978C244.062 72.1162 239.662 81.231 229.186 81.231Z" fill="#2E2E2E"/>
</g>
</g>
</g>
</g>
</g>
</g>
<g id="T&#195;&#173;tulo">
<rect x="289.105" y="52.6035" width="269" height="41" rx="20.5" fill="#DBB636"/>
<text id="Os primeiros mil dias" fill="white" xml:space="preserve" style="white-space: pre" font-family="Roboto" font-size="24" font-weight="bold" letter-spacing="0em"><tspan x="309.105" y="81.3066">Os primeiros mil dias</tspan></text>
</g>
</g>
</g>
<text id="Compreendem desde a gesta&#195;&#167;&#195;&#163;o at&#195;&#169; os 2 anos de vida. Considerado um per&#195;&#173;odo de ouro para o desenvolvimento integral da crian&#195;&#167;a, pois acontece r&#195;&#161;pido crescimento e desenvolvimento do c&#195;&#169;rebro e do corpo. Estrat&#195;&#169;gias de cuidado nessa fase impactam diretamente a sa&#195;&#186;de, nutri&#195;&#167;&#195;&#163;o, aprendizado, comportamento e forma&#195;&#167;&#195;&#163;o de v&#195;&#173;nculos afetivos, al&#195;&#169;m de ajudar a reduzir desigualdades e prevenir doen&#195;&#167;as cr&#195;&#180;nicas ao longo da vida (BRASIL, 2016)." fill="#2E2E2E" xml:space="preserve" style="white-space: pre" font-family="Roboto" font-size="22" letter-spacing="0em"><tspan x="40" y="156.848">Compreendem desde a gesta&#xe7;&#xe3;o at&#xe9; os 2 anos de vida. Considerado </tspan><tspan x="40" y="187.848">um per&#xed;odo de ouro para o desenvolvimento integral da crian&#xe7;a, pois </tspan><tspan x="40" y="218.848">acontece r&#xe1;pido crescimento e desenvolvimento do c&#xe9;rebro e do </tspan><tspan x="40" y="249.848">corpo. Estrat&#xe9;gias de cuidado nessa fase impactam diretamente a </tspan><tspan x="40" y="280.848">sa&#xfa;de, nutri&#xe7;&#xe3;o, aprendizado, comportamento e forma&#xe7;&#xe3;o de </tspan><tspan x="40" y="311.848">v&#xed;nculos afetivos, al&#xe9;m de ajudar a reduzir desigualdades e prevenir </tspan><tspan x="40" y="342.848">doen&#xe7;as cr&#xf4;nicas ao longo da vida (BRASIL, 2016).</tspan></text>
</g>
<defs>
<filter id="filter0_d_4036_264" x="-2" y="-22" width="775" height="407.207" filterUnits="userSpaceOnUse" color-interpolation-filters="sRGB">
<feFlood flood-opacity="0" result="BackgroundImageFix"/>
<feColorMatrix in="SourceAlpha" type="matrix" values="0 0 0 0 0 0 0 0 0 0 0 0 0 0 0 0 0 0 127 0" result="hardAlpha"/>
<feOffset dx="10" dy="-10"/>
<feGaussianBlur stdDeviation="6"/>
<feComposite in2="hardAlpha" operator="out"/>
<feColorMatrix type="matrix" values="0 0 0 0 0 0 0 0 0 0 0 0 0 0 0 0 0 0 0.1 0"/>
<feBlend mode="normal" in2="BackgroundImageFix" result="effect1_dropShadow_4036_264"/>
<feBlend mode="normal" in="SourceGraphic" in2="effect1_dropShadow_4036_264" result="shape"/>
</filter>
<linearGradient id="paint0_linear_4036_264" x1="0" y1="191.604" x2="751" y2="191.604" gradientUnits="userSpaceOnUse">
<stop stop-color="#F2F2F2"/>
<stop offset="1" stop-color="#F2F2F2"/>
</linearGradient>
<linearGradient id="paint1_linear_4036_264" x1="0" y1="191.604" x2="751" y2="191.604" gradientUnits="userSpaceOnUse">
<stop offset="0.139423" stop-color="white"/>
<stop offset="1" stop-color="#E2E1E1"/>
</linearGradient>
</defs>
</svg>
