<svg width="108" height="108" viewBox="0 0 108 108" fill="none" xmlns="http://www.w3.org/2000/svg">
<g id="1">
<g id="Ellipse 109" filter="url(#filter0_d_4168_2874)">
<circle cx="44" cy="64" r="42" fill="url(#paint0_linear_4168_2874)"/>
<circle cx="44" cy="64" r="38.5" stroke="url(#paint1_linear_4168_2874)" stroke-width="7"/>
</g>
<g id="Group 1200">
<g id="Group">
<path id="Vector" d="M64.6144 51.6236C65.3938 49.3616 65.0466 46.9813 63.6371 44.9211C62.3282 43.0081 60.1686 41.4594 57.5561 40.5604C52.198 38.7164 46.3379 41.5731 44.4929 46.9285C43.0446 51.1325 44.4617 55.7458 47.9403 58.4153L46.8856 60.6439H44.5607C44.0762 60.6439 43.6813 61.0388 43.6813 61.5233C43.6813 62.0087 44.0761 62.4026 44.5607 62.4026H46.3029C45.8491 63.1352 45.6666 63.9951 45.7887 64.8622L46.6324 70.68H38.1464C37.9142 70.68 37.6882 70.7741 37.5237 70.9377C37.3602 71.1012 37.267 71.3281 37.267 71.5594V74.4269C37.2661 75.2123 36.9592 75.9509 36.4035 76.5084C35.845 77.0642 35.1037 77.3702 34.3174 77.3711H25.5877V72.4388L31.4087 72.439C31.8944 72.439 32.2881 72.0453 32.2881 71.5597C32.2881 71.0741 31.8944 70.6804 31.4087 70.6804H29.7032V67.2585C29.7041 65.9632 30.2097 64.7435 31.1278 63.8254C32.0476 62.9082 33.2691 62.4035 34.568 62.4026H36.646C37.1314 62.4026 37.5254 62.0087 37.5254 61.5233C37.5254 61.0388 37.1314 60.6439 36.646 60.6439H34.568C33.6736 60.6439 32.8065 60.8189 31.9904 61.1636C31.2016 61.4969 30.4927 61.9735 29.8852 62.5812C29.2767 63.1888 28.7991 63.8958 28.4658 64.6837C28.1202 65.499 27.9452 66.3651 27.9444 67.2586V70.6802L22.6382 70.6805C21.1835 70.6804 20 71.8638 20 73.3185V76.4918C20 77.9464 21.1835 79.1299 22.6382 79.1299H24.7083H34.3174C34.9523 79.1299 35.5687 79.0051 36.1492 78.7606C36.7102 78.5232 37.2133 78.1846 37.646 77.7529C38.0777 77.3211 38.418 76.8182 38.6546 76.2579C38.9008 75.6785 39.0248 75.0621 39.0248 74.4271V72.4389H46.8874L47.185 74.4908V76.4919C47.185 77.9466 48.3684 79.13 49.8231 79.13H54.6334C56.088 79.13 57.2715 77.9465 57.2715 76.4919V76.186C57.2715 74.7314 56.088 73.548 54.6334 73.548H54.4262L53.4844 66.5272L55.5104 62.9206C55.7989 63.0749 56.1002 63.2063 56.4118 63.3136C59.6199 64.4177 63.1288 62.7072 64.2336 59.5005C64.5479 58.5881 64.4611 57.4699 64.3606 56.175C64.2471 54.7161 64.1187 53.0624 64.6144 51.6236ZM23.8288 77.3712H22.6382C22.1533 77.3712 21.7587 76.9766 21.7587 76.4918V73.3185C21.7587 72.8336 22.1533 72.4391 22.6382 72.4391H23.8288V77.3712ZM46.1558 47.5013C47.6849 43.0626 52.5421 40.6948 56.9837 42.2233C59.2412 43.0002 61.0885 44.3109 62.1855 45.9141C62.4535 46.3058 62.6716 46.7073 62.8403 47.1156L62.8374 47.1144C61.0444 47.2219 59.8054 48.0935 58.7724 48.8204C58.1809 49.2365 57.6223 49.6295 57.0564 49.8098C56.3511 50.0344 55.4576 49.9612 54.5933 49.8901C53.4106 49.7931 52.1877 49.6927 51.2912 50.3771C49.9338 51.4134 49.9335 52.9909 49.9332 54.2586C49.9329 55.6066 49.8882 56.4704 49.0862 57.0745C46.1505 54.8713 44.9454 51.0147 46.1558 47.5013ZM47.5297 64.6134C47.4576 64.1005 47.5897 63.59 47.902 63.1762C48.2145 62.7621 48.67 62.4943 49.1844 62.4221C50.2464 62.2731 51.2315 63.014 51.38 64.068L52.6517 73.5479H48.8254L47.5297 64.6134ZM54.6334 75.3066C55.1182 75.3066 55.5128 75.7011 55.5128 76.1859V76.4918C55.5128 76.9767 55.1182 77.3712 54.6334 77.3712H49.8231C49.3383 77.3712 48.9437 76.9766 48.9437 76.4918V75.3066H54.6334ZM62.9515 51.0507C62.337 52.8347 62.4866 54.7623 62.6069 56.3112C62.6888 57.3649 62.7661 58.3603 62.5706 58.9275C61.9443 60.7457 60.2358 61.8903 58.4113 61.8901C57.9379 61.8901 57.4563 61.8129 56.984 61.6504C56.5331 61.4952 56.1133 61.2696 55.7364 60.9798C55.5342 60.8242 55.2744 60.7643 55.0241 60.8153C54.7742 60.8665 54.5587 61.0237 54.4337 61.2462L53.0903 63.6375C52.7184 61.7208 50.9084 60.3673 48.8034 60.703C48.7803 60.7067 48.792 60.7046 48.8035 60.7027L49.7245 58.7565C51.6897 57.6054 51.6917 55.6812 51.692 54.259C51.6923 53.0342 51.7247 52.259 52.3586 51.775C52.7177 51.5009 53.5982 51.5732 54.4494 51.643C55.4359 51.724 56.5538 51.8158 57.5905 51.4854C58.4135 51.2232 59.1105 50.7328 59.7845 50.2587C60.8107 49.5365 61.7871 48.8492 63.254 48.8625C63.3025 49.5876 63.2027 50.3215 62.9515 51.0507Z" fill="#2E2E2E"/>
<path id="Vector_2" d="M40.603 62.4034C41.0886 62.4034 41.4823 62.0097 41.4823 61.5241C41.4823 61.0385 41.0886 60.6448 40.603 60.6448C40.1173 60.6448 39.7236 61.0385 39.7236 61.5241C39.7236 62.0097 40.1173 62.4034 40.603 62.4034Z" fill="#2E2E2E"/>
</g>
</g>
</g>
<defs>
<filter id="filter0_d_4168_2874" x="0" y="0" width="108" height="108" filterUnits="userSpaceOnUse" color-interpolation-filters="sRGB">
<feFlood flood-opacity="0" result="BackgroundImageFix"/>
<feColorMatrix in="SourceAlpha" type="matrix" values="0 0 0 0 0 0 0 0 0 0 0 0 0 0 0 0 0 0 127 0" result="hardAlpha"/>
<feOffset dx="10" dy="-10"/>
<feGaussianBlur stdDeviation="6"/>
<feComposite in2="hardAlpha" operator="out"/>
<feColorMatrix type="matrix" values="0 0 0 0 0 0 0 0 0 0 0 0 0 0 0 0 0 0 0.1 0"/>
<feBlend mode="normal" in2="BackgroundImageFix" result="effect1_dropShadow_4168_2874"/>
<feBlend mode="normal" in="SourceGraphic" in2="effect1_dropShadow_4168_2874" result="shape"/>
</filter>
<linearGradient id="paint0_linear_4168_2874" x1="2" y1="64" x2="86" y2="64" gradientUnits="userSpaceOnUse">
<stop stop-color="#F2F2F2"/>
<stop offset="1" stop-color="#F2F2F2"/>
</linearGradient>
<linearGradient id="paint1_linear_4168_2874" x1="2" y1="64" x2="86" y2="64" gradientUnits="userSpaceOnUse">
<stop offset="0.139423" stop-color="white"/>
<stop offset="1" stop-color="#E2E1E1"/>
</linearGradient>
</defs>
</svg>
