<svg width="108" height="108" viewBox="0 0 108 108" fill="none" xmlns="http://www.w3.org/2000/svg">
<g id="2">
<g id="Ellipse 110" filter="url(#filter0_d_4168_2869)">
<circle cx="44" cy="64" r="42" fill="url(#paint0_linear_4168_2869)"/>
<circle cx="44" cy="64" r="38.5" stroke="url(#paint1_linear_4168_2869)" stroke-width="7"/>
</g>
<g id="Group 1199">
<g id="Group">
<path id="Vector" d="M40.1572 92.61C39.8236 92.61 39.5062 92.4144 39.3672 92.088L35.9396 84.0517C35.7536 83.6156 35.9563 83.1112 36.3926 82.9252C36.829 82.7394 37.3331 82.942 37.5191 83.3782L40.9466 91.4145C41.1327 91.8506 40.9299 92.355 40.4937 92.541C40.3838 92.5878 40.2697 92.61 40.1572 92.61ZM30.0837 92.61C29.75 92.61 29.4327 92.4144 29.2936 92.088C27.4056 87.6614 26.4879 83.1784 26.4879 78.383C26.4879 74.9983 27.4484 71.8814 28.3774 68.8671C29.2515 66.0304 30.0773 63.3509 30.0773 60.6114C30.0773 59.924 29.9925 59.2948 29.8439 58.6998C28.2166 59.3566 26.3189 59.7668 24.3279 59.4784C22.5951 59.2273 21.0086 58.404 19.8607 57.1602C18.6434 55.8413 18 54.1764 18 52.3455C18 50.3872 18.7648 48.5947 20.1536 47.2987C21.4978 46.0442 23.3149 45.3808 25.3079 45.3902C25.5316 41.7568 27.1132 38.7938 29.916 36.7819C32.4149 34.9879 35.8426 34 39.5671 34C41.3561 34 43.0696 34.1975 44.66 34.5868C45.1205 34.6995 45.4025 35.1643 45.2897 35.6248C45.1771 36.0853 44.7126 36.3673 44.2517 36.2545C42.8153 35.903 41.1955 35.7171 39.5671 35.7171C36.1988 35.7171 33.1268 36.5906 30.9173 38.1767C28.3162 40.0438 26.9974 42.7761 26.9974 46.2976C26.9974 49.6039 28.2566 51.7625 29.4744 53.8499C29.9408 54.6496 30.4138 55.4603 30.8099 56.33C31.7687 55.7941 32.636 55.1696 33.3515 54.5471C33.0193 53.8434 32.8369 53.0379 32.8369 52.1633C32.8369 50.1738 34.3945 48.555 36.3091 48.555C37.0991 48.555 37.8539 48.8341 38.4589 49.3295C41.0995 46.3298 41.6631 43.6341 41.6688 43.6052C41.7491 43.2036 42.1017 42.9148 42.5107 42.9148C42.5129 42.9148 42.5112 42.9149 42.5177 42.9148C42.5687 42.9148 44.2828 42.9085 45.9646 42.3014C47.9624 41.5801 49.039 40.3402 49.168 38.6136C48.5659 38.1006 47.8697 37.6497 47.079 37.2612C46.6535 37.0521 46.4781 36.5376 46.6872 36.112C46.8962 35.6864 47.4108 35.511 47.8364 35.7202C51.2521 37.3988 54.9846 41.0478 53.3684 48.8988C53.1525 49.9475 53.1339 50.627 53.3043 51.2442C53.4963 51.9403 53.9404 52.4248 54.4105 52.9377C54.9564 53.5334 55.5753 54.2086 55.5753 55.1811C55.5753 56.3348 54.6603 57.591 52.9502 57.9148C52.3317 60.5576 51.6665 62.7216 50.7945 64.2733C51.0407 64.2526 51.289 64.2421 51.5388 64.2421C52.8546 64.2421 54.1192 64.5287 55.2978 65.094C55.7252 65.299 55.9056 65.8118 55.7006 66.2394C55.4955 66.6668 54.9829 66.8473 54.5552 66.6422C53.6104 66.189 52.5954 65.9593 51.5388 65.9593C47.8 65.9593 44.7066 68.9513 44.5598 72.6657C44.9347 73.1921 45.257 73.7639 45.5179 74.3753L46.215 76.0098C46.5209 76.0224 46.8075 75.847 46.9358 75.5542C47.1263 75.12 47.6328 74.9224 48.0668 75.1126C48.5011 75.3029 48.6988 75.8093 48.5084 76.2436C48.1986 76.9504 47.6013 77.4439 46.9093 77.6376L48.2908 80.8769C49.7967 81.8603 51.9001 81.4542 53.4055 80.7393C53.4107 79.2773 54.1575 77.9348 55.484 77.124L58.1895 75.4702C58.1902 75.4698 58.1907 75.4694 58.1914 75.469C58.8353 75.0755 59.1223 74.6067 59.1223 73.9491C59.1223 73.4395 58.7956 73.009 58.409 73.009C58.1818 73.009 58.0202 73.1551 57.944 73.2423C57.6319 73.5994 57.0896 73.6358 56.7326 73.3238C56.3756 73.0118 56.339 72.4694 56.6511 72.1124C57.0883 71.6122 57.6958 71.3167 58.3286 71.2934C58.0579 70.1674 57.5104 69.1321 56.7152 68.2548C56.3967 67.9035 56.4234 67.3605 56.7747 67.0421C57.126 66.7236 57.6691 66.7503 57.9874 67.1016C59.2525 68.4972 60.0379 70.2906 60.2053 72.1613C60.599 72.6336 60.8394 73.2613 60.8394 73.9492C60.8394 74.2902 60.7944 74.6149 60.7058 74.921C60.9314 74.9479 61.1557 74.9947 61.3762 75.0614C62.4425 75.3843 63.3224 76.1488 63.7904 77.1585C65.0053 79.7804 65.243 84.4946 65.243 91.7513C65.243 92.2255 64.8586 92.6099 64.3845 92.6099C63.9103 92.6099 63.5259 92.2255 63.5259 91.7513C63.5259 89.4889 63.5097 87.2132 63.4118 85.1338H57.7382C55.9237 85.1338 54.4054 84.1041 53.7441 82.4698C52.3792 83.047 50.7516 83.3693 49.2261 83.0699L52.7738 91.3878C52.9598 91.8239 52.7571 92.3283 52.3208 92.5143C51.8848 92.7003 51.3803 92.4976 51.1943 92.0613L43.9384 75.0492C42.7809 72.3353 40.1266 70.5817 37.1762 70.5817C36.702 70.5817 36.3176 70.1973 36.3176 69.7231C36.3176 69.249 36.702 68.8646 37.1762 68.8646C38.3804 68.8646 39.5445 69.1013 40.6151 69.5395V65.4999C39.9117 65.204 39.459 64.9745 39.4055 64.9471C38.9833 64.7311 38.8162 64.2139 39.0321 63.7917C39.248 63.3697 39.7651 63.2025 40.187 63.4182C40.2234 63.4368 43.8634 65.2768 46.827 65.2768C48.285 65.2768 49.3724 63.9639 50.3957 60.7813C49.2209 60.5602 47.9291 59.9863 47.1508 58.8978C46.875 58.5121 46.9641 57.9759 47.3499 57.7001C47.7356 57.4244 48.2718 57.5135 48.5476 57.8992C49.0394 58.587 50.0041 58.9868 50.8795 59.1218C51.0568 58.457 51.2336 57.7318 51.4116 56.9434C51.4971 56.565 51.8256 56.2909 52.2132 56.2747C53.0042 56.2417 53.8581 55.8144 53.8581 55.1814C53.8581 54.8913 53.5869 54.5807 53.1446 54.098C52.6128 53.5179 51.9512 52.7959 51.6491 51.7012C51.4341 50.9222 51.4163 50.1023 51.5982 49.0231C50.7445 48.3344 49.2439 47.9941 47.5137 48.1073C47.0415 48.1387 46.6319 47.7799 46.6009 47.3067C46.5699 46.8336 46.9283 46.4249 47.4015 46.3939C49.1649 46.2779 50.7417 46.5632 51.9159 47.1887C52.2801 44.3513 51.8371 42.0129 50.5942 40.1918C50.0176 41.8989 48.63 43.1757 46.5035 43.9323C45.2038 44.3948 43.9241 44.5517 43.1742 44.6048C42.7986 45.8054 41.7339 48.4574 39.0831 51.1821C39.0292 51.2396 38.9671 51.29 38.8983 51.3313C38.528 51.5533 38.0506 51.4664 37.783 51.128C37.7633 51.1031 37.7451 51.0774 37.7285 51.051C37.3978 50.5629 36.8688 50.2721 36.3091 50.2721C35.3413 50.2721 34.5539 51.1205 34.5539 52.1633C34.5539 54.2372 35.9973 55.6857 38.0641 55.6857C38.5383 55.6857 38.9227 56.0701 38.9227 56.5443C38.9227 57.0184 38.5383 57.4028 38.0641 57.4028C36.5667 57.4028 35.2724 56.8643 34.3462 55.9529C33.7374 56.4653 32.716 57.2476 31.4175 57.954C31.6515 58.7671 31.7941 59.6431 31.7941 60.6114C31.7941 63.4306 30.9958 66.1895 30.1746 68.8646H33.7422C34.2164 68.8646 34.6008 69.249 34.6008 69.7231C34.6008 70.1973 34.2164 70.5817 33.7422 70.5817H29.6481C28.8887 73.0976 28.2049 75.6903 28.2049 78.3832C28.2049 82.9425 29.0776 87.2051 30.873 91.4145C31.059 91.8506 30.8563 92.355 30.42 92.541C30.3102 92.5878 30.1961 92.61 30.0837 92.61ZM59.0859 76.935L56.3799 78.5891C55.1387 79.3478 54.9726 80.5992 55.2309 81.5174C55.4893 82.4356 56.2837 83.4166 57.7385 83.4166H63.3076C63.1292 81.0865 62.808 79.122 62.2326 77.8804C61.9665 77.3061 61.4857 76.8885 60.8787 76.7047C60.2775 76.5224 59.6252 76.6058 59.0888 76.9331C59.0882 76.9335 59.0877 76.9337 59.0872 76.9341C59.0868 76.9344 59.0864 76.9346 59.0859 76.935ZM42.3326 70.4698C42.5806 70.6412 42.82 70.8249 43.0501 71.0204C43.3989 69.4677 44.1695 68.0396 45.3017 66.8764C44.261 66.7255 43.2324 66.4468 42.3326 66.1471V70.4698ZM25.2495 47.1071C23.7132 47.1071 22.3339 47.6123 21.3251 48.5539C20.2881 49.5217 19.7171 50.8682 19.7171 52.3454C19.7171 55.1302 21.7144 57.3645 24.5743 57.779C26.1452 58.0064 27.7689 57.6811 29.2656 57.074C28.9087 56.288 28.4636 55.5248 27.9911 54.7151C26.8138 52.6969 25.4908 50.4288 25.303 47.1073C25.2852 47.1072 25.2674 47.1071 25.2495 47.1071ZM50.0869 79.7518C50.0017 79.7518 49.9181 79.7476 49.8361 79.7389C49.3646 79.6888 49.0229 79.266 49.073 78.7945C49.123 78.323 49.5445 77.9801 50.0174 78.0314C50.3178 78.063 50.8373 77.8742 51.0468 77.6567C51.3759 77.3154 51.9194 77.3054 52.2606 77.6343C52.6021 77.9633 52.6122 78.5068 52.2831 78.8483C51.7576 79.3936 50.8689 79.7518 50.0869 79.7518ZM51.953 75.4846C51.6151 75.4846 51.2778 75.4146 50.959 75.2748C50.5248 75.0844 50.327 74.5781 50.5174 74.1438C50.7078 73.7095 51.214 73.5118 51.6484 73.7023C51.8344 73.7837 52.0409 73.7879 52.2302 73.7142C52.4194 73.6402 52.5684 73.4971 52.6499 73.3111C52.8404 72.8769 53.347 72.679 53.7809 72.8695C54.2152 73.0599 54.4129 73.5662 54.2226 74.0005C53.9569 74.6066 53.471 75.073 52.8546 75.3137C52.5626 75.4277 52.2575 75.4846 51.953 75.4846ZM47.9028 53.6441C46.9141 53.6441 45.9208 53.2297 45.2351 52.4871C44.9134 52.1388 44.9352 51.5956 45.2835 51.274C45.6321 50.9524 46.1753 50.9741 46.4967 51.3224C46.9696 51.8345 47.7498 52.0539 48.3935 51.8555C48.8469 51.7161 49.3272 51.9702 49.4667 52.4233C49.6062 52.8765 49.352 53.3569 48.8989 53.4964C48.5756 53.596 48.2394 53.6441 47.9028 53.6441Z" fill="#CC7465"/>
</g>
</g>
</g>
<defs>
<filter id="filter0_d_4168_2869" x="0" y="0" width="108" height="108" filterUnits="userSpaceOnUse" color-interpolation-filters="sRGB">
<feFlood flood-opacity="0" result="BackgroundImageFix"/>
<feColorMatrix in="SourceAlpha" type="matrix" values="0 0 0 0 0 0 0 0 0 0 0 0 0 0 0 0 0 0 127 0" result="hardAlpha"/>
<feOffset dx="10" dy="-10"/>
<feGaussianBlur stdDeviation="6"/>
<feComposite in2="hardAlpha" operator="out"/>
<feColorMatrix type="matrix" values="0 0 0 0 0 0 0 0 0 0 0 0 0 0 0 0 0 0 0.1 0"/>
<feBlend mode="normal" in2="BackgroundImageFix" result="effect1_dropShadow_4168_2869"/>
<feBlend mode="normal" in="SourceGraphic" in2="effect1_dropShadow_4168_2869" result="shape"/>
</filter>
<linearGradient id="paint0_linear_4168_2869" x1="2" y1="64" x2="86" y2="64" gradientUnits="userSpaceOnUse">
<stop stop-color="#F2F2F2"/>
<stop offset="1" stop-color="#F2F2F2"/>
</linearGradient>
<linearGradient id="paint1_linear_4168_2869" x1="2" y1="64" x2="86" y2="64" gradientUnits="userSpaceOnUse">
<stop offset="0.139423" stop-color="white"/>
<stop offset="1" stop-color="#E2E1E1"/>
</linearGradient>
</defs>
</svg>
