<svg width="108" height="108" viewBox="0 0 108 108" fill="none" xmlns="http://www.w3.org/2000/svg">
<g id="3">
<g id="Ellipse 111" filter="url(#filter0_d_4168_2816)">
<circle cx="44" cy="64" r="42" fill="url(#paint0_linear_4168_2816)"/>
<circle cx="44" cy="64" r="38" stroke="url(#paint1_linear_4168_2816)" stroke-width="8"/>
</g>
<g id="Group 1198">
<g id="Group">
<path id="Vector" d="M56.6968 87.09C56.5642 87.09 56.4301 87.0555 56.3079 86.983C52.6008 84.782 50.8888 81.2523 50.4687 80.2709C47.9817 78.7258 46.4259 76.5926 45.575 75.1218C44.9877 75.7588 44.4274 76.3434 43.8758 76.8951C41.7554 79.0154 38.8168 79.9892 36.725 80.4327C35.522 80.6878 34.4848 80.7952 33.8266 80.8404C33.4107 80.869 33.1112 80.8809 32.8885 80.8789L26.901 86.8665C26.603 87.1645 26.1198 87.1645 25.8219 86.8665C25.5239 86.5685 25.5239 86.0853 25.8219 85.7874L32.0499 79.5595C32.2308 79.3786 32.4843 79.3045 32.725 79.348C33.611 79.4101 39.5237 79.0893 42.7968 75.816C43.3175 75.2952 43.847 74.7435 44.4014 74.1434C42.9243 74.2765 40.6052 74.0459 38.6701 72.1109L34.6903 68.131C34.1765 69.0293 33.582 69.8181 32.9164 70.4837C32.6183 70.7817 32.1353 70.7818 31.8373 70.4837C31.5393 70.1857 31.5393 69.7026 31.8373 69.4046C32.4944 68.7475 33.0749 67.9422 33.5663 67.0072L33.0746 66.5156C32.0996 65.5406 31.6821 64.562 31.8334 63.6067C31.955 62.8393 32.4399 62.1525 33.2785 61.5571C32.4083 60.5388 32.5558 59.1891 33.6827 58.0621C34.1103 57.6345 34.5702 57.3479 35.0317 57.2045C34.9741 56.9762 34.9553 56.7411 34.975 56.5037C34.7603 55.1953 34.4136 53.8979 33.9424 52.6367C31.958 53.5409 29.8698 53.1864 29.7578 53.1666C29.3429 53.0924 29.0667 52.696 29.1408 52.2812C29.2149 51.8672 29.6098 51.5912 30.0241 51.6639C30.0517 51.6687 32.8053 52.1219 34.4916 50.4357L38.3217 46.6055C39.5961 45.331 39.4217 43.9225 38.7203 43.1532C38.2735 42.663 37.5169 42.3709 36.7337 43.0212C34.026 45.2697 31.7543 46.2807 30.6413 46.6833C30.17 46.8537 29.7688 47.1539 29.4809 47.5516L26.471 51.7084C26.2238 52.0498 25.7468 52.1261 25.4055 51.879C25.0642 51.6318 24.9879 51.1548 25.235 50.8134L28.2449 46.6566C28.7129 46.0101 29.3621 45.523 30.1224 45.2481C31.1419 44.8794 33.2297 43.9472 35.7588 41.8471C37.0445 40.7798 38.7261 40.8939 39.8482 42.125C40.3436 42.6684 40.6758 43.3802 40.7659 44.1614L43.518 41.4093C43.8162 41.1113 44.2993 41.1113 44.5972 41.4093C44.8951 41.7073 44.8952 42.1905 44.5972 42.4884L35.5707 51.5147C35.4687 51.6168 35.3643 51.713 35.258 51.8038C35.5996 52.6801 35.8852 53.5742 36.1122 54.4782C36.9073 53.7695 37.7954 53.5309 38.5922 53.7753C38.7434 53.3267 39.0288 52.8863 39.4323 52.4827C39.9584 51.9566 40.5472 51.6314 41.1349 51.5424C41.6373 51.4663 42.3846 51.5236 43.09 52.229L44.9485 54.0875C45.2264 53.5963 45.6209 53.1692 46.1 52.8572C46.719 52.4541 47.3702 52.3152 47.8871 52.4763C48.0867 52.5385 48.2936 52.6262 48.506 52.7359L57.7673 43.4746C59.5406 41.7013 60.0386 40.0819 59.0995 39.1428C58.691 38.7344 58.167 38.5886 57.5428 38.7107C56.7216 38.8707 55.7621 39.4808 54.768 40.475L52.8328 42.4101L44.5342 50.7088C44.2361 51.0067 43.7529 51.0069 43.4551 50.7088C43.157 50.4108 43.157 49.9278 43.455 49.6298L51.7617 41.3232C53.5286 39.553 54.0237 37.937 53.0859 36.9993C52.6774 36.5908 52.1537 36.445 51.5291 36.5671C50.7079 36.7271 49.7484 37.3373 48.7543 38.3315L46.7339 40.3519C46.4358 40.65 45.9527 40.65 45.6549 40.352C45.3568 40.054 45.3568 39.5709 45.6548 39.2729L47.6751 37.2524C48.9023 36.0252 50.1007 35.2907 51.2372 35.0692C52.3582 34.8508 53.3978 35.1531 54.1652 35.9203C54.4829 36.2381 55.1007 37.0117 55.0895 38.2004C55.8282 37.68 56.5514 37.3492 57.251 37.2128C58.3714 36.9944 59.4115 37.2966 60.1789 38.0639C60.6863 38.5714 61.9587 40.2411 60.2127 42.9085C61.4466 42.8712 62.2443 43.5067 62.5689 43.8313C63.1738 44.4363 64.8655 46.6923 61.2365 50.3212L60.0256 51.5321C60.8178 51.566 61.538 51.8794 62.1081 52.4493C62.8753 53.2165 63.1776 54.2564 62.959 55.3772C62.7374 56.5137 62.003 57.7121 60.7759 58.9392L56.9108 62.8043C56.6127 63.1023 56.1297 63.1022 55.8317 62.8043C55.5337 62.5063 55.5337 62.0231 55.8317 61.7252L59.6967 57.8601C60.6909 56.8659 61.3012 55.9064 61.4612 55.0853C61.5829 54.4607 61.4375 53.937 61.029 53.5285C60.6203 53.1199 60.0965 52.9744 59.4721 53.0963C58.651 53.2563 57.6914 53.8665 56.6973 54.8607C56.6958 54.8621 56.6944 54.8635 56.6929 54.8649L53.5503 58.0075C54.4727 59.8392 54.5197 62.133 53.72 65.3882C54.972 66.0155 57.86 67.7174 59.8618 70.8787C60.8476 71.2893 64.3935 72.9669 66.6302 76.6521C66.8489 77.0124 66.7341 77.4817 66.3739 77.7003C66.0138 77.9189 65.5444 77.8042 65.3256 77.444C63.0504 73.6954 59.1247 72.2267 59.0854 72.2123C58.9226 72.1528 58.7838 72.0393 58.6939 71.8912C56.3995 68.1113 52.5757 66.5362 52.5373 66.5208C52.1795 66.3766 51.9858 65.9881 52.0857 65.6155C53.3121 61.0419 52.6299 59.226 51.8008 58.0528C50.1664 55.7398 48.3752 54.2345 47.4436 53.9368C47.3617 53.9303 47.1009 53.9951 46.796 54.2344C46.6273 54.3667 46.2651 54.7019 46.1019 55.2412L46.104 55.2433L47.5893 56.7284C48.1379 57.2771 49.8424 58.4 50.453 58.7864C50.809 59.0118 50.9151 59.4832 50.6897 59.8393C50.4642 60.1953 49.993 60.3014 49.6368 60.076C49.3975 59.9246 47.2773 58.5748 46.51 57.8075L44.7392 56.0366C44.7363 56.0337 44.7333 56.0308 44.7305 56.0279L42.0109 53.3083C41.7348 53.0321 41.5089 53.0296 41.3635 53.0515C41.104 53.0908 40.8014 53.2721 40.5116 53.5621C40.2217 53.8519 40.0404 54.1545 40.001 54.4141C39.9791 54.5597 39.9816 54.7853 40.2578 55.0615L43.3844 58.1881C43.6824 58.4861 43.6824 58.9693 43.3844 59.2672C43.0863 59.5651 42.6033 59.5652 42.3053 59.2672L39.1788 56.1406L38.5115 55.4735C37.8885 54.8504 37.2288 55.5102 37.012 55.727C36.1355 56.6036 36.6043 57.0724 36.7583 57.2264L37.3305 57.7986C37.3339 57.8019 37.3373 57.8054 37.3407 57.8087C37.3424 57.8105 37.3442 57.8123 37.3459 57.814L40.5523 61.0203C40.8503 61.3183 40.8503 61.8014 40.5523 62.0993C40.2543 62.3973 39.7711 62.3973 39.4732 62.0993L36.2561 58.8822C35.6347 58.2688 34.9782 58.9252 34.7622 59.1414C33.8857 60.018 34.3545 60.4868 34.5086 60.6409L35.0282 61.1606C35.0369 61.1688 35.0453 61.1772 35.0537 61.186L38.2933 64.4256C38.5913 64.7236 38.5913 65.2068 38.2933 65.5047C37.9953 65.8027 37.5121 65.8027 37.2143 65.5047L34.3712 62.6617C33.8765 62.9724 33.4149 63.3799 33.3411 63.8457C33.2532 64.4007 33.7346 65.0171 34.1541 65.4366L39.7494 71.0322C42.0608 73.3435 44.9872 72.5224 45.1799 72.4643C45.3487 72.3966 45.5374 72.3911 45.7118 72.4512C45.9275 72.5255 46.0988 72.6924 46.1784 72.9061C46.1928 72.9442 47.6997 76.8553 51.4703 79.0939C51.62 79.1828 51.7348 79.3203 51.7956 79.4835C51.81 79.5215 53.317 83.4326 57.0875 85.6712C57.4499 85.8863 57.5691 86.3545 57.354 86.7169C57.211 86.9566 56.9572 87.09 56.6968 87.09ZM32.9857 79.4468C32.9861 79.447 32.9864 79.4472 32.9868 79.4475C32.9864 79.4472 32.986 79.447 32.9857 79.4468ZM32.9843 79.4459C32.9846 79.446 32.9849 79.4463 32.9852 79.4464C32.985 79.4463 32.9846 79.4461 32.9843 79.4459ZM32.9834 79.4453C32.9834 79.4453 32.9835 79.4454 32.9836 79.4454C32.9835 79.4454 32.9834 79.4454 32.9834 79.4453ZM45.0649 72.5213C45.0645 72.5215 45.0642 72.5218 45.0637 72.522C45.0641 72.5218 45.0645 72.5215 45.0649 72.5213ZM49.7952 53.6047C50.8199 54.4364 51.8613 55.581 52.7013 56.6976L60.1572 49.2416C61.9305 47.4684 62.4286 45.8491 61.4895 44.9099C60.5504 43.9707 58.9311 44.4689 57.1579 46.2421C57.1561 46.2438 57.1545 46.2455 57.1528 46.2471L49.7952 53.6047ZM47.4486 53.9368H47.4488C47.4487 53.9368 47.4487 53.9368 47.4486 53.9368ZM15.763 76.4915C15.5678 76.4915 15.3724 76.417 15.2235 76.2679C14.9255 75.9699 14.9255 75.4868 15.2235 75.1889L21.1432 69.2691C19.6032 63.0732 20.7141 57.0566 22.5872 54.4699L23.5969 53.0755C23.844 52.7343 24.3211 52.6579 24.6624 52.905C25.0037 53.1521 25.08 53.6292 24.8329 53.9706L23.8232 55.365C22.3589 57.3873 21.0509 63.0486 22.7279 69.3029C22.7985 69.5662 22.7232 69.8473 22.5304 70.0401L16.3026 76.2679C16.1536 76.417 15.9583 76.4915 15.763 76.4915Z" fill="#2E2E2E"/>
</g>
</g>
</g>
<defs>
<filter id="filter0_d_4168_2816" x="0" y="0" width="108" height="108" filterUnits="userSpaceOnUse" color-interpolation-filters="sRGB">
<feFlood flood-opacity="0" result="BackgroundImageFix"/>
<feColorMatrix in="SourceAlpha" type="matrix" values="0 0 0 0 0 0 0 0 0 0 0 0 0 0 0 0 0 0 127 0" result="hardAlpha"/>
<feOffset dx="10" dy="-10"/>
<feGaussianBlur stdDeviation="6"/>
<feComposite in2="hardAlpha" operator="out"/>
<feColorMatrix type="matrix" values="0 0 0 0 0 0 0 0 0 0 0 0 0 0 0 0 0 0 0.1 0"/>
<feBlend mode="normal" in2="BackgroundImageFix" result="effect1_dropShadow_4168_2816"/>
<feBlend mode="normal" in="SourceGraphic" in2="effect1_dropShadow_4168_2816" result="shape"/>
</filter>
<linearGradient id="paint0_linear_4168_2816" x1="2" y1="64" x2="86" y2="64" gradientUnits="userSpaceOnUse">
<stop stop-color="#F2F2F2"/>
<stop offset="1" stop-color="#F2F2F2"/>
</linearGradient>
<linearGradient id="paint1_linear_4168_2816" x1="2" y1="64" x2="86" y2="64" gradientUnits="userSpaceOnUse">
<stop offset="0.139423" stop-color="white"/>
<stop offset="1" stop-color="#E2E1E1"/>
</linearGradient>
</defs>
</svg>
