<svg width="108" height="108" viewBox="0 0 108 108" fill="none" xmlns="http://www.w3.org/2000/svg">
<g id="4">
<g id="Ellipse 112" filter="url(#filter0_d_4168_2815)">
<circle cx="44" cy="64" r="42" fill="url(#paint0_linear_4168_2815)"/>
<circle cx="44" cy="64" r="38" stroke="url(#paint1_linear_4168_2815)" stroke-width="8"/>
</g>
<g id="Group 1196">
<path id="Vector" d="M60.3914 62.6429C60.8307 62.6429 61.1871 62.2869 61.1871 61.8472V60.0606C61.1871 59.6209 60.8307 59.2649 60.3914 59.2649C59.9517 59.2649 59.5957 59.6209 59.5957 60.0606V61.8472C59.5957 62.2869 59.9517 62.6429 60.3914 62.6429Z" fill="#2E2E2E"/>
<path id="Vector_2" d="M69.2577 62.7775H67.0741C66.515 60.5885 65.493 58.5064 64.0964 56.7211C62.6894 54.9229 60.8953 53.4148 58.8861 52.3377V46.5634C58.8861 46.081 58.6781 45.6218 58.315 45.3035C57.9532 44.9861 57.4725 44.8398 56.9955 44.9024C53.8648 45.3164 51.2825 47.4449 50.263 50.3956H49.4233C49.4362 50.2154 49.4428 50.0343 49.4428 49.8515C49.4428 45.827 46.1696 42.553 42.1459 42.553C38.1213 42.553 34.8473 45.827 34.8473 49.8515C34.8473 50.4089 34.912 50.9584 35.0355 51.491C32.1282 52.6025 29.6031 54.4919 27.6992 56.9884C27.4327 57.3377 27.4998 57.8371 27.8496 58.1036C27.9934 58.2134 28.1629 58.2665 28.3312 58.2665C28.5711 58.2665 28.8078 58.1587 28.9649 57.9536C30.6794 55.7053 32.9492 54.0012 35.5626 52.9933C35.9182 53.7359 36.3973 54.4177 36.9812 55.0053C36.8979 55.0265 36.815 55.0489 36.7322 55.0716C36.3086 55.1889 36.0604 55.627 36.1772 56.0509C36.275 56.4032 36.595 56.6345 36.9439 56.6345C37.014 56.6345 37.0857 56.6249 37.1565 56.6054C37.7463 56.4422 38.3514 56.3257 38.9548 56.259C39.8628 56.1591 39.3356 56.1894 48.5634 56.1885C49.0031 56.1885 49.3591 55.8325 49.3591 55.3928C49.3591 54.9535 49.0031 54.5971 48.5634 54.5971H47.696C48.35 53.8358 48.8373 52.9485 49.1287 51.987H50.8515C51.2125 51.987 51.5283 51.7442 51.6207 51.3952C52.3177 48.7657 54.5093 46.8365 57.2031 46.4805C57.2118 46.4789 57.2383 46.476 57.2657 46.5C57.2851 46.517 57.2947 46.5381 57.2947 46.5638V52.8221C57.2947 53.1242 57.4654 53.4003 57.736 53.5345C61.7685 55.5395 64.7325 59.3544 65.665 63.7394C65.7429 64.1066 66.0674 64.3694 66.4433 64.3694H69.2577C69.6638 64.3694 69.9942 64.6997 69.9942 65.1054V70.9948C69.9942 71.4002 69.6638 71.73 69.2577 71.73H66.2075C65.5983 71.73 65.0487 72.0931 64.8071 72.6567C64.5705 73.212 64.2969 73.7599 63.9936 74.2842C63.7731 74.6642 63.9028 75.1512 64.2833 75.3712C64.4088 75.4442 64.546 75.4786 64.6811 75.4786C64.9559 75.4786 65.2232 75.336 65.3703 75.0815C65.6994 74.5138 65.9965 73.9211 66.2535 73.3214H69.2577C70.5412 73.3214 71.5856 72.2779 71.5856 70.9948V65.1054C71.5856 63.8219 70.5412 62.7775 69.2577 62.7775ZM39.0546 54.6498C37.435 53.6029 36.4383 51.7869 36.4383 49.8515C36.4383 46.7047 38.9987 44.1448 42.1455 44.1448C45.2919 44.1448 47.8514 46.7047 47.8514 49.8515C47.8514 50.2344 47.8141 50.6103 47.7416 50.9754C47.732 51.0102 47.7246 51.0459 47.7196 51.0823C47.4084 52.5105 46.5596 53.7666 45.3147 54.5971C40.3796 54.6137 40.0663 54.559 39.0546 54.6498Z" fill="#2E2E2E"/>
<path id="Vector_3" d="M63.2234 76.8149C62.8993 76.5186 62.3958 76.5409 62.0995 76.8654C61.3792 77.6528 60.5727 78.3648 59.7024 78.9811C59.4989 79.1249 59.3746 79.3557 59.3667 79.6048C59.3107 81.3537 59.1346 83.3015 58.8433 85.3936C58.6576 86.7272 57.5055 87.7285 56.1598 87.7285H56.1453C54.827 87.7214 53.6898 86.7164 53.4755 85.3799C53.3334 84.3546 53.2186 83.3608 53.1336 82.4254C53.088 81.931 53.0503 81.4523 53.0209 81.0023C52.9898 80.5157 52.967 80.0395 52.9525 79.587C52.9388 79.1477 52.5671 78.8 52.1324 78.817C51.6931 78.8307 51.3482 79.1983 51.3619 79.6371C51.3768 80.1067 51.4005 80.6003 51.4328 81.1042C51.4452 81.2978 51.4593 81.4963 51.4751 81.6985C51.3611 81.701 51.2475 81.7026 51.1352 81.7026H40.7951C40.2634 81.7026 39.7114 81.6716 39.1535 81.6102C38.9409 81.5866 38.7279 81.65 38.5626 81.7855C38.3972 81.9206 38.2932 82.1171 38.2741 82.3301C38.1854 83.3185 38.0665 84.3492 37.921 85.3936C37.7358 86.7247 36.5824 87.7285 35.238 87.7285C33.894 87.7285 32.7402 86.7247 32.5549 85.3936C32.5516 85.3716 32.5487 85.3496 32.5458 85.3277C32.5446 85.3198 32.5433 85.3115 32.5425 85.3036C32.5413 85.2962 32.5404 85.2887 32.5392 85.2812C32.3817 84.1337 32.2002 82.5887 32.0966 80.9534C31.8919 77.6512 32.1198 75.6644 32.3171 74.6466C32.4004 74.2152 32.1185 73.7978 31.6871 73.7141C31.2553 73.6308 30.8379 73.9126 30.7546 74.344C30.5682 75.3068 30.4695 76.3768 30.4347 77.4916C27.5689 74.7129 25.9485 70.9316 25.9377 66.8856C25.9373 66.8201 25.9377 66.755 25.9385 66.6895C25.9385 66.6891 25.9385 66.6887 25.9385 66.6883C25.9385 66.6808 25.9385 66.6734 25.9385 66.6659C25.9638 64.5846 26.4251 62.5713 27.312 60.6782C27.4984 60.28 27.3269 59.8063 26.929 59.6198C26.5307 59.4337 26.0575 59.6053 25.871 60.0031C24.9982 61.8664 24.4967 63.8349 24.3753 65.8677C22.0814 65.9042 20.4688 66.3916 19.3337 67.3808C18.1944 68.3763 17.7394 69.7965 18.1468 71.0883C18.7547 73.0154 20.9927 73.6619 22.3512 72.2756C22.8373 71.7796 23.0694 71.1306 22.9882 70.4944C22.9322 70.0584 22.5344 69.7509 22.098 69.806C21.662 69.8616 21.3536 70.2603 21.4096 70.6962C21.437 70.9093 21.2824 71.0928 21.2148 71.1616C21.0362 71.344 20.783 71.4472 20.5704 71.4244C20.1497 71.3792 19.8115 71.0746 19.6648 70.6096C19.4473 69.92 19.715 69.1612 20.3801 68.5802C21.2003 67.8649 22.5049 67.4968 24.3575 67.4604C24.5315 72.2217 26.723 76.6077 30.4384 79.6201C30.4994 81.5816 30.7066 83.6621 30.9784 85.6128C31.2727 87.7264 33.1041 89.3199 35.238 89.3199C37.3719 89.3199 39.2029 87.7264 39.4971 85.6128C39.6078 84.8179 39.7035 84.0301 39.7827 83.2617C40.125 83.2833 40.4632 83.2941 40.7951 83.2941H51.1348C51.2944 83.2941 51.4556 83.2916 51.6176 83.287C51.6939 84.023 51.7851 84.7773 51.8899 85.5369C51.8932 85.5618 51.8969 85.5871 51.9011 85.612V85.6128C51.9023 85.6207 51.9036 85.6285 51.9048 85.6364C52.243 87.7322 54.045 89.3087 56.1366 89.3199C56.1445 89.3199 56.1519 89.3203 56.1598 89.3199C58.2954 89.3199 60.1243 87.7301 60.4194 85.6132C60.697 83.619 60.8727 81.7486 60.9428 80.0466C61.7837 79.4204 62.5661 78.713 63.2736 77.9392C63.5703 77.6147 63.5479 77.1116 63.2234 76.8149Z" fill="#2E2E2E"/>
<path id="Vector_4" d="M42.6961 49.0569H41.5966C41.3558 49.0569 41.1598 48.8608 41.1598 48.62C41.1598 48.3797 41.3558 48.1837 41.5966 48.1837H43.7007C44.1404 48.1837 44.4964 47.8277 44.4964 47.3879C44.4964 46.9487 44.1404 46.5922 43.7007 46.5922H43.0604V46.1985C43.0604 45.7588 42.7044 45.4028 42.2647 45.4028C41.8254 45.4028 41.4689 45.7588 41.4689 46.1985V46.5964C40.4101 46.6623 39.5684 47.545 39.5684 48.6205C39.5684 49.7386 40.478 50.6483 41.5966 50.6483H42.6961C42.9365 50.6483 43.1325 50.8443 43.1325 51.0847C43.1325 51.3254 42.9365 51.5211 42.6961 51.5211H40.5916C40.1523 51.5211 39.7959 51.8775 39.7959 52.3168C39.7959 52.7565 40.1523 53.1125 40.5916 53.1125H41.4689V53.5066C41.4689 53.9459 41.8254 54.3023 42.2647 54.3023C42.7044 54.3023 43.0604 53.9459 43.0604 53.5066V53.0797C44.0053 52.9077 44.7239 52.0785 44.7239 51.0847C44.7239 49.9665 43.8142 49.0569 42.6961 49.0569Z" fill="#2E2E2E"/>
<path id="Vector_5" d="M27.7885 49.5958C31.8126 49.5958 35.0866 46.3222 35.0866 42.2977C35.0866 38.2736 31.8126 35 27.7885 35C26.3264 35 24.9152 35.431 23.7076 36.247C23.3433 36.4928 23.2475 36.9872 23.4937 37.3515C23.7395 37.7158 24.2343 37.8115 24.5986 37.5657C25.5418 36.9283 26.6451 36.5914 27.7885 36.5914C30.9353 36.5914 33.4952 39.1513 33.4952 42.2977C33.4952 45.4444 30.9353 48.0044 27.7885 48.0044C24.6421 48.0044 22.0821 45.4444 22.0821 42.2977C22.0821 41.3851 22.291 40.5136 22.7026 39.7071C22.9023 39.3159 22.7473 38.8364 22.3557 38.6366C21.9644 38.4369 21.4854 38.5919 21.2852 38.9835C20.7655 40.0013 20.4907 41.1476 20.4907 42.2977C20.4907 46.3222 23.7643 49.5958 27.7885 49.5958Z" fill="#2E2E2E"/>
<path id="Vector_6" d="M27.9063 37.8479C27.467 37.8479 27.1106 38.2039 27.1106 38.6436V39.0415C26.0517 39.1074 25.2104 39.9901 25.2104 41.0655C25.2104 42.1837 26.1197 43.0933 27.2383 43.0933H28.3378C28.5781 43.0933 28.7742 43.2889 28.7742 43.5297C28.7742 43.7705 28.5781 43.9661 28.3378 43.9661H26.2337C25.794 43.9661 25.438 44.3221 25.438 44.7618C25.438 45.2015 25.794 45.5575 26.2337 45.5575H27.111V45.9512C27.111 46.3909 27.467 46.7469 27.9068 46.7469C28.3461 46.7469 28.7025 46.3909 28.7025 45.9512V45.5248C29.647 45.3528 30.3656 44.5235 30.3656 43.5297C30.3656 42.4116 29.4559 41.5019 28.3378 41.5019H27.2383C26.9975 41.5019 26.8019 41.3059 26.8019 41.0655C26.8019 40.8247 26.9975 40.6291 27.2383 40.6291H29.3423C29.7821 40.6291 30.1381 40.2727 30.1381 39.8334C30.1381 39.3937 29.7821 39.0377 29.3423 39.0377H28.7025V38.6436C28.702 38.2039 28.3461 37.8479 27.9063 37.8479Z" fill="#2E2E2E"/>
</g>
</g>
<defs>
<filter id="filter0_d_4168_2815" x="0" y="0" width="108" height="108" filterUnits="userSpaceOnUse" color-interpolation-filters="sRGB">
<feFlood flood-opacity="0" result="BackgroundImageFix"/>
<feColorMatrix in="SourceAlpha" type="matrix" values="0 0 0 0 0 0 0 0 0 0 0 0 0 0 0 0 0 0 127 0" result="hardAlpha"/>
<feOffset dx="10" dy="-10"/>
<feGaussianBlur stdDeviation="6"/>
<feComposite in2="hardAlpha" operator="out"/>
<feColorMatrix type="matrix" values="0 0 0 0 0 0 0 0 0 0 0 0 0 0 0 0 0 0 0.1 0"/>
<feBlend mode="normal" in2="BackgroundImageFix" result="effect1_dropShadow_4168_2815"/>
<feBlend mode="normal" in="SourceGraphic" in2="effect1_dropShadow_4168_2815" result="shape"/>
</filter>
<linearGradient id="paint0_linear_4168_2815" x1="2" y1="64" x2="86" y2="64" gradientUnits="userSpaceOnUse">
<stop stop-color="#F2F2F2"/>
<stop offset="1" stop-color="#F2F2F2"/>
</linearGradient>
<linearGradient id="paint1_linear_4168_2815" x1="2" y1="64" x2="86" y2="64" gradientUnits="userSpaceOnUse">
<stop offset="0.139423" stop-color="white"/>
<stop offset="1" stop-color="#E2E1E1"/>
</linearGradient>
</defs>
</svg>
