<svg width="108" height="108" viewBox="0 0 108 108" fill="none" xmlns="http://www.w3.org/2000/svg">
<g id="5">
<g id="Ellipse 113" filter="url(#filter0_d_4168_3053)">
<circle cx="44" cy="64" r="42" fill="url(#paint0_linear_4168_3053)"/>
<circle cx="44" cy="64" r="38" stroke="url(#paint1_linear_4168_3053)" stroke-width="8"/>
</g>
<g id="Group 1197">
<g id="Go Green">
<path id="Vector" d="M64.5862 65.2191C64.24 64.8729 63.829 64.5982 63.3767 64.4108C62.9243 64.2234 62.4395 64.127 61.9499 64.127C61.4602 64.127 60.9754 64.2234 60.5231 64.4108C60.0707 64.5982 59.6597 64.8729 59.3135 65.2191L52.9315 71.6011C52.6516 71.0828 52.2371 70.6495 51.7317 70.3469C51.2263 70.0442 50.6487 69.8833 50.0596 69.8812H40.7241C39.9205 68.9086 38.9224 68.1145 37.794 67.55C36.6656 66.9855 35.4316 66.663 34.1713 66.6032C32.911 66.5434 31.6521 66.7476 30.4753 67.2026C29.2984 67.6577 28.2297 68.3536 27.3375 69.2458L23.7543 72.829L22.6914 71.7662C22.6151 71.6898 22.5245 71.6292 22.4248 71.5879C22.325 71.5466 22.2182 71.5253 22.1102 71.5253C22.0023 71.5253 21.8954 71.5466 21.7956 71.5879C21.6959 71.6292 21.6053 71.6898 21.529 71.7662L18.2408 75.0543C18.1645 75.1306 18.1039 75.2212 18.0626 75.321C18.0213 75.4207 18 75.5276 18 75.6355C18 75.7435 18.0213 75.8504 18.0626 75.9501C18.1039 76.0498 18.1645 76.1404 18.2408 76.2167L31.3935 89.3694C31.4698 89.4457 31.5604 89.5063 31.6601 89.5476C31.7598 89.5889 31.8667 89.6102 31.9747 89.6102C32.0826 89.6102 32.1895 89.5889 32.2892 89.5476C32.389 89.5063 32.4796 89.4457 32.5559 89.3694L35.844 86.0812C35.9204 86.0049 35.981 85.9143 36.0223 85.8146C36.0636 85.7149 36.0849 85.608 36.0849 85.5C36.0849 85.3921 36.0636 85.2852 36.0223 85.1854C35.981 85.0857 35.9204 84.9951 35.844 84.9188L34.7812 83.8559L35.7032 82.9339C36.1668 82.4732 36.7932 82.2138 37.4468 82.2118H49.4611C50.5411 82.2148 51.611 82.0036 52.6088 81.5902C53.6066 81.1769 54.5125 80.5698 55.274 79.8039L64.5862 70.4917C64.9324 70.1456 65.2071 69.7346 65.3945 69.2822C65.5819 68.8299 65.6783 68.3451 65.6783 67.8554C65.6783 67.3658 65.5819 66.881 65.3945 66.4286C65.2071 65.9763 64.9324 65.5653 64.5862 65.2191ZM31.9747 87.6257L19.9845 75.6355L22.1102 73.5098L34.1005 85.5L31.9747 87.6257ZM63.4237 69.3293L54.1116 78.6415C53.5023 79.2541 52.7775 79.7398 51.9793 80.0704C51.181 80.4011 50.3251 80.5701 49.4611 80.5677H37.4468C36.9069 80.5663 36.372 80.6719 35.8732 80.8785C35.3744 81.0852 34.9215 81.3887 34.5408 81.7715L33.6188 82.6935L24.9167 73.9914L28.4999 70.4082C29.2397 69.6685 30.1277 69.0938 31.1054 68.7218C32.0832 68.3497 33.1286 68.1889 34.173 68.2497C35.2173 68.3106 36.237 68.5918 37.1649 69.0748C38.0929 69.5579 38.9081 70.2319 39.5569 71.0525L39.6834 71.2126C39.7603 71.3101 39.8582 71.3889 39.97 71.443C40.0817 71.4972 40.2042 71.5253 40.3284 71.5253H50.0596C50.4956 71.5253 50.9138 71.6985 51.2221 72.0068C51.5304 72.3152 51.7037 72.7334 51.7037 73.1694C51.7037 73.6054 51.5304 74.0236 51.2221 74.3319C50.9138 74.6403 50.4956 74.8135 50.0596 74.8135H38.551C38.333 74.8135 38.1239 74.9001 37.9698 75.0542C37.8156 75.2084 37.729 75.4175 37.729 75.6355C37.729 75.8535 37.8156 76.0626 37.9698 76.2168C38.1239 76.3709 38.333 76.4576 38.551 76.4576H50.0596C50.8637 76.455 51.6389 76.1573 52.238 75.621C52.837 75.0846 53.2183 74.347 53.3095 73.548L60.476 66.3815C60.8731 66.0024 61.4009 65.7909 61.9499 65.7909C62.4989 65.7909 63.0267 66.0024 63.4238 66.3815C63.6173 66.5751 63.7709 66.8048 63.8756 67.0577C63.9804 67.3106 64.0343 67.5817 64.0343 67.8554C64.0343 68.1291 63.9804 68.4002 63.8756 68.6531C63.7709 68.9059 63.6173 69.1358 63.4237 69.3293Z" fill="#448F96"/>
<path id="Vector_2" d="M31.764 53.7507C31.7525 53.7668 31.7352 53.7759 31.7248 53.793C31.7221 53.7975 31.7223 53.8027 31.7197 53.8072C29.2195 56.9826 27.8614 60.9073 27.8643 64.9488C27.8643 65.0832 27.8651 65.2169 27.8743 65.351C27.8888 65.5585 27.9813 65.7528 28.1333 65.8947C28.2854 66.0367 28.4855 66.1158 28.6935 66.116C28.7128 66.116 28.7321 66.1152 28.7513 66.114C28.859 66.1065 28.9642 66.0779 29.0608 66.0298C29.1575 65.9817 29.2437 65.915 29.3145 65.8336C29.3854 65.7521 29.4395 65.6575 29.4738 65.5551C29.5081 65.4528 29.5219 65.3447 29.5144 65.237C29.5075 65.1406 29.5083 65.0447 29.5083 64.9488C29.5091 61.4936 30.6056 58.1276 32.6403 55.3351C34.965 56.853 36.3257 58.3195 36.3817 59.4121C36.2957 60.4513 35.9675 61.4559 35.4232 62.3454C35.1812 62.8451 34.9271 63.3709 34.6927 63.9341C34.6512 64.0338 34.6297 64.1406 34.6296 64.2486C34.6294 64.3566 34.6505 64.4635 34.6916 64.5633C34.7747 64.7649 34.9345 64.9252 35.1358 65.009C35.2355 65.0505 35.3423 65.0719 35.4503 65.0721C35.5583 65.0723 35.6652 65.0512 35.765 65.01C35.9666 64.9269 36.1269 64.7672 36.2107 64.5659C36.4327 64.0328 36.6739 63.5351 36.9031 63.0619C37.5856 61.9306 37.971 60.6451 38.0234 59.3249C37.9384 57.6669 36.4657 55.894 33.6746 54.0491C34.9332 52.6244 36.4281 51.4274 38.0935 50.5108C39.6946 53.6307 41.6211 55.2774 43.7247 55.2774C43.8777 55.2774 44.0306 55.2688 44.1827 55.2517C45.64 55.1589 47.031 54.6087 48.1576 53.6794C48.8813 53.1199 49.1811 52.8887 50.8404 53.4683C52.3902 54.0079 54.0239 53.3314 55.504 51.576C56.7852 52.4938 57.9278 53.5909 58.8969 54.8337C57.9074 55.8904 57.1287 57.1264 56.6028 58.4752C55.9016 60.0061 55.4275 60.949 54.5557 61.0308C53.9894 61.0661 53.4214 61.0636 52.8554 61.0236C50.6863 60.9168 47.9886 60.7904 46.0616 64.5787C45.6246 65.4323 45.331 66.352 45.1926 67.3009C45.1623 67.5168 45.2191 67.7358 45.3504 67.9099C45.4817 68.0839 45.6767 68.1987 45.8926 68.2289C45.9307 68.2344 45.9692 68.237 46.0077 68.2369C46.2058 68.2367 46.3971 68.1649 46.5465 68.0348C46.6958 67.9047 46.7931 67.725 46.8206 67.5289C46.9323 66.759 47.1715 66.0131 47.5282 65.3217C48.9716 62.4839 50.6526 62.5669 52.7771 62.6657C53.4196 62.7107 54.0644 62.7115 54.707 62.6681C56.5714 62.4923 57.3473 60.798 58.0975 59.1596C58.5224 58.0846 59.1175 57.0851 59.86 56.1992C60.9594 57.939 61.7194 59.8712 62.0998 61.8938C62.1195 62 62.16 62.1013 62.2189 62.1918C62.2777 62.2823 62.3539 62.3604 62.443 62.4215C62.532 62.4826 62.6323 62.5255 62.7379 62.5478C62.8436 62.5702 62.9526 62.5715 63.0588 62.5516C63.165 62.5318 63.2662 62.4912 63.3567 62.4323C63.4472 62.3733 63.5251 62.2971 63.5862 62.2079C63.6472 62.1188 63.69 62.0185 63.7122 61.9129C63.7345 61.8072 63.7357 61.6981 63.7157 61.592C62.9589 57.5925 60.8739 53.9658 57.7985 51.2993C54.7231 48.6328 50.8375 47.0828 46.7712 46.9004V45.9921C46.7713 45.5317 46.9008 45.0806 47.1449 44.6903C47.3891 44.3 47.7381 43.9862 48.152 43.7847C48.6094 44.3176 49.1765 44.7454 49.8145 45.0387C50.4526 45.3321 51.1465 45.4841 51.8487 45.4843C52.5147 45.4786 53.1748 45.36 53.8011 45.1335C54.8496 44.7665 55.844 44.2603 56.7577 43.6284C57.1532 43.2733 57.6399 43.0355 58.163 42.9415C58.6861 42.8475 59.2251 42.901 59.7195 43.0961C59.886 43.1388 60.0617 43.1283 60.2219 43.0659C60.3821 43.0036 60.5187 42.8926 60.6126 42.7486C60.7064 42.6045 60.7527 42.4347 60.745 42.263C60.7373 42.0913 60.676 41.9263 60.5696 41.7912C60.3934 41.5672 56.2078 36.3239 52.1787 37.0741C48.2895 37.799 47.834 40.1579 47.6443 42.2036C46.9699 42.4893 46.3845 42.9507 45.9492 43.5397C45.5138 42.9506 44.9284 42.4891 44.2539 42.2033C44.0642 40.1577 43.6087 37.7989 39.7196 37.0741C35.6901 36.3199 31.5048 41.5676 31.3286 41.7912C31.2223 41.9262 31.1609 42.0912 31.1532 42.2629C31.1456 42.4347 31.1919 42.6045 31.2857 42.7485C31.3795 42.8926 31.5162 43.0035 31.6764 43.0659C31.8366 43.1282 32.0123 43.1388 32.1788 43.0961C32.6732 42.9009 33.2122 42.8473 33.7353 42.9413C34.2585 43.0353 34.7451 43.2732 35.1406 43.6283C36.0543 44.2602 37.0487 44.7665 38.0972 45.1335C38.7234 45.3602 39.3836 45.4788 40.0496 45.4843C40.7518 45.484 41.4457 45.332 42.0838 45.0387C42.7218 44.7453 43.289 44.3175 43.7463 43.7846C44.1603 43.9861 44.5092 44.2999 44.7534 44.6903C44.9975 45.0806 45.127 45.5317 45.1271 45.9921V46.8848C42.537 47.0009 40.0024 47.6744 37.6962 48.8593C35.3901 50.0442 33.3666 51.7126 31.764 53.7507ZM52.4797 38.6901C54.2807 38.3517 56.4338 39.9159 57.8996 41.3163C57.1566 41.4708 56.458 41.7912 55.8562 42.2536C55.0537 42.8117 54.1793 43.2585 53.2568 43.5818C52.6879 43.83 52.0613 43.9156 51.4467 43.829C50.832 43.7425 50.2534 43.4872 49.7752 43.0916L51.9479 42.1797C52.0477 42.1381 52.1383 42.0773 52.2146 42.0006C52.2909 41.9239 52.3513 41.8329 52.3923 41.7329C52.4333 41.6328 52.4542 41.5257 52.4538 41.4175C52.4533 41.3094 52.4316 41.2024 52.3897 41.1027C52.3478 41.003 52.2867 40.9125 52.2098 40.8365C52.1329 40.7604 52.0417 40.7003 51.9415 40.6596C51.8413 40.6188 51.7341 40.5982 51.626 40.599C51.5178 40.5998 51.4109 40.6219 51.3113 40.6641L49.3861 41.4722C49.6146 40.0661 50.1918 39.1167 52.4797 38.6901ZM38.6415 43.5818C37.719 43.2585 36.8446 42.8117 36.0421 42.2536C35.4398 41.7905 34.7403 41.4699 33.9962 41.316C35.4597 39.9151 37.6063 38.3533 39.4186 38.6901C41.7064 39.1167 42.2836 40.0662 42.5121 41.4721L40.587 40.6641C40.4875 40.6223 40.3807 40.6005 40.2728 40.6C40.1648 40.5994 40.0579 40.6202 39.9579 40.661C39.858 40.7018 39.7671 40.7619 39.6904 40.8378C39.6137 40.9138 39.5527 41.0041 39.5109 41.1036C39.4691 41.2031 39.4473 41.3099 39.4468 41.4178C39.4462 41.5258 39.467 41.6328 39.5078 41.7327C39.5486 41.8326 39.6087 41.9235 39.6846 42.0002C39.7606 42.0769 39.8509 42.1379 39.9504 42.1797L42.1235 43.0917C41.645 43.4871 41.0664 43.7422 40.4517 43.8287C39.8371 43.9152 39.2105 43.8297 38.6415 43.5818ZM51.3823 51.9158C49.0558 51.1041 48.1965 51.5718 47.1521 52.3786C46.263 53.1211 45.1575 53.5558 44.0008 53.6176C42.0532 53.8409 40.4855 51.5824 39.5636 49.7992C41.8931 48.8171 44.4177 48.3855 46.9412 48.5379C49.4647 48.6903 51.919 49.4225 54.1135 50.6778C53.4011 51.4798 52.3962 52.27 51.3823 51.9158Z" fill="#448F96"/>
</g>
</g>
</g>
<defs>
<filter id="filter0_d_4168_3053" x="0" y="0" width="108" height="108" filterUnits="userSpaceOnUse" color-interpolation-filters="sRGB">
<feFlood flood-opacity="0" result="BackgroundImageFix"/>
<feColorMatrix in="SourceAlpha" type="matrix" values="0 0 0 0 0 0 0 0 0 0 0 0 0 0 0 0 0 0 127 0" result="hardAlpha"/>
<feOffset dx="10" dy="-10"/>
<feGaussianBlur stdDeviation="6"/>
<feComposite in2="hardAlpha" operator="out"/>
<feColorMatrix type="matrix" values="0 0 0 0 0 0 0 0 0 0 0 0 0 0 0 0 0 0 0.1 0"/>
<feBlend mode="normal" in2="BackgroundImageFix" result="effect1_dropShadow_4168_3053"/>
<feBlend mode="normal" in="SourceGraphic" in2="effect1_dropShadow_4168_3053" result="shape"/>
</filter>
<linearGradient id="paint0_linear_4168_3053" x1="2" y1="64" x2="86" y2="64" gradientUnits="userSpaceOnUse">
<stop stop-color="#F2F2F2"/>
<stop offset="1" stop-color="#F2F2F2"/>
</linearGradient>
<linearGradient id="paint1_linear_4168_3053" x1="2" y1="64" x2="86" y2="64" gradientUnits="userSpaceOnUse">
<stop offset="0.139423" stop-color="white"/>
<stop offset="1" stop-color="#E2E1E1"/>
</linearGradient>
</defs>
</svg>
