<svg width="108" height="108" viewBox="0 0 108 108" fill="none" xmlns="http://www.w3.org/2000/svg">
<g id="6">
<g id="Ellipse 114" filter="url(#filter0_d_4168_2814)">
<circle cx="44" cy="64" r="42" fill="url(#paint0_linear_4168_2814)"/>
<circle cx="44" cy="64" r="38" stroke="url(#paint1_linear_4168_2814)" stroke-width="8"/>
</g>
<g id="Group 1195">
<g id="Group">
<g id="Group_2">
<path id="Vector" d="M33.0988 75.886C32.6308 75.886 32.2515 76.2654 32.2515 76.7333V80.3558C32.2515 80.8238 32.6308 81.2032 33.0988 81.2032C33.5668 81.2032 33.9461 80.8238 33.9461 80.3558V76.7333C33.9461 76.2654 33.5668 75.886 33.0988 75.886Z" fill="#2E2E2E"/>
</g>
</g>
<g id="Group_3">
<g id="Group_4">
<path id="Vector_2" d="M51.2116 75.886C50.7436 75.886 50.3643 76.2654 50.3643 76.7333V80.3558C50.3643 80.8238 50.7436 81.2032 51.2116 81.2032C51.6795 81.2032 52.0589 80.8238 52.0589 80.3558V76.7333C52.0589 76.2654 51.6795 75.886 51.2116 75.886Z" fill="#2E2E2E"/>
</g>
</g>
<g id="Group_5">
<g id="Group_6">
<path id="Vector_3" d="M26.2323 57.8625C24.2647 56.8787 20.5756 56.8674 20.4195 56.8674C19.9516 56.8674 19.5724 57.2466 19.5723 57.7145C19.5722 58.1824 19.9513 58.5619 20.4193 58.5621C21.3726 58.5627 24.1388 58.7104 25.4745 59.3783C25.5961 59.4391 25.7254 59.4678 25.8527 59.4678C26.1635 59.4678 26.4628 59.2961 26.6112 58.9993C26.8206 58.5807 26.6509 58.0718 26.2323 57.8625Z" fill="#2E2E2E"/>
</g>
</g>
<g id="Group_7">
<g id="Group_8">
<path id="Vector_4" d="M17.7018 74.0747C17.2339 74.0747 16.8545 74.4541 16.8545 74.922V80.3559C16.8545 80.8239 17.2339 81.2033 17.7018 81.2033C18.1698 81.2033 18.5492 80.8239 18.5492 80.3559V74.922C18.5492 74.4542 18.1699 74.0747 17.7018 74.0747Z" fill="#2E2E2E"/>
</g>
</g>
<g id="Group_9">
<g id="Group_10">
<path id="Vector_5" d="M69.1073 70.9103L65.6759 69.1948C65.656 69.1849 65.6436 69.1648 65.6436 69.1426L65.6438 67.418C67.0524 66.4481 68.0494 64.9148 68.2989 63.1153C68.9325 62.0204 69.2663 60.7837 69.2663 59.5263C69.2663 57.1814 68.1372 55.0956 66.3946 53.7831C66.4967 53.4429 66.5494 53.092 66.5494 52.7339C66.5494 50.5189 64.5442 48.7168 62.0796 48.7168C59.615 48.7168 57.6097 50.5189 57.6097 52.7339C57.6097 53.0924 57.6619 53.4434 57.7641 53.7834C56.725 54.5661 55.9057 55.6245 55.4124 56.848C55.2024 54.784 54.9837 52.3441 54.7739 49.5018C54.4971 45.7516 53.1483 42.5846 50.8736 40.3433C48.6162 38.119 45.6014 36.9434 42.1553 36.9434C38.7091 36.9434 35.6943 38.119 33.4371 40.3432C31.1624 42.5846 29.8137 45.7516 29.5369 49.5016C29.4633 50.4973 29.3888 51.441 29.3138 52.3393H21.3254C18.3613 52.3393 15.9498 54.7508 15.9498 57.7149V57.7654C15.9498 58.4557 16.1129 59.147 16.4217 59.7644L16.8554 60.632V62.0154C16.8554 64.2079 17.9358 66.1751 19.5723 67.359V68.5828C19.5723 68.7397 19.4669 68.8794 19.3161 68.9225L15.818 69.9221C14.2959 70.3568 13.2329 71.7661 13.2329 73.349V80.356C13.2329 80.824 13.6123 81.2034 14.0802 81.2034C14.5482 81.2034 14.9276 80.824 14.9276 80.356V73.349C14.9276 72.5186 15.4852 71.7794 16.2835 71.5513L19.7818 70.5518C19.908 70.5158 20.0279 70.4668 20.142 70.4088L22.2893 72.5561V80.356C22.2893 80.824 22.6687 81.2034 23.1367 81.2034C23.6046 81.2034 23.984 80.824 23.984 80.356V72.5561L26.1464 70.3937C26.4354 70.5355 26.7234 70.618 26.9344 70.6783L27.7934 70.9237C26.6294 71.7514 25.912 73.1014 25.912 74.5652V80.3558C25.912 80.8238 26.2913 81.2031 26.7593 81.2031C27.2273 81.2031 27.6066 80.8238 27.6066 80.3558V74.5652C27.6066 73.4669 28.2559 72.4704 29.2607 72.0266L34.1052 69.8869C35.6233 72.927 38.7255 74.8637 42.1554 74.8637C45.598 74.8637 48.6898 72.9313 50.207 69.8876L55.05 72.0266C56.0548 72.4704 56.7041 73.4669 56.7041 74.5652V80.3558C56.7041 80.8238 57.0835 81.2031 57.5514 81.2031C58.0194 81.2031 58.3988 80.8238 58.3988 80.3558V74.5652C58.3988 73.4813 58.0048 72.4602 57.3286 71.6664L58.64 71.0108L59.6243 71.9463C60.3128 72.6007 61.1961 72.9276 62.0797 72.9276C62.963 72.9276 63.8467 72.6004 64.5349 71.9463L65.5192 71.0109L68.3495 72.426C68.9871 72.7447 69.383 73.3855 69.383 74.0983V80.3559C69.383 80.8239 69.7624 81.2032 70.2304 81.2032C70.6983 81.2032 71.0777 80.8239 71.0777 80.3559V74.0983C71.0776 72.7396 70.3226 71.518 69.1073 70.9103ZM62.0795 50.4113C63.6096 50.4113 64.8547 51.4532 64.8547 52.7338C64.8547 52.7875 64.8504 52.8407 64.8461 52.8938C63.994 52.537 63.0594 52.3393 62.0795 52.3393C61.0996 52.3393 60.1652 52.537 59.3133 52.8937C59.3089 52.8406 59.3043 52.7875 59.3043 52.7338C59.3043 51.4532 60.5493 50.4113 62.0795 50.4113ZM23.1368 71.007L21.206 69.0762C21.2459 68.9171 21.2672 68.7516 21.2672 68.5827V68.2252C21.8003 68.4003 22.3624 68.5041 22.9442 68.5215C23.0093 68.5235 23.0742 68.5244 23.1392 68.5244C23.7818 68.5244 24.4091 68.4274 25.0061 68.2422V68.5824C25.0061 68.7662 25.025 68.9329 25.0585 69.0852L23.1368 71.007ZM22.995 66.8274C20.544 66.754 18.5501 64.5953 18.5501 62.0154V60.4319C18.5501 60.3004 18.5195 60.1706 18.4606 60.053L17.9374 59.0066C17.7458 58.6231 17.6445 58.1941 17.6445 57.7654V57.7149C17.6445 55.6853 19.2958 54.034 21.3254 54.034H28.629V57.5515C28.629 58.1199 28.4946 58.6892 28.2403 59.1976L27.8127 60.0529C27.7538 60.1706 27.7232 60.3003 27.7232 60.4318V62.2431C27.7232 63.4942 27.2286 64.6633 26.3304 65.5348C25.4327 66.4058 24.2475 66.8653 22.995 66.8274ZM30.0768 69.8136L27.4 69.0489C26.7007 68.8491 26.7008 68.7712 26.7008 68.5826L26.701 67.4152C26.9856 67.218 27.257 66.9974 27.5108 66.751C27.6817 66.5853 27.8407 66.4108 27.9899 66.2301C28.126 66.5062 28.3347 66.7474 28.6043 66.9219C29.2836 67.3618 30.5653 68.0924 32.4502 68.7653L30.0768 69.8136ZM42.1553 73.1692C39.3984 73.1692 36.9016 71.6281 35.6564 69.2019L36.8898 68.6572C37.8524 68.232 38.4743 67.2775 38.4743 66.2252V64.192C39.6128 64.6495 40.8551 64.9018 42.1553 64.9018C43.4554 64.9018 44.6976 64.6495 45.8362 64.192V66.2252C45.8362 67.2775 46.4581 68.2321 47.4207 68.6572L48.6539 69.2018C47.4096 71.6307 44.9224 73.1692 42.1553 73.1692ZM49.5027 67.7241L48.1053 67.1069C47.7564 66.9528 47.5309 66.6066 47.5309 66.2251V63.312C50.2538 61.5453 52.0591 58.4785 52.0591 54.9979V53.4091C52.0591 52.3765 51.6201 51.4024 50.8546 50.7367C49.1521 49.256 45.2983 46.6721 38.617 46.004C38.1526 45.9574 37.7361 46.297 37.6896 46.7628C37.643 47.2285 37.9828 47.6437 38.4485 47.6903C44.6628 48.3116 48.1919 50.6669 49.7425 52.0155C50.1378 52.3592 50.3645 52.8673 50.3645 53.4091V54.9979C50.3645 59.5244 46.6818 63.207 42.1554 63.207C37.6289 63.207 33.9463 59.5244 33.9463 54.9979V54.2891C33.9463 53.9635 34.1268 53.6652 34.4291 53.4911C35.4885 52.8812 36.8856 51.7511 37.5254 49.832C37.6734 49.3881 37.4335 48.9082 36.9895 48.7602C36.5457 48.6122 36.0656 48.8521 35.9176 49.2961C35.4463 50.7102 34.3881 51.5592 33.5835 52.0225C32.7619 52.4956 32.2515 53.3641 32.2515 54.2892V54.998C32.2515 58.4788 34.0567 61.5454 36.7798 63.3121V66.2252C36.7798 66.6067 36.5543 66.9528 36.2053 67.107L34.8078 67.7242C32.0788 66.994 30.3301 66.0205 29.5253 65.4995C29.5093 65.4891 29.5003 65.4773 29.5048 65.4505C29.8003 63.7034 30.5598 58.664 31.227 49.6265C31.4731 46.2919 32.6486 43.4991 34.6265 41.5503C36.5601 39.6451 39.1635 38.638 42.1553 38.638C45.147 38.638 47.7504 39.6451 49.684 41.5503C51.6619 43.4991 52.8374 46.2918 53.0836 49.6264C53.7507 58.6636 54.5102 63.7032 54.8058 65.4504C54.8104 65.4773 54.8013 65.4891 54.7852 65.4995C53.9793 66.0212 52.2306 66.9941 49.5027 67.7241ZM58.5152 69.1425C58.5152 69.1648 58.5029 69.1848 58.483 69.1947L55.8283 70.5221C55.7968 70.5073 55.7665 70.4907 55.7346 70.4766L51.8605 68.7655C53.7445 68.0928 55.026 67.3625 55.7062 66.9222C56.2905 66.5438 56.593 65.8553 56.4768 65.1678C56.4705 65.1302 56.4636 65.089 56.4568 65.0483C56.9333 66.0066 57.6459 66.8195 58.5152 67.418V69.1425ZM63.3672 70.718C62.6452 71.4044 61.5138 71.4043 60.7915 70.718L60.004 69.9696C60.1368 69.7206 60.2098 69.4382 60.2098 69.1425V68.2408C60.8016 68.4244 61.4293 68.5243 62.0794 68.5243C62.7293 68.5243 63.3571 68.4244 63.9488 68.2408L63.9487 69.1423C63.9487 69.4382 64.0217 69.7206 64.1547 69.9697L63.3672 70.718ZM62.0795 66.8295C59.7334 66.8295 57.7739 65.0727 57.5216 62.743C57.508 62.6182 57.467 62.4979 57.4013 62.3908C56.8687 61.5235 56.5873 60.5329 56.5873 59.5261C56.5873 56.4978 59.051 54.034 62.0795 54.034C65.1078 54.034 67.5717 56.4978 67.5717 59.5262C67.5717 60.1099 67.4764 60.6882 67.2931 61.2402C64.8871 58.7959 60.6546 57.8379 60.4506 57.793C60.2 57.7377 59.9376 57.7992 59.7374 57.96C59.5374 58.1208 59.4209 58.3637 59.4209 58.6204C59.4209 58.626 59.3822 59.2138 58.7635 59.8326C58.4325 60.1635 58.4325 60.7 58.7635 61.0308C59.0944 61.3617 59.6309 61.3617 59.9617 61.0308C60.4382 60.5543 60.7182 60.0706 60.8825 59.6622C62.3083 60.0858 65.2675 61.1554 66.5955 63.033C66.2186 65.2168 64.3269 66.8295 62.0795 66.8295Z" fill="#2E2E2E"/>
</g>
</g>
<g id="Group_11">
<g id="Group_12">
<path id="Vector_6" d="M66.6066 75.1943C66.1387 75.1943 65.7593 75.5737 65.7593 76.0417V80.356C65.7593 80.8239 66.1387 81.2033 66.6066 81.2033C67.0746 81.2033 67.4539 80.8239 67.4539 80.356V76.0417C67.4539 75.5737 67.0746 75.1943 66.6066 75.1943Z" fill="#2E2E2E"/>
</g>
</g>
</g>
</g>
<defs>
<filter id="filter0_d_4168_2814" x="0" y="0" width="108" height="108" filterUnits="userSpaceOnUse" color-interpolation-filters="sRGB">
<feFlood flood-opacity="0" result="BackgroundImageFix"/>
<feColorMatrix in="SourceAlpha" type="matrix" values="0 0 0 0 0 0 0 0 0 0 0 0 0 0 0 0 0 0 127 0" result="hardAlpha"/>
<feOffset dx="10" dy="-10"/>
<feGaussianBlur stdDeviation="6"/>
<feComposite in2="hardAlpha" operator="out"/>
<feColorMatrix type="matrix" values="0 0 0 0 0 0 0 0 0 0 0 0 0 0 0 0 0 0 0.1 0"/>
<feBlend mode="normal" in2="BackgroundImageFix" result="effect1_dropShadow_4168_2814"/>
<feBlend mode="normal" in="SourceGraphic" in2="effect1_dropShadow_4168_2814" result="shape"/>
</filter>
<linearGradient id="paint0_linear_4168_2814" x1="2" y1="64" x2="86" y2="64" gradientUnits="userSpaceOnUse">
<stop stop-color="#F2F2F2"/>
<stop offset="1" stop-color="#F2F2F2"/>
</linearGradient>
<linearGradient id="paint1_linear_4168_2814" x1="2" y1="64" x2="86" y2="64" gradientUnits="userSpaceOnUse">
<stop offset="0.139423" stop-color="white"/>
<stop offset="1" stop-color="#E2E1E1"/>
</linearGradient>
</defs>
</svg>
