<svg width="411" height="213" viewBox="0 0 411 213" fill="none" xmlns="http://www.w3.org/2000/svg">
<g id="App">
<g id="Box" filter="url(#filter0_d_4182_5007)">
<rect x="23" y="17" width="366" height="180" rx="18" fill="url(#paint0_linear_4182_5007)" shape-rendering="crispEdges"/>
<rect x="26.5" y="20.5" width="359" height="173" rx="14.5" stroke="url(#paint1_linear_4182_5007)" stroke-width="7" shape-rendering="crispEdges"/>
<path id="Clique e confira mais informa&#195;&#167;&#195;&#181;es sobre a TRIA &#226;&#128;&#147; Relat&#195;&#179;rio Preliminar." d="M62.2109 71.9307H63.8984C63.8105 72.7393 63.5791 73.4629 63.2041 74.1016C62.8291 74.7402 62.2988 75.2471 61.6133 75.6221C60.9277 75.9912 60.0723 76.1758 59.0469 76.1758C58.2969 76.1758 57.6143 76.0352 56.999 75.7539C56.3896 75.4727 55.8652 75.0742 55.4258 74.5586C54.9863 74.0371 54.6465 73.4131 54.4062 72.6865C54.1719 71.9541 54.0547 71.1396 54.0547 70.2432V68.9688C54.0547 68.0723 54.1719 67.2607 54.4062 66.5342C54.6465 65.8018 54.9893 65.1748 55.4346 64.6533C55.8857 64.1318 56.4277 63.7305 57.0605 63.4492C57.6934 63.168 58.4053 63.0273 59.1963 63.0273C60.1631 63.0273 60.9805 63.209 61.6484 63.5723C62.3164 63.9355 62.835 64.4395 63.2041 65.084C63.5791 65.7227 63.8105 66.4639 63.8984 67.3076H62.2109C62.1289 66.71 61.9766 66.1973 61.7539 65.7695C61.5312 65.3359 61.2148 65.002 60.8047 64.7676C60.3945 64.5332 59.8584 64.416 59.1963 64.416C58.6279 64.416 58.127 64.5244 57.6934 64.7412C57.2656 64.958 56.9053 65.2656 56.6123 65.6641C56.3252 66.0625 56.1084 66.54 55.9619 67.0967C55.8154 67.6533 55.7422 68.2715 55.7422 68.9512V70.2432C55.7422 70.8701 55.8066 71.459 55.9355 72.0098C56.0703 72.5605 56.2725 73.0439 56.542 73.46C56.8115 73.876 57.1543 74.2041 57.5703 74.4443C57.9863 74.6787 58.4785 74.7959 59.0469 74.7959C59.7676 74.7959 60.3418 74.6816 60.7695 74.4531C61.1973 74.2246 61.5195 73.8965 61.7363 73.4688C61.959 73.041 62.1172 72.5283 62.2109 71.9307ZM67.7305 62.5V76H66.0957V62.5H67.7305ZM72.1074 66.4902V76H70.4727V66.4902H72.1074ZM70.3496 63.9678C70.3496 63.7041 70.4287 63.4814 70.5869 63.2998C70.751 63.1182 70.9912 63.0273 71.3076 63.0273C71.6182 63.0273 71.8555 63.1182 72.0195 63.2998C72.1895 63.4814 72.2744 63.7041 72.2744 63.9678C72.2744 64.2197 72.1895 64.4365 72.0195 64.6182C71.8555 64.7939 71.6182 64.8818 71.3076 64.8818C70.9912 64.8818 70.751 64.7939 70.5869 64.6182C70.4287 64.4365 70.3496 64.2197 70.3496 63.9678ZM80.7031 79.6562V68.3184L80.8438 66.4902H82.3379V79.6562H80.7031ZM74.3135 71.3506V71.166C74.3135 70.4395 74.3984 69.7803 74.5684 69.1885C74.7383 68.5908 74.9873 68.0781 75.3154 67.6504C75.6436 67.2227 76.0391 66.8945 76.502 66.666C76.9707 66.4316 77.5039 66.3145 78.1016 66.3145C78.6992 66.3145 79.2236 66.4199 79.6748 66.6309C80.1318 66.8359 80.5186 67.1377 80.835 67.5361C81.1572 67.9287 81.4121 68.4033 81.5996 68.96C81.7871 69.5166 81.916 70.1465 81.9863 70.8496V71.6582C81.9219 72.3555 81.7959 72.9824 81.6084 73.5391C81.4209 74.0957 81.166 74.5703 80.8438 74.9629C80.5273 75.3555 80.1377 75.6572 79.6748 75.8682C79.2178 76.0732 78.6875 76.1758 78.084 76.1758C77.498 76.1758 76.9707 76.0557 76.502 75.8154C76.0391 75.5752 75.6436 75.2383 75.3154 74.8047C74.9932 74.3711 74.7441 73.8613 74.5684 73.2754C74.3984 72.6836 74.3135 72.042 74.3135 71.3506ZM75.9482 71.166V71.3506C75.9482 71.8252 75.998 72.2734 76.0977 72.6953C76.1973 73.1113 76.3496 73.4805 76.5547 73.8027C76.7656 74.125 77.0293 74.3799 77.3457 74.5674C77.668 74.749 78.0488 74.8398 78.4883 74.8398C79.0273 74.8398 79.4756 74.7227 79.833 74.4883C80.1963 74.2539 80.4863 73.9463 80.7031 73.5654C80.9199 73.1787 81.0869 72.7656 81.2041 72.3262V70.208C81.1396 69.8857 81.0371 69.5723 80.8965 69.2676C80.7617 68.9629 80.5859 68.6904 80.3691 68.4502C80.1523 68.2041 79.8887 68.0107 79.5781 67.8701C79.2734 67.7236 78.916 67.6504 78.5059 67.6504C78.0605 67.6504 77.6768 67.7441 77.3545 67.9316C77.0322 68.1191 76.7656 68.377 76.5547 68.7051C76.3496 69.0273 76.1973 69.3994 76.0977 69.8213C75.998 70.2432 75.9482 70.6914 75.9482 71.166ZM90.7666 73.8027V66.4902H92.4014V76H90.8457L90.7666 73.8027ZM91.0742 71.7988L91.751 71.7812C91.751 72.4141 91.6836 73 91.5488 73.5391C91.4199 74.0723 91.209 74.5352 90.916 74.9277C90.623 75.3203 90.2393 75.6279 89.7646 75.8506C89.29 76.0674 88.7129 76.1758 88.0332 76.1758C87.5703 76.1758 87.1455 76.1084 86.7588 75.9736C86.3779 75.8389 86.0498 75.6309 85.7744 75.3496C85.499 75.0684 85.2852 74.7021 85.1328 74.251C84.9863 73.7998 84.9131 73.2578 84.9131 72.625V66.4902H86.5391V72.6426C86.5391 73.0703 86.5859 73.4248 86.6797 73.7061C86.7793 73.9814 86.9111 74.2012 87.0752 74.3652C87.2451 74.5234 87.4326 74.6348 87.6377 74.6992C87.8486 74.7637 88.0654 74.7959 88.2881 74.7959C88.9795 74.7959 89.5273 74.6641 89.9316 74.4004C90.3359 74.1309 90.626 73.7705 90.8018 73.3193C90.9834 72.8623 91.0742 72.3555 91.0742 71.7988ZM98.8262 76.1758C98.1641 76.1758 97.5635 76.0645 97.0244 75.8418C96.4912 75.6133 96.0312 75.2939 95.6445 74.8838C95.2637 74.4736 94.9707 73.9873 94.7656 73.4248C94.5605 72.8623 94.458 72.2471 94.458 71.5791V71.21C94.458 70.4365 94.5723 69.748 94.8008 69.1445C95.0293 68.5352 95.3398 68.0195 95.7324 67.5977C96.125 67.1758 96.5703 66.8564 97.0684 66.6396C97.5664 66.4229 98.082 66.3145 98.6152 66.3145C99.2949 66.3145 99.8809 66.4316 100.373 66.666C100.871 66.9004 101.278 67.2285 101.595 67.6504C101.911 68.0664 102.146 68.5586 102.298 69.127C102.45 69.6895 102.526 70.3047 102.526 70.9727V71.7021H95.4248V70.375H100.9V70.252C100.877 69.8301 100.789 69.4199 100.637 69.0215C100.49 68.623 100.256 68.2949 99.9336 68.0371C99.6113 67.7793 99.1719 67.6504 98.6152 67.6504C98.2461 67.6504 97.9062 67.7295 97.5957 67.8877C97.2852 68.04 97.0186 68.2686 96.7959 68.5732C96.5732 68.8779 96.4004 69.25 96.2773 69.6895C96.1543 70.1289 96.0928 70.6357 96.0928 71.21V71.5791C96.0928 72.0303 96.1543 72.4551 96.2773 72.8535C96.4062 73.2461 96.5908 73.5918 96.8311 73.8906C97.0771 74.1895 97.373 74.4238 97.7188 74.5938C98.0703 74.7637 98.4688 74.8486 98.9141 74.8486C99.4883 74.8486 99.9746 74.7314 100.373 74.4971C100.771 74.2627 101.12 73.9492 101.419 73.5566L102.403 74.3389C102.198 74.6494 101.938 74.9453 101.621 75.2266C101.305 75.5078 100.915 75.7363 100.452 75.9121C99.9951 76.0879 99.4531 76.1758 98.8262 76.1758ZM112.836 76.1758C112.174 76.1758 111.573 76.0645 111.034 75.8418C110.501 75.6133 110.041 75.2939 109.654 74.8838C109.273 74.4736 108.98 73.9873 108.775 73.4248C108.57 72.8623 108.468 72.2471 108.468 71.5791V71.21C108.468 70.4365 108.582 69.748 108.811 69.1445C109.039 68.5352 109.35 68.0195 109.742 67.5977C110.135 67.1758 110.58 66.8564 111.078 66.6396C111.576 66.4229 112.092 66.3145 112.625 66.3145C113.305 66.3145 113.891 66.4316 114.383 66.666C114.881 66.9004 115.288 67.2285 115.604 67.6504C115.921 68.0664 116.155 68.5586 116.308 69.127C116.46 69.6895 116.536 70.3047 116.536 70.9727V71.7021H109.435V70.375H114.91V70.252C114.887 69.8301 114.799 69.4199 114.646 69.0215C114.5 68.623 114.266 68.2949 113.943 68.0371C113.621 67.7793 113.182 67.6504 112.625 67.6504C112.256 67.6504 111.916 67.7295 111.605 67.8877C111.295 68.04 111.028 68.2686 110.806 68.5732C110.583 68.8779 110.41 69.25 110.287 69.6895C110.164 70.1289 110.103 70.6357 110.103 71.21V71.5791C110.103 72.0303 110.164 72.4551 110.287 72.8535C110.416 73.2461 110.601 73.5918 110.841 73.8906C111.087 74.1895 111.383 74.4238 111.729 74.5938C112.08 74.7637 112.479 74.8486 112.924 74.8486C113.498 74.8486 113.984 74.7314 114.383 74.4971C114.781 74.2627 115.13 73.9492 115.429 73.5566L116.413 74.3389C116.208 74.6494 115.947 74.9453 115.631 75.2266C115.314 75.5078 114.925 75.7363 114.462 75.9121C114.005 76.0879 113.463 76.1758 112.836 76.1758ZM126.705 74.8398C127.092 74.8398 127.449 74.7607 127.777 74.6025C128.105 74.4443 128.375 74.2275 128.586 73.9521C128.797 73.6709 128.917 73.3516 128.946 72.9941H130.493C130.464 73.5566 130.273 74.0811 129.922 74.5674C129.576 75.0479 129.122 75.4375 128.56 75.7363C127.997 76.0293 127.379 76.1758 126.705 76.1758C125.99 76.1758 125.366 76.0498 124.833 75.7979C124.306 75.5459 123.866 75.2002 123.515 74.7607C123.169 74.3213 122.908 73.8174 122.732 73.249C122.562 72.6748 122.478 72.0684 122.478 71.4297V71.0605C122.478 70.4219 122.562 69.8184 122.732 69.25C122.908 68.6758 123.169 68.1689 123.515 67.7295C123.866 67.29 124.306 66.9443 124.833 66.6924C125.366 66.4404 125.99 66.3145 126.705 66.3145C127.449 66.3145 128.1 66.4668 128.656 66.7715C129.213 67.0703 129.649 67.4805 129.966 68.002C130.288 68.5176 130.464 69.1035 130.493 69.7598H128.946C128.917 69.3672 128.806 69.0127 128.612 68.6963C128.425 68.3799 128.167 68.1279 127.839 67.9404C127.517 67.7471 127.139 67.6504 126.705 67.6504C126.207 67.6504 125.788 67.75 125.448 67.9492C125.114 68.1426 124.848 68.4062 124.648 68.7402C124.455 69.0684 124.314 69.4346 124.227 69.8389C124.145 70.2373 124.104 70.6445 124.104 71.0605V71.4297C124.104 71.8457 124.145 72.2559 124.227 72.6602C124.309 73.0645 124.446 73.4307 124.64 73.7588C124.839 74.0869 125.105 74.3506 125.439 74.5498C125.779 74.7432 126.201 74.8398 126.705 74.8398ZM131.891 71.3506V71.1484C131.891 70.4629 131.99 69.8271 132.189 69.2412C132.389 68.6494 132.676 68.1367 133.051 67.7031C133.426 67.2637 133.88 66.9238 134.413 66.6836C134.946 66.4375 135.544 66.3145 136.206 66.3145C136.874 66.3145 137.475 66.4375 138.008 66.6836C138.547 66.9238 139.004 67.2637 139.379 67.7031C139.76 68.1367 140.05 68.6494 140.249 69.2412C140.448 69.8271 140.548 70.4629 140.548 71.1484V71.3506C140.548 72.0361 140.448 72.6719 140.249 73.2578C140.05 73.8438 139.76 74.3564 139.379 74.7959C139.004 75.2295 138.55 75.5693 138.017 75.8154C137.489 76.0557 136.892 76.1758 136.224 76.1758C135.556 76.1758 134.955 76.0557 134.422 75.8154C133.889 75.5693 133.432 75.2295 133.051 74.7959C132.676 74.3564 132.389 73.8438 132.189 73.2578C131.99 72.6719 131.891 72.0361 131.891 71.3506ZM133.517 71.1484V71.3506C133.517 71.8252 133.572 72.2734 133.684 72.6953C133.795 73.1113 133.962 73.4805 134.185 73.8027C134.413 74.125 134.697 74.3799 135.037 74.5674C135.377 74.749 135.772 74.8398 136.224 74.8398C136.669 74.8398 137.059 74.749 137.393 74.5674C137.732 74.3799 138.014 74.125 138.236 73.8027C138.459 73.4805 138.626 73.1113 138.737 72.6953C138.854 72.2734 138.913 71.8252 138.913 71.3506V71.1484C138.913 70.6797 138.854 70.2373 138.737 69.8213C138.626 69.3994 138.456 69.0273 138.228 68.7051C138.005 68.377 137.724 68.1191 137.384 67.9316C137.05 67.7441 136.657 67.6504 136.206 67.6504C135.761 67.6504 135.368 67.7441 135.028 67.9316C134.694 68.1191 134.413 68.377 134.185 68.7051C133.962 69.0273 133.795 69.3994 133.684 69.8213C133.572 70.2373 133.517 70.6797 133.517 71.1484ZM144.213 68.5205V76H142.587V66.4902H144.125L144.213 68.5205ZM143.826 70.8848L143.149 70.8584C143.155 70.208 143.252 69.6074 143.439 69.0566C143.627 68.5 143.891 68.0166 144.23 67.6064C144.57 67.1963 144.975 66.8799 145.443 66.6572C145.918 66.4287 146.442 66.3145 147.017 66.3145C147.485 66.3145 147.907 66.3789 148.282 66.5078C148.657 66.6309 148.977 66.8301 149.24 67.1055C149.51 67.3809 149.715 67.7383 149.855 68.1777C149.996 68.6113 150.066 69.1416 150.066 69.7686V76H148.432V69.751C148.432 69.2529 148.358 68.8545 148.212 68.5557C148.065 68.251 147.852 68.0312 147.57 67.8965C147.289 67.7559 146.943 67.6855 146.533 67.6855C146.129 67.6855 145.76 67.7705 145.426 67.9404C145.098 68.1104 144.813 68.3447 144.573 68.6436C144.339 68.9424 144.154 69.2852 144.02 69.6719C143.891 70.0527 143.826 70.457 143.826 70.8848ZM154.707 76H153.081V65.6641C153.081 64.9434 153.222 64.334 153.503 63.8359C153.784 63.3379 154.186 62.96 154.707 62.7021C155.229 62.4443 155.847 62.3154 156.562 62.3154C156.983 62.3154 157.396 62.3682 157.801 62.4736C158.205 62.5732 158.621 62.6992 159.049 62.8516L158.776 64.2227C158.507 64.1172 158.193 64.0176 157.836 63.9238C157.484 63.8242 157.098 63.7744 156.676 63.7744C155.979 63.7744 155.475 63.9326 155.164 64.249C154.859 64.5596 154.707 65.0312 154.707 65.6641V76ZM156.649 66.4902V67.7383H151.578V66.4902H156.649ZM159.849 66.4902V76H158.223V66.4902H159.849ZM164.146 67.9844V76H162.521V66.4902H164.103L164.146 67.9844ZM167.117 66.4375L167.108 67.9492C166.974 67.9199 166.845 67.9023 166.722 67.8965C166.604 67.8848 166.47 67.8789 166.317 67.8789C165.942 67.8789 165.611 67.9375 165.324 68.0547C165.037 68.1719 164.794 68.3359 164.595 68.5469C164.396 68.7578 164.237 69.0098 164.12 69.3027C164.009 69.5898 163.936 69.9062 163.9 70.252L163.443 70.5156C163.443 69.9414 163.499 69.4023 163.61 68.8984C163.728 68.3945 163.906 67.9492 164.146 67.5625C164.387 67.1699 164.691 66.8652 165.061 66.6484C165.436 66.4258 165.881 66.3145 166.396 66.3145C166.514 66.3145 166.648 66.3291 166.801 66.3584C166.953 66.3818 167.059 66.4082 167.117 66.4375ZM173.876 74.374V69.4785C173.876 69.1035 173.8 68.7783 173.647 68.5029C173.501 68.2217 173.278 68.0049 172.979 67.8525C172.681 67.7002 172.312 67.624 171.872 67.624C171.462 67.624 171.102 67.6943 170.791 67.835C170.486 67.9756 170.246 68.1602 170.07 68.3887C169.9 68.6172 169.815 68.8633 169.815 69.127H168.189C168.189 68.7871 168.277 68.4502 168.453 68.1162C168.629 67.7822 168.881 67.4805 169.209 67.2109C169.543 66.9355 169.941 66.7188 170.404 66.5605C170.873 66.3965 171.395 66.3145 171.969 66.3145C172.66 66.3145 173.27 66.4316 173.797 66.666C174.33 66.9004 174.746 67.2549 175.045 67.7295C175.35 68.1982 175.502 68.7871 175.502 69.4961V73.9258C175.502 74.2422 175.528 74.5791 175.581 74.9365C175.64 75.2939 175.725 75.6016 175.836 75.8594V76H174.14C174.058 75.8125 173.993 75.5635 173.946 75.2529C173.899 74.9365 173.876 74.6436 173.876 74.374ZM174.157 70.2344L174.175 71.377H172.531C172.068 71.377 171.655 71.415 171.292 71.4912C170.929 71.5615 170.624 71.6699 170.378 71.8164C170.132 71.9629 169.944 72.1475 169.815 72.3701C169.687 72.5869 169.622 72.8418 169.622 73.1348C169.622 73.4336 169.689 73.7061 169.824 73.9521C169.959 74.1982 170.161 74.3945 170.431 74.541C170.706 74.6816 171.043 74.752 171.441 74.752C171.939 74.752 172.379 74.6465 172.76 74.4355C173.141 74.2246 173.442 73.9668 173.665 73.6621C173.894 73.3574 174.017 73.0615 174.034 72.7744L174.729 73.5566C174.688 73.8027 174.576 74.0752 174.395 74.374C174.213 74.6729 173.97 74.96 173.665 75.2354C173.366 75.5049 173.009 75.7305 172.593 75.9121C172.183 76.0879 171.72 76.1758 171.204 76.1758C170.56 76.1758 169.994 76.0498 169.508 75.7979C169.027 75.5459 168.652 75.209 168.383 74.7871C168.119 74.3594 167.987 73.8818 167.987 73.3545C167.987 72.8447 168.087 72.3965 168.286 72.0098C168.485 71.6172 168.772 71.292 169.147 71.0342C169.522 70.7705 169.974 70.5713 170.501 70.4365C171.028 70.3018 171.617 70.2344 172.268 70.2344H174.157ZM184.142 68.3799V76H182.507V66.4902H184.054L184.142 68.3799ZM183.808 70.8848L183.052 70.8584C183.058 70.208 183.143 69.6074 183.307 69.0566C183.471 68.5 183.714 68.0166 184.036 67.6064C184.358 67.1963 184.76 66.8799 185.24 66.6572C185.721 66.4287 186.277 66.3145 186.91 66.3145C187.355 66.3145 187.766 66.3789 188.141 66.5078C188.516 66.6309 188.841 66.8271 189.116 67.0967C189.392 67.3662 189.605 67.7119 189.758 68.1338C189.91 68.5557 189.986 69.0654 189.986 69.6631V76H188.36V69.7422C188.36 69.2441 188.275 68.8457 188.105 68.5469C187.941 68.248 187.707 68.0312 187.402 67.8965C187.098 67.7559 186.74 67.6855 186.33 67.6855C185.85 67.6855 185.448 67.7705 185.126 67.9404C184.804 68.1104 184.546 68.3447 184.353 68.6436C184.159 68.9424 184.019 69.2852 183.931 69.6719C183.849 70.0527 183.808 70.457 183.808 70.8848ZM189.969 69.9883L188.879 70.3223C188.885 69.8008 188.97 69.2998 189.134 68.8193C189.304 68.3389 189.547 67.9111 189.863 67.5361C190.186 67.1611 190.581 66.8652 191.05 66.6484C191.519 66.4258 192.055 66.3145 192.658 66.3145C193.168 66.3145 193.619 66.3818 194.012 66.5166C194.41 66.6514 194.744 66.8594 195.014 67.1406C195.289 67.416 195.497 67.7705 195.638 68.2041C195.778 68.6377 195.849 69.1533 195.849 69.751V76H194.214V69.7334C194.214 69.2002 194.129 68.7871 193.959 68.4941C193.795 68.1953 193.561 67.9873 193.256 67.8701C192.957 67.7471 192.6 67.6855 192.184 67.6855C191.826 67.6855 191.51 67.7471 191.234 67.8701C190.959 67.9932 190.728 68.1631 190.54 68.3799C190.353 68.5908 190.209 68.834 190.109 69.1094C190.016 69.3848 189.969 69.6777 189.969 69.9883ZM203.917 74.374V69.4785C203.917 69.1035 203.841 68.7783 203.688 68.5029C203.542 68.2217 203.319 68.0049 203.021 67.8525C202.722 67.7002 202.353 67.624 201.913 67.624C201.503 67.624 201.143 67.6943 200.832 67.835C200.527 67.9756 200.287 68.1602 200.111 68.3887C199.941 68.6172 199.856 68.8633 199.856 69.127H198.23C198.23 68.7871 198.318 68.4502 198.494 68.1162C198.67 67.7822 198.922 67.4805 199.25 67.2109C199.584 66.9355 199.982 66.7188 200.445 66.5605C200.914 66.3965 201.436 66.3145 202.01 66.3145C202.701 66.3145 203.311 66.4316 203.838 66.666C204.371 66.9004 204.787 67.2549 205.086 67.7295C205.391 68.1982 205.543 68.7871 205.543 69.4961V73.9258C205.543 74.2422 205.569 74.5791 205.622 74.9365C205.681 75.2939 205.766 75.6016 205.877 75.8594V76H204.181C204.099 75.8125 204.034 75.5635 203.987 75.2529C203.94 74.9365 203.917 74.6436 203.917 74.374ZM204.198 70.2344L204.216 71.377H202.572C202.109 71.377 201.696 71.415 201.333 71.4912C200.97 71.5615 200.665 71.6699 200.419 71.8164C200.173 71.9629 199.985 72.1475 199.856 72.3701C199.728 72.5869 199.663 72.8418 199.663 73.1348C199.663 73.4336 199.73 73.7061 199.865 73.9521C200 74.1982 200.202 74.3945 200.472 74.541C200.747 74.6816 201.084 74.752 201.482 74.752C201.98 74.752 202.42 74.6465 202.801 74.4355C203.182 74.2246 203.483 73.9668 203.706 73.6621C203.935 73.3574 204.058 73.0615 204.075 72.7744L204.77 73.5566C204.729 73.8027 204.617 74.0752 204.436 74.374C204.254 74.6729 204.011 74.96 203.706 75.2354C203.407 75.5049 203.05 75.7305 202.634 75.9121C202.224 76.0879 201.761 76.1758 201.245 76.1758C200.601 76.1758 200.035 76.0498 199.549 75.7979C199.068 75.5459 198.693 75.209 198.424 74.7871C198.16 74.3594 198.028 73.8818 198.028 73.3545C198.028 72.8447 198.128 72.3965 198.327 72.0098C198.526 71.6172 198.813 71.292 199.188 71.0342C199.563 70.7705 200.015 70.5713 200.542 70.4365C201.069 70.3018 201.658 70.2344 202.309 70.2344H204.198ZM209.867 66.4902V76H208.232V66.4902H209.867ZM208.109 63.9678C208.109 63.7041 208.188 63.4814 208.347 63.2998C208.511 63.1182 208.751 63.0273 209.067 63.0273C209.378 63.0273 209.615 63.1182 209.779 63.2998C209.949 63.4814 210.034 63.7041 210.034 63.9678C210.034 64.2197 209.949 64.4365 209.779 64.6182C209.615 64.7939 209.378 64.8818 209.067 64.8818C208.751 64.8818 208.511 64.7939 208.347 64.6182C208.188 64.4365 208.109 64.2197 208.109 63.9678ZM218.015 73.4775C218.015 73.2432 217.962 73.0264 217.856 72.8271C217.757 72.6221 217.549 72.4375 217.232 72.2734C216.922 72.1035 216.453 71.957 215.826 71.834C215.299 71.7227 214.821 71.5908 214.394 71.4385C213.972 71.2861 213.611 71.1016 213.312 70.8848C213.02 70.668 212.794 70.4131 212.636 70.1201C212.478 69.8271 212.398 69.4844 212.398 69.0918C212.398 68.7168 212.48 68.3623 212.645 68.0283C212.814 67.6943 213.052 67.3984 213.356 67.1406C213.667 66.8828 214.039 66.6807 214.473 66.5342C214.906 66.3877 215.39 66.3145 215.923 66.3145C216.685 66.3145 217.335 66.4492 217.874 66.7188C218.413 66.9883 218.826 67.3486 219.113 67.7998C219.4 68.2451 219.544 68.7402 219.544 69.2852H217.918C217.918 69.0215 217.839 68.7666 217.681 68.5205C217.528 68.2686 217.303 68.0605 217.004 67.8965C216.711 67.7324 216.351 67.6504 215.923 67.6504C215.472 67.6504 215.105 67.7207 214.824 67.8613C214.549 67.9961 214.347 68.1689 214.218 68.3799C214.095 68.5908 214.033 68.8135 214.033 69.0479C214.033 69.2236 214.062 69.3818 214.121 69.5225C214.186 69.6572 214.297 69.7832 214.455 69.9004C214.613 70.0117 214.836 70.1172 215.123 70.2168C215.41 70.3164 215.776 70.416 216.222 70.5156C217.001 70.6914 217.643 70.9023 218.146 71.1484C218.65 71.3945 219.025 71.6963 219.271 72.0537C219.518 72.4111 219.641 72.8447 219.641 73.3545C219.641 73.7705 219.553 74.1514 219.377 74.4971C219.207 74.8428 218.958 75.1416 218.63 75.3936C218.308 75.6396 217.921 75.833 217.47 75.9736C217.024 76.1084 216.523 76.1758 215.967 76.1758C215.129 76.1758 214.42 76.0264 213.84 75.7275C213.26 75.4287 212.82 75.042 212.521 74.5674C212.223 74.0928 212.073 73.5918 212.073 73.0645H213.708C213.731 73.5098 213.86 73.8643 214.095 74.1279C214.329 74.3857 214.616 74.5703 214.956 74.6816C215.296 74.7871 215.633 74.8398 215.967 74.8398C216.412 74.8398 216.784 74.7812 217.083 74.6641C217.388 74.5469 217.619 74.3857 217.777 74.1807C217.936 73.9756 218.015 73.7412 218.015 73.4775ZM56.0059 91.4902V101H54.3711V91.4902H56.0059ZM54.248 88.9678C54.248 88.7041 54.3271 88.4814 54.4854 88.2998C54.6494 88.1182 54.8896 88.0273 55.2061 88.0273C55.5166 88.0273 55.7539 88.1182 55.918 88.2998C56.0879 88.4814 56.1729 88.7041 56.1729 88.9678C56.1729 89.2197 56.0879 89.4365 55.918 89.6182C55.7539 89.7939 55.5166 89.8818 55.2061 89.8818C54.8896 89.8818 54.6494 89.7939 54.4854 89.6182C54.3271 89.4365 54.248 89.2197 54.248 88.9678ZM60.2422 93.5205V101H58.6162V91.4902H60.1543L60.2422 93.5205ZM59.8555 95.8848L59.1787 95.8584C59.1846 95.208 59.2812 94.6074 59.4688 94.0566C59.6562 93.5 59.9199 93.0166 60.2598 92.6064C60.5996 92.1963 61.0039 91.8799 61.4727 91.6572C61.9473 91.4287 62.4717 91.3145 63.0459 91.3145C63.5146 91.3145 63.9365 91.3789 64.3115 91.5078C64.6865 91.6309 65.0059 91.8301 65.2695 92.1055C65.5391 92.3809 65.7441 92.7383 65.8848 93.1777C66.0254 93.6113 66.0957 94.1416 66.0957 94.7686V101H64.4609V94.751C64.4609 94.2529 64.3877 93.8545 64.2412 93.5557C64.0947 93.251 63.8809 93.0312 63.5996 92.8965C63.3184 92.7559 62.9727 92.6855 62.5625 92.6855C62.1582 92.6855 61.7891 92.7705 61.4551 92.9404C61.127 93.1104 60.8428 93.3447 60.6025 93.6436C60.3682 93.9424 60.1836 94.2852 60.0488 94.6719C59.9199 95.0527 59.8555 95.457 59.8555 95.8848ZM70.9912 101H69.3652V90.4883C69.3652 89.8027 69.4883 89.2256 69.7344 88.7568C69.9863 88.2822 70.3467 87.9248 70.8154 87.6846C71.2842 87.4385 71.8408 87.3154 72.4854 87.3154C72.6729 87.3154 72.8604 87.3271 73.0479 87.3506C73.2412 87.374 73.4287 87.4092 73.6104 87.4561L73.5225 88.7832C73.3994 88.7539 73.2588 88.7334 73.1006 88.7217C72.9482 88.71 72.7959 88.7041 72.6436 88.7041C72.2979 88.7041 71.999 88.7744 71.7471 88.915C71.501 89.0498 71.3135 89.249 71.1846 89.5127C71.0557 89.7764 70.9912 90.1016 70.9912 90.4883V101ZM73.0127 91.4902V92.7383H67.8623V91.4902H73.0127ZM74.3926 96.3506V96.1484C74.3926 95.4629 74.4922 94.8271 74.6914 94.2412C74.8906 93.6494 75.1777 93.1367 75.5527 92.7031C75.9277 92.2637 76.3818 91.9238 76.915 91.6836C77.4482 91.4375 78.0459 91.3145 78.708 91.3145C79.376 91.3145 79.9766 91.4375 80.5098 91.6836C81.0488 91.9238 81.5059 92.2637 81.8809 92.7031C82.2617 93.1367 82.5518 93.6494 82.751 94.2412C82.9502 94.8271 83.0498 95.4629 83.0498 96.1484V96.3506C83.0498 97.0361 82.9502 97.6719 82.751 98.2578C82.5518 98.8438 82.2617 99.3564 81.8809 99.7959C81.5059 100.229 81.0518 100.569 80.5186 100.815C79.9912 101.056 79.3936 101.176 78.7256 101.176C78.0576 101.176 77.457 101.056 76.9238 100.815C76.3906 100.569 75.9336 100.229 75.5527 99.7959C75.1777 99.3564 74.8906 98.8438 74.6914 98.2578C74.4922 97.6719 74.3926 97.0361 74.3926 96.3506ZM76.0186 96.1484V96.3506C76.0186 96.8252 76.0742 97.2734 76.1855 97.6953C76.2969 98.1113 76.4639 98.4805 76.6865 98.8027C76.915 99.125 77.1992 99.3799 77.5391 99.5674C77.8789 99.749 78.2744 99.8398 78.7256 99.8398C79.1709 99.8398 79.5605 99.749 79.8945 99.5674C80.2344 99.3799 80.5156 99.125 80.7383 98.8027C80.9609 98.4805 81.1279 98.1113 81.2393 97.6953C81.3564 97.2734 81.415 96.8252 81.415 96.3506V96.1484C81.415 95.6797 81.3564 95.2373 81.2393 94.8213C81.1279 94.3994 80.958 94.0273 80.7295 93.7051C80.5068 93.377 80.2256 93.1191 79.8857 92.9316C79.5518 92.7441 79.1592 92.6504 78.708 92.6504C78.2627 92.6504 77.8701 92.7441 77.5303 92.9316C77.1963 93.1191 76.915 93.377 76.6865 93.7051C76.4639 94.0273 76.2969 94.3994 76.1855 94.8213C76.0742 95.2373 76.0186 95.6797 76.0186 96.1484ZM86.7148 92.9844V101H85.0889V91.4902H86.6709L86.7148 92.9844ZM89.6855 91.4375L89.6768 92.9492C89.542 92.9199 89.4131 92.9023 89.29 92.8965C89.1729 92.8848 89.0381 92.8789 88.8857 92.8789C88.5107 92.8789 88.1797 92.9375 87.8926 93.0547C87.6055 93.1719 87.3623 93.3359 87.1631 93.5469C86.9639 93.7578 86.8057 94.0098 86.6885 94.3027C86.5771 94.5898 86.5039 94.9062 86.4688 95.252L86.0117 95.5156C86.0117 94.9414 86.0674 94.4023 86.1787 93.8984C86.2959 93.3945 86.4746 92.9492 86.7148 92.5625C86.9551 92.1699 87.2598 91.8652 87.6289 91.6484C88.0039 91.4258 88.4492 91.3145 88.9648 91.3145C89.082 91.3145 89.2168 91.3291 89.3691 91.3584C89.5215 91.3818 89.627 91.4082 89.6855 91.4375ZM92.8057 93.3799V101H91.1709V91.4902H92.7178L92.8057 93.3799ZM92.4717 95.8848L91.7158 95.8584C91.7217 95.208 91.8066 94.6074 91.9707 94.0566C92.1348 93.5 92.3779 93.0166 92.7002 92.6064C93.0225 92.1963 93.4238 91.8799 93.9043 91.6572C94.3848 91.4287 94.9414 91.3145 95.5742 91.3145C96.0195 91.3145 96.4297 91.3789 96.8047 91.5078C97.1797 91.6309 97.5049 91.8271 97.7803 92.0967C98.0557 92.3662 98.2695 92.7119 98.4219 93.1338C98.5742 93.5557 98.6504 94.0654 98.6504 94.6631V101H97.0244V94.7422C97.0244 94.2441 96.9395 93.8457 96.7695 93.5469C96.6055 93.248 96.3711 93.0312 96.0664 92.8965C95.7617 92.7559 95.4043 92.6855 94.9941 92.6855C94.5137 92.6855 94.1123 92.7705 93.79 92.9404C93.4678 93.1104 93.21 93.3447 93.0166 93.6436C92.8232 93.9424 92.6826 94.2852 92.5947 94.6719C92.5127 95.0527 92.4717 95.457 92.4717 95.8848ZM98.6328 94.9883L97.543 95.3223C97.5488 94.8008 97.6338 94.2998 97.7979 93.8193C97.9678 93.3389 98.2109 92.9111 98.5273 92.5361C98.8496 92.1611 99.2451 91.8652 99.7139 91.6484C100.183 91.4258 100.719 91.3145 101.322 91.3145C101.832 91.3145 102.283 91.3818 102.676 91.5166C103.074 91.6514 103.408 91.8594 103.678 92.1406C103.953 92.416 104.161 92.7705 104.302 93.2041C104.442 93.6377 104.513 94.1533 104.513 94.751V101H102.878V94.7334C102.878 94.2002 102.793 93.7871 102.623 93.4941C102.459 93.1953 102.225 92.9873 101.92 92.8701C101.621 92.7471 101.264 92.6855 100.848 92.6855C100.49 92.6855 100.174 92.7471 99.8984 92.8701C99.623 92.9932 99.3916 93.1631 99.2041 93.3799C99.0166 93.5908 98.873 93.834 98.7734 94.1094C98.6797 94.3848 98.6328 94.6777 98.6328 94.9883ZM112.581 99.374V94.4785C112.581 94.1035 112.505 93.7783 112.353 93.5029C112.206 93.2217 111.983 93.0049 111.685 92.8525C111.386 92.7002 111.017 92.624 110.577 92.624C110.167 92.624 109.807 92.6943 109.496 92.835C109.191 92.9756 108.951 93.1602 108.775 93.3887C108.605 93.6172 108.521 93.8633 108.521 94.127H106.895C106.895 93.7871 106.982 93.4502 107.158 93.1162C107.334 92.7822 107.586 92.4805 107.914 92.2109C108.248 91.9355 108.646 91.7188 109.109 91.5605C109.578 91.3965 110.1 91.3145 110.674 91.3145C111.365 91.3145 111.975 91.4316 112.502 91.666C113.035 91.9004 113.451 92.2549 113.75 92.7295C114.055 93.1982 114.207 93.7871 114.207 94.4961V98.9258C114.207 99.2422 114.233 99.5791 114.286 99.9365C114.345 100.294 114.43 100.602 114.541 100.859V101H112.845C112.763 100.812 112.698 100.563 112.651 100.253C112.604 99.9365 112.581 99.6436 112.581 99.374ZM112.862 95.2344L112.88 96.377H111.236C110.773 96.377 110.36 96.415 109.997 96.4912C109.634 96.5615 109.329 96.6699 109.083 96.8164C108.837 96.9629 108.649 97.1475 108.521 97.3701C108.392 97.5869 108.327 97.8418 108.327 98.1348C108.327 98.4336 108.395 98.7061 108.529 98.9521C108.664 99.1982 108.866 99.3945 109.136 99.541C109.411 99.6816 109.748 99.752 110.146 99.752C110.645 99.752 111.084 99.6465 111.465 99.4355C111.846 99.2246 112.147 98.9668 112.37 98.6621C112.599 98.3574 112.722 98.0615 112.739 97.7744L113.434 98.5566C113.393 98.8027 113.281 99.0752 113.1 99.374C112.918 99.6729 112.675 99.96 112.37 100.235C112.071 100.505 111.714 100.73 111.298 100.912C110.888 101.088 110.425 101.176 109.909 101.176C109.265 101.176 108.699 101.05 108.213 100.798C107.732 100.546 107.357 100.209 107.088 99.7871C106.824 99.3594 106.692 98.8818 106.692 98.3545C106.692 97.8447 106.792 97.3965 106.991 97.0098C107.19 96.6172 107.478 96.292 107.853 96.0342C108.228 95.7705 108.679 95.5713 109.206 95.4365C109.733 95.3018 110.322 95.2344 110.973 95.2344H112.862ZM120.57 99.8398C120.957 99.8398 121.314 99.7607 121.643 99.6025C121.971 99.4443 122.24 99.2275 122.451 98.9521C122.662 98.6709 122.782 98.3516 122.812 97.9941H124.358C124.329 98.5566 124.139 99.0811 123.787 99.5674C123.441 100.048 122.987 100.438 122.425 100.736C121.862 101.029 121.244 101.176 120.57 101.176C119.855 101.176 119.231 101.05 118.698 100.798C118.171 100.546 117.731 100.2 117.38 99.7607C117.034 99.3213 116.773 98.8174 116.598 98.249C116.428 97.6748 116.343 97.0684 116.343 96.4297V96.0605C116.343 95.4219 116.428 94.8184 116.598 94.25C116.773 93.6758 117.034 93.1689 117.38 92.7295C117.731 92.29 118.171 91.9443 118.698 91.6924C119.231 91.4404 119.855 91.3145 120.57 91.3145C121.314 91.3145 121.965 91.4668 122.521 91.7715C123.078 92.0703 123.515 92.4805 123.831 93.002C124.153 93.5176 124.329 94.1035 124.358 94.7598H122.812C122.782 94.3672 122.671 94.0127 122.478 93.6963C122.29 93.3799 122.032 93.1279 121.704 92.9404C121.382 92.7471 121.004 92.6504 120.57 92.6504C120.072 92.6504 119.653 92.75 119.313 92.9492C118.979 93.1426 118.713 93.4062 118.514 93.7402C118.32 94.0684 118.18 94.4346 118.092 94.8389C118.01 95.2373 117.969 95.6445 117.969 96.0605V96.4297C117.969 96.8457 118.01 97.2559 118.092 97.6602C118.174 98.0645 118.312 98.4307 118.505 98.7588C118.704 99.0869 118.971 99.3506 119.305 99.5498C119.645 99.7432 120.066 99.8398 120.57 99.8398ZM119.674 101.088H120.843L120.737 101.554C121.077 101.612 121.385 101.753 121.66 101.976C121.941 102.198 122.082 102.564 122.082 103.074C122.082 103.35 122.023 103.599 121.906 103.821C121.795 104.05 121.628 104.243 121.405 104.401C121.183 104.565 120.904 104.691 120.57 104.779C120.242 104.867 119.858 104.911 119.419 104.911L119.357 103.971C119.627 103.971 119.87 103.941 120.087 103.883C120.31 103.824 120.485 103.73 120.614 103.602C120.749 103.473 120.816 103.306 120.816 103.101C120.816 102.907 120.767 102.755 120.667 102.644C120.567 102.532 120.412 102.447 120.201 102.389C119.996 102.336 119.729 102.298 119.401 102.274L119.674 101.088ZM125.756 96.3506V96.1484C125.756 95.4629 125.855 94.8271 126.055 94.2412C126.254 93.6494 126.541 93.1367 126.916 92.7031C127.291 92.2637 127.745 91.9238 128.278 91.6836C128.812 91.4375 129.409 91.3145 130.071 91.3145C130.739 91.3145 131.34 91.4375 131.873 91.6836C132.412 91.9238 132.869 92.2637 133.244 92.7031C133.625 93.1367 133.915 93.6494 134.114 94.2412C134.313 94.8271 134.413 95.4629 134.413 96.1484V96.3506C134.413 97.0361 134.313 97.6719 134.114 98.2578C133.915 98.8438 133.625 99.3564 133.244 99.7959C132.869 100.229 132.415 100.569 131.882 100.815C131.354 101.056 130.757 101.176 130.089 101.176C129.421 101.176 128.82 101.056 128.287 100.815C127.754 100.569 127.297 100.229 126.916 99.7959C126.541 99.3564 126.254 98.8438 126.055 98.2578C125.855 97.6719 125.756 97.0361 125.756 96.3506ZM127.382 96.1484V96.3506C127.382 96.8252 127.438 97.2734 127.549 97.6953C127.66 98.1113 127.827 98.4805 128.05 98.8027C128.278 99.125 128.562 99.3799 128.902 99.5674C129.242 99.749 129.638 99.8398 130.089 99.8398C130.534 99.8398 130.924 99.749 131.258 99.5674C131.598 99.3799 131.879 99.125 132.102 98.8027C132.324 98.4805 132.491 98.1113 132.603 97.6953C132.72 97.2734 132.778 96.8252 132.778 96.3506V96.1484C132.778 95.6797 132.72 95.2373 132.603 94.8213C132.491 94.3994 132.321 94.0273 132.093 93.7051C131.87 93.377 131.589 93.1191 131.249 92.9316C130.915 92.7441 130.522 92.6504 130.071 92.6504C129.626 92.6504 129.233 92.7441 128.894 92.9316C128.56 93.1191 128.278 93.377 128.05 93.7051C127.827 94.0273 127.66 94.3994 127.549 94.8213C127.438 95.2373 127.382 95.6797 127.382 96.1484ZM132.022 87.6758L133.121 87.7725C133.121 88.2002 133.036 88.5752 132.866 88.8975C132.696 89.2197 132.468 89.4688 132.181 89.6445C131.899 89.8203 131.58 89.9082 131.223 89.9082C130.924 89.9082 130.678 89.8672 130.484 89.7852C130.291 89.6973 130.118 89.6006 129.966 89.4951C129.813 89.3838 129.652 89.2871 129.482 89.2051C129.318 89.1172 129.113 89.0732 128.867 89.0732C128.621 89.0732 128.413 89.167 128.243 89.3545C128.079 89.542 127.997 89.7734 127.997 90.0488L126.898 89.9961C126.898 89.5684 126.98 89.1934 127.145 88.8711C127.314 88.543 127.543 88.2881 127.83 88.1064C128.117 87.9189 128.437 87.8252 128.788 87.8252C129.04 87.8252 129.26 87.8691 129.447 87.957C129.641 88.0391 129.822 88.1357 129.992 88.2471C130.162 88.3525 130.338 88.4492 130.52 88.5371C130.701 88.6191 130.909 88.6602 131.144 88.6602C131.39 88.6602 131.598 88.5664 131.768 88.3789C131.938 88.1855 132.022 87.9512 132.022 87.6758ZM140.398 101.176C139.736 101.176 139.136 101.064 138.597 100.842C138.063 100.613 137.604 100.294 137.217 99.8838C136.836 99.4736 136.543 98.9873 136.338 98.4248C136.133 97.8623 136.03 97.2471 136.03 96.5791V96.21C136.03 95.4365 136.145 94.748 136.373 94.1445C136.602 93.5352 136.912 93.0195 137.305 92.5977C137.697 92.1758 138.143 91.8564 138.641 91.6396C139.139 91.4229 139.654 91.3145 140.188 91.3145C140.867 91.3145 141.453 91.4316 141.945 91.666C142.443 91.9004 142.851 92.2285 143.167 92.6504C143.483 93.0664 143.718 93.5586 143.87 94.127C144.022 94.6895 144.099 95.3047 144.099 95.9727V96.7021H136.997V95.375H142.473V95.252C142.449 94.8301 142.361 94.4199 142.209 94.0215C142.062 93.623 141.828 93.2949 141.506 93.0371C141.184 92.7793 140.744 92.6504 140.188 92.6504C139.818 92.6504 139.479 92.7295 139.168 92.8877C138.857 93.04 138.591 93.2686 138.368 93.5732C138.146 93.8779 137.973 94.25 137.85 94.6895C137.727 95.1289 137.665 95.6357 137.665 96.21V96.5791C137.665 97.0303 137.727 97.4551 137.85 97.8535C137.979 98.2461 138.163 98.5918 138.403 98.8906C138.649 99.1895 138.945 99.4238 139.291 99.5938C139.643 99.7637 140.041 99.8486 140.486 99.8486C141.061 99.8486 141.547 99.7314 141.945 99.4971C142.344 99.2627 142.692 98.9492 142.991 98.5566L143.976 99.3389C143.771 99.6494 143.51 99.9453 143.193 100.227C142.877 100.508 142.487 100.736 142.024 100.912C141.567 101.088 141.025 101.176 140.398 101.176ZM151.534 98.4775C151.534 98.2432 151.481 98.0264 151.376 97.8271C151.276 97.6221 151.068 97.4375 150.752 97.2734C150.441 97.1035 149.973 96.957 149.346 96.834C148.818 96.7227 148.341 96.5908 147.913 96.4385C147.491 96.2861 147.131 96.1016 146.832 95.8848C146.539 95.668 146.313 95.4131 146.155 95.1201C145.997 94.8271 145.918 94.4844 145.918 94.0918C145.918 93.7168 146 93.3623 146.164 93.0283C146.334 92.6943 146.571 92.3984 146.876 92.1406C147.187 91.8828 147.559 91.6807 147.992 91.5342C148.426 91.3877 148.909 91.3145 149.442 91.3145C150.204 91.3145 150.854 91.4492 151.394 91.7188C151.933 91.9883 152.346 92.3486 152.633 92.7998C152.92 93.2451 153.063 93.7402 153.063 94.2852H151.438C151.438 94.0215 151.358 93.7666 151.2 93.5205C151.048 93.2686 150.822 93.0605 150.523 92.8965C150.23 92.7324 149.87 92.6504 149.442 92.6504C148.991 92.6504 148.625 92.7207 148.344 92.8613C148.068 92.9961 147.866 93.1689 147.737 93.3799C147.614 93.5908 147.553 93.8135 147.553 94.0479C147.553 94.2236 147.582 94.3818 147.641 94.5225C147.705 94.6572 147.816 94.7832 147.975 94.9004C148.133 95.0117 148.355 95.1172 148.643 95.2168C148.93 95.3164 149.296 95.416 149.741 95.5156C150.521 95.6914 151.162 95.9023 151.666 96.1484C152.17 96.3945 152.545 96.6963 152.791 97.0537C153.037 97.4111 153.16 97.8447 153.16 98.3545C153.16 98.7705 153.072 99.1514 152.896 99.4971C152.727 99.8428 152.478 100.142 152.149 100.394C151.827 100.64 151.44 100.833 150.989 100.974C150.544 101.108 150.043 101.176 149.486 101.176C148.648 101.176 147.939 101.026 147.359 100.728C146.779 100.429 146.34 100.042 146.041 99.5674C145.742 99.0928 145.593 98.5918 145.593 98.0645H147.228C147.251 98.5098 147.38 98.8643 147.614 99.1279C147.849 99.3857 148.136 99.5703 148.476 99.6816C148.815 99.7871 149.152 99.8398 149.486 99.8398C149.932 99.8398 150.304 99.7812 150.603 99.6641C150.907 99.5469 151.139 99.3857 151.297 99.1807C151.455 98.9756 151.534 98.7412 151.534 98.4775ZM165.298 98.4775C165.298 98.2432 165.245 98.0264 165.14 97.8271C165.04 97.6221 164.832 97.4375 164.516 97.2734C164.205 97.1035 163.736 96.957 163.109 96.834C162.582 96.7227 162.104 96.5908 161.677 96.4385C161.255 96.2861 160.895 96.1016 160.596 95.8848C160.303 95.668 160.077 95.4131 159.919 95.1201C159.761 94.8271 159.682 94.4844 159.682 94.0918C159.682 93.7168 159.764 93.3623 159.928 93.0283C160.098 92.6943 160.335 92.3984 160.64 92.1406C160.95 91.8828 161.322 91.6807 161.756 91.5342C162.189 91.3877 162.673 91.3145 163.206 91.3145C163.968 91.3145 164.618 91.4492 165.157 91.7188C165.696 91.9883 166.109 92.3486 166.396 92.7998C166.684 93.2451 166.827 93.7402 166.827 94.2852H165.201C165.201 94.0215 165.122 93.7666 164.964 93.5205C164.812 93.2686 164.586 93.0605 164.287 92.8965C163.994 92.7324 163.634 92.6504 163.206 92.6504C162.755 92.6504 162.389 92.7207 162.107 92.8613C161.832 92.9961 161.63 93.1689 161.501 93.3799C161.378 93.5908 161.316 93.8135 161.316 94.0479C161.316 94.2236 161.346 94.3818 161.404 94.5225C161.469 94.6572 161.58 94.7832 161.738 94.9004C161.896 95.0117 162.119 95.1172 162.406 95.2168C162.693 95.3164 163.06 95.416 163.505 95.5156C164.284 95.6914 164.926 95.9023 165.43 96.1484C165.934 96.3945 166.309 96.6963 166.555 97.0537C166.801 97.4111 166.924 97.8447 166.924 98.3545C166.924 98.7705 166.836 99.1514 166.66 99.4971C166.49 99.8428 166.241 100.142 165.913 100.394C165.591 100.64 165.204 100.833 164.753 100.974C164.308 101.108 163.807 101.176 163.25 101.176C162.412 101.176 161.703 101.026 161.123 100.728C160.543 100.429 160.104 100.042 159.805 99.5674C159.506 99.0928 159.356 98.5918 159.356 98.0645H160.991C161.015 98.5098 161.144 98.8643 161.378 99.1279C161.612 99.3857 161.899 99.5703 162.239 99.6816C162.579 99.7871 162.916 99.8398 163.25 99.8398C163.695 99.8398 164.067 99.7812 164.366 99.6641C164.671 99.5469 164.902 99.3857 165.061 99.1807C165.219 98.9756 165.298 98.7412 165.298 98.4775ZM168.629 96.3506V96.1484C168.629 95.4629 168.729 94.8271 168.928 94.2412C169.127 93.6494 169.414 93.1367 169.789 92.7031C170.164 92.2637 170.618 91.9238 171.151 91.6836C171.685 91.4375 172.282 91.3145 172.944 91.3145C173.612 91.3145 174.213 91.4375 174.746 91.6836C175.285 91.9238 175.742 92.2637 176.117 92.7031C176.498 93.1367 176.788 93.6494 176.987 94.2412C177.187 94.8271 177.286 95.4629 177.286 96.1484V96.3506C177.286 97.0361 177.187 97.6719 176.987 98.2578C176.788 98.8438 176.498 99.3564 176.117 99.7959C175.742 100.229 175.288 100.569 174.755 100.815C174.228 101.056 173.63 101.176 172.962 101.176C172.294 101.176 171.693 101.056 171.16 100.815C170.627 100.569 170.17 100.229 169.789 99.7959C169.414 99.3564 169.127 98.8438 168.928 98.2578C168.729 97.6719 168.629 97.0361 168.629 96.3506ZM170.255 96.1484V96.3506C170.255 96.8252 170.311 97.2734 170.422 97.6953C170.533 98.1113 170.7 98.4805 170.923 98.8027C171.151 99.125 171.436 99.3799 171.775 99.5674C172.115 99.749 172.511 99.8398 172.962 99.8398C173.407 99.8398 173.797 99.749 174.131 99.5674C174.471 99.3799 174.752 99.125 174.975 98.8027C175.197 98.4805 175.364 98.1113 175.476 97.6953C175.593 97.2734 175.651 96.8252 175.651 96.3506V96.1484C175.651 95.6797 175.593 95.2373 175.476 94.8213C175.364 94.3994 175.194 94.0273 174.966 93.7051C174.743 93.377 174.462 93.1191 174.122 92.9316C173.788 92.7441 173.396 92.6504 172.944 92.6504C172.499 92.6504 172.106 92.7441 171.767 92.9316C171.433 93.1191 171.151 93.377 170.923 93.7051C170.7 94.0273 170.533 94.3994 170.422 94.8213C170.311 95.2373 170.255 95.6797 170.255 96.1484ZM179.316 87.5H180.951V99.1543L180.811 101H179.316V87.5ZM187.376 96.166V96.3506C187.376 97.042 187.294 97.6836 187.13 98.2754C186.966 98.8613 186.726 99.3711 186.409 99.8047C186.093 100.238 185.706 100.575 185.249 100.815C184.792 101.056 184.268 101.176 183.676 101.176C183.072 101.176 182.542 101.073 182.085 100.868C181.634 100.657 181.253 100.355 180.942 99.9629C180.632 99.5703 180.383 99.0957 180.195 98.5391C180.014 97.9824 179.888 97.3555 179.817 96.6582V95.8496C179.888 95.1465 180.014 94.5166 180.195 93.96C180.383 93.4033 180.632 92.9287 180.942 92.5361C181.253 92.1377 181.634 91.8359 182.085 91.6309C182.536 91.4199 183.061 91.3145 183.658 91.3145C184.256 91.3145 184.786 91.4316 185.249 91.666C185.712 91.8945 186.099 92.2227 186.409 92.6504C186.726 93.0781 186.966 93.5908 187.13 94.1885C187.294 94.7803 187.376 95.4395 187.376 96.166ZM185.741 96.3506V96.166C185.741 95.6914 185.697 95.2461 185.609 94.8301C185.521 94.4082 185.381 94.0391 185.188 93.7227C184.994 93.4004 184.739 93.1484 184.423 92.9668C184.106 92.7793 183.717 92.6855 183.254 92.6855C182.844 92.6855 182.486 92.7559 182.182 92.8965C181.883 93.0371 181.628 93.2275 181.417 93.4678C181.206 93.7021 181.033 93.9717 180.898 94.2764C180.77 94.5752 180.673 94.8857 180.608 95.208V97.3262C180.702 97.7363 180.854 98.1318 181.065 98.5127C181.282 98.8877 181.569 99.1953 181.927 99.4355C182.29 99.6758 182.738 99.7959 183.271 99.7959C183.711 99.7959 184.086 99.708 184.396 99.5322C184.713 99.3506 184.968 99.1016 185.161 98.7852C185.36 98.4688 185.507 98.1025 185.601 97.6865C185.694 97.2705 185.741 96.8252 185.741 96.3506ZM191.059 92.9844V101H189.433V91.4902H191.015L191.059 92.9844ZM194.029 91.4375L194.021 92.9492C193.886 92.9199 193.757 92.9023 193.634 92.8965C193.517 92.8848 193.382 92.8789 193.229 92.8789C192.854 92.8789 192.523 92.9375 192.236 93.0547C191.949 93.1719 191.706 93.3359 191.507 93.5469C191.308 93.7578 191.149 94.0098 191.032 94.3027C190.921 94.5898 190.848 94.9062 190.812 95.252L190.355 95.5156C190.355 94.9414 190.411 94.4023 190.522 93.8984C190.64 93.3945 190.818 92.9492 191.059 92.5625C191.299 92.1699 191.604 91.8652 191.973 91.6484C192.348 91.4258 192.793 91.3145 193.309 91.3145C193.426 91.3145 193.561 91.3291 193.713 91.3584C193.865 91.3818 193.971 91.4082 194.029 91.4375ZM199.303 101.176C198.641 101.176 198.04 101.064 197.501 100.842C196.968 100.613 196.508 100.294 196.121 99.8838C195.74 99.4736 195.447 98.9873 195.242 98.4248C195.037 97.8623 194.935 97.2471 194.935 96.5791V96.21C194.935 95.4365 195.049 94.748 195.277 94.1445C195.506 93.5352 195.816 93.0195 196.209 92.5977C196.602 92.1758 197.047 91.8564 197.545 91.6396C198.043 91.4229 198.559 91.3145 199.092 91.3145C199.771 91.3145 200.357 91.4316 200.85 91.666C201.348 91.9004 201.755 92.2285 202.071 92.6504C202.388 93.0664 202.622 93.5586 202.774 94.127C202.927 94.6895 203.003 95.3047 203.003 95.9727V96.7021H195.901V95.375H201.377V95.252C201.354 94.8301 201.266 94.4199 201.113 94.0215C200.967 93.623 200.732 93.2949 200.41 93.0371C200.088 92.7793 199.648 92.6504 199.092 92.6504C198.723 92.6504 198.383 92.7295 198.072 92.8877C197.762 93.04 197.495 93.2686 197.272 93.5732C197.05 93.8779 196.877 94.25 196.754 94.6895C196.631 95.1289 196.569 95.6357 196.569 96.21V96.5791C196.569 97.0303 196.631 97.4551 196.754 97.8535C196.883 98.2461 197.067 98.5918 197.308 98.8906C197.554 99.1895 197.85 99.4238 198.195 99.5938C198.547 99.7637 198.945 99.8486 199.391 99.8486C199.965 99.8486 200.451 99.7314 200.85 99.4971C201.248 99.2627 201.597 98.9492 201.896 98.5566L202.88 99.3389C202.675 99.6494 202.414 99.9453 202.098 100.227C201.781 100.508 201.392 100.736 200.929 100.912C200.472 101.088 199.93 101.176 199.303 101.176ZM214.974 99.374V94.4785C214.974 94.1035 214.897 93.7783 214.745 93.5029C214.599 93.2217 214.376 93.0049 214.077 92.8525C213.778 92.7002 213.409 92.624 212.97 92.624C212.56 92.624 212.199 92.6943 211.889 92.835C211.584 92.9756 211.344 93.1602 211.168 93.3887C210.998 93.6172 210.913 93.8633 210.913 94.127H209.287C209.287 93.7871 209.375 93.4502 209.551 93.1162C209.727 92.7822 209.979 92.4805 210.307 92.2109C210.641 91.9355 211.039 91.7188 211.502 91.5605C211.971 91.3965 212.492 91.3145 213.066 91.3145C213.758 91.3145 214.367 91.4316 214.895 91.666C215.428 91.9004 215.844 92.2549 216.143 92.7295C216.447 93.1982 216.6 93.7871 216.6 94.4961V98.9258C216.6 99.2422 216.626 99.5791 216.679 99.9365C216.737 100.294 216.822 100.602 216.934 100.859V101H215.237C215.155 100.812 215.091 100.563 215.044 100.253C214.997 99.9365 214.974 99.6436 214.974 99.374ZM215.255 95.2344L215.272 96.377H213.629C213.166 96.377 212.753 96.415 212.39 96.4912C212.026 96.5615 211.722 96.6699 211.476 96.8164C211.229 96.9629 211.042 97.1475 210.913 97.3701C210.784 97.5869 210.72 97.8418 210.72 98.1348C210.72 98.4336 210.787 98.7061 210.922 98.9521C211.057 99.1982 211.259 99.3945 211.528 99.541C211.804 99.6816 212.141 99.752 212.539 99.752C213.037 99.752 213.477 99.6465 213.857 99.4355C214.238 99.2246 214.54 98.9668 214.763 98.6621C214.991 98.3574 215.114 98.0615 215.132 97.7744L215.826 98.5566C215.785 98.8027 215.674 99.0752 215.492 99.374C215.311 99.6729 215.067 99.96 214.763 100.235C214.464 100.505 214.106 100.73 213.69 100.912C213.28 101.088 212.817 101.176 212.302 101.176C211.657 101.176 211.092 101.05 210.605 100.798C210.125 100.546 209.75 100.209 209.48 99.7871C209.217 99.3594 209.085 98.8818 209.085 98.3545C209.085 97.8447 209.185 97.3965 209.384 97.0098C209.583 96.6172 209.87 96.292 210.245 96.0342C210.62 95.7705 211.071 95.5713 211.599 95.4365C212.126 95.3018 212.715 95.2344 213.365 95.2344H215.255ZM59.2139 113.203V126H57.5439V113.203H59.2139ZM63.3271 113.203V114.592H53.4395V113.203H63.3271ZM65.2256 113.203H69.4619C70.4229 113.203 71.2344 113.35 71.8965 113.643C72.5645 113.936 73.0713 114.369 73.417 114.943C73.7686 115.512 73.9443 116.212 73.9443 117.044C73.9443 117.63 73.8242 118.166 73.584 118.652C73.3496 119.133 73.0098 119.543 72.5645 119.883C72.125 120.217 71.5977 120.466 70.9824 120.63L70.5078 120.814H66.5264L66.5088 119.435H69.5146C70.124 119.435 70.6309 119.329 71.0352 119.118C71.4395 118.901 71.7441 118.611 71.9492 118.248C72.1543 117.885 72.2568 117.483 72.2568 117.044C72.2568 116.552 72.1602 116.121 71.9668 115.752C71.7734 115.383 71.4688 115.099 71.0527 114.899C70.6426 114.694 70.1123 114.592 69.4619 114.592H66.9219V126H65.2256V113.203ZM72.7051 126L69.5938 120.199L71.3604 120.19L74.5156 125.895V126H72.7051ZM78.1367 113.203V126H76.4404V113.203H78.1367ZM86.1172 114.337L81.8809 126H80.1494L85.0273 113.203H86.1436L86.1172 114.337ZM89.668 126L85.4229 114.337L85.3965 113.203H86.5127L91.4082 126H89.668ZM89.4482 121.263V122.651H82.2588V121.263H89.4482ZM106.332 118.942V120.278H97.5254V118.942H106.332ZM113.864 113.203H118.101C119.062 113.203 119.873 113.35 120.535 113.643C121.203 113.936 121.71 114.369 122.056 114.943C122.407 115.512 122.583 116.212 122.583 117.044C122.583 117.63 122.463 118.166 122.223 118.652C121.988 119.133 121.648 119.543 121.203 119.883C120.764 120.217 120.236 120.466 119.621 120.63L119.146 120.814H115.165L115.147 119.435H118.153C118.763 119.435 119.27 119.329 119.674 119.118C120.078 118.901 120.383 118.611 120.588 118.248C120.793 117.885 120.896 117.483 120.896 117.044C120.896 116.552 120.799 116.121 120.605 115.752C120.412 115.383 120.107 115.099 119.691 114.899C119.281 114.694 118.751 114.592 118.101 114.592H115.561V126H113.864V113.203ZM121.344 126L118.232 120.199L119.999 120.19L123.154 125.895V126H121.344ZM128.656 126.176C127.994 126.176 127.394 126.064 126.854 125.842C126.321 125.613 125.861 125.294 125.475 124.884C125.094 124.474 124.801 123.987 124.596 123.425C124.391 122.862 124.288 122.247 124.288 121.579V121.21C124.288 120.437 124.402 119.748 124.631 119.145C124.859 118.535 125.17 118.02 125.562 117.598C125.955 117.176 126.4 116.856 126.898 116.64C127.396 116.423 127.912 116.314 128.445 116.314C129.125 116.314 129.711 116.432 130.203 116.666C130.701 116.9 131.108 117.229 131.425 117.65C131.741 118.066 131.976 118.559 132.128 119.127C132.28 119.689 132.356 120.305 132.356 120.973V121.702H125.255V120.375H130.73V120.252C130.707 119.83 130.619 119.42 130.467 119.021C130.32 118.623 130.086 118.295 129.764 118.037C129.441 117.779 129.002 117.65 128.445 117.65C128.076 117.65 127.736 117.729 127.426 117.888C127.115 118.04 126.849 118.269 126.626 118.573C126.403 118.878 126.23 119.25 126.107 119.689C125.984 120.129 125.923 120.636 125.923 121.21V121.579C125.923 122.03 125.984 122.455 126.107 122.854C126.236 123.246 126.421 123.592 126.661 123.891C126.907 124.189 127.203 124.424 127.549 124.594C127.9 124.764 128.299 124.849 128.744 124.849C129.318 124.849 129.805 124.731 130.203 124.497C130.602 124.263 130.95 123.949 131.249 123.557L132.233 124.339C132.028 124.649 131.768 124.945 131.451 125.227C131.135 125.508 130.745 125.736 130.282 125.912C129.825 126.088 129.283 126.176 128.656 126.176ZM136.021 112.5V126H134.387V112.5H136.021ZM144.239 124.374V119.479C144.239 119.104 144.163 118.778 144.011 118.503C143.864 118.222 143.642 118.005 143.343 117.853C143.044 117.7 142.675 117.624 142.235 117.624C141.825 117.624 141.465 117.694 141.154 117.835C140.85 117.976 140.609 118.16 140.434 118.389C140.264 118.617 140.179 118.863 140.179 119.127H138.553C138.553 118.787 138.641 118.45 138.816 118.116C138.992 117.782 139.244 117.48 139.572 117.211C139.906 116.936 140.305 116.719 140.768 116.561C141.236 116.396 141.758 116.314 142.332 116.314C143.023 116.314 143.633 116.432 144.16 116.666C144.693 116.9 145.109 117.255 145.408 117.729C145.713 118.198 145.865 118.787 145.865 119.496V123.926C145.865 124.242 145.892 124.579 145.944 124.937C146.003 125.294 146.088 125.602 146.199 125.859V126H144.503C144.421 125.812 144.356 125.563 144.31 125.253C144.263 124.937 144.239 124.644 144.239 124.374ZM144.521 120.234L144.538 121.377H142.895C142.432 121.377 142.019 121.415 141.655 121.491C141.292 121.562 140.987 121.67 140.741 121.816C140.495 121.963 140.308 122.147 140.179 122.37C140.05 122.587 139.985 122.842 139.985 123.135C139.985 123.434 140.053 123.706 140.188 123.952C140.322 124.198 140.524 124.395 140.794 124.541C141.069 124.682 141.406 124.752 141.805 124.752C142.303 124.752 142.742 124.646 143.123 124.436C143.504 124.225 143.806 123.967 144.028 123.662C144.257 123.357 144.38 123.062 144.397 122.774L145.092 123.557C145.051 123.803 144.939 124.075 144.758 124.374C144.576 124.673 144.333 124.96 144.028 125.235C143.729 125.505 143.372 125.73 142.956 125.912C142.546 126.088 142.083 126.176 141.567 126.176C140.923 126.176 140.357 126.05 139.871 125.798C139.391 125.546 139.016 125.209 138.746 124.787C138.482 124.359 138.351 123.882 138.351 123.354C138.351 122.845 138.45 122.396 138.649 122.01C138.849 121.617 139.136 121.292 139.511 121.034C139.886 120.771 140.337 120.571 140.864 120.437C141.392 120.302 141.98 120.234 142.631 120.234H144.521ZM152.404 116.49V117.738H147.263V116.49H152.404ZM149.003 114.179H150.629V123.645C150.629 123.967 150.679 124.21 150.778 124.374C150.878 124.538 151.007 124.646 151.165 124.699C151.323 124.752 151.493 124.778 151.675 124.778C151.81 124.778 151.95 124.767 152.097 124.743C152.249 124.714 152.363 124.69 152.439 124.673L152.448 126C152.319 126.041 152.149 126.079 151.938 126.114C151.733 126.155 151.484 126.176 151.191 126.176C150.793 126.176 150.427 126.097 150.093 125.938C149.759 125.78 149.492 125.517 149.293 125.147C149.1 124.772 149.003 124.269 149.003 123.636V114.179ZM153.705 121.351V121.148C153.705 120.463 153.805 119.827 154.004 119.241C154.203 118.649 154.49 118.137 154.865 117.703C155.24 117.264 155.694 116.924 156.228 116.684C156.761 116.438 157.358 116.314 158.021 116.314C158.688 116.314 159.289 116.438 159.822 116.684C160.361 116.924 160.818 117.264 161.193 117.703C161.574 118.137 161.864 118.649 162.063 119.241C162.263 119.827 162.362 120.463 162.362 121.148V121.351C162.362 122.036 162.263 122.672 162.063 123.258C161.864 123.844 161.574 124.356 161.193 124.796C160.818 125.229 160.364 125.569 159.831 125.815C159.304 126.056 158.706 126.176 158.038 126.176C157.37 126.176 156.77 126.056 156.236 125.815C155.703 125.569 155.246 125.229 154.865 124.796C154.49 124.356 154.203 123.844 154.004 123.258C153.805 122.672 153.705 122.036 153.705 121.351ZM155.331 121.148V121.351C155.331 121.825 155.387 122.273 155.498 122.695C155.609 123.111 155.776 123.48 155.999 123.803C156.228 124.125 156.512 124.38 156.852 124.567C157.191 124.749 157.587 124.84 158.038 124.84C158.483 124.84 158.873 124.749 159.207 124.567C159.547 124.38 159.828 124.125 160.051 123.803C160.273 123.48 160.44 123.111 160.552 122.695C160.669 122.273 160.728 121.825 160.728 121.351V121.148C160.728 120.68 160.669 120.237 160.552 119.821C160.44 119.399 160.271 119.027 160.042 118.705C159.819 118.377 159.538 118.119 159.198 117.932C158.864 117.744 158.472 117.65 158.021 117.65C157.575 117.65 157.183 117.744 156.843 117.932C156.509 118.119 156.228 118.377 155.999 118.705C155.776 119.027 155.609 119.399 155.498 119.821C155.387 120.237 155.331 120.68 155.331 121.148ZM157.054 115.084L158.759 112.5H160.719L158.363 115.084H157.054ZM166.027 117.984V126H164.401V116.49H165.983L166.027 117.984ZM168.998 116.438L168.989 117.949C168.854 117.92 168.726 117.902 168.603 117.896C168.485 117.885 168.351 117.879 168.198 117.879C167.823 117.879 167.492 117.938 167.205 118.055C166.918 118.172 166.675 118.336 166.476 118.547C166.276 118.758 166.118 119.01 166.001 119.303C165.89 119.59 165.816 119.906 165.781 120.252L165.324 120.516C165.324 119.941 165.38 119.402 165.491 118.898C165.608 118.395 165.787 117.949 166.027 117.562C166.268 117.17 166.572 116.865 166.941 116.648C167.316 116.426 167.762 116.314 168.277 116.314C168.395 116.314 168.529 116.329 168.682 116.358C168.834 116.382 168.939 116.408 168.998 116.438ZM172.268 116.49V126H170.633V116.49H172.268ZM170.51 113.968C170.51 113.704 170.589 113.481 170.747 113.3C170.911 113.118 171.151 113.027 171.468 113.027C171.778 113.027 172.016 113.118 172.18 113.3C172.35 113.481 172.435 113.704 172.435 113.968C172.435 114.22 172.35 114.437 172.18 114.618C172.016 114.794 171.778 114.882 171.468 114.882C171.151 114.882 170.911 114.794 170.747 114.618C170.589 114.437 170.51 114.22 170.51 113.968ZM174.447 121.351V121.148C174.447 120.463 174.547 119.827 174.746 119.241C174.945 118.649 175.232 118.137 175.607 117.703C175.982 117.264 176.437 116.924 176.97 116.684C177.503 116.438 178.101 116.314 178.763 116.314C179.431 116.314 180.031 116.438 180.564 116.684C181.104 116.924 181.561 117.264 181.936 117.703C182.316 118.137 182.606 118.649 182.806 119.241C183.005 119.827 183.104 120.463 183.104 121.148V121.351C183.104 122.036 183.005 122.672 182.806 123.258C182.606 123.844 182.316 124.356 181.936 124.796C181.561 125.229 181.106 125.569 180.573 125.815C180.046 126.056 179.448 126.176 178.78 126.176C178.112 126.176 177.512 126.056 176.979 125.815C176.445 125.569 175.988 125.229 175.607 124.796C175.232 124.356 174.945 123.844 174.746 123.258C174.547 122.672 174.447 122.036 174.447 121.351ZM176.073 121.148V121.351C176.073 121.825 176.129 122.273 176.24 122.695C176.352 123.111 176.519 123.48 176.741 123.803C176.97 124.125 177.254 124.38 177.594 124.567C177.934 124.749 178.329 124.84 178.78 124.84C179.226 124.84 179.615 124.749 179.949 124.567C180.289 124.38 180.57 124.125 180.793 123.803C181.016 123.48 181.183 123.111 181.294 122.695C181.411 122.273 181.47 121.825 181.47 121.351V121.148C181.47 120.68 181.411 120.237 181.294 119.821C181.183 119.399 181.013 119.027 180.784 118.705C180.562 118.377 180.28 118.119 179.94 117.932C179.606 117.744 179.214 117.65 178.763 117.65C178.317 117.65 177.925 117.744 177.585 117.932C177.251 118.119 176.97 118.377 176.741 118.705C176.519 119.027 176.352 119.399 176.24 119.821C176.129 120.237 176.073 120.68 176.073 121.148ZM59.2051 145.981H55.7861V144.602H59.2051C59.8672 144.602 60.4033 144.496 60.8135 144.285C61.2236 144.074 61.5225 143.781 61.71 143.406C61.9033 143.031 62 142.604 62 142.123C62 141.684 61.9033 141.271 61.71 140.884C61.5225 140.497 61.2236 140.187 60.8135 139.952C60.4033 139.712 59.8672 139.592 59.2051 139.592H56.1816V151H54.4854V138.203H59.2051C60.1719 138.203 60.9893 138.37 61.6572 138.704C62.3252 139.038 62.832 139.501 63.1777 140.093C63.5234 140.679 63.6963 141.35 63.6963 142.105C63.6963 142.926 63.5234 143.626 63.1777 144.206C62.832 144.786 62.3252 145.229 61.6572 145.533C60.9893 145.832 60.1719 145.981 59.2051 145.981ZM67.2207 142.984V151H65.5947V141.49H67.1768L67.2207 142.984ZM70.1914 141.438L70.1826 142.949C70.0479 142.92 69.9189 142.902 69.7959 142.896C69.6787 142.885 69.5439 142.879 69.3916 142.879C69.0166 142.879 68.6855 142.938 68.3984 143.055C68.1113 143.172 67.8682 143.336 67.6689 143.547C67.4697 143.758 67.3115 144.01 67.1943 144.303C67.083 144.59 67.0098 144.906 66.9746 145.252L66.5176 145.516C66.5176 144.941 66.5732 144.402 66.6846 143.898C66.8018 143.395 66.9805 142.949 67.2207 142.562C67.4609 142.17 67.7656 141.865 68.1348 141.648C68.5098 141.426 68.9551 141.314 69.4707 141.314C69.5879 141.314 69.7227 141.329 69.875 141.358C70.0273 141.382 70.1328 141.408 70.1914 141.438ZM75.4648 151.176C74.8027 151.176 74.2021 151.064 73.6631 150.842C73.1299 150.613 72.6699 150.294 72.2832 149.884C71.9023 149.474 71.6094 148.987 71.4043 148.425C71.1992 147.862 71.0967 147.247 71.0967 146.579V146.21C71.0967 145.437 71.2109 144.748 71.4395 144.145C71.668 143.535 71.9785 143.02 72.3711 142.598C72.7637 142.176 73.209 141.856 73.707 141.64C74.2051 141.423 74.7207 141.314 75.2539 141.314C75.9336 141.314 76.5195 141.432 77.0117 141.666C77.5098 141.9 77.917 142.229 78.2334 142.65C78.5498 143.066 78.7842 143.559 78.9365 144.127C79.0889 144.689 79.165 145.305 79.165 145.973V146.702H72.0635V145.375H77.5391V145.252C77.5156 144.83 77.4277 144.42 77.2754 144.021C77.1289 143.623 76.8945 143.295 76.5723 143.037C76.25 142.779 75.8105 142.65 75.2539 142.65C74.8848 142.65 74.5449 142.729 74.2344 142.888C73.9238 143.04 73.6572 143.269 73.4346 143.573C73.2119 143.878 73.0391 144.25 72.916 144.689C72.793 145.129 72.7314 145.636 72.7314 146.21V146.579C72.7314 147.03 72.793 147.455 72.916 147.854C73.0449 148.246 73.2295 148.592 73.4697 148.891C73.7158 149.189 74.0117 149.424 74.3574 149.594C74.709 149.764 75.1074 149.849 75.5527 149.849C76.127 149.849 76.6133 149.731 77.0117 149.497C77.4102 149.263 77.7588 148.949 78.0576 148.557L79.042 149.339C78.8369 149.649 78.5762 149.945 78.2598 150.227C77.9434 150.508 77.5537 150.736 77.0908 150.912C76.6338 151.088 76.0918 151.176 75.4648 151.176ZM82.8301 137.5V151H81.1953V137.5H82.8301ZM87.207 141.49V151H85.5723V141.49H87.207ZM85.4492 138.968C85.4492 138.704 85.5283 138.481 85.6865 138.3C85.8506 138.118 86.0908 138.027 86.4072 138.027C86.7178 138.027 86.9551 138.118 87.1191 138.3C87.2891 138.481 87.374 138.704 87.374 138.968C87.374 139.22 87.2891 139.437 87.1191 139.618C86.9551 139.794 86.7178 139.882 86.4072 139.882C86.0908 139.882 85.8506 139.794 85.6865 139.618C85.5283 139.437 85.4492 139.22 85.4492 138.968ZM91.4346 143.38V151H89.7998V141.49H91.3467L91.4346 143.38ZM91.1006 145.885L90.3447 145.858C90.3506 145.208 90.4355 144.607 90.5996 144.057C90.7637 143.5 91.0068 143.017 91.3291 142.606C91.6514 142.196 92.0527 141.88 92.5332 141.657C93.0137 141.429 93.5703 141.314 94.2031 141.314C94.6484 141.314 95.0586 141.379 95.4336 141.508C95.8086 141.631 96.1338 141.827 96.4092 142.097C96.6846 142.366 96.8984 142.712 97.0508 143.134C97.2031 143.556 97.2793 144.065 97.2793 144.663V151H95.6533V144.742C95.6533 144.244 95.5684 143.846 95.3984 143.547C95.2344 143.248 95 143.031 94.6953 142.896C94.3906 142.756 94.0332 142.686 93.623 142.686C93.1426 142.686 92.7412 142.771 92.4189 142.94C92.0967 143.11 91.8389 143.345 91.6455 143.644C91.4521 143.942 91.3115 144.285 91.2236 144.672C91.1416 145.053 91.1006 145.457 91.1006 145.885ZM97.2617 144.988L96.1719 145.322C96.1777 144.801 96.2627 144.3 96.4268 143.819C96.5967 143.339 96.8398 142.911 97.1562 142.536C97.4785 142.161 97.874 141.865 98.3428 141.648C98.8115 141.426 99.3477 141.314 99.9512 141.314C100.461 141.314 100.912 141.382 101.305 141.517C101.703 141.651 102.037 141.859 102.307 142.141C102.582 142.416 102.79 142.771 102.931 143.204C103.071 143.638 103.142 144.153 103.142 144.751V151H101.507V144.733C101.507 144.2 101.422 143.787 101.252 143.494C101.088 143.195 100.854 142.987 100.549 142.87C100.25 142.747 99.8926 142.686 99.4766 142.686C99.1191 142.686 98.8027 142.747 98.5273 142.87C98.252 142.993 98.0205 143.163 97.833 143.38C97.6455 143.591 97.502 143.834 97.4023 144.109C97.3086 144.385 97.2617 144.678 97.2617 144.988ZM107.369 141.49V151H105.734V141.49H107.369ZM105.611 138.968C105.611 138.704 105.69 138.481 105.849 138.3C106.013 138.118 106.253 138.027 106.569 138.027C106.88 138.027 107.117 138.118 107.281 138.3C107.451 138.481 107.536 138.704 107.536 138.968C107.536 139.22 107.451 139.437 107.281 139.618C107.117 139.794 106.88 139.882 106.569 139.882C106.253 139.882 106.013 139.794 105.849 139.618C105.69 139.437 105.611 139.22 105.611 138.968ZM111.605 143.521V151H109.979V141.49H111.518L111.605 143.521ZM111.219 145.885L110.542 145.858C110.548 145.208 110.645 144.607 110.832 144.057C111.02 143.5 111.283 143.017 111.623 142.606C111.963 142.196 112.367 141.88 112.836 141.657C113.311 141.429 113.835 141.314 114.409 141.314C114.878 141.314 115.3 141.379 115.675 141.508C116.05 141.631 116.369 141.83 116.633 142.105C116.902 142.381 117.107 142.738 117.248 143.178C117.389 143.611 117.459 144.142 117.459 144.769V151H115.824V144.751C115.824 144.253 115.751 143.854 115.604 143.556C115.458 143.251 115.244 143.031 114.963 142.896C114.682 142.756 114.336 142.686 113.926 142.686C113.521 142.686 113.152 142.771 112.818 142.94C112.49 143.11 112.206 143.345 111.966 143.644C111.731 143.942 111.547 144.285 111.412 144.672C111.283 145.053 111.219 145.457 111.219 145.885ZM125.536 149.374V144.479C125.536 144.104 125.46 143.778 125.308 143.503C125.161 143.222 124.938 143.005 124.64 142.853C124.341 142.7 123.972 142.624 123.532 142.624C123.122 142.624 122.762 142.694 122.451 142.835C122.146 142.976 121.906 143.16 121.73 143.389C121.561 143.617 121.476 143.863 121.476 144.127H119.85C119.85 143.787 119.938 143.45 120.113 143.116C120.289 142.782 120.541 142.48 120.869 142.211C121.203 141.936 121.602 141.719 122.064 141.561C122.533 141.396 123.055 141.314 123.629 141.314C124.32 141.314 124.93 141.432 125.457 141.666C125.99 141.9 126.406 142.255 126.705 142.729C127.01 143.198 127.162 143.787 127.162 144.496V148.926C127.162 149.242 127.188 149.579 127.241 149.937C127.3 150.294 127.385 150.602 127.496 150.859V151H125.8C125.718 150.812 125.653 150.563 125.606 150.253C125.56 149.937 125.536 149.644 125.536 149.374ZM125.817 145.234L125.835 146.377H124.191C123.729 146.377 123.315 146.415 122.952 146.491C122.589 146.562 122.284 146.67 122.038 146.816C121.792 146.963 121.604 147.147 121.476 147.37C121.347 147.587 121.282 147.842 121.282 148.135C121.282 148.434 121.35 148.706 121.484 148.952C121.619 149.198 121.821 149.395 122.091 149.541C122.366 149.682 122.703 149.752 123.102 149.752C123.6 149.752 124.039 149.646 124.42 149.436C124.801 149.225 125.103 148.967 125.325 148.662C125.554 148.357 125.677 148.062 125.694 147.774L126.389 148.557C126.348 148.803 126.236 149.075 126.055 149.374C125.873 149.673 125.63 149.96 125.325 150.235C125.026 150.505 124.669 150.73 124.253 150.912C123.843 151.088 123.38 151.176 122.864 151.176C122.22 151.176 121.654 151.05 121.168 150.798C120.688 150.546 120.312 150.209 120.043 149.787C119.779 149.359 119.647 148.882 119.647 148.354C119.647 147.845 119.747 147.396 119.946 147.01C120.146 146.617 120.433 146.292 120.808 146.034C121.183 145.771 121.634 145.571 122.161 145.437C122.688 145.302 123.277 145.234 123.928 145.234H125.817ZM131.346 142.984V151H129.72V141.49H131.302L131.346 142.984ZM134.316 141.438L134.308 142.949C134.173 142.92 134.044 142.902 133.921 142.896C133.804 142.885 133.669 142.879 133.517 142.879C133.142 142.879 132.811 142.938 132.523 143.055C132.236 143.172 131.993 143.336 131.794 143.547C131.595 143.758 131.437 144.01 131.319 144.303C131.208 144.59 131.135 144.906 131.1 145.252L130.643 145.516C130.643 144.941 130.698 144.402 130.81 143.898C130.927 143.395 131.105 142.949 131.346 142.562C131.586 142.17 131.891 141.865 132.26 141.648C132.635 141.426 133.08 141.314 133.596 141.314C133.713 141.314 133.848 141.329 134 141.358C134.152 141.382 134.258 141.408 134.316 141.438ZM134.756 150.139C134.756 149.863 134.841 149.632 135.011 149.444C135.187 149.251 135.438 149.154 135.767 149.154C136.095 149.154 136.344 149.251 136.514 149.444C136.689 149.632 136.777 149.863 136.777 150.139C136.777 150.408 136.689 150.637 136.514 150.824C136.344 151.012 136.095 151.105 135.767 151.105C135.438 151.105 135.187 151.012 135.011 150.824C134.841 150.637 134.756 150.408 134.756 150.139Z" fill="#B75B4B"/>
<g id="Group">
<path id="Vector" d="M346.694 145.102C354.401 135.328 359 122.99 359 109.578C359 77.8642 333.291 52.1554 301.578 52.1554C269.864 52.1554 244.155 77.8642 244.155 109.578C244.155 122.99 248.755 135.328 256.461 145.102H346.694Z" fill="#9CCDE0"/>
<path id="Vector_2" d="M336.607 65.7704H330.737C329.186 65.7704 327.924 64.5087 327.924 62.9577V57.0875C327.924 50.1076 322.997 47.7772 319.853 47H287.601V53.9309C287.601 55.1579 286.626 56.1547 285.409 56.1945L285.457 56.5972C284.881 57.4667 281.602 62.9136 286.346 67.6578C290.749 72.0605 290.888 75.6624 290.879 76.2519C290.411 76.9438 287.632 81.3526 288.727 86.9138C289.587 91.2849 292.609 95.1638 297.711 98.4463L290.834 109.829C290.524 110.108 288.746 111.802 287.821 114.621C286.181 119.626 288.555 124.172 290.874 127.135V152.663C290.271 153.29 287.417 156.479 287.389 160.729C287.378 162.393 287.809 164.001 288.667 165.538C292.818 166.492 297.139 167 301.578 167C319.879 167 336.18 158.438 346.695 145.102V72.6812C344.812 65.9279 336.703 65.7713 336.607 65.7704Z" fill="white"/>
<path id="Vector_3" d="M291.106 110.056L298.189 98.3341C282.555 88.4962 291.225 76.368 291.225 76.368C291.225 76.368 291.586 72.4014 286.594 67.409C281.602 62.4168 285.821 56.6863 285.821 56.6863L285.757 56.1571C285.62 56.1831 285.478 56.1981 285.333 56.1981H256.461V145.101C264.52 155.322 275.979 162.734 289.131 165.641C285.063 158.814 291.225 152.807 291.225 152.807V127.013C283.197 116.87 291.106 110.056 291.106 110.056Z" fill="#E3E4EA"/>
<path id="Vector_4" d="M285.821 56.6865C287.073 56.6865 288.088 55.6714 288.088 54.4191V47H259.662C257.894 47 256.461 48.4332 256.461 50.2013V56.6865H285.821Z" fill="#CC7465"/>
<path id="Vector_5" d="M343.391 62.8559L330.838 50.3033C328.723 48.188 325.855 47 322.864 47H317.293C317.293 47 327.535 47.1559 327.535 57.0875V62.9577C327.535 64.7258 328.969 66.159 330.737 66.159H336.607C336.607 66.159 346.694 66.242 346.694 75.6971V70.8303C346.694 67.8395 345.506 64.9709 343.391 62.8559Z" fill="#E3E4EA"/>
<path id="Vector_6" d="M328.887 114.281C326.397 114.281 324.379 116.3 324.379 118.79V134.012C324.379 136.502 326.398 138.52 328.887 138.52C331.377 138.52 333.396 136.502 333.396 134.012V118.79C333.396 116.3 331.377 114.281 328.887 114.281Z" fill="#93CACD"/>
<path id="Vector_7" d="M317.175 123.23C314.685 123.23 312.667 125.248 312.667 127.738V134.012C312.667 136.502 314.685 138.52 317.175 138.52C319.665 138.52 321.684 136.502 321.684 134.012V127.738C321.684 125.248 319.665 123.23 317.175 123.23Z" fill="#71B4B9"/>
<path id="Vector_8" d="M328.887 138.051C326.397 138.051 324.379 136.033 324.379 133.543V146.262H333.396V133.543C333.396 136.033 331.377 138.051 328.887 138.051Z" fill="#71B4B9"/>
<path id="Vector_9" d="M317.175 138.051C314.685 138.051 312.667 136.033 312.667 133.543V146.262H321.684V133.543C321.684 136.033 319.665 138.051 317.175 138.051Z" fill="#448F96"/>
<path id="Vector_10" d="M309.972 146.263V139.721C309.972 137.231 307.953 135.213 305.464 135.213C302.974 135.213 300.955 137.231 300.955 139.721V146.263H309.972Z" fill="#71B4B9"/>
<path id="Vector_11" d="M309.79 69.3739L309.792 69.4037C308.753 69.4405 305.897 69.7212 304.269 71.6443C303.302 72.7866 302.949 74.2988 303.212 76.1431C305.482 78.3481 306.896 81.4285 306.896 84.8356H316.326C316.326 78.7702 313.821 73.2912 309.79 69.3739Z" fill="#F3CA40"/>
<path id="Vector_12" d="M298.189 98.3339C296.194 99.7739 293.748 100.626 291.106 100.626C284.417 100.626 278.975 95.1842 278.975 88.4953C278.975 81.8065 284.417 76.3648 291.106 76.3648C291.145 76.3648 291.185 76.3674 291.224 76.3678V66.9363C291.185 66.9361 291.145 66.9349 291.106 66.9349C279.198 66.9349 269.545 76.5879 269.545 88.4956C269.545 100.403 279.198 110.056 291.106 110.056C295.782 110.056 300.11 108.567 303.642 106.038C301.627 101.22 298.189 98.3339 298.189 98.3339Z" fill="#448F96"/>
<g id="Group_2">
<path id="Vector_13" d="M334.769 147.971H299.155C298.212 147.971 297.447 147.206 297.447 146.263C297.447 145.319 298.212 144.554 299.155 144.554H334.769C335.712 144.554 336.477 145.319 336.477 146.263C336.477 147.206 335.712 147.971 334.769 147.971Z" fill="#93CACD"/>
</g>
<g id="Group_3">
<path id="Vector_14" d="M305.463 154.501C304.52 154.501 303.755 153.736 303.755 152.793V151.798C303.755 150.855 304.52 150.09 305.463 150.09C306.406 150.09 307.171 150.855 307.171 151.798V152.793C307.171 153.736 306.406 154.501 305.463 154.501Z" fill="#448F96"/>
</g>
<g id="Group_4">
<path id="Vector_15" d="M317.176 154.501C316.233 154.501 315.468 153.736 315.468 152.793V151.798C315.468 150.855 316.233 150.09 317.176 150.09C318.119 150.09 318.884 150.855 318.884 151.798V152.793C318.884 153.736 318.119 154.501 317.176 154.501Z" fill="#448F96"/>
</g>
<g id="Group_5">
<path id="Vector_16" d="M328.887 154.501C327.943 154.501 327.179 153.736 327.179 152.793V151.798C327.179 150.855 327.943 150.09 328.887 150.09C329.83 150.09 330.595 150.855 330.595 151.798V152.793C330.595 153.736 329.83 154.501 328.887 154.501Z" fill="#448F96"/>
</g>
<g id="Group_6">
<path id="Vector_17" d="M278.48 122.572H270.887C269.203 122.572 267.837 121.207 267.837 119.522C267.837 117.838 269.203 116.472 270.887 116.472H278.48C280.164 116.472 281.53 117.838 281.53 119.522C281.53 121.207 280.164 122.572 278.48 122.572Z" fill="#448F96"/>
</g>
<g id="Group_7">
<path id="Vector_18" d="M291.224 130.673H269.667C268.656 130.673 267.837 129.854 267.837 128.843C267.837 127.832 268.656 127.013 269.667 127.013H291.224C292.235 127.013 293.054 127.832 293.054 128.843C293.054 129.854 292.235 130.673 291.224 130.673Z" fill="#325158"/>
</g>
<g id="Group_8">
<path id="Vector_19" d="M291.224 138.051H269.667C268.656 138.051 267.837 137.232 267.837 136.221C267.837 135.21 268.656 134.391 269.667 134.391H291.224C292.235 134.391 293.054 135.21 293.054 136.221C293.055 137.232 292.235 138.051 291.224 138.051Z" fill="#325158"/>
</g>
<g id="Group_9">
<path id="Vector_20" d="M291.224 145.429H269.667C268.656 145.429 267.837 144.61 267.837 143.599C267.837 142.588 268.656 141.769 269.667 141.769H291.224C292.235 141.769 293.054 142.588 293.054 143.599C293.055 144.61 292.235 145.429 291.224 145.429Z" fill="#325158"/>
</g>
<g id="Group_10">
<path id="Vector_21" d="M291.224 152.807H269.667C268.656 152.807 267.837 151.988 267.837 150.977C267.837 149.967 268.656 149.147 269.667 149.147H291.224C292.235 149.147 293.054 149.967 293.054 150.977C293.054 151.988 292.235 152.807 291.224 152.807Z" fill="#325158"/>
</g>
<path id="Vector_22" d="M303.236 88.4956C303.236 92.5419 301.242 96.1292 298.188 98.3342L303.642 106.038C309.105 102.127 312.666 95.7275 312.666 88.4956H303.236Z" fill="#CC7465"/>
<path id="Vector_23" d="M310.169 69.7511C306.281 65.7822 300.872 63.3086 294.885 63.2762V72.708C298.339 72.7415 301.451 74.2277 303.642 76.5815C302.25 69.5226 310.168 69.7511 310.169 69.7511Z" fill="#DBB636"/>
</g>
</g>
</g>
<defs>
<filter id="filter0_d_4182_5007" x="21" y="-5" width="390" height="204" filterUnits="userSpaceOnUse" color-interpolation-filters="sRGB">
<feFlood flood-opacity="0" result="BackgroundImageFix"/>
<feColorMatrix in="SourceAlpha" type="matrix" values="0 0 0 0 0 0 0 0 0 0 0 0 0 0 0 0 0 0 127 0" result="hardAlpha"/>
<feOffset dx="10" dy="-10"/>
<feGaussianBlur stdDeviation="6"/>
<feComposite in2="hardAlpha" operator="out"/>
<feColorMatrix type="matrix" values="0 0 0 0 0 0 0 0 0 0 0 0 0 0 0 0 0 0 0.1 0"/>
<feBlend mode="normal" in2="BackgroundImageFix" result="effect1_dropShadow_4182_5007"/>
<feBlend mode="normal" in="SourceGraphic" in2="effect1_dropShadow_4182_5007" result="shape"/>
</filter>
<linearGradient id="paint0_linear_4182_5007" x1="23" y1="107" x2="389" y2="107" gradientUnits="userSpaceOnUse">
<stop stop-color="#F2F2F2"/>
<stop offset="1" stop-color="#F2F2F2"/>
</linearGradient>
<linearGradient id="paint1_linear_4182_5007" x1="23" y1="107" x2="389" y2="107" gradientUnits="userSpaceOnUse">
<stop offset="0.139423" stop-color="white"/>
<stop offset="1" stop-color="#E2E1E1"/>
</linearGradient>
</defs>
</svg>
