<svg width="521" height="76" viewBox="0 0 521 76" fill="none" xmlns="http://www.w3.org/2000/svg">
<g id="Caixa &#195;&#173;cone">
<g id="Texto">
<mask id="path-2-inside-1_4152_1442" fill="white">
<path d="M30 20C30 8.95431 38.9543 0 50 0H501C512.046 0 521 8.95431 521 20V56C521 67.0457 512.046 76 501 76H50C38.9543 76 30 67.0457 30 56V20Z"/>
</mask>
<path d="M30 20C30 8.95431 38.9543 0 50 0H501C512.046 0 521 8.95431 521 20V56C521 67.0457 512.046 76 501 76H50C38.9543 76 30 67.0457 30 56V20Z" fill="#B8B8F3" fill-opacity="0.2"/>
<path d="M30 20C30 6.74517 40.7452 -4 54 -4H501C514.255 -4 525 6.74517 525 20H517C517 11.1634 509.837 4 501 4H50C38.9543 4 30 11.1634 30 20ZM525 56C525 69.2548 514.255 80 501 80H54C40.7452 80 30 69.2548 30 56C30 64.8366 38.9543 72 50 72H501C509.837 72 517 64.8366 517 56H525ZM30 76V0V76ZM501 -4C514.255 -4 525 6.74517 525 20V56C525 69.2548 514.255 80 501 80V72C509.837 72 517 64.8366 517 56V20C517 11.1634 509.837 4 501 4V-4Z" fill="#B8B8F3" mask="url(#path-2-inside-1_4152_1442)"/>
<path id="Acesse as cadernetas e confira!" d="M87.6055 31.7451L82.4277 46H80.3115L86.2734 30.3594H87.6377L87.6055 31.7451ZM91.9453 46L86.7568 31.7451L86.7246 30.3594H88.0889L94.0723 46H91.9453ZM91.6768 40.21V41.9072H82.8896V40.21H91.6768ZM100.518 44.582C100.99 44.582 101.427 44.4854 101.828 44.292C102.229 44.0986 102.559 43.8337 102.816 43.4971C103.074 43.1533 103.221 42.763 103.257 42.3262H105.147C105.112 43.0137 104.879 43.6546 104.449 44.249C104.027 44.8363 103.472 45.3125 102.784 45.6777C102.097 46.0358 101.341 46.2148 100.518 46.2148C99.6439 46.2148 98.8812 46.0609 98.2295 45.7529C97.585 45.445 97.0479 45.0225 96.6182 44.4854C96.1956 43.9482 95.877 43.3324 95.6621 42.6377C95.4544 41.9359 95.3506 41.1947 95.3506 40.4141V39.9629C95.3506 39.1823 95.4544 38.4447 95.6621 37.75C95.877 37.0482 96.1956 36.4287 96.6182 35.8916C97.0479 35.3545 97.585 34.932 98.2295 34.624C98.8812 34.3161 99.6439 34.1621 100.518 34.1621C101.427 34.1621 102.222 34.3483 102.902 34.7207C103.583 35.0859 104.116 35.5872 104.503 36.2246C104.897 36.8548 105.112 37.571 105.147 38.373H103.257C103.221 37.8932 103.085 37.46 102.849 37.0732C102.619 36.6865 102.304 36.3786 101.903 36.1494C101.509 35.9131 101.048 35.7949 100.518 35.7949C99.9089 35.7949 99.3968 35.9167 98.9814 36.1602C98.5732 36.3965 98.2474 36.7188 98.0039 37.127C97.7676 37.528 97.5957 37.9756 97.4883 38.4697C97.388 38.9567 97.3379 39.4544 97.3379 39.9629V40.4141C97.3379 40.9225 97.388 41.4238 97.4883 41.918C97.5885 42.4121 97.7568 42.8597 97.9932 43.2607C98.2367 43.6618 98.5625 43.984 98.9707 44.2275C99.3861 44.4639 99.9017 44.582 100.518 44.582ZM112.205 46.2148C111.396 46.2148 110.662 46.0788 110.003 45.8066C109.351 45.5273 108.789 45.137 108.316 44.6357C107.851 44.1344 107.493 43.54 107.242 42.8525C106.992 42.165 106.866 41.4131 106.866 40.5967V40.1455C106.866 39.2002 107.006 38.3587 107.285 37.6211C107.564 36.8763 107.944 36.2461 108.424 35.7305C108.904 35.2148 109.448 34.8245 110.057 34.5596C110.665 34.2946 111.296 34.1621 111.947 34.1621C112.778 34.1621 113.494 34.3053 114.096 34.5918C114.704 34.8783 115.202 35.2793 115.589 35.7949C115.976 36.3034 116.262 36.9049 116.448 37.5996C116.634 38.2871 116.728 39.0391 116.728 39.8555V40.7471H108.048V39.125H114.74V38.9746C114.712 38.459 114.604 37.9577 114.418 37.4707C114.239 36.9837 113.952 36.5827 113.559 36.2676C113.165 35.9525 112.628 35.7949 111.947 35.7949C111.496 35.7949 111.081 35.8916 110.701 36.085C110.322 36.2712 109.996 36.5505 109.724 36.9229C109.451 37.2952 109.24 37.75 109.09 38.2871C108.939 38.8242 108.864 39.4437 108.864 40.1455V40.5967C108.864 41.1481 108.939 41.6673 109.09 42.1543C109.247 42.6341 109.473 43.0566 109.767 43.4219C110.067 43.7871 110.429 44.0736 110.852 44.2812C111.281 44.4889 111.768 44.5928 112.312 44.5928C113.014 44.5928 113.609 44.4495 114.096 44.1631C114.583 43.8766 115.009 43.4935 115.374 43.0137L116.577 43.9697C116.326 44.3493 116.008 44.7109 115.621 45.0547C115.234 45.3984 114.758 45.6777 114.192 45.8926C113.634 46.1074 112.971 46.2148 112.205 46.2148ZM125.815 42.917C125.815 42.6305 125.751 42.3656 125.622 42.1221C125.5 41.8714 125.246 41.6458 124.859 41.4453C124.48 41.2376 123.907 41.0586 123.141 40.9082C122.496 40.7721 121.912 40.611 121.39 40.4248C120.874 40.2386 120.434 40.013 120.068 39.748C119.71 39.4831 119.435 39.1715 119.241 38.8135C119.048 38.4554 118.951 38.0365 118.951 37.5566C118.951 37.0983 119.051 36.665 119.252 36.2568C119.46 35.8486 119.75 35.487 120.122 35.1719C120.502 34.8568 120.956 34.6097 121.486 34.4307C122.016 34.2516 122.607 34.1621 123.259 34.1621C124.19 34.1621 124.985 34.3268 125.644 34.6562C126.302 34.9857 126.807 35.4261 127.158 35.9775C127.509 36.5218 127.685 37.127 127.685 37.793H125.697C125.697 37.4707 125.601 37.1592 125.407 36.8584C125.221 36.5505 124.945 36.2962 124.58 36.0957C124.222 35.8952 123.782 35.7949 123.259 35.7949C122.707 35.7949 122.26 35.8809 121.916 36.0527C121.579 36.2174 121.332 36.4287 121.175 36.6865C121.024 36.9443 120.949 37.2165 120.949 37.5029C120.949 37.7178 120.985 37.9111 121.057 38.083C121.135 38.2477 121.271 38.4017 121.465 38.5449C121.658 38.681 121.93 38.8099 122.281 38.9316C122.632 39.0534 123.08 39.1751 123.624 39.2969C124.576 39.5117 125.361 39.7695 125.977 40.0703C126.592 40.3711 127.051 40.7399 127.352 41.1768C127.652 41.6136 127.803 42.1436 127.803 42.7666C127.803 43.2751 127.695 43.7406 127.48 44.1631C127.273 44.5856 126.968 44.9508 126.567 45.2588C126.174 45.5596 125.701 45.7959 125.149 45.9678C124.605 46.1325 123.993 46.2148 123.312 46.2148C122.288 46.2148 121.422 46.0322 120.713 45.667C120.004 45.3018 119.467 44.8291 119.102 44.249C118.736 43.6689 118.554 43.0566 118.554 42.4121H120.552C120.58 42.9564 120.738 43.3896 121.024 43.7119C121.311 44.027 121.662 44.2526 122.077 44.3887C122.493 44.5176 122.904 44.582 123.312 44.582C123.857 44.582 124.312 44.5104 124.677 44.3672C125.049 44.224 125.332 44.027 125.525 43.7764C125.719 43.5257 125.815 43.2393 125.815 42.917ZM137.181 42.917C137.181 42.6305 137.116 42.3656 136.987 42.1221C136.866 41.8714 136.611 41.6458 136.225 41.4453C135.845 41.2376 135.272 41.0586 134.506 40.9082C133.861 40.7721 133.278 40.611 132.755 40.4248C132.239 40.2386 131.799 40.013 131.434 39.748C131.076 39.4831 130.8 39.1715 130.606 38.8135C130.413 38.4554 130.316 38.0365 130.316 37.5566C130.316 37.0983 130.417 36.665 130.617 36.2568C130.825 35.8486 131.115 35.487 131.487 35.1719C131.867 34.8568 132.322 34.6097 132.852 34.4307C133.382 34.2516 133.972 34.1621 134.624 34.1621C135.555 34.1621 136.35 34.3268 137.009 34.6562C137.668 34.9857 138.173 35.4261 138.523 35.9775C138.874 36.5218 139.05 37.127 139.05 37.793H137.062C137.062 37.4707 136.966 37.1592 136.772 36.8584C136.586 36.5505 136.311 36.2962 135.945 36.0957C135.587 35.8952 135.147 35.7949 134.624 35.7949C134.073 35.7949 133.625 35.8809 133.281 36.0527C132.945 36.2174 132.698 36.4287 132.54 36.6865C132.39 36.9443 132.314 37.2165 132.314 37.5029C132.314 37.7178 132.35 37.9111 132.422 38.083C132.501 38.2477 132.637 38.4017 132.83 38.5449C133.023 38.681 133.296 38.8099 133.646 38.9316C133.997 39.0534 134.445 39.1751 134.989 39.2969C135.942 39.5117 136.726 39.7695 137.342 40.0703C137.958 40.3711 138.416 40.7399 138.717 41.1768C139.018 41.6136 139.168 42.1436 139.168 42.7666C139.168 43.2751 139.061 43.7406 138.846 44.1631C138.638 44.5856 138.334 44.9508 137.933 45.2588C137.539 45.5596 137.066 45.7959 136.515 45.9678C135.97 46.1325 135.358 46.2148 134.678 46.2148C133.654 46.2148 132.787 46.0322 132.078 45.667C131.369 45.3018 130.832 44.8291 130.467 44.249C130.102 43.6689 129.919 43.0566 129.919 42.4121H131.917C131.946 42.9564 132.103 43.3896 132.39 43.7119C132.676 44.027 133.027 44.2526 133.442 44.3887C133.858 44.5176 134.27 44.582 134.678 44.582C135.222 44.582 135.677 44.5104 136.042 44.3672C136.414 44.224 136.697 44.027 136.891 43.7764C137.084 43.5257 137.181 43.2393 137.181 42.917ZM146.602 46.2148C145.792 46.2148 145.058 46.0788 144.399 45.8066C143.748 45.5273 143.186 45.137 142.713 44.6357C142.247 44.1344 141.889 43.54 141.639 42.8525C141.388 42.165 141.263 41.4131 141.263 40.5967V40.1455C141.263 39.2002 141.402 38.3587 141.682 37.6211C141.961 36.8763 142.34 36.2461 142.82 35.7305C143.3 35.2148 143.844 34.8245 144.453 34.5596C145.062 34.2946 145.692 34.1621 146.344 34.1621C147.174 34.1621 147.891 34.3053 148.492 34.5918C149.101 34.8783 149.599 35.2793 149.985 35.7949C150.372 36.3034 150.659 36.9049 150.845 37.5996C151.031 38.2871 151.124 39.0391 151.124 39.8555V40.7471H142.444V39.125H149.137V38.9746C149.108 38.459 149.001 37.9577 148.814 37.4707C148.635 36.9837 148.349 36.5827 147.955 36.2676C147.561 35.9525 147.024 35.7949 146.344 35.7949C145.893 35.7949 145.477 35.8916 145.098 36.085C144.718 36.2712 144.392 36.5505 144.12 36.9229C143.848 37.2952 143.637 37.75 143.486 38.2871C143.336 38.8242 143.261 39.4437 143.261 40.1455V40.5967C143.261 41.1481 143.336 41.6673 143.486 42.1543C143.644 42.6341 143.869 43.0566 144.163 43.4219C144.464 43.7871 144.826 44.0736 145.248 44.2812C145.678 44.4889 146.165 44.5928 146.709 44.5928C147.411 44.5928 148.005 44.4495 148.492 44.1631C148.979 43.8766 149.405 43.4935 149.771 43.0137L150.974 43.9697C150.723 44.3493 150.404 44.7109 150.018 45.0547C149.631 45.3984 149.155 45.6777 148.589 45.8926C148.03 46.1074 147.368 46.2148 146.602 46.2148ZM165.755 44.0127V38.0293C165.755 37.571 165.662 37.1735 165.476 36.8369C165.297 36.4932 165.024 36.2282 164.659 36.042C164.294 35.8558 163.843 35.7627 163.306 35.7627C162.804 35.7627 162.364 35.8486 161.984 36.0205C161.612 36.1924 161.318 36.418 161.104 36.6973C160.896 36.9766 160.792 37.2773 160.792 37.5996H158.805C158.805 37.1842 158.912 36.7725 159.127 36.3643C159.342 35.9561 159.65 35.5872 160.051 35.2578C160.459 34.9212 160.946 34.6562 161.512 34.4629C162.085 34.2624 162.722 34.1621 163.424 34.1621C164.269 34.1621 165.014 34.3053 165.658 34.5918C166.31 34.8783 166.818 35.3115 167.184 35.8916C167.556 36.4645 167.742 37.1842 167.742 38.0508V43.4648C167.742 43.8516 167.774 44.2633 167.839 44.7002C167.91 45.137 168.014 45.513 168.15 45.8281V46H166.077C165.977 45.7708 165.898 45.4665 165.841 45.0869C165.784 44.7002 165.755 44.3421 165.755 44.0127ZM166.099 38.9531L166.12 40.3496H164.111C163.546 40.3496 163.041 40.3962 162.597 40.4893C162.153 40.5752 161.78 40.7077 161.479 40.8867C161.179 41.0658 160.95 41.2913 160.792 41.5635C160.634 41.8285 160.556 42.14 160.556 42.498C160.556 42.8633 160.638 43.1963 160.803 43.4971C160.967 43.7979 161.215 44.0378 161.544 44.2168C161.881 44.3887 162.292 44.4746 162.779 44.4746C163.388 44.4746 163.925 44.3457 164.391 44.0879C164.856 43.8301 165.225 43.515 165.497 43.1426C165.776 42.7702 165.927 42.4085 165.948 42.0576L166.797 43.0137C166.747 43.3145 166.611 43.6475 166.389 44.0127C166.167 44.3779 165.869 44.7288 165.497 45.0654C165.132 45.3949 164.695 45.6706 164.187 45.8926C163.685 46.1074 163.119 46.2148 162.489 46.2148C161.701 46.2148 161.01 46.0609 160.416 45.7529C159.829 45.445 159.37 45.0332 159.041 44.5176C158.719 43.9948 158.558 43.4111 158.558 42.7666C158.558 42.1436 158.679 41.5957 158.923 41.123C159.166 40.6432 159.517 40.2458 159.976 39.9307C160.434 39.6084 160.985 39.3649 161.63 39.2002C162.274 39.0355 162.994 38.9531 163.789 38.9531H166.099ZM177.636 42.917C177.636 42.6305 177.571 42.3656 177.442 42.1221C177.321 41.8714 177.066 41.6458 176.68 41.4453C176.3 41.2376 175.727 41.0586 174.961 40.9082C174.316 40.7721 173.733 40.611 173.21 40.4248C172.694 40.2386 172.254 40.013 171.889 39.748C171.531 39.4831 171.255 39.1715 171.062 38.8135C170.868 38.4554 170.771 38.0365 170.771 37.5566C170.771 37.0983 170.872 36.665 171.072 36.2568C171.28 35.8486 171.57 35.487 171.942 35.1719C172.322 34.8568 172.777 34.6097 173.307 34.4307C173.837 34.2516 174.427 34.1621 175.079 34.1621C176.01 34.1621 176.805 34.3268 177.464 34.6562C178.123 34.9857 178.628 35.4261 178.979 35.9775C179.329 36.5218 179.505 37.127 179.505 37.793H177.518C177.518 37.4707 177.421 37.1592 177.228 36.8584C177.041 36.5505 176.766 36.2962 176.4 36.0957C176.042 35.8952 175.602 35.7949 175.079 35.7949C174.528 35.7949 174.08 35.8809 173.736 36.0527C173.4 36.2174 173.153 36.4287 172.995 36.6865C172.845 36.9443 172.77 37.2165 172.77 37.5029C172.77 37.7178 172.805 37.9111 172.877 38.083C172.956 38.2477 173.092 38.4017 173.285 38.5449C173.479 38.681 173.751 38.8099 174.102 38.9316C174.452 39.0534 174.9 39.1751 175.444 39.2969C176.397 39.5117 177.181 39.7695 177.797 40.0703C178.413 40.3711 178.871 40.7399 179.172 41.1768C179.473 41.6136 179.623 42.1436 179.623 42.7666C179.623 43.2751 179.516 43.7406 179.301 44.1631C179.093 44.5856 178.789 44.9508 178.388 45.2588C177.994 45.5596 177.521 45.7959 176.97 45.9678C176.425 46.1325 175.813 46.2148 175.133 46.2148C174.109 46.2148 173.242 46.0322 172.533 45.667C171.824 45.3018 171.287 44.8291 170.922 44.249C170.557 43.6689 170.374 43.0566 170.374 42.4121H172.372C172.401 42.9564 172.558 43.3896 172.845 43.7119C173.131 44.027 173.482 44.2526 173.897 44.3887C174.313 44.5176 174.725 44.582 175.133 44.582C175.677 44.582 176.132 44.5104 176.497 44.3672C176.869 44.224 177.152 44.027 177.346 43.7764C177.539 43.5257 177.636 43.2393 177.636 42.917ZM192.342 44.582C192.814 44.582 193.251 44.4854 193.652 44.292C194.053 44.0986 194.383 43.8337 194.641 43.4971C194.898 43.1533 195.045 42.763 195.081 42.3262H196.972C196.936 43.0137 196.703 43.6546 196.273 44.249C195.851 44.8363 195.296 45.3125 194.608 45.6777C193.921 46.0358 193.165 46.2148 192.342 46.2148C191.468 46.2148 190.705 46.0609 190.054 45.7529C189.409 45.445 188.872 45.0225 188.442 44.4854C188.02 43.9482 187.701 43.3324 187.486 42.6377C187.279 41.9359 187.175 41.1947 187.175 40.4141V39.9629C187.175 39.1823 187.279 38.4447 187.486 37.75C187.701 37.0482 188.02 36.4287 188.442 35.8916C188.872 35.3545 189.409 34.932 190.054 34.624C190.705 34.3161 191.468 34.1621 192.342 34.1621C193.251 34.1621 194.046 34.3483 194.727 34.7207C195.407 35.0859 195.94 35.5872 196.327 36.2246C196.721 36.8548 196.936 37.571 196.972 38.373H195.081C195.045 37.8932 194.909 37.46 194.673 37.0732C194.444 36.6865 194.129 36.3786 193.728 36.1494C193.334 35.9131 192.872 35.7949 192.342 35.7949C191.733 35.7949 191.221 35.9167 190.806 36.1602C190.397 36.3965 190.072 36.7188 189.828 37.127C189.592 37.528 189.42 37.9756 189.312 38.4697C189.212 38.9567 189.162 39.4544 189.162 39.9629V40.4141C189.162 40.9225 189.212 41.4238 189.312 41.918C189.413 42.4121 189.581 42.8597 189.817 43.2607C190.061 43.6618 190.387 43.984 190.795 44.2275C191.21 44.4639 191.726 44.582 192.342 44.582ZM206.06 44.0127V38.0293C206.06 37.571 205.966 37.1735 205.78 36.8369C205.601 36.4932 205.329 36.2282 204.964 36.042C204.599 35.8558 204.147 35.7627 203.61 35.7627C203.109 35.7627 202.669 35.8486 202.289 36.0205C201.917 36.1924 201.623 36.418 201.408 36.6973C201.201 36.9766 201.097 37.2773 201.097 37.5996H199.109C199.109 37.1842 199.217 36.7725 199.432 36.3643C199.646 35.9561 199.954 35.5872 200.355 35.2578C200.764 34.9212 201.251 34.6562 201.816 34.4629C202.389 34.2624 203.027 34.1621 203.729 34.1621C204.574 34.1621 205.318 34.3053 205.963 34.5918C206.615 34.8783 207.123 35.3115 207.488 35.8916C207.861 36.4645 208.047 37.1842 208.047 38.0508V43.4648C208.047 43.8516 208.079 44.2633 208.144 44.7002C208.215 45.137 208.319 45.513 208.455 45.8281V46H206.382C206.282 45.7708 206.203 45.4665 206.146 45.0869C206.088 44.7002 206.06 44.3421 206.06 44.0127ZM206.403 38.9531L206.425 40.3496H204.416C203.85 40.3496 203.345 40.3962 202.901 40.4893C202.457 40.5752 202.085 40.7077 201.784 40.8867C201.483 41.0658 201.254 41.2913 201.097 41.5635C200.939 41.8285 200.86 42.14 200.86 42.498C200.86 42.8633 200.943 43.1963 201.107 43.4971C201.272 43.7979 201.519 44.0378 201.849 44.2168C202.185 44.3887 202.597 44.4746 203.084 44.4746C203.693 44.4746 204.23 44.3457 204.695 44.0879C205.161 43.8301 205.53 43.515 205.802 43.1426C206.081 42.7702 206.231 42.4085 206.253 42.0576L207.102 43.0137C207.051 43.3145 206.915 43.6475 206.693 44.0127C206.471 44.3779 206.174 44.7288 205.802 45.0654C205.437 45.3949 205 45.6706 204.491 45.8926C203.99 46.1074 203.424 46.2148 202.794 46.2148C202.006 46.2148 201.315 46.0609 200.721 45.7529C200.133 45.445 199.675 45.0332 199.346 44.5176C199.023 43.9948 198.862 43.4111 198.862 42.7666C198.862 42.1436 198.984 41.5957 199.228 41.123C199.471 40.6432 199.822 40.2458 200.28 39.9307C200.739 39.6084 201.29 39.3649 201.935 39.2002C202.579 39.0355 203.299 38.9531 204.094 38.9531H206.403ZM218.499 43.7441V29.5H220.497V46H218.671L218.499 43.7441ZM210.679 40.3174V40.0918C210.679 39.2038 210.786 38.3981 211.001 37.6748C211.223 36.9443 211.535 36.3177 211.936 35.7949C212.344 35.2721 212.827 34.8711 213.386 34.5918C213.951 34.3053 214.582 34.1621 215.276 34.1621C216.007 34.1621 216.644 34.291 217.188 34.5488C217.74 34.7995 218.205 35.1683 218.585 35.6553C218.972 36.1351 219.276 36.7152 219.498 37.3955C219.72 38.0758 219.874 38.8457 219.96 39.7051V40.6934C219.881 41.5456 219.727 42.3118 219.498 42.9922C219.276 43.6725 218.972 44.2526 218.585 44.7324C218.205 45.2122 217.74 45.5811 217.188 45.8389C216.637 46.0895 215.993 46.2148 215.255 46.2148C214.575 46.2148 213.951 46.068 213.386 45.7744C212.827 45.4808 212.344 45.069 211.936 44.5391C211.535 44.0091 211.223 43.3861 211.001 42.6699C210.786 41.9466 210.679 41.1624 210.679 40.3174ZM212.677 40.0918V40.3174C212.677 40.8975 212.734 41.4417 212.849 41.9502C212.97 42.4587 213.157 42.9062 213.407 43.293C213.658 43.6797 213.977 43.984 214.363 44.2061C214.75 44.4209 215.212 44.5283 215.749 44.5283C216.408 44.5283 216.949 44.3887 217.371 44.1094C217.801 43.8301 218.145 43.4613 218.402 43.0029C218.66 42.5446 218.861 42.0469 219.004 41.5098V38.9209C218.918 38.527 218.793 38.1475 218.628 37.7822C218.47 37.4098 218.263 37.0804 218.005 36.7939C217.754 36.5003 217.443 36.2676 217.07 36.0957C216.705 35.9238 216.272 35.8379 215.771 35.8379C215.226 35.8379 214.757 35.9525 214.363 36.1816C213.977 36.4036 213.658 36.7116 213.407 37.1055C213.157 37.4922 212.97 37.9434 212.849 38.459C212.734 38.9674 212.677 39.5117 212.677 40.0918ZM228.414 46.2148C227.605 46.2148 226.871 46.0788 226.212 45.8066C225.56 45.5273 224.998 45.137 224.525 44.6357C224.06 44.1344 223.702 43.54 223.451 42.8525C223.201 42.165 223.075 41.4131 223.075 40.5967V40.1455C223.075 39.2002 223.215 38.3587 223.494 37.6211C223.773 36.8763 224.153 36.2461 224.633 35.7305C225.113 35.2148 225.657 34.8245 226.266 34.5596C226.874 34.2946 227.505 34.1621 228.156 34.1621C228.987 34.1621 229.703 34.3053 230.305 34.5918C230.913 34.8783 231.411 35.2793 231.798 35.7949C232.185 36.3034 232.471 36.9049 232.657 37.5996C232.843 38.2871 232.937 39.0391 232.937 39.8555V40.7471H224.257V39.125H230.949V38.9746C230.921 38.459 230.813 37.9577 230.627 37.4707C230.448 36.9837 230.161 36.5827 229.768 36.2676C229.374 35.9525 228.837 35.7949 228.156 35.7949C227.705 35.7949 227.29 35.8916 226.91 36.085C226.531 36.2712 226.205 36.5505 225.933 36.9229C225.66 37.2952 225.449 37.75 225.299 38.2871C225.148 38.8242 225.073 39.4437 225.073 40.1455V40.5967C225.073 41.1481 225.148 41.6673 225.299 42.1543C225.456 42.6341 225.682 43.0566 225.976 43.4219C226.276 43.7871 226.638 44.0736 227.061 44.2812C227.49 44.4889 227.977 44.5928 228.521 44.5928C229.223 44.5928 229.818 44.4495 230.305 44.1631C230.792 43.8766 231.218 43.4935 231.583 43.0137L232.786 43.9697C232.535 44.3493 232.217 44.7109 231.83 45.0547C231.443 45.3984 230.967 45.6777 230.401 45.8926C229.843 46.1074 229.18 46.2148 228.414 46.2148ZM237.244 36.2031V46H235.257V34.377H237.19L237.244 36.2031ZM240.875 34.3125L240.864 36.1602C240.7 36.1243 240.542 36.1029 240.392 36.0957C240.248 36.0814 240.084 36.0742 239.897 36.0742C239.439 36.0742 239.035 36.1458 238.684 36.2891C238.333 36.4323 238.035 36.6328 237.792 36.8906C237.549 37.1484 237.355 37.4564 237.212 37.8145C237.076 38.1654 236.986 38.5521 236.943 38.9746L236.385 39.2969C236.385 38.5951 236.453 37.9362 236.589 37.3203C236.732 36.7044 236.951 36.1602 237.244 35.6875C237.538 35.2077 237.91 34.8353 238.361 34.5703C238.82 34.2982 239.364 34.1621 239.994 34.1621C240.137 34.1621 240.302 34.18 240.488 34.2158C240.674 34.2445 240.803 34.2767 240.875 34.3125ZM244.699 36.8584V46H242.712V34.377H244.592L244.699 36.8584ZM244.227 39.748L243.399 39.7158C243.407 38.9209 243.525 38.1868 243.754 37.5137C243.983 36.8333 244.305 36.2425 244.721 35.7412C245.136 35.2399 245.63 34.8532 246.203 34.5811C246.783 34.3018 247.424 34.1621 248.126 34.1621C248.699 34.1621 249.215 34.2409 249.673 34.3984C250.131 34.5488 250.521 34.7923 250.844 35.1289C251.173 35.4655 251.424 35.9023 251.596 36.4395C251.768 36.9694 251.854 37.6175 251.854 38.3838V46H249.855V38.3623C249.855 37.7536 249.766 37.2666 249.587 36.9014C249.408 36.529 249.146 36.2604 248.803 36.0957C248.459 35.9238 248.036 35.8379 247.535 35.8379C247.041 35.8379 246.59 35.9417 246.182 36.1494C245.781 36.3571 245.433 36.6436 245.14 37.0088C244.853 37.374 244.628 37.793 244.463 38.2656C244.305 38.7311 244.227 39.2253 244.227 39.748ZM259.695 46.2148C258.886 46.2148 258.152 46.0788 257.493 45.8066C256.841 45.5273 256.279 45.137 255.807 44.6357C255.341 44.1344 254.983 43.54 254.732 42.8525C254.482 42.165 254.356 41.4131 254.356 40.5967V40.1455C254.356 39.2002 254.496 38.3587 254.775 37.6211C255.055 36.8763 255.434 36.2461 255.914 35.7305C256.394 35.2148 256.938 34.8245 257.547 34.5596C258.156 34.2946 258.786 34.1621 259.438 34.1621C260.268 34.1621 260.984 34.3053 261.586 34.5918C262.195 34.8783 262.692 35.2793 263.079 35.7949C263.466 36.3034 263.752 36.9049 263.938 37.5996C264.125 38.2871 264.218 39.0391 264.218 39.8555V40.7471H255.538V39.125H262.23V38.9746C262.202 38.459 262.094 37.9577 261.908 37.4707C261.729 36.9837 261.443 36.5827 261.049 36.2676C260.655 35.9525 260.118 35.7949 259.438 35.7949C258.986 35.7949 258.571 35.8916 258.191 36.085C257.812 36.2712 257.486 36.5505 257.214 36.9229C256.942 37.2952 256.73 37.75 256.58 38.2871C256.43 38.8242 256.354 39.4437 256.354 40.1455V40.5967C256.354 41.1481 256.43 41.6673 256.58 42.1543C256.738 42.6341 256.963 43.0566 257.257 43.4219C257.558 43.7871 257.919 44.0736 258.342 44.2812C258.771 44.4889 259.258 44.5928 259.803 44.5928C260.505 44.5928 261.099 44.4495 261.586 44.1631C262.073 43.8766 262.499 43.4935 262.864 43.0137L264.067 43.9697C263.817 44.3493 263.498 44.7109 263.111 45.0547C262.725 45.3984 262.248 45.6777 261.683 45.8926C261.124 46.1074 260.462 46.2148 259.695 46.2148ZM271.404 34.377V35.9023H265.12V34.377H271.404ZM267.247 31.5518H269.234V43.1211C269.234 43.515 269.295 43.8122 269.417 44.0127C269.539 44.2132 269.696 44.3457 269.89 44.4102C270.083 44.4746 270.291 44.5068 270.513 44.5068C270.677 44.5068 270.849 44.4925 271.028 44.4639C271.215 44.4281 271.354 44.3994 271.447 44.3779L271.458 46C271.3 46.0501 271.093 46.0967 270.835 46.1396C270.584 46.1898 270.28 46.2148 269.922 46.2148C269.435 46.2148 268.987 46.1182 268.579 45.9248C268.171 45.7314 267.845 45.4092 267.602 44.958C267.365 44.4997 267.247 43.8838 267.247 43.1104V31.5518ZM280.589 44.0127V38.0293C280.589 37.571 280.496 37.1735 280.31 36.8369C280.131 36.4932 279.858 36.2282 279.493 36.042C279.128 35.8558 278.677 35.7627 278.14 35.7627C277.638 35.7627 277.198 35.8486 276.818 36.0205C276.446 36.1924 276.152 36.418 275.938 36.6973C275.73 36.9766 275.626 37.2773 275.626 37.5996H273.639C273.639 37.1842 273.746 36.7725 273.961 36.3643C274.176 35.9561 274.484 35.5872 274.885 35.2578C275.293 34.9212 275.78 34.6562 276.346 34.4629C276.919 34.2624 277.556 34.1621 278.258 34.1621C279.103 34.1621 279.848 34.3053 280.492 34.5918C281.144 34.8783 281.652 35.3115 282.018 35.8916C282.39 36.4645 282.576 37.1842 282.576 38.0508V43.4648C282.576 43.8516 282.608 44.2633 282.673 44.7002C282.744 45.137 282.848 45.513 282.984 45.8281V46H280.911C280.811 45.7708 280.732 45.4665 280.675 45.0869C280.618 44.7002 280.589 44.3421 280.589 44.0127ZM280.933 38.9531L280.954 40.3496H278.945C278.38 40.3496 277.875 40.3962 277.431 40.4893C276.987 40.5752 276.614 40.7077 276.313 40.8867C276.013 41.0658 275.784 41.2913 275.626 41.5635C275.468 41.8285 275.39 42.14 275.39 42.498C275.39 42.8633 275.472 43.1963 275.637 43.4971C275.801 43.7979 276.049 44.0378 276.378 44.2168C276.715 44.3887 277.126 44.4746 277.613 44.4746C278.222 44.4746 278.759 44.3457 279.225 44.0879C279.69 43.8301 280.059 43.515 280.331 43.1426C280.61 42.7702 280.761 42.4085 280.782 42.0576L281.631 43.0137C281.581 43.3145 281.445 43.6475 281.223 44.0127C281.001 44.3779 280.703 44.7288 280.331 45.0654C279.966 45.3949 279.529 45.6706 279.021 45.8926C278.519 46.1074 277.953 46.2148 277.323 46.2148C276.535 46.2148 275.844 46.0609 275.25 45.7529C274.663 45.445 274.204 45.0332 273.875 44.5176C273.553 43.9948 273.392 43.4111 273.392 42.7666C273.392 42.1436 273.513 41.5957 273.757 41.123C274 40.6432 274.351 40.2458 274.81 39.9307C275.268 39.6084 275.819 39.3649 276.464 39.2002C277.108 39.0355 277.828 38.9531 278.623 38.9531H280.933ZM292.47 42.917C292.47 42.6305 292.405 42.3656 292.276 42.1221C292.155 41.8714 291.9 41.6458 291.514 41.4453C291.134 41.2376 290.561 41.0586 289.795 40.9082C289.15 40.7721 288.567 40.611 288.044 40.4248C287.528 40.2386 287.088 40.013 286.723 39.748C286.365 39.4831 286.089 39.1715 285.896 38.8135C285.702 38.4554 285.605 38.0365 285.605 37.5566C285.605 37.0983 285.706 36.665 285.906 36.2568C286.114 35.8486 286.404 35.487 286.776 35.1719C287.156 34.8568 287.611 34.6097 288.141 34.4307C288.671 34.2516 289.261 34.1621 289.913 34.1621C290.844 34.1621 291.639 34.3268 292.298 34.6562C292.957 34.9857 293.462 35.4261 293.812 35.9775C294.163 36.5218 294.339 37.127 294.339 37.793H292.352C292.352 37.4707 292.255 37.1592 292.062 36.8584C291.875 36.5505 291.6 36.2962 291.234 36.0957C290.876 35.8952 290.436 35.7949 289.913 35.7949C289.362 35.7949 288.914 35.8809 288.57 36.0527C288.234 36.2174 287.987 36.4287 287.829 36.6865C287.679 36.9443 287.604 37.2165 287.604 37.5029C287.604 37.7178 287.639 37.9111 287.711 38.083C287.79 38.2477 287.926 38.4017 288.119 38.5449C288.312 38.681 288.585 38.8099 288.936 38.9316C289.286 39.0534 289.734 39.1751 290.278 39.2969C291.231 39.5117 292.015 39.7695 292.631 40.0703C293.247 40.3711 293.705 40.7399 294.006 41.1768C294.307 41.6136 294.457 42.1436 294.457 42.7666C294.457 43.2751 294.35 43.7406 294.135 44.1631C293.927 44.5856 293.623 44.9508 293.222 45.2588C292.828 45.5596 292.355 45.7959 291.804 45.9678C291.259 46.1325 290.647 46.2148 289.967 46.2148C288.943 46.2148 288.076 46.0322 287.367 45.667C286.658 45.3018 286.121 44.8291 285.756 44.249C285.391 43.6689 285.208 43.0566 285.208 42.4121H287.206C287.235 42.9564 287.392 43.3896 287.679 43.7119C287.965 44.027 288.316 44.2526 288.731 44.3887C289.147 44.5176 289.559 44.582 289.967 44.582C290.511 44.582 290.966 44.5104 291.331 44.3672C291.703 44.224 291.986 44.027 292.18 43.7764C292.373 43.5257 292.47 43.2393 292.47 42.917ZM307.348 46.2148C306.538 46.2148 305.804 46.0788 305.146 45.8066C304.494 45.5273 303.932 45.137 303.459 44.6357C302.993 44.1344 302.635 43.54 302.385 42.8525C302.134 42.165 302.009 41.4131 302.009 40.5967V40.1455C302.009 39.2002 302.148 38.3587 302.428 37.6211C302.707 36.8763 303.087 36.2461 303.566 35.7305C304.046 35.2148 304.59 34.8245 305.199 34.5596C305.808 34.2946 306.438 34.1621 307.09 34.1621C307.921 34.1621 308.637 34.3053 309.238 34.5918C309.847 34.8783 310.345 35.2793 310.731 35.7949C311.118 36.3034 311.405 36.9049 311.591 37.5996C311.777 38.2871 311.87 39.0391 311.87 39.8555V40.7471H303.19V39.125H309.883V38.9746C309.854 38.459 309.747 37.9577 309.561 37.4707C309.382 36.9837 309.095 36.5827 308.701 36.2676C308.307 35.9525 307.77 35.7949 307.09 35.7949C306.639 35.7949 306.223 35.8916 305.844 36.085C305.464 36.2712 305.138 36.5505 304.866 36.9229C304.594 37.2952 304.383 37.75 304.232 38.2871C304.082 38.8242 304.007 39.4437 304.007 40.1455V40.5967C304.007 41.1481 304.082 41.6673 304.232 42.1543C304.39 42.6341 304.616 43.0566 304.909 43.4219C305.21 43.7871 305.572 44.0736 305.994 44.2812C306.424 44.4889 306.911 44.5928 307.455 44.5928C308.157 44.5928 308.751 44.4495 309.238 44.1631C309.725 43.8766 310.151 43.4935 310.517 43.0137L311.72 43.9697C311.469 44.3493 311.15 44.7109 310.764 45.0547C310.377 45.3984 309.901 45.6777 309.335 45.8926C308.776 46.1074 308.114 46.2148 307.348 46.2148ZM324.299 44.582C324.771 44.582 325.208 44.4854 325.609 44.292C326.01 44.0986 326.34 43.8337 326.598 43.4971C326.855 43.1533 327.002 42.763 327.038 42.3262H328.929C328.893 43.0137 328.66 43.6546 328.23 44.249C327.808 44.8363 327.253 45.3125 326.565 45.6777C325.878 46.0358 325.122 46.2148 324.299 46.2148C323.425 46.2148 322.662 46.0609 322.011 45.7529C321.366 45.445 320.829 45.0225 320.399 44.4854C319.977 43.9482 319.658 43.3324 319.443 42.6377C319.236 41.9359 319.132 41.1947 319.132 40.4141V39.9629C319.132 39.1823 319.236 38.4447 319.443 37.75C319.658 37.0482 319.977 36.4287 320.399 35.8916C320.829 35.3545 321.366 34.932 322.011 34.624C322.662 34.3161 323.425 34.1621 324.299 34.1621C325.208 34.1621 326.003 34.3483 326.684 34.7207C327.364 35.0859 327.897 35.5872 328.284 36.2246C328.678 36.8548 328.893 37.571 328.929 38.373H327.038C327.002 37.8932 326.866 37.46 326.63 37.0732C326.401 36.6865 326.086 36.3786 325.685 36.1494C325.291 35.9131 324.829 35.7949 324.299 35.7949C323.69 35.7949 323.178 35.9167 322.763 36.1602C322.354 36.3965 322.029 36.7188 321.785 37.127C321.549 37.528 321.377 37.9756 321.27 38.4697C321.169 38.9567 321.119 39.4544 321.119 39.9629V40.4141C321.119 40.9225 321.169 41.4238 321.27 41.918C321.37 42.4121 321.538 42.8597 321.774 43.2607C322.018 43.6618 322.344 43.984 322.752 44.2275C323.167 44.4639 323.683 44.582 324.299 44.582ZM330.637 40.3174V40.0703C330.637 39.2324 330.758 38.4554 331.002 37.7393C331.245 37.016 331.596 36.3893 332.055 35.8594C332.513 35.3223 333.068 34.9069 333.72 34.6133C334.371 34.3125 335.102 34.1621 335.911 34.1621C336.728 34.1621 337.462 34.3125 338.113 34.6133C338.772 34.9069 339.331 35.3223 339.789 35.8594C340.255 36.3893 340.609 37.016 340.853 37.7393C341.096 38.4554 341.218 39.2324 341.218 40.0703V40.3174C341.218 41.1553 341.096 41.9323 340.853 42.6484C340.609 43.3646 340.255 43.9912 339.789 44.5283C339.331 45.0583 338.776 45.4736 338.124 45.7744C337.479 46.068 336.749 46.2148 335.933 46.2148C335.116 46.2148 334.382 46.068 333.73 45.7744C333.079 45.4736 332.52 45.0583 332.055 44.5283C331.596 43.9912 331.245 43.3646 331.002 42.6484C330.758 41.9323 330.637 41.1553 330.637 40.3174ZM332.624 40.0703V40.3174C332.624 40.8975 332.692 41.4453 332.828 41.9609C332.964 42.4694 333.168 42.9206 333.44 43.3145C333.72 43.7083 334.067 44.0199 334.482 44.249C334.898 44.471 335.381 44.582 335.933 44.582C336.477 44.582 336.953 44.471 337.361 44.249C337.777 44.0199 338.12 43.7083 338.393 43.3145C338.665 42.9206 338.869 42.4694 339.005 41.9609C339.148 41.4453 339.22 40.8975 339.22 40.3174V40.0703C339.22 39.4974 339.148 38.9567 339.005 38.4482C338.869 37.9326 338.661 37.4779 338.382 37.084C338.11 36.6829 337.766 36.3678 337.351 36.1387C336.942 35.9095 336.463 35.7949 335.911 35.7949C335.367 35.7949 334.887 35.9095 334.472 36.1387C334.063 36.3678 333.72 36.6829 333.44 37.084C333.168 37.4779 332.964 37.9326 332.828 38.4482C332.692 38.9567 332.624 39.4974 332.624 40.0703ZM345.697 36.8584V46H343.71V34.377H345.59L345.697 36.8584ZM345.225 39.748L344.397 39.7158C344.405 38.9209 344.523 38.1868 344.752 37.5137C344.981 36.8333 345.303 36.2425 345.719 35.7412C346.134 35.2399 346.628 34.8532 347.201 34.5811C347.781 34.3018 348.422 34.1621 349.124 34.1621C349.697 34.1621 350.213 34.2409 350.671 34.3984C351.129 34.5488 351.52 34.7923 351.842 35.1289C352.171 35.4655 352.422 35.9023 352.594 36.4395C352.766 36.9694 352.852 37.6175 352.852 38.3838V46H350.854V38.3623C350.854 37.7536 350.764 37.2666 350.585 36.9014C350.406 36.529 350.145 36.2604 349.801 36.0957C349.457 35.9238 349.035 35.8379 348.533 35.8379C348.039 35.8379 347.588 35.9417 347.18 36.1494C346.779 36.3571 346.431 36.6436 346.138 37.0088C345.851 37.374 345.626 37.793 345.461 38.2656C345.303 38.7311 345.225 39.2253 345.225 39.748ZM358.523 46H356.536V33.3672C356.536 32.4863 356.708 31.7415 357.052 31.1328C357.396 30.5241 357.886 30.0622 358.523 29.7471C359.161 29.432 359.916 29.2744 360.79 29.2744C361.306 29.2744 361.811 29.3389 362.305 29.4678C362.799 29.5895 363.307 29.7435 363.83 29.9297L363.497 31.6055C363.168 31.4766 362.785 31.3548 362.348 31.2402C361.918 31.1185 361.445 31.0576 360.93 31.0576C360.077 31.0576 359.462 31.251 359.082 31.6377C358.71 32.0173 358.523 32.5938 358.523 33.3672V46ZM360.897 34.377V35.9023H354.699V34.377H360.897ZM364.808 34.377V46H362.82V34.377H364.808ZM370.061 36.2031V46H368.073V34.377H370.007L370.061 36.2031ZM373.691 34.3125L373.681 36.1602C373.516 36.1243 373.358 36.1029 373.208 36.0957C373.065 36.0814 372.9 36.0742 372.714 36.0742C372.256 36.0742 371.851 36.1458 371.5 36.2891C371.149 36.4323 370.852 36.6328 370.608 36.8906C370.365 37.1484 370.172 37.4564 370.028 37.8145C369.892 38.1654 369.803 38.5521 369.76 38.9746L369.201 39.2969C369.201 38.5951 369.269 37.9362 369.405 37.3203C369.549 36.7044 369.767 36.1602 370.061 35.6875C370.354 35.2077 370.727 34.8353 371.178 34.5703C371.636 34.2982 372.18 34.1621 372.811 34.1621C372.954 34.1621 373.118 34.18 373.305 34.2158C373.491 34.2445 373.62 34.2767 373.691 34.3125ZM381.952 44.0127V38.0293C381.952 37.571 381.859 37.1735 381.673 36.8369C381.494 36.4932 381.222 36.2282 380.856 36.042C380.491 35.8558 380.04 35.7627 379.503 35.7627C379.002 35.7627 378.561 35.8486 378.182 36.0205C377.809 36.1924 377.516 36.418 377.301 36.6973C377.093 36.9766 376.989 37.2773 376.989 37.5996H375.002C375.002 37.1842 375.109 36.7725 375.324 36.3643C375.539 35.9561 375.847 35.5872 376.248 35.2578C376.656 34.9212 377.143 34.6562 377.709 34.4629C378.282 34.2624 378.919 34.1621 379.621 34.1621C380.466 34.1621 381.211 34.3053 381.855 34.5918C382.507 34.8783 383.016 35.3115 383.381 35.8916C383.753 36.4645 383.939 37.1842 383.939 38.0508V43.4648C383.939 43.8516 383.972 44.2633 384.036 44.7002C384.108 45.137 384.212 45.513 384.348 45.8281V46H382.274C382.174 45.7708 382.095 45.4665 382.038 45.0869C381.981 44.7002 381.952 44.3421 381.952 44.0127ZM382.296 38.9531L382.317 40.3496H380.309C379.743 40.3496 379.238 40.3962 378.794 40.4893C378.35 40.5752 377.978 40.7077 377.677 40.8867C377.376 41.0658 377.147 41.2913 376.989 41.5635C376.832 41.8285 376.753 42.14 376.753 42.498C376.753 42.8633 376.835 43.1963 377 43.4971C377.165 43.7979 377.412 44.0378 377.741 44.2168C378.078 44.3887 378.49 44.4746 378.977 44.4746C379.585 44.4746 380.122 44.3457 380.588 44.0879C381.053 43.8301 381.422 43.515 381.694 43.1426C381.974 42.7702 382.124 42.4085 382.146 42.0576L382.994 43.0137C382.944 43.3145 382.808 43.6475 382.586 44.0127C382.364 44.3779 382.067 44.7288 381.694 45.0654C381.329 45.3949 380.892 45.6706 380.384 45.8926C379.882 46.1074 379.317 46.2148 378.687 46.2148C377.899 46.2148 377.208 46.0609 376.613 45.7529C376.026 45.445 375.568 45.0332 375.238 44.5176C374.916 43.9948 374.755 43.4111 374.755 42.7666C374.755 42.1436 374.877 41.5957 375.12 41.123C375.364 40.6432 375.715 40.2458 376.173 39.9307C376.631 39.6084 377.183 39.3649 377.827 39.2002C378.472 39.0355 379.191 38.9531 379.986 38.9531H382.296ZM389.429 30.3594L389.289 41.585H387.495L387.345 30.3594H389.429ZM387.28 45.001C387.28 44.6787 387.377 44.4066 387.57 44.1846C387.771 43.9626 388.064 43.8516 388.451 43.8516C388.831 43.8516 389.121 43.9626 389.321 44.1846C389.529 44.4066 389.633 44.6787 389.633 45.001C389.633 45.3089 389.529 45.5739 389.321 45.7959C389.121 46.0179 388.831 46.1289 388.451 46.1289C388.064 46.1289 387.771 46.0179 387.57 45.7959C387.377 45.5739 387.28 45.3089 387.28 45.001Z" fill="#2E2E2E"/>
</g>
<g id="&#195;&#141;cones">
<rect y="8" width="60" height="60" rx="30" fill="#B8B8F3"/>
<g id="Union">
<path fill-rule="evenodd" clip-rule="evenodd" d="M29.0605 17.9683C30.0914 17.9673 31.1207 18.0699 32.1309 18.2778C32.8069 18.4174 33.2417 19.0796 33.1025 19.7554C32.9631 20.4313 32.3018 20.866 31.626 20.7271C30.7825 20.5534 29.9228 20.4664 29.0615 20.4673C21.9908 20.4673 16.2236 26.2995 16.2236 33.5298L16.2295 33.9399C16.3507 38.1415 18.3376 41.355 21.5068 43.5229C21.9164 43.8026 22.2731 44.0448 22.5488 44.2593C22.8248 44.474 23.115 44.7318 23.333 45.0728C23.5409 45.3978 23.6511 45.7341 23.7285 46.0552L23.832 46.5591V46.561L23.9316 47.1382C23.9319 47.1396 23.9314 47.1416 23.9316 47.1431L24.041 47.8022C24.1723 48.5839 24.2526 49.0553 24.3535 49.394C24.4442 49.6984 24.51 49.7422 24.5176 49.7485C24.5261 49.7557 24.5803 49.8128 24.8945 49.8521C25.2444 49.8957 25.722 49.8979 26.5137 49.8979H31.4199L32.3955 49.8911C32.6574 49.8851 32.8642 49.8739 33.0391 49.8521C33.3473 49.8135 33.4059 49.7574 33.416 49.7485L33.4668 49.6821C33.4953 49.6323 33.5349 49.5457 33.5801 49.394C33.6806 49.0566 33.7606 48.5855 33.8896 47.8052L33.8916 47.7974L34.0039 47.1372C34.0713 46.7295 34.1322 46.3592 34.207 46.0513C34.2658 45.8093 34.3436 45.5589 34.4658 45.313L34.4717 45.3013L34.5967 45.0806L34.6035 45.0688L34.6895 44.9438C34.8959 44.6616 35.1488 44.4402 35.3916 44.2524C35.6681 44.0386 36.0248 43.7991 36.4336 43.5229C39.6614 41.3391 41.7634 38.1155 41.8916 33.937L41.8975 33.5298C41.8975 32.8394 42.4573 32.2799 43.1475 32.2798C43.8378 32.2798 44.3975 32.8394 44.3975 33.5298L44.3906 34.0093C44.2418 38.9269 41.8056 42.7649 38.1982 45.3413L38.1953 45.3433L37.8359 45.5923L37.833 45.5942C37.3968 45.8889 37.1199 46.0778 36.9219 46.231L36.9209 46.23C36.7724 46.3449 36.7221 46.4013 36.7109 46.4146C36.7103 46.4156 36.7028 46.4264 36.6904 46.4585C36.6774 46.4922 36.659 46.5485 36.6367 46.6401C36.5884 46.8388 36.5428 47.1079 36.4697 47.5503C36.4694 47.5523 36.4691 47.5542 36.4688 47.5562L36.3574 48.1987C36.3569 48.2035 36.3582 48.2086 36.3574 48.2134C36.2385 48.9321 36.1314 49.5848 35.9756 50.1079C35.8098 50.6644 35.5494 51.2182 35.0312 51.6567C34.7292 51.9124 34.4014 52.0702 34.0674 52.1753V53.0259C34.0674 53.876 34.0708 54.6394 33.9883 55.2534C33.9118 55.8222 33.7464 56.4037 33.3408 56.9058L33.1514 57.1157C32.6056 57.6615 31.9389 57.8651 31.2891 57.9526C30.8287 58.0146 30.284 58.0285 29.6816 58.0317L29.0615 58.0327C28.2112 58.0327 27.4478 58.0351 26.834 57.9526C26.2653 57.8761 25.683 57.7109 25.1807 57.3052L24.9707 57.1157C24.425 56.5697 24.2222 55.9031 24.1348 55.2534C24.0522 54.6395 24.0547 53.8764 24.0547 53.0259V52.2319C23.6554 52.1312 23.2616 51.9608 22.9023 51.6567C22.3837 51.2177 22.1235 50.6634 21.958 50.1079C21.8026 49.5862 21.6956 48.9335 21.5752 48.2163C21.5749 48.2147 21.5745 48.2131 21.5742 48.2114L21.4648 47.5493C21.3908 47.108 21.3459 46.8404 21.2979 46.6411C21.2756 46.5486 21.2577 46.4925 21.2451 46.4595C21.2389 46.4433 21.2342 46.4328 21.2314 46.4272L21.2266 46.4194C21.2143 46.4052 21.1622 46.3484 21.0137 46.2329C20.8138 46.0775 20.5346 45.8858 20.0977 45.5874L20.0957 45.5854C16.3118 42.9973 13.8789 39.0691 13.7305 34.022L13.7236 33.5298C13.7236 24.9569 20.5721 17.9689 29.0605 17.9683ZM31.4199 52.3979H26.5547V53.0259C26.5547 53.9472 26.5574 54.5119 26.6123 54.9204C26.6622 55.2913 26.7342 55.3431 26.7393 55.3481L26.7559 55.3628C26.7899 55.3876 26.8885 55.4376 27.167 55.4751C27.5755 55.53 28.1407 55.5327 29.0615 55.5327L30.2012 55.5249C30.5085 55.5174 30.7519 55.5026 30.9561 55.4751C31.3265 55.4251 31.3789 55.3531 31.3838 55.3481L31.3984 55.3315C31.423 55.2973 31.4724 55.1982 31.5098 54.9204C31.5647 54.5119 31.5674 53.9472 31.5674 53.0259V52.396L31.4199 52.3979Z" fill="white"/>
<path fill-rule="evenodd" clip-rule="evenodd" d="M38.6455 17.9819C39.0877 18.0512 39.4661 18.3547 39.625 18.7837L40.1094 20.0913L40.54 21.2349C40.9104 22.1841 41.114 22.5587 41.3984 22.8433L41.5508 22.98C41.7157 23.113 41.9244 23.2371 42.2363 23.3813C42.6564 23.5757 43.2481 23.8003 44.1514 24.1343L45.4609 24.6187L45.5508 24.6558C45.9906 24.8589 46.2764 25.3016 46.2764 25.7915L46.2617 25.9849C46.2024 26.3636 45.9713 26.6952 45.6367 26.8823L45.4609 26.9634L44.1514 27.4478C43.2477 27.7819 42.6562 28.0073 42.2363 28.2017C41.925 28.3457 41.7169 28.4687 41.5527 28.6011L41.4004 28.7378C41.1146 29.0237 40.9089 29.3985 40.5391 30.3462L40.54 30.3472L40.1094 31.4907L39.625 32.7993C39.466 33.2286 39.0874 33.531 38.6455 33.6001L38.4521 33.6147C37.9297 33.6145 37.4619 33.2896 37.2803 32.7993L36.7959 31.4897C36.4618 30.5864 36.2371 29.9944 36.043 29.5747C35.8989 29.2634 35.7759 29.0553 35.6436 28.8911L35.5068 28.7397C35.2208 28.4537 34.845 28.2476 33.8965 27.8774L32.7529 27.4478L31.4443 26.9634C30.954 26.7817 30.6291 26.3141 30.6289 25.7915C30.6289 25.269 30.9536 24.8004 31.4443 24.6187L32.7539 24.1343C33.6574 23.8002 34.2491 23.5754 34.6689 23.3813C35.0843 23.1893 35.3159 23.0342 35.5049 22.8452L35.6416 22.6929C35.7746 22.528 35.8987 22.3192 36.043 22.0073C36.2373 21.5872 36.4619 20.9955 36.7959 20.0923L37.2803 18.7837C37.4618 18.2937 37.9292 17.9675 38.4521 17.9673L38.6455 17.9819ZM38.4521 22.7388C38.1814 23.3675 37.892 23.9052 37.5 24.3657L37.2725 24.6128C36.7612 25.124 36.144 25.4698 35.3994 25.7905C36.1445 26.1113 36.7619 26.4587 37.2744 26.9712C37.7855 27.4823 38.1318 28.0991 38.4521 28.8433C38.7731 28.0985 39.1205 27.4815 39.6328 26.9692L39.8789 26.7417C40.3384 26.3504 40.8757 26.0613 41.5039 25.7905C40.7596 25.4699 40.1429 25.1228 39.6309 24.6108C39.1197 24.0996 38.7728 23.4832 38.4521 22.7388Z" fill="white"/>
</g>
</g>
</g>
</svg>
