<svg width="60" height="60" viewBox="0 0 60 60" fill="none" xmlns="http://www.w3.org/2000/svg">
<g id="&#195;&#141;cones">
<rect x="2" y="2" width="56" height="56" rx="28" stroke="#A9ABBC" stroke-width="4"/>
<path id="cursor-click" d="M48.3325 36.1527L31.7414 22.6279C31.0075 22.0288 30.1133 21.6527 29.1673 21.5452C28.2212 21.4378 27.2639 21.6037 26.4114 22.0227C25.5589 22.4417 24.8479 23.0959 24.3645 23.9059C23.8811 24.7159 23.6462 25.647 23.6881 26.5863L24.7282 47.7434C24.7668 48.6549 25.0922 49.5319 25.6593 50.2523C26.2263 50.9727 27.0067 51.5006 27.8919 51.7627C28.3315 51.898 28.7893 51.9672 29.2497 51.968C29.9435 51.9672 30.6274 51.8067 31.2473 51.4992C31.8671 51.1916 32.4057 50.7456 32.8203 50.1965L36.4115 45.5047C36.7738 45.0344 37.2411 44.653 37.7772 44.3903C38.3133 44.1277 38.9036 43.9908 39.5021 43.9904H45.4614C46.3867 43.9934 47.2903 43.714 48.0485 43.1904C48.8067 42.6668 49.3824 41.9246 49.6967 41.0655C50.0111 40.2063 50.0487 39.2722 49.8045 38.3912C49.5603 37.5101 49.0462 36.7251 48.3325 36.1436V36.1527ZM46.4741 39.9169C46.4038 40.1253 46.2673 40.3057 46.0849 40.4314C45.9024 40.557 45.6838 40.6211 45.4614 40.6143H39.5021C38.3735 40.6164 37.2607 40.8755 36.2501 41.3714C35.2395 41.8673 34.3584 42.5867 33.6753 43.4736L30.0841 48.1654C29.9537 48.3445 29.7684 48.4775 29.5556 48.5446C29.3427 48.6116 29.1137 48.6092 28.9023 48.5377C28.6906 48.4797 28.5035 48.356 28.3685 48.185C28.2334 48.0139 28.1577 47.8045 28.1525 47.5877L27.1124 26.4305C27.0962 26.1479 27.165 25.8668 27.3102 25.6226C27.4554 25.3785 27.6705 25.1822 27.9285 25.0584C28.188 24.9267 28.4811 24.8736 28.771 24.9057C29.061 24.9378 29.3349 25.0538 29.5583 25.239L46.1495 38.7728C46.3204 38.9041 46.4442 39.0861 46.5026 39.2921C46.5611 39.498 46.5511 39.717 46.4741 39.9169ZM23.6813 14.1741V9.66059C23.6813 9.21169 23.8619 8.78118 24.1834 8.46376C24.5049 8.14634 24.941 7.96802 25.3957 7.96802C25.8504 7.96802 26.2865 8.14634 26.608 8.46376C26.9295 8.78118 27.1101 9.21169 27.1101 9.66059V14.1741C27.1101 14.623 26.9295 15.0535 26.608 15.3709C26.2865 15.6883 25.8504 15.8667 25.3957 15.8667C24.941 15.8667 24.5049 15.6883 24.1834 15.3709C23.8619 15.0535 23.6813 14.623 23.6813 14.1741ZM19.4638 18.7418C19.3151 19.0053 19.0975 19.2247 18.8338 19.3771C18.5701 19.5296 18.2698 19.6094 17.9642 19.6084C17.6717 19.6055 17.385 19.5278 17.1321 19.3827L12.5603 16.8642C12.3587 16.7587 12.1804 16.6145 12.036 16.4401C11.8915 16.2657 11.7838 16.0646 11.719 15.8486C11.6543 15.6326 11.634 15.406 11.6591 15.1821C11.6842 14.9582 11.7544 14.7415 11.8655 14.5447C11.9766 14.3479 12.1263 14.175 12.3059 14.0361C12.4856 13.8972 12.6915 13.7951 12.9116 13.7358C13.1318 13.6765 13.3617 13.6611 13.5879 13.6907C13.8141 13.7202 14.0321 13.794 14.229 13.9078L18.8008 16.4309C18.9986 16.5391 19.1728 16.6848 19.3133 16.8598C19.4538 17.0347 19.5578 17.2353 19.6194 17.4501C19.681 17.6649 19.699 17.8896 19.6723 18.1113C19.6456 18.333 19.5747 18.5473 19.4638 18.7418ZM17.7859 24.7019C17.989 25.1035 18.0222 25.5683 17.8781 25.9941C17.7341 26.4198 17.4246 26.7717 17.0178 26.9722L12.446 29.2289C12.2085 29.3469 11.9461 29.4079 11.6802 29.4072C11.2938 29.4077 10.9185 29.2793 10.6152 29.0427C10.312 28.8062 10.0986 28.4754 10.0096 28.1041C9.9207 27.7328 9.96145 27.3427 10.1253 26.9972C10.2891 26.6516 10.5664 26.3708 10.9122 26.2004L15.484 23.9436C15.6855 23.844 15.905 23.7846 16.1298 23.7688C16.3546 23.753 16.5804 23.7811 16.7942 23.8515C17.008 23.9219 17.2057 24.0333 17.3758 24.1792C17.546 24.3251 17.6853 24.5027 17.7859 24.7019ZM33.0055 17.1869C32.8024 16.7853 32.7692 16.3204 32.9133 15.8947C33.0573 15.4689 33.3668 15.1171 33.7736 14.9166L38.3454 12.6598C38.7517 12.4634 39.2201 12.4336 39.6487 12.5767C40.0772 12.7198 40.4311 13.0244 40.6331 13.4239C40.8352 13.8235 40.8691 14.2858 40.7275 14.7099C40.5858 15.1341 40.2801 15.4858 39.8769 15.6884L35.3051 17.9451C35.0676 18.0631 34.8052 18.1242 34.5393 18.1234C34.2209 18.1229 33.9088 18.0351 33.638 17.8697C33.3672 17.7043 33.1482 17.4679 33.0055 17.1869Z" fill="#A9ABBC"/>
</g>
</svg>
