<svg width="112" height="112" viewBox="0 0 112 112" fill="none" xmlns="http://www.w3.org/2000/svg">
<g id="Icone=Gloss&#195;&#161;rio, Estado=Default">
<g id="Group 1194">
<g id="Ellipse 102" filter="url(#filter0_d_4175_3909)">
<circle cx="48" cy="64" r="42" fill="url(#paint0_linear_4175_3909)"/>
<circle cx="48" cy="64" r="39" stroke="url(#paint1_linear_4175_3909)" stroke-width="6"/>
</g>
<g id="Union">
<path d="M53.6873 53.3226C54.3311 53.3226 54.8531 53.8374 54.8531 54.4724C54.8529 55.1072 54.331 55.6222 53.6873 55.6223H43.3118C42.6681 55.6223 42.1462 55.1072 42.146 54.4724C42.146 53.8374 42.6679 53.3226 43.3118 53.3226H53.6873Z" fill="#708B3F"/>
<path fill-rule="evenodd" clip-rule="evenodd" d="M61.2959 46.5C61.8072 46.5 62.3001 46.6755 62.6921 46.9923L62.8543 47.1369L63.0009 47.2959C63.322 47.6825 63.5 48.1688 63.5 48.673V71.0398C63.5 71.1234 63.4889 71.2047 63.4718 71.2832C63.4891 71.3621 63.5 71.4436 63.5 71.5276C63.5 72.1625 62.9778 72.6772 62.3342 72.6774H38.124C37.5161 72.6775 36.9327 72.9155 36.5028 73.3394C36.073 73.7634 35.8317 74.3389 35.8316 74.9384C35.8316 75.538 36.0731 76.1134 36.5028 76.5374C36.9327 76.9614 37.516 77.2003 38.124 77.2003H62.3342C62.9778 77.2006 63.5 77.7153 63.5 78.3502C63.4999 78.985 62.9778 79.4998 62.3342 79.5H38.124C36.8977 79.4999 35.7215 79.0194 34.8543 78.1642C33.9872 77.3089 33.5 76.148 33.5 74.9384V51.0607C33.5001 49.8511 33.9872 48.6911 34.8543 47.8358C35.7215 46.9805 36.8977 46.5001 38.124 46.5H61.2959ZM38.124 48.7997C37.516 48.7997 36.9327 49.0377 36.5028 49.4617C36.0729 49.8857 35.8317 50.461 35.8316 51.0607V70.9787C36.524 70.5889 37.3128 70.3778 38.124 70.3777H61.1684V48.7997H38.124Z" fill="#708B3F"/>
</g>
</g>
</g>
<defs>
<filter id="filter0_d_4175_3909" x="4" y="0" width="108" height="108" filterUnits="userSpaceOnUse" color-interpolation-filters="sRGB">
<feFlood flood-opacity="0" result="BackgroundImageFix"/>
<feColorMatrix in="SourceAlpha" type="matrix" values="0 0 0 0 0 0 0 0 0 0 0 0 0 0 0 0 0 0 127 0" result="hardAlpha"/>
<feOffset dx="10" dy="-10"/>
<feGaussianBlur stdDeviation="6"/>
<feComposite in2="hardAlpha" operator="out"/>
<feColorMatrix type="matrix" values="0 0 0 0 0 0 0 0 0 0 0 0 0 0 0 0 0 0 0.1 0"/>
<feBlend mode="normal" in2="BackgroundImageFix" result="effect1_dropShadow_4175_3909"/>
<feBlend mode="normal" in="SourceGraphic" in2="effect1_dropShadow_4175_3909" result="shape"/>
</filter>
<linearGradient id="paint0_linear_4175_3909" x1="6" y1="64" x2="90" y2="64" gradientUnits="userSpaceOnUse">
<stop stop-color="#F2F2F2"/>
<stop offset="1" stop-color="#F2F2F2"/>
</linearGradient>
<linearGradient id="paint1_linear_4175_3909" x1="6" y1="64" x2="90" y2="64" gradientUnits="userSpaceOnUse">
<stop offset="0.139423" stop-color="white"/>
<stop offset="1" stop-color="#E2E1E1"/>
</linearGradient>
</defs>
</svg>
