<svg width="119" height="120" viewBox="0 0 119 120" fill="none" xmlns="http://www.w3.org/2000/svg">
<g id="Icone=Gloss&#195;&#161;rio, Estado=Hover">
<g id="Group 1194">
<g id="Ellipse 102" filter="url(#filter0_d_4175_3919)">
<circle cx="50" cy="70" r="48" fill="url(#paint0_linear_4175_3919)"/>
<circle cx="50" cy="70" r="45" stroke="url(#paint1_linear_4175_3919)" stroke-width="6"/>
</g>
<g id="Union">
<path d="M56.4999 57.7973C57.2357 57.7973 57.8323 58.3856 57.8323 59.1113C57.832 59.8368 57.2356 60.4254 56.4999 60.4254H44.6422C43.9065 60.4254 43.3101 59.8369 43.3098 59.1113C43.3098 58.3856 43.9063 57.7973 44.6422 57.7973H56.4999Z" fill="#CC7465"/>
<path fill-rule="evenodd" clip-rule="evenodd" d="M65.1955 50C65.7797 50 66.3431 50.2006 66.7912 50.5626L66.9764 50.7279L67.144 50.9096C67.511 51.3515 67.7144 51.9072 67.7144 52.4834V78.0455C67.7144 78.141 67.7018 78.234 67.6822 78.3237C67.702 78.4138 67.7144 78.507 67.7144 78.6029C67.7144 79.3285 67.1177 79.9168 66.3821 79.917H38.7133C38.0185 79.9171 37.3518 80.1892 36.8605 80.6737C36.3693 81.1582 36.0935 81.8159 36.0934 82.5011C36.0934 83.1863 36.3694 83.8438 36.8605 84.3285C37.3518 84.813 38.0185 85.086 38.7133 85.0861H66.3821C67.1177 85.0864 67.7144 85.6746 67.7144 86.4002C67.7143 87.1257 67.1176 87.714 66.3821 87.7143H38.7133C37.3119 87.7142 35.9675 87.165 34.9765 86.1877C33.9855 85.2102 33.4287 83.8834 33.4287 82.5011V55.2122C33.4288 53.8299 33.9855 52.5041 34.9765 51.5266C35.9675 50.5491 37.3118 50.0001 38.7133 50H65.1955ZM38.7133 52.6282C38.0185 52.6283 37.3518 52.9002 36.8605 53.3848C36.3692 53.8694 36.0935 54.5269 36.0934 55.2122V77.9757C36.8847 77.5301 37.7862 77.2889 38.7133 77.2889H65.0498V52.6282H38.7133Z" fill="#CC7465"/>
</g>
</g>
</g>
<defs>
<filter id="filter0_d_4175_3919" x="0" y="0" width="120" height="120" filterUnits="userSpaceOnUse" color-interpolation-filters="sRGB">
<feFlood flood-opacity="0" result="BackgroundImageFix"/>
<feColorMatrix in="SourceAlpha" type="matrix" values="0 0 0 0 0 0 0 0 0 0 0 0 0 0 0 0 0 0 127 0" result="hardAlpha"/>
<feOffset dx="10" dy="-10"/>
<feGaussianBlur stdDeviation="6"/>
<feComposite in2="hardAlpha" operator="out"/>
<feColorMatrix type="matrix" values="0 0 0 0 0 0 0 0 0 0 0 0 0 0 0 0 0 0 0.1 0"/>
<feBlend mode="normal" in2="BackgroundImageFix" result="effect1_dropShadow_4175_3919"/>
<feBlend mode="normal" in="SourceGraphic" in2="effect1_dropShadow_4175_3919" result="shape"/>
</filter>
<linearGradient id="paint0_linear_4175_3919" x1="2" y1="70" x2="98" y2="70" gradientUnits="userSpaceOnUse">
<stop stop-color="#F2F2F2"/>
<stop offset="1" stop-color="#F2F2F2"/>
</linearGradient>
<linearGradient id="paint1_linear_4175_3919" x1="2" y1="70" x2="98" y2="70" gradientUnits="userSpaceOnUse">
<stop offset="0.139423" stop-color="white"/>
<stop offset="1" stop-color="#E2E1E1"/>
</linearGradient>
</defs>
</svg>
