<svg width="97" height="105" viewBox="0 0 97 105" fill="none" xmlns="http://www.w3.org/2000/svg">
<g id="Icone">
<path id="Vector" d="M81.9043 28.0112H92.8652V40.0769H81.9043V28.0112Z" fill="#F3CA40"/>
<g id="Group">
<g id="Group_2">
<g id="Group_3">
<path id="Vector_2" d="M81.9035 0.69549V85.7834H9.31444C4.18057 85.7834 0.0214844 89.8992 0.0214844 95.0764V9.96678C0.0214844 4.83291 4.20223 0.673828 9.31444 0.673828L81.9035 0.69549Z" fill="#E09A8E"/>
<path id="Vector_3" d="M81.9045 88.5127V101.661H9.31551C5.69797 101.661 2.75195 98.6938 2.75195 95.0979C2.75195 91.4804 5.71963 88.5344 9.31551 88.5344H81.9045V88.5127Z" fill="#CDBADB"/>
<path id="Vector_4" d="M81.9045 88.5127V101.661H9.31551C5.69797 101.661 2.75195 98.6938 2.75195 95.0979C2.75195 91.4804 5.71963 88.5344 9.31551 88.5344H81.9045V88.5127Z" fill="#F1F1F4"/>
<path id="Vector_5" d="M18.9975 0.69549V85.7834H9.29295C4.15908 85.7834 0 89.8992 0 95.0764V9.96678C0 4.83291 4.18075 0.673828 9.29295 0.673828L18.9975 0.69549Z" fill="#CC7465"/>
<path id="Vector_6" d="M2.7294 95.0761C2.7294 98.6937 5.69708 101.64 9.29296 101.64H81.9036V104.326H9.29296C4.15909 104.326 0 100.145 0 95.0328C0 89.9206 4.18075 85.7399 9.29296 85.7399H81.9036V88.4693H9.29296C5.69708 88.5126 2.7294 91.4803 2.7294 95.0761Z" fill="#803F34"/>
</g>
</g>
<g id="Group_4">
<path id="Vector_7" d="M63.536 33.253H32.8627C31.5847 33.253 30.5449 32.2133 30.5449 30.9352V16.8333C30.5449 15.5553 31.5847 14.5155 32.8627 14.5155H63.5577C64.8357 14.5155 65.8755 15.5553 65.8755 16.8333V30.9569C65.8538 32.2133 64.814 33.253 63.536 33.253Z" fill="#A9ABBC"/>
<path id="Vector_8" d="M33.8809 17.8517H62.5179V29.9174H33.8809V17.8517Z" fill="#F1F1F4"/>
</g>
<path id="Vector_9" d="M63.254 42.4596H33.6855C32.3642 42.4596 31.3027 41.3982 31.3027 40.0768C31.3027 38.7554 32.3642 37.694 33.6855 37.694H63.254C64.5754 37.694 65.6368 38.7554 65.6368 40.0768C65.6368 41.3765 64.5754 42.4596 63.254 42.4596Z" fill="#70728F"/>
</g>
<path id="Vector_10" d="M81.9043 17.8517H96.5694V29.9174H81.9043V17.8517Z" fill="#CC7465"/>
<path id="Vector_11" d="M81.9043 53.7889H96.5694V65.8546H81.9043V53.7889Z" fill="#B4D775"/>
</g>
</svg>
