<svg width="60" height="60" viewBox="0 0 60 60" fill="none" xmlns="http://www.w3.org/2000/svg">
<g id="&#195;&#141;cones">
<rect width="60" height="60" rx="30" fill="#CC7465"/>
<path id="Subtract" fill-rule="evenodd" clip-rule="evenodd" d="M35.1142 9.08782C35.631 8.57102 36.4684 8.57096 36.9853 9.08782C38.4826 10.5851 48.212 20.3146 49.912 22.0146C50.4288 22.5315 50.4288 23.3689 49.912 23.8857C49.3951 24.4025 48.5575 24.4024 48.0409 23.8857L46.8222 22.6669L38.5849 30.9052L38.5087 30.9804L38.5292 31.0849C38.9234 33.076 38.8671 35.1433 38.3583 37.1132C37.7577 39.4382 36.5377 41.5695 34.831 43.2763C34.5725 43.5346 34.2342 43.6639 33.8954 43.664C33.5563 43.664 33.2174 43.5348 32.9589 43.2763L25.4188 35.7353L25.2772 35.5947L25.1356 35.7353L13.9589 46.912C13.442 47.4289 12.6046 47.4288 12.0878 46.912C11.571 46.3952 11.571 45.5577 12.0878 45.0409L23.4062 33.7226L15.7235 26.0409C15.2067 25.5241 15.2067 24.6857 15.7235 24.1689C17.4304 22.462 19.5617 21.2421 21.8866 20.6415C23.8566 20.1327 25.9239 20.0765 27.9149 20.4706L28.0194 20.4911L36.3329 12.1777L35.1142 10.9589C34.5974 10.4421 34.5974 9.6047 35.1142 9.08782ZM29.369 22.8847C29.035 23.2186 28.548 23.3493 28.0917 23.2275C24.8573 22.3638 21.413 23.0526 18.7724 25.0224L18.5868 25.1611L18.7509 25.3241L26.2147 32.789L26.2167 32.79L33.8397 40.413L33.9774 40.2275C35.9473 37.5869 36.6361 34.1427 35.7724 30.9081C35.6506 30.4518 35.7813 29.9648 36.1151 29.6308L44.8095 20.9374L44.9501 20.7958L44.8095 20.6542L38.204 14.0497L29.369 22.8847Z" fill="white"/>
</g>
</svg>
