<svg width="42" height="42" viewBox="0 0 42 42" fill="none" xmlns="http://www.w3.org/2000/svg">
<g id="Localiza&#195;&#167;&#195;&#163;o=Unidade, A&#195;&#167;&#195;&#163;o= Avan&#195;&#167;ar, Estado=Hover">
<path id="Vector" d="M21 42C32.598 42 42 32.598 42 21C42 9.40202 32.598 0 21 0C9.40202 0 0 9.40202 0 21C0 32.598 9.40202 42 21 42Z" fill="#CC7465"/>
<path id="Vector_2" d="M15.75 11.7252C15.05 12.4252 15.05 13.4752 15.75 14.1752L22.575 21.0002L15.75 27.8252C15.05 28.5252 15.05 29.5752 15.75 30.2752C16.45 30.9752 17.5 30.9752 18.2 30.2752L26.25 22.2252C26.95 21.5252 26.95 20.4752 26.25 19.7752L18.2 11.7252C17.5 11.0252 16.45 11.0252 15.75 11.7252Z" fill="white"/>
</g>
</svg>
