<svg width="42" height="42" viewBox="0 0 42 42" fill="none" xmlns="http://www.w3.org/2000/svg">
<g id="Localiza&#195;&#167;&#195;&#163;o=Unidade, A&#195;&#167;&#195;&#163;o= Fechar, Estado=Default">
<path id="Vector" d="M21 42C32.598 42 42 32.598 42 21C42 9.40202 32.598 0 21 0C9.40202 0 0 9.40202 0 21C0 32.598 9.40202 42 21 42Z" fill="#803F34"/>
<path id="Vector_2" d="M23.758 21.5L30.5321 14.7259C31.9837 13.2743 29.7257 11.0163 28.2741 12.4679L21.5 19.242L14.7259 12.4679C13.2743 11.0163 11.0163 13.2743 12.4679 14.7259L19.242 21.5L12.4679 28.2741C11.0163 29.7257 13.2743 31.9837 14.7259 30.5321L21.5 23.758L28.2741 30.5321C29.7257 31.9837 31.9837 29.7257 30.5321 28.2741L23.758 21.5Z" fill="white"/>
</g>
</svg>
