<svg width="29" height="24" viewBox="0 0 29 24" fill="none" xmlns="http://www.w3.org/2000/svg">
<g id="Hamb_icon">
<g id="Vector">
<path d="M27.5 0.5C28.3284 0.500001 29 1.17157 29 2C29 2.82843 28.3284 3.5 27.5 3.5H1.5C0.671573 3.5 0 2.82843 0 2C0 1.17157 0.671573 0.5 1.5 0.5H27.5Z" fill="white"/>
<path d="M27.5 10.5C28.3284 10.5 29 11.1716 29 12C29 12.8284 28.3284 13.5 27.5 13.5H1.5C0.671573 13.5 0 12.8284 0 12C0 11.1716 0.671573 10.5 1.5 10.5H27.5Z" fill="white"/>
<path d="M27.5 20.5C28.3284 20.5 29 21.1716 29 22C29 22.8284 28.3284 23.5 27.5 23.5H1.5C0.671573 23.5 0 22.8284 0 22C0 21.1716 0.671573 20.5 1.5 20.5H27.5Z" fill="white"/>
</g>
</g>
</svg>
