<svg width="60" height="61" viewBox="0 0 60 61" fill="none" xmlns="http://www.w3.org/2000/svg">
<g id="&#195;&#141;cones">
<rect y="0.5" width="60" height="60" rx="30" fill="#CC7465"/>
<g id="Union">
<path fill-rule="evenodd" clip-rule="evenodd" d="M29.0596 10.4683C30.0904 10.4673 31.1197 10.5699 32.1299 10.7778C32.8059 10.9174 33.2407 11.5796 33.1016 12.2554C32.9621 12.9313 32.3008 13.366 31.625 13.2271C30.7816 13.0534 29.9218 12.9664 29.0605 12.9673C21.9898 12.9673 16.2227 18.7995 16.2227 26.0298L16.2285 26.4399C16.3497 30.6415 18.3366 33.855 21.5059 36.0229C21.9154 36.3026 22.2721 36.5448 22.5479 36.7593C22.8239 36.974 23.114 37.2318 23.332 37.5728C23.5399 37.8978 23.6502 38.2341 23.7275 38.5552L23.8311 39.0591V39.061L23.9307 39.6382C23.9309 39.6396 23.9304 39.6416 23.9307 39.6431L24.04 40.3022C24.1713 41.0839 24.2517 41.5553 24.3525 41.894C24.4432 42.1984 24.5091 42.2422 24.5166 42.2485C24.5251 42.2557 24.5794 42.3128 24.8936 42.3521C25.2434 42.3957 25.721 42.3979 26.5127 42.3979H31.4189L32.3945 42.3911C32.6565 42.3851 32.8632 42.3739 33.0381 42.3521C33.3464 42.3135 33.4049 42.2574 33.415 42.2485L33.4658 42.1821C33.4943 42.1323 33.5339 42.0457 33.5791 41.894C33.6796 41.5566 33.7596 41.0855 33.8887 40.3052L33.8906 40.2974L34.0029 39.6372C34.0703 39.2295 34.1313 38.8592 34.2061 38.5513C34.2649 38.3093 34.3426 38.0589 34.4648 37.813L34.4707 37.8013L34.5957 37.5806L34.6025 37.5688L34.6885 37.4438C34.8949 37.1616 35.1478 36.9402 35.3906 36.7524C35.6671 36.5386 36.0238 36.2991 36.4326 36.0229C39.6605 33.8391 41.7624 30.6155 41.8906 26.437L41.8965 26.0298C41.8965 25.3394 42.4563 24.7799 43.1465 24.7798C43.8368 24.7798 44.3965 25.3394 44.3965 26.0298L44.3896 26.5093C44.2408 31.4269 41.8046 35.2649 38.1973 37.8413L38.1943 37.8433L37.835 38.0923L37.832 38.0942C37.3959 38.3889 37.1189 38.5778 36.9209 38.731L36.9199 38.73C36.7714 38.8449 36.7212 38.9013 36.71 38.9146C36.7093 38.9156 36.7019 38.9264 36.6895 38.9585C36.6764 38.9922 36.658 39.0485 36.6357 39.1401C36.5875 39.3388 36.5418 39.6079 36.4688 40.0503C36.4685 40.0523 36.4681 40.0542 36.4678 40.0562L36.3564 40.6987C36.3559 40.7035 36.3572 40.7086 36.3564 40.7134C36.2376 41.4321 36.1304 42.0848 35.9746 42.6079C35.8088 43.1644 35.5484 43.7182 35.0303 44.1567C34.7282 44.4124 34.4004 44.5702 34.0664 44.6753V45.5259C34.0664 46.376 34.0699 47.1394 33.9873 47.7534C33.9108 48.3222 33.7454 48.9037 33.3398 49.4058L33.1504 49.6157C32.6046 50.1615 31.9379 50.3651 31.2881 50.4526C30.8277 50.5146 30.283 50.5285 29.6807 50.5317L29.0605 50.5327C28.2102 50.5327 27.4468 50.5351 26.833 50.4526C26.2643 50.3761 25.682 50.2109 25.1797 49.8052L24.9697 49.6157C24.424 49.0697 24.2212 48.4031 24.1338 47.7534C24.0512 47.1395 24.0537 46.3764 24.0537 45.5259V44.7319C23.6544 44.6312 23.2607 44.4608 22.9014 44.1567C22.3827 43.7177 22.1225 43.1634 21.957 42.6079C21.8016 42.0862 21.6947 41.4335 21.5742 40.7163C21.5739 40.7147 21.5735 40.7131 21.5732 40.7114L21.4639 40.0493C21.3898 39.608 21.3449 39.3404 21.2969 39.1411C21.2746 39.0486 21.2567 38.9925 21.2441 38.9595C21.238 38.9433 21.2333 38.9328 21.2305 38.9272L21.2256 38.9194C21.2133 38.9052 21.1612 38.8484 21.0127 38.7329C20.8129 38.5775 20.5336 38.3858 20.0967 38.0874L20.0947 38.0854C16.3108 35.4973 13.8779 31.5691 13.7295 26.522L13.7227 26.0298C13.7227 17.4569 20.5711 10.4689 29.0596 10.4683ZM31.4189 44.8979H26.5537V45.5259C26.5537 46.4472 26.5564 47.0119 26.6113 47.4204C26.6613 47.7913 26.7333 47.8431 26.7383 47.8481L26.7549 47.8628C26.7889 47.8876 26.8875 47.9376 27.166 47.9751C27.5745 48.03 28.1397 48.0327 29.0605 48.0327L30.2002 48.0249C30.5075 48.0174 30.7509 48.0026 30.9551 47.9751C31.3255 47.9251 31.3779 47.8531 31.3828 47.8481L31.3975 47.8315C31.422 47.7973 31.4714 47.6982 31.5088 47.4204C31.5637 47.0119 31.5664 46.4472 31.5664 45.5259V44.896L31.4189 44.8979Z" fill="white"/>
<path fill-rule="evenodd" clip-rule="evenodd" d="M38.6445 10.4819C39.0867 10.5512 39.4652 10.8547 39.624 11.2837L40.1084 12.5913L40.5391 13.7349C40.9094 14.6841 41.113 15.0587 41.3975 15.3433L41.5498 15.48C41.7147 15.613 41.9234 15.7371 42.2354 15.8813C42.6555 16.0757 43.2472 16.3003 44.1504 16.6343L45.46 17.1187L45.5498 17.1558C45.9896 17.3589 46.2754 17.8016 46.2754 18.2915L46.2607 18.4849C46.2015 18.8636 45.9703 19.1952 45.6357 19.3823L45.46 19.4634L44.1504 19.9478C43.2467 20.2819 42.6552 20.5073 42.2354 20.7017C41.9241 20.8457 41.716 20.9687 41.5518 21.1011L41.3994 21.2378C41.1136 21.5237 40.9079 21.8985 40.5381 22.8462L40.5391 22.8472L40.1084 23.9907L39.624 25.2993C39.4651 25.7286 39.0864 26.031 38.6445 26.1001L38.4512 26.1147C37.9287 26.1145 37.4609 25.7896 37.2793 25.2993L36.7949 23.9897C36.4608 23.0864 36.2362 22.4944 36.042 22.0747C35.898 21.7634 35.7749 21.5553 35.6426 21.3911L35.5059 21.2397C35.2198 20.9537 34.844 20.7476 33.8955 20.3774L32.752 19.9478L31.4434 19.4634C30.9531 19.2817 30.6281 18.8141 30.6279 18.2915C30.6279 17.769 30.9526 17.3004 31.4434 17.1187L32.7529 16.6343C33.6564 16.3002 34.2481 16.0754 34.668 15.8813C35.0834 15.6893 35.3149 15.5342 35.5039 15.3452L35.6406 15.1929C35.7737 15.028 35.8977 14.8192 36.042 14.5073C36.2363 14.0872 36.4609 13.4955 36.7949 12.5923L37.2793 11.2837C37.4608 10.7937 37.9283 10.4675 38.4512 10.4673L38.6445 10.4819ZM38.4512 15.2388C38.1804 15.8675 37.8911 16.4052 37.499 16.8657L37.2715 17.1128C36.7602 17.624 36.143 17.9698 35.3984 18.2905C36.1436 18.6113 36.7609 18.9587 37.2734 19.4712C37.7845 19.9823 38.1308 20.5991 38.4512 21.3433C38.7721 20.5985 39.1195 19.9815 39.6318 19.4692L39.8779 19.2417C40.3374 18.8504 40.8747 18.5613 41.5029 18.2905C40.7587 17.9699 40.142 17.6228 39.6299 17.1108C39.1187 16.5996 38.7718 15.9832 38.4512 15.2388Z" fill="white"/>
</g>
</g>
</svg>
