<svg width="60" height="60" viewBox="0 0 60 60" fill="none" xmlns="http://www.w3.org/2000/svg">
<g id="&#195;&#141;cones">
<rect width="60" height="60" rx="30" fill="#B4D775"/>
<g id="Union">
<path fill-rule="evenodd" clip-rule="evenodd" d="M29.0605 9.96826C30.0914 9.96725 31.1207 10.0699 32.1309 10.2778C32.8069 10.4174 33.2417 11.0796 33.1025 11.7554C32.9631 12.4313 32.3018 12.866 31.626 12.7271C30.7825 12.5534 29.9228 12.4664 29.0615 12.4673C21.9908 12.4673 16.2236 18.2995 16.2236 25.5298L16.2295 25.9399C16.3507 30.1415 18.3376 33.355 21.5068 35.5229C21.9164 35.8026 22.2731 36.0448 22.5488 36.2593C22.8248 36.474 23.115 36.7318 23.333 37.0728C23.5409 37.3978 23.6511 37.7341 23.7285 38.0552L23.832 38.5591V38.561L23.9316 39.1382C23.9319 39.1396 23.9314 39.1416 23.9316 39.1431L24.041 39.8022C24.1723 40.5839 24.2526 41.0553 24.3535 41.394C24.4442 41.6984 24.51 41.7422 24.5176 41.7485C24.5261 41.7557 24.5803 41.8128 24.8945 41.8521C25.2444 41.8957 25.722 41.8979 26.5137 41.8979H31.4199L32.3955 41.8911C32.6574 41.8851 32.8642 41.8739 33.0391 41.8521C33.3473 41.8135 33.4059 41.7574 33.416 41.7485L33.4668 41.6821C33.4953 41.6323 33.5349 41.5457 33.5801 41.394C33.6806 41.0566 33.7606 40.5855 33.8896 39.8052L33.8916 39.7974L34.0039 39.1372C34.0713 38.7295 34.1322 38.3592 34.207 38.0513C34.2658 37.8093 34.3436 37.5589 34.4658 37.313L34.4717 37.3013L34.5967 37.0806L34.6035 37.0688L34.6895 36.9438C34.8959 36.6616 35.1488 36.4402 35.3916 36.2524C35.6681 36.0386 36.0248 35.7991 36.4336 35.5229C39.6614 33.3391 41.7634 30.1155 41.8916 25.937L41.8975 25.5298C41.8975 24.8394 42.4573 24.2799 43.1475 24.2798C43.8378 24.2798 44.3975 24.8394 44.3975 25.5298L44.3906 26.0093C44.2418 30.9269 41.8056 34.7649 38.1982 37.3413L38.1953 37.3433L37.8359 37.5923L37.833 37.5942C37.3968 37.8889 37.1199 38.0778 36.9219 38.231L36.9209 38.23C36.7724 38.3449 36.7221 38.4013 36.7109 38.4146C36.7103 38.4156 36.7028 38.4264 36.6904 38.4585C36.6774 38.4922 36.659 38.5485 36.6367 38.6401C36.5884 38.8388 36.5428 39.1079 36.4697 39.5503C36.4694 39.5523 36.4691 39.5542 36.4688 39.5562L36.3574 40.1987C36.3569 40.2035 36.3582 40.2086 36.3574 40.2134C36.2385 40.9321 36.1314 41.5848 35.9756 42.1079C35.8098 42.6644 35.5494 43.2182 35.0312 43.6567C34.7292 43.9124 34.4014 44.0702 34.0674 44.1753V45.0259C34.0674 45.876 34.0708 46.6394 33.9883 47.2534C33.9118 47.8222 33.7464 48.4037 33.3408 48.9058L33.1514 49.1157C32.6056 49.6615 31.9389 49.8651 31.2891 49.9526C30.8287 50.0146 30.284 50.0285 29.6816 50.0317L29.0615 50.0327C28.2112 50.0327 27.4478 50.0351 26.834 49.9526C26.2653 49.8761 25.683 49.7109 25.1807 49.3052L24.9707 49.1157C24.425 48.5697 24.2222 47.9031 24.1348 47.2534C24.0522 46.6395 24.0547 45.8764 24.0547 45.0259V44.2319C23.6554 44.1312 23.2616 43.9608 22.9023 43.6567C22.3837 43.2177 22.1235 42.6634 21.958 42.1079C21.8026 41.5862 21.6956 40.9335 21.5752 40.2163C21.5749 40.2147 21.5745 40.2131 21.5742 40.2114L21.4648 39.5493C21.3908 39.108 21.3459 38.8404 21.2979 38.6411C21.2756 38.5486 21.2577 38.4925 21.2451 38.4595C21.2389 38.4433 21.2342 38.4328 21.2314 38.4272L21.2266 38.4194C21.2143 38.4052 21.1622 38.3484 21.0137 38.2329C20.8138 38.0775 20.5346 37.8858 20.0977 37.5874L20.0957 37.5854C16.3118 34.9973 13.8789 31.0691 13.7305 26.022L13.7236 25.5298C13.7236 16.9569 20.5721 9.96886 29.0605 9.96826ZM31.4199 44.3979H26.5547V45.0259C26.5547 45.9472 26.5574 46.5119 26.6123 46.9204C26.6622 47.2913 26.7342 47.3431 26.7393 47.3481L26.7559 47.3628C26.7899 47.3876 26.8885 47.4376 27.167 47.4751C27.5755 47.53 28.1407 47.5327 29.0615 47.5327L30.2012 47.5249C30.5085 47.5174 30.7519 47.5026 30.9561 47.4751C31.3265 47.4251 31.3789 47.3531 31.3838 47.3481L31.3984 47.3315C31.423 47.2973 31.4724 47.1982 31.5098 46.9204C31.5647 46.5119 31.5674 45.9472 31.5674 45.0259V44.396L31.4199 44.3979Z" fill="white"/>
<path fill-rule="evenodd" clip-rule="evenodd" d="M38.6455 9.98193C39.0877 10.0512 39.4661 10.3547 39.625 10.7837L40.1094 12.0913L40.54 13.2349C40.9104 14.1841 41.114 14.5587 41.3984 14.8433L41.5508 14.98C41.7157 15.113 41.9244 15.2371 42.2363 15.3813C42.6564 15.5757 43.2481 15.8003 44.1514 16.1343L45.4609 16.6187L45.5508 16.6558C45.9906 16.8589 46.2764 17.3016 46.2764 17.7915L46.2617 17.9849C46.2024 18.3636 45.9713 18.6952 45.6367 18.8823L45.4609 18.9634L44.1514 19.4478C43.2477 19.7819 42.6562 20.0073 42.2363 20.2017C41.925 20.3457 41.7169 20.4687 41.5527 20.6011L41.4004 20.7378C41.1146 21.0237 40.9089 21.3985 40.5391 22.3462L40.54 22.3472L40.1094 23.4907L39.625 24.7993C39.466 25.2286 39.0874 25.531 38.6455 25.6001L38.4521 25.6147C37.9297 25.6145 37.4619 25.2896 37.2803 24.7993L36.7959 23.4897C36.4618 22.5864 36.2371 21.9944 36.043 21.5747C35.8989 21.2634 35.7759 21.0553 35.6436 20.8911L35.5068 20.7397C35.2208 20.4537 34.845 20.2476 33.8965 19.8774L32.7529 19.4478L31.4443 18.9634C30.954 18.7817 30.6291 18.3141 30.6289 17.7915C30.6289 17.269 30.9536 16.8004 31.4443 16.6187L32.7539 16.1343C33.6574 15.8002 34.2491 15.5754 34.6689 15.3813C35.0843 15.1893 35.3159 15.0342 35.5049 14.8452L35.6416 14.6929C35.7746 14.528 35.8987 14.3192 36.043 14.0073C36.2373 13.5872 36.4619 12.9955 36.7959 12.0923L37.2803 10.7837C37.4618 10.2937 37.9292 9.9675 38.4521 9.96729L38.6455 9.98193ZM38.4521 14.7388C38.1814 15.3675 37.892 15.9052 37.5 16.3657L37.2725 16.6128C36.7612 17.124 36.144 17.4698 35.3994 17.7905C36.1445 18.1113 36.7619 18.4587 37.2744 18.9712C37.7855 19.4823 38.1318 20.0991 38.4521 20.8433C38.7731 20.0985 39.1205 19.4815 39.6328 18.9692L39.8789 18.7417C40.3384 18.3504 40.8757 18.0613 41.5039 17.7905C40.7596 17.4699 40.1429 17.1228 39.6309 16.6108C39.1197 16.0996 38.7728 15.4832 38.4521 14.7388Z" fill="white"/>
</g>
</g>
</svg>
