<svg width="67" height="66" viewBox="0 0 67 66" fill="none" xmlns="http://www.w3.org/2000/svg">
<g id="Logo Amamenta" clip-path="url(#clip0_4225_1266)">
<g id="Clip path group">
<mask id="mask0_4225_1266" style="mask-type:luminance" maskUnits="userSpaceOnUse" x="0" y="0" width="66" height="47">
<g id="uuid-f348a827-a903-4679-84b6-cab7523186e0">
<path id="Vector" d="M27.6293 8.80068C27.6293 9.73086 27.782 10.6468 28.0873 11.499C27.0967 11.9925 26.305 12.873 25.989 13.9523L25.8257 14.5132C23.7132 15.66 22.357 17.8755 22.357 20.3359C22.357 20.6838 22.3818 21.0282 22.4351 21.3619C21.3948 21.7525 20.5391 22.6188 20.2125 23.6981L19.3498 26.581C18.5651 25.9171 17.7202 25.2816 16.797 24.6816C14.6739 23.304 11.2584 21.8341 8.0418 21.8341C5.22634 21.8341 3.01797 22.9277 1.65108 25.0082C0.383615 26.9503 0.000164568 29.3113 0.543375 31.8356C1.50903 36.3162 5.063 40.3104 8.12701 42.256C10.5484 43.8466 13.481 44.759 16.158 44.759C18.6859 44.759 20.8551 43.9815 22.5167 42.4903C28.6163 45.1886 35.5218 46.6159 42.58 46.6159C49.2618 46.6159 55.9507 45.3271 61.9261 42.9022C64.6421 41.8051 66.2433 38.5352 65.4978 35.6345C64.9119 33.3623 63.0409 31.8285 60.8503 31.8285C60.1793 31.8285 59.5225 31.9741 58.887 32.251C57.7437 32.7587 56.5685 33.2273 55.3685 33.6534V27.4615L56.3945 27.4722C57.4703 27.4722 58.4432 27 59.0609 26.1798C59.6893 25.3526 59.8704 24.2733 59.5615 23.2295L56.8206 13.9523C56.4975 12.873 55.7093 11.996 54.7223 11.5025C55.0206 10.6504 55.1803 9.74154 55.1803 8.80421C55.1803 4.33425 51.5412 0.695118 47.0641 0.695118C44.9233 0.695118 42.8995 1.57205 41.4119 3.0171C39.9207 1.55785 37.8899 0.684448 35.7384 0.684448C31.2649 0.684448 27.6293 4.32363 27.6293 8.80068Z" fill="white"/>
</g>
</mask>
<g mask="url(#mask0_4225_1266)">
<g id="Group">
<path id="Vector_2" d="M66.2432 0.684448H0V46.6158H66.2432V0.684448Z" fill="url(#paint0_linear_4225_1266)"/>
</g>
</g>
</g>
<g id="Clip path group_2">
<mask id="mask1_4225_1266" style="mask-type:luminance" maskUnits="userSpaceOnUse" x="24" y="2" width="23" height="38">
<g id="uuid-7a355834-10e6-43c5-b577-5820b6ad6a99">
<path id="Vector_3" d="M29.6707 8.80068C29.6707 10.4942 30.3737 12.0244 31.4991 13.1251H29.8163C28.9997 13.1251 28.1795 13.7464 27.9487 14.5381L24.6362 25.7289C24.4267 26.4426 24.5439 27.4935 24.9025 28.1219C25.286 28.7787 26.2233 29.2403 27.0115 29.1409L27.189 29.1196C27.9842 29.0201 28.7938 28.3562 29.0494 27.6L29.479 26.3432V37.9565C29.479 38.8193 30.1819 39.5222 31.0518 39.5222H40.4284C41.2982 39.5222 42.0012 38.8193 42.0012 37.9565V26.3432L42.4308 27.6C42.6829 28.3562 43.503 29.0201 44.2877 29.1196L44.4687 29.1409C45.2676 29.2403 46.1978 28.7787 46.5812 28.1219C46.9363 27.4935 47.0534 26.4426 46.844 25.7289L43.535 14.5381C43.2971 13.7464 42.4734 13.1251 41.6604 13.1251H39.9846C41.1065 12.0244 41.813 10.4942 41.813 8.80068C41.813 5.44911 39.0863 2.72949 35.7383 2.72949C32.3903 2.72949 29.6707 5.44911 29.6707 8.80068Z" fill="white"/>
</g>
</mask>
<g mask="url(#mask1_4225_1266)">
<g id="Group_2">
<path id="Vector_4" d="M47.0534 2.72949H24.4268V39.5222H47.0534V2.72949Z" fill="url(#paint1_linear_4225_1266)"/>
</g>
</g>
</g>
<g id="Clip path group_3">
<mask id="mask2_4225_1266" style="mask-type:luminance" maskUnits="userSpaceOnUse" x="25" y="3" width="22" height="38">
<g id="uuid-a913995b-3c79-4d0e-bb91-c35b2c40980a">
<path id="Vector_5" d="M30.4836 8.80062C30.4836 11.332 32.2979 13.4658 34.7014 13.9451H29.8161C29.3652 13.9451 28.8575 14.3286 28.7261 14.7653L25.4207 25.9596C25.2751 26.4567 25.3639 27.2768 25.6089 27.7135C25.8326 28.097 26.4255 28.3881 26.9048 28.3242L27.093 28.3065C27.5758 28.2532 28.1226 27.7987 28.2752 27.3443L29.1309 24.8413C29.2125 24.5928 29.3687 24.1241 29.777 24.1241C30.299 24.1241 30.299 24.8129 30.299 25.0366V39.4405C30.299 39.8665 30.6291 40.2003 31.0516 40.2003H40.4282C40.8436 40.2003 41.1844 39.8665 41.1844 39.4405V25.0366C41.1844 24.8129 41.1844 24.1241 41.7064 24.1241C42.1147 24.1241 42.2673 24.5928 42.349 24.8413L43.2011 27.3443C43.3573 27.7987 43.9112 28.2532 44.3869 28.3065L44.5716 28.3242C45.0544 28.3917 45.6509 28.097 45.871 27.7135C46.116 27.2768 46.2083 26.4567 46.0556 25.9596L42.7502 14.7653C42.6224 14.3286 42.1147 13.9451 41.6602 13.9451H36.7749C39.175 13.4658 40.9927 11.332 40.9927 8.80062C40.9927 5.89285 38.6353 3.54248 35.7382 3.54248C32.8411 3.54248 30.4836 5.89285 30.4836 8.80062Z" fill="white"/>
</g>
</mask>
<g mask="url(#mask2_4225_1266)">
<g id="Group_3">
<path id="Vector_6" d="M46.2081 3.54248H25.2749V40.2003H46.2081V3.54248Z" fill="url(#paint2_linear_4225_1266)"/>
</g>
</g>
</g>
<path id="Vector_7" d="M6.22889 48.5065H7.02775L8.71415 52.4687H7.80884L7.45026 51.5811H5.778L5.41942 52.4687H4.5354L6.22889 48.5065ZM7.13783 50.8213L6.61234 49.5467L6.09042 50.8213H7.13783Z" fill="white"/>
<path id="Vector_8" d="M9.10718 49.4523H9.96634V49.8819C10.0125 49.8216 10.0693 49.7612 10.1226 49.6973C10.1829 49.644 10.2469 49.5908 10.3214 49.5446C10.3924 49.4985 10.4705 49.4665 10.5593 49.4381C10.648 49.4133 10.7474 49.3884 10.8504 49.3884C11.0527 49.3884 11.2267 49.4381 11.3687 49.5233C11.5143 49.5979 11.6279 49.7186 11.706 49.8748C11.8374 49.7186 11.9794 49.5979 12.1427 49.5233C12.306 49.4381 12.4871 49.3884 12.6966 49.3884C13.0161 49.3884 13.2611 49.4914 13.4422 49.676C13.6268 49.8677 13.7155 50.1447 13.7155 50.5068V52.4701H12.8599V50.7908C12.8599 50.5813 12.8138 50.4358 12.7321 50.3293C12.6433 50.2299 12.5191 50.1837 12.3558 50.1837C12.196 50.1837 12.0682 50.2299 11.9794 50.3293C11.8836 50.4358 11.8374 50.5813 11.8374 50.7908V52.4701H10.9853V50.7908C10.9853 50.5813 10.9427 50.4358 10.8504 50.3293C10.7687 50.2299 10.6445 50.1837 10.4847 50.1837C10.3214 50.1837 10.1936 50.2299 10.1013 50.3293C10.009 50.4358 9.96636 50.5813 9.96636 50.7908V52.4701H9.1072L9.10718 49.4523Z" fill="white"/>
<path id="Vector_9" d="M15.2142 52.5261C15.0687 52.5261 14.9373 52.5084 14.813 52.4693C14.6852 52.4303 14.5716 52.3664 14.4828 52.2918C14.387 52.2137 14.3124 52.1143 14.2556 52.0007C14.2059 51.88 14.1775 51.7522 14.1775 51.6066V51.5889C14.1775 51.4291 14.2095 51.2906 14.2663 51.1699C14.3231 51.035 14.4119 50.9427 14.5219 50.8681C14.6284 50.79 14.7491 50.7261 14.8982 50.6835C15.0509 50.6444 15.2142 50.6303 15.3918 50.6303C15.548 50.6303 15.6829 50.6374 15.7929 50.6622C15.9101 50.6835 16.0237 50.7119 16.1302 50.751V50.7013C16.1302 50.5237 16.077 50.3818 15.9705 50.2894C15.8604 50.2006 15.7006 50.151 15.4805 50.151C15.3172 50.151 15.1752 50.1687 15.0474 50.1935C14.9195 50.2184 14.7882 50.2575 14.6461 50.3143L14.4331 49.661C14.6 49.59 14.7739 49.5296 14.9551 49.4835C15.1361 49.4444 15.3562 49.4196 15.6083 49.4196C15.8498 49.4196 16.045 49.4444 16.2119 49.5048C16.3752 49.558 16.5172 49.6432 16.6273 49.7568C16.7373 49.8776 16.8226 50.0054 16.8722 50.1758C16.9255 50.3285 16.9504 50.5237 16.9504 50.7119V52.4693H16.1267V52.1463C16.0237 52.2599 15.8959 52.3486 15.7468 52.4196C15.6012 52.4907 15.4237 52.5261 15.2142 52.5261ZM15.4699 51.9368C15.6793 51.9368 15.8356 51.8907 15.9634 51.7913C16.0806 51.6919 16.1444 51.5676 16.1444 51.4042V51.2516C16.0663 51.2196 15.9811 51.1912 15.8888 51.177C15.7965 51.1522 15.7006 51.1451 15.5977 51.1451C15.4095 51.1451 15.2639 51.177 15.161 51.2516C15.0545 51.3226 15.0012 51.4291 15.0012 51.5569V51.5676C15.0012 51.6847 15.0474 51.777 15.1361 51.8445C15.2213 51.8978 15.3349 51.9368 15.4699 51.9368Z" fill="white"/>
<path id="Vector_10" d="M17.593 49.4523H18.4522V49.8819C18.4948 49.8216 18.5516 49.7612 18.6084 49.6973C18.6688 49.644 18.7362 49.5908 18.8072 49.5446C18.8747 49.4985 18.9563 49.4665 19.0451 49.4381C19.1339 49.4133 19.2262 49.3884 19.3362 49.3884C19.5386 49.3884 19.709 49.4381 19.851 49.5233C19.9966 49.5979 20.1138 49.7186 20.1883 49.8748C20.3197 49.7186 20.4652 49.5979 20.6286 49.5233C20.7919 49.4381 20.973 49.3884 21.1824 49.3884C21.502 49.3884 21.747 49.4914 21.928 49.676C22.1056 49.8677 22.2014 50.1447 22.2014 50.5068V52.4701H21.3422V50.7908C21.3422 50.5813 21.2961 50.4358 21.218 50.3293C21.1256 50.2299 21.0049 50.1837 20.838 50.1837C20.6818 50.1837 20.554 50.2299 20.4652 50.3293C20.3694 50.4358 20.3233 50.5813 20.3233 50.7908V52.4701H19.4711V50.7908C19.4711 50.5813 19.425 50.4358 19.3363 50.3293C19.2546 50.2299 19.1303 50.1837 18.967 50.1837C18.8108 50.1837 18.6759 50.2299 18.5907 50.3293C18.4948 50.4358 18.4522 50.5813 18.4522 50.7908V52.4701H17.593L17.593 49.4523Z" fill="white"/>
<path id="Vector_11" d="M24.2666 52.5436C24.0394 52.5436 23.8334 52.4975 23.6346 52.43C23.4465 52.3519 23.276 52.2454 23.134 52.1069C22.9956 51.9578 22.8855 51.7981 22.8074 51.617C22.7292 51.4217 22.6902 51.2122 22.6902 50.9743V50.9708C22.6902 50.7542 22.7257 50.5519 22.8003 50.3602C22.8748 50.1649 22.9742 49.998 23.1021 49.8595C23.237 49.714 23.3932 49.6004 23.5778 49.5187C23.7518 49.437 23.9577 49.3909 24.1814 49.3909C24.4299 49.3909 24.65 49.4441 24.8311 49.5293C25.0228 49.6216 25.1719 49.7459 25.2926 49.8915C25.4169 50.0442 25.5021 50.2217 25.5625 50.4134C25.6193 50.6158 25.6477 50.8217 25.6477 51.0383V51.1448C25.6477 51.1732 25.6441 51.2229 25.637 51.262H23.5423C23.5849 51.4608 23.6666 51.6063 23.7944 51.6987C23.9257 51.7981 24.082 51.8513 24.2736 51.8513C24.4192 51.8513 24.5506 51.83 24.6607 51.7839C24.7743 51.7306 24.8879 51.6418 25.0086 51.5353L25.5021 51.9756C25.3565 52.1495 25.1826 52.288 24.9767 52.391C24.7778 52.4904 24.54 52.5436 24.2666 52.5436ZM24.8169 50.7294C24.7921 50.5377 24.7246 50.3814 24.611 50.2607C24.5044 50.1471 24.3625 50.0832 24.1814 50.0832C24.0003 50.0832 23.8547 50.1471 23.7447 50.2607C23.6346 50.3743 23.5636 50.527 23.5281 50.7294H24.8169Z" fill="white"/>
<path id="Vector_12" d="M26.1672 49.4523H27.0264V49.8819C27.0726 49.8216 27.1258 49.7612 27.1826 49.6973C27.2394 49.644 27.3069 49.5908 27.3815 49.5446C27.4489 49.4985 27.527 49.4665 27.6122 49.4381C27.7046 49.4133 27.7969 49.3884 27.9069 49.3884C28.23 49.3884 28.4857 49.4985 28.6631 49.6973C28.8407 49.889 28.933 50.1695 28.933 50.521V52.4702H28.0738V50.7908C28.0738 50.5814 28.0312 50.4358 27.9389 50.3293C27.8501 50.2299 27.7223 50.1837 27.559 50.1837C27.3921 50.1837 27.2608 50.2299 27.1684 50.3293C27.069 50.4358 27.0264 50.5813 27.0264 50.7908V52.4702H26.1672L26.1672 49.4523Z" fill="white"/>
<path id="Vector_13" d="M30.5598 52.522C30.4284 52.522 30.3112 52.5078 30.2047 52.4759C30.0982 52.451 30.0059 52.4013 29.9278 52.3303C29.8497 52.2628 29.7929 52.167 29.7467 52.0534C29.7006 51.9398 29.6828 51.7907 29.6828 51.6167V50.1823H29.3242V49.4545H29.6828V48.6805H30.5384V49.4545H31.2485V50.1823H30.5384V51.4747C30.5384 51.6735 30.6307 51.7694 30.8154 51.7694C30.9645 51.7694 31.1065 51.7374 31.2379 51.6593V52.3516C31.1456 52.4013 31.0497 52.4439 30.9432 52.4759C30.826 52.5078 30.7018 52.522 30.5598 52.522Z" fill="white"/>
<path id="Vector_14" d="M32.616 52.5261C32.474 52.5261 32.3356 52.5084 32.2149 52.4693C32.0871 52.4303 31.977 52.3664 31.8811 52.2918C31.7924 52.2137 31.7178 52.1143 31.6575 52.0007C31.6113 51.88 31.5793 51.7522 31.5793 51.6066V51.5889C31.5793 51.4291 31.6113 51.2906 31.6681 51.1699C31.7284 51.035 31.8101 50.9427 31.9237 50.8681C32.0267 50.79 32.1509 50.7261 32.3001 50.6835C32.4527 50.6444 32.616 50.6303 32.7971 50.6303C32.9498 50.6303 33.0847 50.6374 33.1983 50.6622C33.3084 50.6835 33.4256 50.7119 33.5321 50.751V50.7013C33.5321 50.5237 33.4752 50.3818 33.3687 50.2894C33.2622 50.2006 33.0989 50.151 32.8823 50.151C32.7225 50.151 32.5734 50.1687 32.4492 50.1935C32.3249 50.2184 32.19 50.2575 32.0515 50.3143L31.8385 49.661C32.0019 49.59 32.1758 49.5296 32.3569 49.4835C32.538 49.4444 32.7545 49.4196 33.0101 49.4196C33.248 49.4196 33.4468 49.4444 33.6101 49.5048C33.777 49.558 33.919 49.6432 34.0291 49.7568C34.1427 49.8776 34.2279 50.0054 34.2776 50.1758C34.3309 50.3285 34.3557 50.5237 34.3557 50.7119V52.4693H33.525V52.1463C33.422 52.2599 33.2977 52.3486 33.1521 52.4196C33.0066 52.4907 32.8291 52.5261 32.616 52.5261ZM32.8752 51.9368C33.0776 51.9368 33.2409 51.8907 33.358 51.7913C33.4823 51.6919 33.5462 51.5676 33.5462 51.4042V51.2516C33.4645 51.2196 33.3865 51.1912 33.2942 51.177C33.2019 51.1522 33.1025 51.1451 32.9959 51.1451C32.8113 51.1451 32.6693 51.177 32.5628 51.2516C32.4598 51.3226 32.4066 51.4291 32.4066 51.5569V51.5676C32.4066 51.6847 32.4527 51.777 32.5379 51.8445C32.6231 51.8978 32.7368 51.9368 32.8752 51.9368Z" fill="white"/>
<path id="Vector_15" d="M64.1041 52.5261C63.9621 52.5261 63.8236 52.5084 63.7029 52.4693C63.5751 52.4303 63.465 52.3664 63.3691 52.2918C63.2804 52.2137 63.2059 52.1143 63.1455 52.0007C63.0993 51.88 63.0674 51.7522 63.0674 51.6066V51.5889C63.0674 51.4291 63.0993 51.2906 63.1561 51.1699C63.2165 51.035 63.2982 50.9427 63.4118 50.8681C63.5147 50.79 63.639 50.7261 63.7881 50.6835C63.9408 50.6444 64.1041 50.6303 64.2852 50.6303C64.4378 50.6303 64.5727 50.6374 64.6863 50.6622C64.7964 50.6835 64.9136 50.7119 65.0201 50.751V50.7013C65.0201 50.5237 64.9633 50.3818 64.8568 50.2894C64.7503 50.2006 64.5869 50.151 64.3704 50.151C64.2106 50.151 64.0615 50.1687 63.9372 50.1935C63.8129 50.2184 63.678 50.2575 63.5396 50.3143L63.3266 49.661C63.4899 49.59 63.6638 49.5296 63.8449 49.4835C64.026 49.4444 64.2425 49.4196 64.4982 49.4196C64.7361 49.4196 64.9349 49.4444 65.0982 49.5048C65.2651 49.558 65.4071 49.6432 65.5172 49.7568C65.6308 49.8776 65.716 50.0054 65.7657 50.1758C65.8189 50.3285 65.8438 50.5237 65.8438 50.7119V52.4693H65.013V52.1463C64.91 52.2599 64.7857 52.3486 64.6402 52.4196C64.4946 52.4907 64.3171 52.5261 64.1041 52.5261ZM64.3633 51.9368C64.5656 51.9368 64.729 51.8907 64.8461 51.7913C64.9704 51.6919 65.0343 51.5676 65.0343 51.4042V51.2516C64.9526 51.2196 64.8745 51.1912 64.7822 51.177C64.6899 51.1522 64.5905 51.1451 64.484 51.1451C64.2994 51.1451 64.1573 51.177 64.0508 51.2516C63.9479 51.3226 63.8946 51.4291 63.8946 51.5569V51.5676C63.8946 51.6847 63.9408 51.777 64.026 51.8445C64.1112 51.8978 64.2248 51.9368 64.3633 51.9368Z" fill="white"/>
<path id="Vector_16" d="M37.9835 52.5436C37.7598 52.5436 37.5539 52.4975 37.3551 52.43C37.1634 52.3519 36.9965 52.2454 36.8544 52.1069C36.716 51.9578 36.6059 51.7981 36.5278 51.617C36.4497 51.4217 36.4106 51.2122 36.4106 50.9743V50.9708C36.4106 50.7542 36.4462 50.5519 36.5207 50.3602C36.5953 50.1649 36.6947 49.998 36.8225 49.8595C36.961 49.714 37.1137 49.6004 37.2982 49.5187C37.4794 49.437 37.6782 49.3909 37.9019 49.3909C38.1504 49.3909 38.3705 49.4441 38.5516 49.5293C38.7433 49.6216 38.8924 49.7459 39.0131 49.8915C39.1374 50.0442 39.2226 50.2217 39.2829 50.4134C39.3398 50.6158 39.3681 50.8217 39.3681 51.0383V51.1448C39.3681 51.1732 39.3646 51.2229 39.361 51.262H37.2628C37.3054 51.4608 37.387 51.6063 37.5148 51.6987C37.6462 51.7981 37.806 51.8513 37.9977 51.8513C38.1397 51.8513 38.2711 51.83 38.3811 51.7839C38.4947 51.7306 38.6119 51.6418 38.729 51.5353L39.2226 51.9756C39.077 52.1495 38.9066 52.288 38.6971 52.391C38.4983 52.4904 38.2604 52.5436 37.9835 52.5436ZM38.5374 50.7294C38.5125 50.5377 38.4451 50.3814 38.335 50.2607C38.2249 50.1471 38.0829 50.0832 37.9019 50.0832C37.7208 50.0832 37.5752 50.1471 37.4652 50.2607C37.3551 50.3743 37.2841 50.527 37.2486 50.7294H38.5374Z" fill="white"/>
<path id="Vector_17" d="M42.9179 48.5065H43.7131L45.3996 52.4687H44.4978L44.1357 51.5811H42.467L42.1084 52.4687H41.2244L42.9179 48.5065ZM43.8268 50.8213L43.3013 49.5467L42.7759 50.8213H43.8268Z" fill="white"/>
<path id="Vector_18" d="M46.6698 48.3591H45.8142V52.4669H46.6698V48.3591Z" fill="white"/>
<path id="Vector_19" d="M47.3552 48.3591H48.257V49.1189H47.3552V48.3591ZM47.3801 49.4491H48.2393V52.4669H47.3801V49.4491Z" fill="white"/>
<path id="Vector_20" d="M48.9199 49.4523H49.7756V49.8819C49.8217 49.8216 49.8785 49.7612 49.9353 49.6973C49.9921 49.644 50.0596 49.5908 50.1306 49.5446C50.2016 49.4985 50.2832 49.4665 50.3684 49.4381C50.4607 49.4133 50.5602 49.3884 50.6632 49.3884C50.8655 49.3884 51.0359 49.4381 51.1815 49.5233C51.3235 49.5979 51.4371 49.7186 51.5152 49.8748C51.6466 49.7186 51.7957 49.5979 51.9519 49.5233C52.1188 49.4381 52.2999 49.3884 52.5058 49.3884C52.8289 49.3884 53.0739 49.4914 53.2549 49.676C53.4325 49.8677 53.5283 50.1447 53.5283 50.5068V52.4701H52.6691V50.7908C52.6691 50.5813 52.6265 50.4358 52.5413 50.3293C52.4525 50.2299 52.3283 50.1837 52.1685 50.1837C52.0087 50.1837 51.8774 50.2299 51.7886 50.3293C51.6963 50.4358 51.6502 50.5813 51.6502 50.7908V52.4701H50.798V50.7908C50.798 50.5813 50.7555 50.4358 50.6632 50.3293C50.5779 50.2299 50.4572 50.1837 50.2939 50.1837C50.1342 50.1837 50.0028 50.2299 49.914 50.3293C49.8217 50.4358 49.7756 50.5813 49.7756 50.7908V52.4701H48.9199L48.9199 49.4523Z" fill="white"/>
<path id="Vector_21" d="M55.5895 52.5436C55.3658 52.5436 55.1563 52.4975 54.961 52.43C54.7693 52.3519 54.6024 52.2454 54.4604 52.1069C54.3184 51.9578 54.2119 51.7981 54.1303 51.617C54.0557 51.4217 54.0166 51.2122 54.0166 50.9743V50.9708C54.0166 50.7542 54.0521 50.5519 54.1232 50.3602C54.1977 50.1649 54.2971 49.998 54.4285 49.8595C54.5634 49.714 54.7196 49.6004 54.9042 49.5187C55.0782 49.437 55.2841 49.3909 55.5078 49.3909C55.7563 49.3909 55.9764 49.4441 56.1575 49.5293C56.3457 49.6216 56.4983 49.7459 56.6155 49.8915C56.7362 50.0442 56.8321 50.2217 56.8854 50.4134C56.9457 50.6158 56.9776 50.8217 56.9776 51.0383C56.9776 51.0667 56.9776 51.1093 56.9705 51.1448C56.9705 51.1732 56.9705 51.2229 56.967 51.262H54.8616C54.9078 51.4608 54.993 51.6063 55.1208 51.6987C55.2486 51.7981 55.4084 51.8513 55.6001 51.8513C55.7456 51.8513 55.877 51.83 55.9871 51.7839C56.0972 51.7306 56.2179 51.6418 56.3315 51.5353L56.825 51.9756C56.683 52.1495 56.509 52.288 56.3031 52.391C56.1043 52.4904 55.8664 52.5436 55.5895 52.5436ZM56.1433 50.7294C56.1149 50.5377 56.051 50.3814 55.9374 50.2607C55.8309 50.1471 55.6853 50.0832 55.5078 50.0832C55.3232 50.0832 55.1812 50.1471 55.0711 50.2607C54.9575 50.3743 54.89 50.527 54.8545 50.7294H56.1433Z" fill="white"/>
<path id="Vector_22" d="M57.4895 49.4523H58.3487V49.8819C58.3948 49.8216 58.4517 49.7612 58.5084 49.6973C58.5653 49.644 58.6327 49.5908 58.7037 49.5446C58.7747 49.4985 58.8564 49.4665 58.938 49.4381C59.0268 49.4133 59.1227 49.3884 59.2256 49.3884C59.5558 49.3884 59.815 49.4985 59.989 49.6973C60.1665 49.889 60.2552 50.1695 60.2552 50.521V52.4702H59.3996V50.7908C59.3996 50.5814 59.357 50.4358 59.2647 50.3293C59.1795 50.2299 59.0481 50.1837 58.8848 50.1837C58.7179 50.1837 58.5901 50.2299 58.4942 50.3293C58.3948 50.4358 58.3487 50.5813 58.3487 50.7908V52.4702H57.4895V49.4523Z" fill="white"/>
<path id="Vector_23" d="M61.89 52.522C61.7551 52.522 61.6379 52.5078 61.5279 52.4759C61.4213 52.451 61.329 52.4013 61.2509 52.3303C61.1764 52.2628 61.1195 52.167 61.0734 52.0534C61.0308 51.9398 61.0059 51.7907 61.0059 51.6167V50.1823H60.6509V49.4545H61.0059V48.6805H61.8616V49.4545H62.5752V50.1823H61.8616V51.4747C61.8616 51.6735 61.961 51.7694 62.1385 51.7694C62.2912 51.7694 62.4332 51.7374 62.5645 51.6593V52.3516C62.4687 52.4013 62.3728 52.4439 62.2628 52.4759C62.1563 52.5078 62.0284 52.522 61.89 52.522Z" fill="white"/>
<path id="Vector_24" d="M4.5337 53.9844H10.7647C11.5351 53.9844 12.1742 54.0696 12.6783 54.2364C13.1825 54.4069 13.5943 54.6554 13.921 54.9856C14.1269 55.1915 14.2938 55.4294 14.418 55.7134C14.5423 56.0045 14.6062 56.3383 14.6062 56.7146V56.7537C14.6062 57.4247 14.4251 57.9501 14.0666 58.362C13.7115 58.7668 13.2215 59.0792 12.6215 59.2922C13.3458 59.4981 13.921 59.8141 14.3505 60.2331C14.773 60.6378 14.9932 61.2272 14.9932 61.994V62.026C14.9932 62.4698 14.8937 62.8816 14.7198 63.2544C14.5352 63.6308 14.2689 63.9539 13.9067 64.2308C13.5482 64.5077 13.0937 64.7243 12.5647 64.877C12.0321 65.0296 11.4108 65.1006 10.7078 65.1006H4.53369L4.5337 53.9844ZM9.77413 58.3549C10.5623 58.3549 10.9564 58.1029 10.9564 57.5916V57.5525C10.9564 57.0448 10.5587 56.7963 9.76698 56.7963H8.15512V58.3549H9.77413ZM10.0191 62.2923C10.4203 62.2923 10.7256 62.2142 10.928 62.0686C11.1374 61.9231 11.2404 61.7207 11.2404 61.4864V61.4437C11.2404 61.2094 11.141 61.0177 10.9315 60.8615C10.7398 60.7159 10.431 60.6378 10.0297 60.6378H8.15513V62.2923H10.0191Z" fill="white"/>
<path id="Vector_25" d="M16.0601 53.9827H21.4957C22.4934 53.9827 23.3135 54.0998 23.9455 54.3306C24.5881 54.5543 25.1029 54.8703 25.5005 55.2537C25.8378 55.591 26.0899 55.9745 26.2639 56.4005C26.4272 56.823 26.516 57.3165 26.516 57.8881V57.9201C26.516 58.7367 26.3207 59.4219 25.9266 59.9935C25.5325 60.5438 25.0035 60.9947 24.3254 61.3249L26.9136 65.1025H22.6745L20.5762 61.9249H19.7773V65.1025H16.0601L16.0601 53.9827ZM21.3821 59.2763C21.8259 59.2763 22.1774 59.1769 22.433 58.9923C22.6851 58.8006 22.8129 58.5307 22.8129 58.1934V58.1615C22.8129 57.7994 22.6851 57.5402 22.433 57.3627C22.1774 57.1851 21.8295 57.0964 21.4034 57.0964H19.7773V59.2763H21.3821Z" fill="white"/>
<path id="Vector_26" d="M31.6809 53.9081H35.3662L40.0563 65.1025H36.0195L35.4266 63.6077H31.5353L30.9637 65.1025H26.9944L31.6809 53.9081ZM34.5106 60.9769L33.4916 58.2751L32.4727 60.9769H34.5106Z" fill="white"/>
<path id="Vector_27" d="M45.4385 65.3154C44.3095 65.3154 43.2479 65.1556 42.268 64.8468C41.2881 64.5308 40.4431 64.055 39.7366 63.4302L41.7248 61.0691C42.3283 61.5307 42.9603 61.868 43.6278 62.0704C44.2953 62.2692 44.9592 62.3686 45.616 62.3686C45.9498 62.3686 46.1947 62.3295 46.3403 62.2479C46.493 62.152 46.5675 62.0455 46.5675 61.8999V61.8609C46.5675 61.7011 46.4574 61.5698 46.2373 61.4668C46.0207 61.3603 45.616 61.2538 45.0302 61.1331C44.3982 61.0052 43.8053 60.8597 43.2372 60.6928C42.6727 60.5224 42.1721 60.3023 41.7461 60.036C41.3129 59.7768 40.9721 59.4466 40.7236 59.0454C40.4679 58.6478 40.3401 58.1543 40.3401 57.5507V57.5187C40.3401 57.0004 40.4395 56.5069 40.649 56.0418C40.8585 55.5909 41.1567 55.2003 41.5579 54.8524C41.952 54.5222 42.4419 54.2524 43.0349 54.0607C43.6243 53.8761 44.2952 53.7731 45.055 53.7731C46.1344 53.7731 47.0858 53.908 47.8953 54.1601C48.7049 54.4121 49.4327 54.792 50.0788 55.2997L48.2717 57.817C47.7391 57.43 47.1746 57.1531 46.5888 56.9755C46.0065 56.8087 45.4491 56.7128 44.9308 56.7128C44.6538 56.7128 44.4514 56.7519 44.3201 56.8477C44.1852 56.9294 44.1213 57.043 44.1213 57.1779V57.2063C44.1213 57.2773 44.1426 57.3554 44.1852 57.4229C44.2242 57.4762 44.2988 57.5365 44.4159 57.6004C44.5295 57.6537 44.6787 57.714 44.8633 57.7602C45.055 57.817 45.3 57.8667 45.5947 57.9235C46.3083 58.0442 46.9545 58.204 47.5332 58.3815C48.1226 58.5697 48.6196 58.8004 49.035 59.0774C49.4611 59.3614 49.7842 59.6916 50.0078 60.0857C50.2315 60.4762 50.3451 60.9555 50.3451 61.5129V61.5449C50.3451 62.1271 50.2315 62.6526 49.9972 63.1142C49.7664 63.5864 49.4398 63.9769 49.0102 64.3C48.5912 64.6231 48.0728 64.8787 47.4622 65.0491C46.8515 65.2231 46.1805 65.3154 45.4385 65.3154Z" fill="white"/>
<path id="Vector_28" d="M55.1482 53.9829H51.4309V65.0992H55.1482V53.9829Z" fill="white"/>
<path id="Vector_29" d="M56.7395 53.9836H60.4532V61.9259H65.6864V65.0999H56.7395V53.9836Z" fill="white"/>
<g id="Clip path group_4">
<mask id="mask3_4225_1266" style="mask-type:luminance" maskUnits="userSpaceOnUse" x="20" y="15" width="18" height="25">
<g id="uuid-1a4741ee-6250-4c8e-9fa8-bf49e8a8238d">
<path id="Vector_30" d="M24.3946 20.3359C24.3946 21.4117 24.771 22.3951 25.3816 23.1798H23.6598C23.0065 23.1798 22.3496 23.6626 22.1721 24.291L20.6916 29.2012C20.5212 29.7621 20.6135 30.5574 20.894 31.051C21.1993 31.58 21.92 31.935 22.5556 31.8569L22.6869 31.8391C23.3047 31.7646 23.9473 31.2391 24.1461 30.6533L24.2562 30.3267V38.2618C24.2562 38.9577 24.8242 39.5222 25.5237 39.5222H32.454C33.1428 39.5222 33.7144 38.9577 33.7144 38.2618V30.3267L33.821 30.6533C34.0269 31.2391 34.6659 31.7646 35.2766 31.8391L35.415 31.8569C36.0506 31.935 36.7713 31.58 37.0766 31.051C37.3607 30.5574 37.4459 29.7621 37.279 29.2012L35.8198 24.291C35.6352 23.6626 34.9783 23.1798 34.3322 23.1798H32.5819C33.1996 22.3951 33.5724 21.4117 33.5724 20.3359C33.5724 17.8115 31.5167 15.7488 28.9853 15.7488C26.4539 15.7488 24.3946 17.8115 24.3946 20.3359Z" fill="white"/>
</g>
</mask>
<g mask="url(#mask3_4225_1266)">
<g id="Group_4">
<path id="Vector_31" d="M37.4459 15.7488H20.5212V39.5222H37.4459V15.7488Z" fill="url(#paint3_linear_4225_1266)"/>
</g>
</g>
</g>
<g id="Clip path group_5">
<mask id="mask4_4225_1266" style="mask-type:luminance" maskUnits="userSpaceOnUse" x="21" y="16" width="16" height="23">
<g id="uuid-7c659828-4fa8-449a-b927-89084904b99a">
<path id="Vector_32" d="M25.2077 20.3359C25.2077 22.104 26.4291 23.5881 28.08 23.9999H23.6598C23.3722 23.9999 23.0349 24.2485 22.9497 24.5219L21.4763 29.4356C21.3698 29.7729 21.4336 30.3516 21.6006 30.6427C21.7426 30.8842 22.1544 31.083 22.4526 31.0439L22.5876 31.0297C22.9 30.9907 23.2764 30.6818 23.3758 30.3906L24.0042 28.5444C24.0681 28.3563 24.2385 27.877 24.6503 27.948C25.0728 28.019 25.0728 28.5267 25.0728 28.722V38.2619C25.0728 38.5068 25.2752 38.7056 25.5237 38.7056H32.4541C32.692 38.7056 32.8979 38.5068 32.8979 38.2619V28.722C32.8979 28.5267 32.8979 28.019 33.324 27.948C33.7393 27.877 33.9062 28.3563 33.9666 28.5444L34.5985 30.3906C34.7015 30.6818 35.0707 30.9907 35.3796 31.0297L35.5216 31.0439C35.8199 31.083 36.2282 30.8913 36.3666 30.6427C36.5442 30.3516 36.5974 29.7729 36.498 29.4356L35.0423 24.5219C34.9536 24.2485 34.6163 23.9999 34.3323 23.9999H29.8943C31.5345 23.5881 32.7523 22.104 32.7523 20.3359C32.7523 18.259 31.0659 16.5654 28.9854 16.5654C26.9049 16.5654 25.2077 18.259 25.2077 20.3359Z" fill="white"/>
</g>
</mask>
<g mask="url(#mask4_4225_1266)">
<g id="Group_5">
<path id="Vector_33" d="M36.5973 16.5654H21.3696V38.7056H36.5973V16.5654Z" fill="url(#paint4_linear_4225_1266)"/>
</g>
</g>
</g>
<g id="Clip path group_6">
<mask id="mask5_4225_1266" style="mask-type:luminance" maskUnits="userSpaceOnUse" x="36" y="2" width="22" height="38">
<g id="uuid-81ec71bf-513d-42ca-a646-8b9acbc560f9">
<path id="Vector_34" d="M40.9929 8.80417C40.9929 10.4977 41.6923 12.0244 42.8107 13.125H41.1526C40.3255 13.125 39.4982 13.7463 39.271 14.5381L36.5301 23.8081C36.4058 24.2235 36.4662 24.646 36.697 24.9514C36.9348 25.2567 37.3076 25.4307 37.7443 25.4307H37.7549L40.8012 25.4094V37.9564C40.8012 38.8192 41.5077 39.5222 42.3705 39.5222H51.7648C52.6276 39.5222 53.327 38.8192 53.327 37.9564V25.4094L56.3839 25.4307H56.3945C56.8241 25.4307 57.2005 25.2567 57.4312 24.9514C57.6691 24.646 57.7295 24.2271 57.6052 23.8081L54.8643 14.5381C54.63 13.7463 53.8063 13.125 52.9861 13.125H51.3246C52.4429 12.0244 53.1352 10.4977 53.1352 8.80417C53.1352 5.45618 50.4121 2.73303 47.0641 2.73303C43.7196 2.73303 40.9929 5.45617 40.9929 8.80417Z" fill="white"/>
</g>
</mask>
<g mask="url(#mask5_4225_1266)">
<g id="Group_6">
<path id="Vector_35" d="M57.7295 2.73303H36.4058V39.5222H57.7295V2.73303Z" fill="url(#paint5_linear_4225_1266)"/>
</g>
</g>
</g>
<g id="Clip path group_7">
<mask id="mask6_4225_1266" style="mask-type:luminance" maskUnits="userSpaceOnUse" x="48" y="16" width="6" height="6">
<g id="uuid-925d7cee-c10c-4edb-840b-76aaae2a4229">
<path id="Vector_36" d="M48.7042 18.33C48.4699 18.9974 48.5125 19.7217 48.8214 20.3608C49.1267 20.9963 49.6628 21.4827 50.3303 21.71C50.6143 21.8094 50.9055 21.8626 51.2072 21.8626C51.3209 21.8626 51.4309 21.852 51.541 21.8342L51.6439 21.8271C52.5919 21.6709 53.3907 21.0105 53.7103 20.0839C53.9481 19.4164 53.9056 18.6921 53.5967 18.0602C53.2913 17.4211 52.7517 16.9453 52.0877 16.7039C51.8037 16.6045 51.5055 16.5583 51.2072 16.5583C50.0889 16.5583 49.077 17.2684 48.7042 18.33Z" fill="white"/>
</g>
</mask>
<g mask="url(#mask6_4225_1266)">
<g id="Group_7">
<path id="Vector_37" d="M53.948 16.5583H48.4697V21.8627H53.948V16.5583Z" fill="url(#paint6_linear_4225_1266)"/>
</g>
</g>
</g>
<g id="Clip path group_8">
<mask id="mask7_4225_1266" style="mask-type:luminance" maskUnits="userSpaceOnUse" x="39" y="19" width="11" height="4">
<g id="uuid-49cd15c0-d1c8-42b1-a36a-1b2a896aaf5e">
<path id="Vector_38" d="M41.4297 19.9738C40.9113 20.0447 40.2013 20.4885 39.9136 20.911C39.8817 20.9536 39.8711 20.9998 39.8462 21.0495L45.7079 20.6873C46.5032 20.6377 47.4192 21.1489 47.7955 21.8519L47.8878 22.0116C47.9234 22.0756 47.9518 22.1466 47.973 22.214L49.2619 22.0791C48.7577 21.7418 48.3494 21.2696 48.0831 20.7122C47.824 20.1761 47.7139 19.5938 47.7494 19.0151L41.4297 19.9738Z" fill="white"/>
</g>
</mask>
<g mask="url(#mask7_4225_1266)">
<g id="Group_8">
<path id="Vector_39" d="M49.2619 19.0151H39.8462V22.214H49.2619V19.0151Z" fill="url(#paint7_linear_4225_1266)"/>
</g>
</g>
</g>
<g id="Clip path group_9">
<mask id="mask8_4225_1266" style="mask-type:luminance" maskUnits="userSpaceOnUse" x="41" y="24" width="12" height="15">
<g id="uuid-3e8f03ed-f368-4c66-8cb7-eb3459252041">
<path id="Vector_40" d="M45.5303 25.3739L41.6213 25.4059V37.9565C41.6213 38.3755 41.9622 38.7056 42.3705 38.7056H51.7648C52.1767 38.7056 52.5069 38.3755 52.5069 37.9565V25.4059L48.6014 25.3739C48.1292 25.3633 47.547 25.1786 47.0712 24.8733C46.599 25.1751 46.0238 25.3633 45.5303 25.3739Z" fill="white"/>
</g>
</mask>
<g mask="url(#mask8_4225_1266)">
<g id="Group_9">
<path id="Vector_41" d="M52.5069 24.8733H41.6213V38.7056H52.5069V24.8733Z" fill="url(#paint8_linear_4225_1266)"/>
</g>
</g>
</g>
<g id="Clip path group_10">
<mask id="mask9_4225_1266" style="mask-type:luminance" maskUnits="userSpaceOnUse" x="37" y="3" width="20" height="22">
<g id="uuid-266e3ee5-645a-45e3-81a6-c75925b698ae">
<path id="Vector_42" d="M41.813 8.80421C41.813 11.3285 43.6024 13.4446 45.9776 13.9452H41.1526C40.6946 13.9452 40.1869 14.3286 40.0555 14.7653L37.311 24.0425C37.2578 24.2058 37.2756 24.362 37.3537 24.4579C37.4318 24.5609 37.5667 24.6177 37.7442 24.6141L45.5196 24.5573C46.0344 24.5502 46.7551 24.2094 47.064 23.833C47.341 23.4815 47.3906 22.8105 47.1634 22.3951L47.0782 22.2354C46.8545 21.8093 46.2332 21.4685 45.761 21.5004L39.3384 21.9017H39.2851C39.2638 21.9017 39.2496 21.891 39.2283 21.8874C39.207 21.8874 39.1715 21.8768 39.1502 21.8626C39.1324 21.8555 39.1076 21.8413 39.0862 21.8271C39.065 21.8093 39.0437 21.7951 39.0224 21.7809C39.0082 21.7596 38.9904 21.7418 38.9762 21.717C38.962 21.6993 38.9478 21.6744 38.9372 21.6496C38.9301 21.6247 38.923 21.5998 38.9194 21.5715C38.9159 21.5573 38.9052 21.5395 38.9052 21.5182C38.9017 21.5146 38.9123 21.5004 38.9123 21.4969C38.9123 21.4827 38.9017 21.4791 38.9052 21.465C38.9301 21.0779 39.0437 20.7229 39.239 20.4495C39.6614 19.8388 40.5668 19.2708 41.3053 19.1607L47.9019 18.1666C47.9197 18.1311 47.9268 18.0956 47.9338 18.0601C48.4274 16.6719 49.7374 15.7417 51.2073 15.7417C51.5978 15.7417 51.9849 15.7985 52.3576 15.9299C53.231 16.2423 53.9376 16.8743 54.3423 17.7051C54.7329 18.543 54.7932 19.4838 54.4843 20.3608C54.3956 20.6057 54.2748 20.8365 54.1399 21.0424L54.8465 21.0886C55.0702 21.1028 55.2441 21.2945 55.2299 21.5182C55.2157 21.7418 55.0346 21.9017 54.818 21.9017H54.7967L53.4831 21.8164C53.0642 22.1785 52.56 22.4449 52.0097 22.5691C51.9636 22.6046 51.9138 22.6188 51.857 22.6294L51.7648 22.633C51.7434 22.633 51.7221 22.633 51.7008 22.6401L48.115 23.02C48.115 23.4887 47.98 23.968 47.7172 24.3124C48.0226 24.4615 48.3457 24.5502 48.612 24.5574L56.3909 24.6141C56.5755 24.6177 56.7069 24.5609 56.7779 24.458C56.856 24.3621 56.8737 24.2058 56.8205 24.0425L54.0796 14.7653C53.9518 14.3286 53.4406 13.9452 52.9861 13.9452H48.1575C50.5328 13.4446 52.3222 11.3286 52.3222 8.80423C52.3222 5.91065 49.9611 3.55676 47.064 3.55676C44.1704 3.55676 41.813 5.91063 41.813 8.80421Z" fill="white"/>
</g>
</mask>
<g mask="url(#mask9_4225_1266)">
<g id="Group_10">
<path id="Vector_43" d="M56.8738 3.55676H37.2578V24.6177H56.8738V3.55676Z" fill="url(#paint9_linear_4225_1266)"/>
</g>
</g>
</g>
<g id="Clip path group_11">
<mask id="mask10_4225_1266" style="mask-type:luminance" maskUnits="userSpaceOnUse" x="38" y="15" width="17" height="9">
<g id="uuid-6cf85f43-562a-4337-a325-bba8dec2d711">
<path id="Vector_44" d="M50.3304 21.7099C49.6629 21.4826 49.1268 20.9963 48.8215 20.3607C48.5126 19.7216 48.47 18.9974 48.7043 18.3299C49.0771 17.2683 50.089 16.5583 51.2073 16.5583C51.5056 16.5583 51.8038 16.6044 52.0878 16.7038C52.7518 16.9452 53.2914 17.421 53.5968 18.0601C53.9057 18.692 53.9483 19.4163 53.7104 20.0838C53.3909 21.0104 52.592 21.6708 51.644 21.827L51.5411 21.8341C51.431 21.8519 51.321 21.8626 51.2073 21.8626C50.9056 21.8626 50.6145 21.8093 50.3304 21.7099ZM47.9339 18.0601C47.9268 18.0956 47.9197 18.1311 47.9019 18.1666L41.3053 19.1607C40.5669 19.2708 39.6615 19.8388 39.239 20.4495C39.0437 20.7229 38.9301 21.0779 38.9053 21.4649C38.9017 21.4791 38.9124 21.4827 38.9124 21.4969C38.9124 21.2803 39.0721 21.1028 39.2851 21.0886L39.8461 21.0495C39.871 20.9998 39.8817 20.9536 39.9136 20.9111C40.2012 20.4885 40.9112 20.0447 41.4296 19.9738L47.7493 19.0152C47.7138 19.5938 47.8239 20.1761 48.083 20.7122C48.3493 21.2696 48.7576 21.7418 49.2618 22.0791L47.973 22.2141C48.0724 22.4661 48.1221 22.7395 48.1221 23.02L51.7009 22.6401C51.7222 22.633 51.7435 22.633 51.7648 22.633L51.8571 22.6294C51.9139 22.6188 51.9636 22.6046 52.0097 22.5691C53.1352 22.3028 54.0867 21.4862 54.4844 20.3607C54.7933 19.4838 54.7329 18.543 54.3424 17.705C53.9376 16.8743 53.2311 16.2423 52.3577 15.9298C51.9849 15.7985 51.5979 15.7417 51.2073 15.7417C49.7375 15.7417 48.4274 16.6719 47.9339 18.0601Z" fill="white"/>
</g>
</mask>
<g mask="url(#mask10_4225_1266)">
<g id="Group_11">
<path id="Vector_45" d="M54.7934 15.7417H38.9019V23.02H54.7934V15.7417Z" fill="url(#paint10_linear_4225_1266)"/>
</g>
</g>
</g>
<path id="Vector_46" d="M9.24605 40.5511C12.9739 42.9973 18.9421 44.0518 22.0345 40.0185C34.1307 45.8589 48.9927 45.9512 61.1563 41.0126C62.9421 40.2919 64.0002 38.0055 63.5244 36.145C63.038 34.274 61.3125 33.4148 59.7149 34.1143C48.2648 39.1807 35.2491 40.0825 22.9719 37.0646C22.8795 32.481 19.2652 28.7176 15.6864 26.3957C12.278 24.1802 5.95835 22.1672 3.363 26.1294C0.249314 30.8727 4.86484 37.7676 9.24605 40.5511Z" fill="white"/>
<g id="Clip path group_12">
<mask id="mask11_4225_1266" style="mask-type:luminance" maskUnits="userSpaceOnUse" x="3" y="24" width="60" height="20">
<g id="uuid-b68ff136-8b01-436d-80d3-336fffa831c3">
<path id="Vector_47" d="M3.95879 26.7301C1.48062 30.7243 5.79434 37.0192 9.70336 39.5399C13.0904 41.7447 19.1758 42.9341 21.622 39.0606C21.7392 38.8654 21.9273 38.7624 22.1049 38.8192C22.1084 38.8298 22.1191 38.8298 22.1297 38.8369C34.0804 44.7377 48.8855 44.8442 60.9426 39.9411C62.2598 39.4121 63.0764 37.8109 62.7533 36.5221C62.4408 35.2191 61.1556 34.6368 59.9449 35.1765C48.2429 40.353 34.8543 41.0915 22.3995 38.0843C22.2114 38.0381 22.1084 37.7825 22.1226 37.5197C22.4706 33.3658 18.59 29.5598 15.2349 27.3976C13.3851 26.2118 10.3247 24.9656 7.76127 24.9656C6.16718 24.9656 4.75765 25.4449 3.95879 26.7301Z" fill="white"/>
</g>
</mask>
<g mask="url(#mask11_4225_1266)">
<g id="Group_12">
<path id="Vector_48" d="M63.0763 24.9656H1.48047V44.8443H63.0763V24.9656Z" fill="url(#paint11_linear_4225_1266)"/>
</g>
</g>
</g>
<g id="Clip path group_13">
<mask id="mask12_4225_1266" style="mask-type:luminance" maskUnits="userSpaceOnUse" x="4" y="25" width="15" height="15">
<g id="uuid-4b70224f-3235-4b65-bec2-b7aa619715a7">
<path id="Vector_49" d="M4.67602 27.4118C3.39788 29.4888 4.63696 34.4735 8.99683 37.4132C13.3532 40.353 17.6349 39.1104 18.4693 36.7387C19.3107 34.3706 17.3189 30.5113 13.5129 27.9444C11.4999 26.581 9.49388 25.9313 7.86068 25.9313C6.41925 25.9313 5.27601 26.439 4.67602 27.4118Z" fill="white"/>
</g>
</mask>
<g mask="url(#mask12_4225_1266)">
<g id="Group_13">
<path id="Vector_50" d="M19.3108 25.9313H3.39795V40.353H19.3108V25.9313Z" fill="url(#paint12_linear_4225_1266)"/>
</g>
</g>
</g>
</g>
<defs>
<linearGradient id="paint0_linear_4225_1266" x1="0.302808" y1="23.6495" x2="65.6831" y2="23.6495" gradientUnits="userSpaceOnUse">
<stop stop-color="#8498A2"/>
<stop offset="0.02981" stop-color="#91A2AB"/>
<stop offset="0.11488" stop-color="#B1BDC2"/>
<stop offset="0.2029" stop-color="#CAD1D4"/>
<stop offset="0.29406" stop-color="#DCE0E0"/>
<stop offset="0.39028" stop-color="#E7E9E8"/>
<stop offset="0.5" stop-color="#EBECEB"/>
<stop offset="0.60972" stop-color="#E7E9E8"/>
<stop offset="0.70594" stop-color="#DCE0E0"/>
<stop offset="0.7971" stop-color="#CAD1D4"/>
<stop offset="0.88512" stop-color="#B1BDC2"/>
<stop offset="0.97019" stop-color="#91A2AB"/>
<stop offset="1" stop-color="#8498A2"/>
</linearGradient>
<linearGradient id="paint1_linear_4225_1266" x1="24.5321" y1="21.1273" x2="46.9461" y2="21.1273" gradientUnits="userSpaceOnUse">
<stop stop-color="#036AA2"/>
<stop offset="0.19731" stop-color="#066EA6"/>
<stop offset="0.42768" stop-color="#0F7DB3"/>
<stop offset="0.67466" stop-color="#1F94C8"/>
<stop offset="0.93165" stop-color="#36B5E5"/>
<stop offset="1" stop-color="#3DBFEF"/>
</linearGradient>
<linearGradient id="paint2_linear_4225_1266" x1="35.7392" y1="40.1994" x2="35.7392" y2="3.54159" gradientUnits="userSpaceOnUse">
<stop stop-color="#0D7CBE"/>
<stop offset="0.22359" stop-color="#1081C1"/>
<stop offset="0.49129" stop-color="#1B8FCC"/>
<stop offset="0.78044" stop-color="#2CA7DD"/>
<stop offset="1" stop-color="#3DBFEF"/>
</linearGradient>
<linearGradient id="paint3_linear_4225_1266" x1="20.605" y1="27.6345" x2="37.3645" y2="27.6345" gradientUnits="userSpaceOnUse">
<stop stop-color="#8498A2"/>
<stop offset="0.15075" stop-color="#9AAAB3"/>
<stop offset="0.54479" stop-color="#D0D8DB"/>
<stop offset="0.83975" stop-color="#F2F4F5"/>
<stop offset="1" stop-color="white"/>
</linearGradient>
<linearGradient id="paint4_linear_4225_1266" x1="28.9828" y1="38.7053" x2="28.9828" y2="16.5651" gradientUnits="userSpaceOnUse">
<stop stop-color="#8498A2"/>
<stop offset="0.15075" stop-color="#9AAAB3"/>
<stop offset="0.54479" stop-color="#D0D8DB"/>
<stop offset="0.83975" stop-color="#F2F4F5"/>
<stop offset="1" stop-color="white"/>
</linearGradient>
<linearGradient id="paint5_linear_4225_1266" x1="36.4641" y1="21.1301" x2="57.6664" y2="21.1301" gradientUnits="userSpaceOnUse">
<stop stop-color="#A71E22"/>
<stop offset="0.40624" stop-color="#C44139"/>
<stop offset="1" stop-color="#F47B5F"/>
</linearGradient>
<linearGradient id="paint6_linear_4225_1266" x1="51.2051" y1="21.8606" x2="51.2051" y2="16.5562" gradientUnits="userSpaceOnUse">
<stop stop-color="#8498A2"/>
<stop offset="0.15075" stop-color="#9AAAB3"/>
<stop offset="0.54479" stop-color="#D0D8DB"/>
<stop offset="0.83975" stop-color="#F2F4F5"/>
<stop offset="1" stop-color="white"/>
</linearGradient>
<linearGradient id="paint7_linear_4225_1266" x1="44.5497" y1="22.2112" x2="44.5497" y2="19.0122" gradientUnits="userSpaceOnUse">
<stop stop-color="#8498A2"/>
<stop offset="0.15075" stop-color="#9AAAB3"/>
<stop offset="0.54479" stop-color="#D0D8DB"/>
<stop offset="0.83975" stop-color="#F2F4F5"/>
<stop offset="1" stop-color="white"/>
</linearGradient>
<linearGradient id="paint8_linear_4225_1266" x1="47.0639" y1="38.7054" x2="47.0639" y2="24.8731" gradientUnits="userSpaceOnUse">
<stop stop-color="#C2232C"/>
<stop offset="0.638" stop-color="#DF4B30"/>
<stop offset="1" stop-color="#F26533"/>
</linearGradient>
<linearGradient id="paint9_linear_4225_1266" x1="47.0628" y1="24.6167" x2="47.0628" y2="3.55563" gradientUnits="userSpaceOnUse">
<stop stop-color="#C2232C"/>
<stop offset="0.638" stop-color="#DF4B30"/>
<stop offset="1" stop-color="#F26533"/>
</linearGradient>
<linearGradient id="paint10_linear_4225_1266" x1="38.9017" y1="19.3825" x2="54.6765" y2="19.3825" gradientUnits="userSpaceOnUse">
<stop stop-color="#8498A2"/>
<stop offset="0.15075" stop-color="#9AAAB3"/>
<stop offset="0.54479" stop-color="#D0D8DB"/>
<stop offset="0.83975" stop-color="#F2F4F5"/>
<stop offset="1" stop-color="white"/>
</linearGradient>
<linearGradient id="paint11_linear_4225_1266" x1="32.2785" y1="43.4514" x2="32.2785" y2="24.9609" gradientUnits="userSpaceOnUse">
<stop stop-color="#096080"/>
<stop offset="0.12382" stop-color="#126686"/>
<stop offset="0.32742" stop-color="#2A7998"/>
<stop offset="0.58551" stop-color="#5397B5"/>
<stop offset="0.88519" stop-color="#8AC0DD"/>
<stop offset="1" stop-color="#A2D2EE"/>
</linearGradient>
<linearGradient id="paint12_linear_4225_1266" x1="11.3554" y1="39.1314" x2="11.3554" y2="25.9337" gradientUnits="userSpaceOnUse">
<stop stop-color="#A2D2EE"/>
<stop offset="0.11647" stop-color="#8AC0DD"/>
<stop offset="0.41537" stop-color="#5397B5"/>
<stop offset="0.67293" stop-color="#2A7998"/>
<stop offset="0.87623" stop-color="#126686"/>
<stop offset="1" stop-color="#096080"/>
</linearGradient>
<clipPath id="clip0_4225_1266">
<rect width="66.2432" height="64.631" fill="white" transform="translate(0 0.684448)"/>
</clipPath>
</defs>
</svg>
