<svg width="60" height="60" viewBox="0 0 60 60" fill="none" xmlns="http://www.w3.org/2000/svg">
<g id="Icone material complementar">
<rect width="60" height="60" rx="30" fill="#CC7465"/>
<g id="article">
<path id="Vector" d="M39.9996 16.2095H26.6096C23.9076 16.2095 21.7096 18.4075 21.7096 21.1095V31.5995H19.9996C17.2976 31.5995 15.0996 33.7975 15.0996 36.4995V39.5895C15.0996 41.9035 16.9796 43.7855 19.2956 43.7895C19.2966 43.7895 19.2976 43.7905 19.2986 43.7905H40.6986C43.0136 43.7905 44.8986 41.9065 44.8986 39.5905V21.1095C44.8996 18.4075 42.7016 16.2095 39.9996 16.2095ZM16.8996 39.5895V36.4995C16.8996 34.7905 18.2906 33.3995 19.9996 33.3995H21.7096V39.5705C21.7096 39.5765 21.7066 39.5815 21.7066 39.5875C21.7066 40.9125 20.6286 41.9905 19.2996 41.9905C17.9766 41.9895 16.8996 40.9135 16.8996 39.5895ZM43.0996 39.5895C43.0996 40.9135 42.0236 41.9895 40.7006 41.9895H22.7526C23.2306 41.3085 23.5096 40.4205 23.5096 39.5895V21.1095C23.5096 19.4005 24.9006 18.0095 26.6096 18.0095H39.9996C41.7086 18.0095 43.0996 19.4005 43.0996 21.1095V39.5895Z" fill="white"/>
<path id="Vector_2" d="M38.915 24.4744H27.693C27.196 24.4744 26.793 24.8774 26.793 25.3744C26.793 25.8714 27.196 26.2744 27.693 26.2744H38.915C39.412 26.2744 39.815 25.8714 39.815 25.3744C39.815 24.8774 39.412 24.4744 38.915 24.4744Z" fill="white"/>
<path id="Vector_3" d="M38.915 29.0994H27.693C27.196 29.0994 26.793 29.5024 26.793 29.9994C26.793 30.4964 27.196 30.8994 27.693 30.8994H38.915C39.412 30.8994 39.815 30.4964 39.815 29.9994C39.815 29.5024 39.412 29.0994 38.915 29.0994Z" fill="white"/>
<path id="Vector_4" d="M33.304 33.7244H27.693C27.196 33.7244 26.793 34.1274 26.793 34.6244C26.793 35.1214 27.196 35.5244 27.693 35.5244H33.304C33.801 35.5244 34.204 35.1214 34.204 34.6244C34.204 34.1274 33.801 33.7244 33.304 33.7244Z" fill="white"/>
</g>
</g>
</svg>
