<svg width="60" height="60" viewBox="0 0 60 60" fill="none" xmlns="http://www.w3.org/2000/svg">
<g id="&#195;&#141;cones">
<rect width="60" height="60" rx="30" fill="#F3CA40"/>
<g id="Union">
<path fill-rule="evenodd" clip-rule="evenodd" d="M41.3594 44.9614C43.0161 44.9614 44.3592 46.3047 44.3594 47.9614C44.3594 49.6183 43.0162 50.9614 41.3594 50.9614C39.7025 50.9614 38.3594 49.6183 38.3594 47.9614C38.3595 46.3047 39.7026 44.9614 41.3594 44.9614ZM41.3594 47.1616C40.9176 47.1616 40.5597 47.5197 40.5596 47.9614C40.5596 48.4033 40.9175 48.7612 41.3594 48.7612C41.8012 48.7612 42.1592 48.4033 42.1592 47.9614C42.159 47.5197 41.8011 47.1616 41.3594 47.1616Z" fill="white"/>
<path fill-rule="evenodd" clip-rule="evenodd" d="M33.3594 39.9614C35.5684 39.9614 37.3592 41.7524 37.3594 43.9614C37.3594 46.1706 35.5685 47.9614 33.3594 47.9614C31.1502 47.9614 29.3594 46.1706 29.3594 43.9614C29.3595 41.7524 31.1503 39.9614 33.3594 39.9614ZM33.3594 42.1616C32.3653 42.1616 31.5597 42.9674 31.5596 43.9614C31.5596 44.9555 32.3653 45.7612 33.3594 45.7612C34.3535 45.7612 35.1592 44.9555 35.1592 43.9614C35.159 42.9674 34.3534 42.1616 33.3594 42.1616Z" fill="white"/>
<path fill-rule="evenodd" clip-rule="evenodd" d="M32.6152 9.03857C37.4054 9.03857 41.6802 12.2811 42.8594 16.9976C46.9125 18.6188 49.6395 22.5247 49.6396 27.02C49.6396 32.9157 44.8488 37.7065 38.9531 37.7065C37.1109 37.7065 35.2686 37.1908 33.6475 36.2329C31.6577 38.7384 28.5618 40.2125 25.1719 40.3599C21.7083 40.3597 18.3188 38.5166 16.3291 35.5688C12.718 33.7264 10.3594 29.9678 10.3594 25.9146C10.3596 19.9453 15.2236 15.1552 21.1191 15.0815C21.7087 15.0816 22.2982 15.1553 22.8877 15.229C24.6564 11.4706 28.4147 9.03872 32.6152 9.03857ZM32.6895 11.5444C29.152 11.5444 26.0566 13.7555 24.9512 17.0718C24.73 17.7348 24.0665 18.0297 23.4033 17.8823C22.6664 17.6613 21.9293 17.5874 21.1924 17.5874C16.6971 17.6613 13.0127 21.346 13.0127 25.8413C13.0127 29.0103 14.8549 31.9581 17.8027 33.2847C18.0975 33.4321 18.2452 33.5792 18.3926 33.8003C19.8665 36.2323 22.5193 37.7065 25.2461 37.7065C28.1202 37.7065 30.7732 36.2322 32.2471 33.8003C32.3945 33.4319 32.6897 33.2846 33.1318 33.1372C33.5001 33.0636 33.8684 33.137 34.1631 33.3579C35.7106 34.3896 37.4057 34.9799 39.1006 34.98C43.5224 34.98 47.207 31.368 47.207 26.8726C47.2068 23.2617 44.9229 20.0928 41.5332 19.061C41.091 18.9136 40.7221 18.5452 40.6484 18.103C39.9114 14.3447 36.5215 11.5445 32.6895 11.5444Z" fill="white"/>
</g>
</g>
</svg>
