<svg width="42" height="42" viewBox="0 0 42 42" fill="none" xmlns="http://www.w3.org/2000/svg">
<g id="Localiza&#195;&#167;&#195;&#163;o=Unidade, A&#195;&#167;&#195;&#163;o= Voltar, Estado=Hover">
<path id="Vector" d="M21 42C32.598 42 42 32.598 42 21C42 9.40202 32.598 0 21 0C9.40202 0 0 9.40202 0 21C0 32.598 9.40202 42 21 42Z" fill="#CC7465"/>
<path id="Vector_2" d="M26.25 30.2748C26.95 29.5748 26.95 28.5248 26.25 27.8248L19.425 20.9998L26.25 14.1748C26.95 13.4748 26.95 12.4248 26.25 11.7248C25.55 11.0248 24.5 11.0248 23.8 11.7248L15.75 19.7748C15.05 20.4748 15.05 21.5248 15.75 22.2248L23.8 30.2748C24.5 30.9748 25.55 30.9748 26.25 30.2748Z" fill="white"/>
</g>
</svg>
